<svg id="Group_12" data-name="Group 12" xmlns="http://www.w3.org/2000/svg" width="1012.229" height="114.7" viewBox="0 0 1012.229 114.7">
  <g id="Rectangle_2" data-name="Rectangle 2" transform="translate(0 0)" fill="#031a61" stroke="#031a61" stroke-width="1">
    <rect width="1012.229" height="114.7" rx="16" stroke="none"/>
    <rect x="0.5" y="0.5" width="1011.229" height="113.7" rx="15.5" fill="none"/>
  </g>
  <text id="Invia_Email_Benvenuto_in_Inglese_" data-name="Invia Email “Benvenuto in Inglese”" transform="translate(154.845 75.94)" fill="#fff" font-size="50" font-family="OpenSans, Open Sans"><tspan x="0" y="0">Invia Email “Benvenuto in Inglese”</tspan></text>
  <path id="envelope-o" d="M60.616,45.461V17.486a21.441,21.441,0,0,1-2.513,2.4Q48.34,27.393,42.585,32.2q-1.859,1.567-3.023,2.441a16.755,16.755,0,0,1-3.151,1.766,9.153,9.153,0,0,1-3.735.892H32.6a9.14,9.14,0,0,1-3.734-.892,16.834,16.834,0,0,1-3.151-1.766Q24.552,33.769,22.7,32.2,16.94,27.393,7.177,19.89a21.44,21.44,0,0,1-2.513-2.4V45.463A1.183,1.183,0,0,0,5.83,46.629H59.45a1.183,1.183,0,0,0,1.166-1.166Zm0-38.286V6.283L60.6,5.81l-.109-.455-.2-.328-.328-.274-.51-.091H5.828A1.183,1.183,0,0,0,4.662,5.828q0,6.12,5.355,10.345,7.03,5.538,14.608,11.547.219.181,1.275,1.075t1.675,1.365q.62.471,1.621,1.148a9.523,9.523,0,0,0,1.84,1,4.372,4.372,0,0,0,1.567.328h.073a4.311,4.311,0,0,0,1.567-.328,9.78,9.78,0,0,0,1.84-1q1-.673,1.619-1.148T39.377,28.8q1.059-.89,1.275-1.075Q48.23,21.71,55.26,16.175a17.125,17.125,0,0,0,3.661-4.207,9.111,9.111,0,0,0,1.7-4.791Zm4.662-1.347V45.461a5.844,5.844,0,0,1-5.828,5.828H5.828a5.612,5.612,0,0,1-4.116-1.712A5.612,5.612,0,0,1,0,45.461V5.828A5.612,5.612,0,0,1,1.712,1.712,5.612,5.612,0,0,1,5.828,0H59.449a5.612,5.612,0,0,1,4.116,1.712,5.612,5.612,0,0,1,1.712,4.116Z" transform="translate(47.749 31.296)" fill="#fff"/>
</svg>
