<svg xmlns="http://www.w3.org/2000/svg" width="1168" height="115" viewBox="0 0 1168 115">
  <g id="Group_1" data-name="Group 1" transform="translate(-0.102)">
    <rect id="Rectangle_2" data-name="Rectangle 2" width="1168" height="115" rx="16" transform="translate(0.102)" fill="#fff"/>
    <path id="Rectangle_2_-_Outline" data-name="Rectangle 2 - Outline" d="M16,2A14,14,0,0,0,2,16V99a14,14,0,0,0,14,14H1152a14,14,0,0,0,14-14V16a14,14,0,0,0-14-14H16m0-2H1152a16,16,0,0,1,16,16V99a16,16,0,0,1-16,16H16A16,16,0,0,1,0,99V16A16,16,0,0,1,16,0Z" transform="translate(0.102)" fill="#5b61f9"/>
    <text id="Il_contatto_si_è_iscritto_alla_lista_Newsletter_" data-name="Il contatto si è iscritto alla lista “Newsletter”" transform="translate(129.102 76)" fill="#707070" font-size="50" font-family="OpenSans, Open Sans"><tspan x="0" y="0">Il contatto si è iscritto alla lista “Newsletter”</tspan></text>
    <path id="user" d="M54.42,54.038a12.319,12.319,0,0,1-2.658,7.951,7.963,7.963,0,0,1-6.4,3.316H9.056a7.959,7.959,0,0,1-6.4-3.316A12.332,12.332,0,0,1,0,54.038a61.166,61.166,0,0,1,.361-6.824A36.65,36.65,0,0,1,1.7,40.75a21.5,21.5,0,0,1,2.487-5.569,11.911,11.911,0,0,1,4-3.784,11.029,11.029,0,0,1,5.72-1.466A18.374,18.374,0,0,0,27.21,35.373a18.374,18.374,0,0,0,13.308-5.442A11.038,11.038,0,0,1,46.236,31.4a11.911,11.911,0,0,1,4,3.784,21.5,21.5,0,0,1,2.487,5.569,36.649,36.649,0,0,1,1.339,6.463,61.166,61.166,0,0,1,.361,6.824ZM43.536,16.326a15.725,15.725,0,0,1-4.784,11.543A15.738,15.738,0,0,1,27.21,32.652a15.72,15.72,0,0,1-11.543-4.784,15.733,15.733,0,0,1-4.784-11.543A15.733,15.733,0,0,1,15.668,4.784,15.72,15.72,0,0,1,27.21,0,15.738,15.738,0,0,1,38.753,4.784,15.725,15.725,0,0,1,43.536,16.326Z" transform="translate(37.278 26.456)" fill="#6f6f6f"/>
  </g>
</svg>
