<svg xmlns="http://www.w3.org/2000/svg" width="1017.229" height="114.7" viewBox="0 0 1017.229 114.7">
  <g id="Group_157" data-name="Group 157" transform="translate(-20)">
    <g id="Rectangle_2" data-name="Rectangle 2" transform="translate(20 0)" fill="#075e54" stroke="#075e54" stroke-width="1">
      <rect width="1017.229" height="114.7" rx="16" stroke="none"/>
      <rect x="0.5" y="0.5" width="1016.229" height="113.7" rx="15.5" fill="none"/>
    </g>
    <g id="Group_159" data-name="Group 159" transform="translate(9.317 0.41)">
      <text id="Invia_Whatsapp_Offerta_benvenuto_" data-name="Invia Whatsapp “Offerta benvenuto”" transform="translate(154.845 75.94)" fill="#fff" font-size="50" font-family="OpenSans, Open Sans"><tspan x="0" y="0">Invia Whatsapp “Offerta benvenuto”</tspan></text>
      <g id="whatsapp-fill" transform="translate(46.749 19.443)">
        <path id="Path_51" data-name="Path 51" d="M0,0H75V75H0Z" fill="none"/>
        <path id="Path_52" data-name="Path 52" d="M2.012,63.157,6.146,47.966A30.565,30.565,0,1,1,17.2,59.014ZM21.543,18.231a2.939,2.939,0,0,0-1.134.306,3.954,3.954,0,0,0-.9.7,6.815,6.815,0,0,0-.8.936A8.345,8.345,0,0,0,16.984,25.3a10.7,10.7,0,0,0,1.009,4.321,29.211,29.211,0,0,0,6.027,8.385c.654.651,1.293,1.306,1.981,1.914a28.891,28.891,0,0,0,11.742,6.256l1.74.266a16.628,16.628,0,0,0,1.7-.04,6.085,6.085,0,0,0,2.547-.706c.508-.269.746-.4,1.171-.673,0,0,.131-.086.382-.275a7.016,7.016,0,0,0,1.009-.881,3.509,3.509,0,0,0,.642-.923A8.516,8.516,0,0,0,47.51,40.7a6,6,0,0,0,.043-1.141,1.044,1.044,0,0,0-.581-.81l-1.78-.8s-2.66-1.159-4.284-1.9a1.523,1.523,0,0,0-.541-.125,1.474,1.474,0,0,0-1.156.388v-.006a36.824,36.824,0,0,0-2.431,2.853,1.07,1.07,0,0,1-1.125.4,4.33,4.33,0,0,1-.584-.2c-.379-.159-.511-.22-.771-.333l-.015-.006a18.378,18.378,0,0,1-4.8-3.058c-.385-.336-.743-.7-1.11-1.058a19.252,19.252,0,0,1-3.119-3.877l-.18-.29a2.823,2.823,0,0,1-.312-.627.98.98,0,0,1,.187-.81s.743-.813,1.089-1.254a13.394,13.394,0,0,0,.8-1.141,1.851,1.851,0,0,0,.284-1.639q-1.284-3.137-2.654-6.241a1.549,1.549,0,0,0-1.2-.761c-.165-.018-.33-.037-.5-.049a10.35,10.35,0,0,0-1.232.012Z" transform="translate(11.837 4.919)" fill="#fff"/>
      </g>
    </g>
  </g>
</svg>
