<svg xmlns="http://www.w3.org/2000/svg" width="1078" height="114" viewBox="0 0 1078 114">
  <g id="Group_5" data-name="Group 5" transform="translate(0.115 -0.357)">
    <g id="Rectangle_2" data-name="Rectangle 2" transform="translate(-0.115 0.357)" fill="#5b61f9" stroke="#5b61f9" stroke-width="1">
      <rect width="1078" height="114" rx="16" stroke="none"/>
      <rect x="0.5" y="0.5" width="1077" height="113" rx="15.5" fill="none"/>
    </g>
    <text id="Dividi_contatto:_se_ha_il_TAG:_Italiano_" data-name="Dividi contatto: se ha il TAG: “Italiano”" transform="translate(142.885 76.357)" fill="#fff" font-size="50" font-family="OpenSans, Open Sans"><tspan x="0" y="0">Dividi contatto: se ha il TAG: “Italiano”</tspan></text>
    <path id="Union_1" data-name="Union 1" d="M5.314,58.18a1.321,1.321,0,0,1-.641-.827L.034,36.945a1.239,1.239,0,0,1,.5-1.334,1.232,1.232,0,0,1,1.4-.08l7.857,4.487L32.084,1.532C32.273,1.208,32.873.09,33.206,0a.122.122,0,0,1,.09.012.188.188,0,0,1,.185.214l3.1,5.334c.7,1.169,1.4,2.349,1.839,3.168L56.58,40.02l7.856-4.485a1.186,1.186,0,0,1,1.4.078,1.283,1.283,0,0,1,.533,1.313l-4.5,20.328a1.27,1.27,0,0,1-.606.808,1.33,1.33,0,0,1-1.042.133L40.032,51.966a1.252,1.252,0,0,1-.92-1.094,1.205,1.205,0,0,1,.633-1.241L47.6,45.147,33.017,20.117,18.77,45.144l7.857,4.487a1.157,1.157,0,0,1,.632,1.239,1.3,1.3,0,0,1-.883,1.114L6.321,58.294a1.5,1.5,0,0,1-.383.052A1.244,1.244,0,0,1,5.314,58.18Z" transform="translate(39.622 28.177)" fill="#fff"/>
  </g>
</svg>
