<svg xmlns="http://www.w3.org/2000/svg" width="24.611" height="19.338" viewBox="0 0 24.611 19.338">
  <path id="envelope" d="M24.611,6.235v10.9a2.2,2.2,0,0,1-2.2,2.2H2.2a2.116,2.116,0,0,1-1.552-.645A2.117,2.117,0,0,1,0,17.14V6.235a7.3,7.3,0,0,0,1.387,1.2q4.971,3.379,6.825,4.738.783.577,1.27.9a7.843,7.843,0,0,0,1.3.659,3.958,3.958,0,0,0,1.511.336h.027a3.958,3.958,0,0,0,1.511-.336,7.843,7.843,0,0,0,1.3-.659q.487-.323,1.272-.9,2.335-1.689,6.839-4.738a7.559,7.559,0,0,0,1.373-1.2Zm0-4.038a3.63,3.63,0,0,1-.673,2.073,6.53,6.53,0,0,1-1.676,1.689Q17.1,9.545,15.835,10.424q-.137.1-.584.419t-.742.522q-.3.2-.714.446a4.133,4.133,0,0,1-.79.371,2.2,2.2,0,0,1-.686.124h-.027a2.178,2.178,0,0,1-.686-.124,4.189,4.189,0,0,1-.79-.371q-.419-.247-.714-.446t-.742-.522q-.446-.322-.584-.419-1.25-.879-3.6-2.506T2.362,5.961A6.812,6.812,0,0,1,.755,4.375,3.212,3.212,0,0,1,0,2.5,2.772,2.772,0,0,1,.57.714,1.959,1.959,0,0,1,2.2,0H22.413a2.123,2.123,0,0,1,1.545.645A2.1,2.1,0,0,1,24.61,2.2Z" fill="#031a61"/>
</svg>
