<svg xmlns="http://www.w3.org/2000/svg" width="24" height="24" viewBox="0 0 24 24">
  <path id="check-square" d="M10.7,18.3,20.3,8.7a.982.982,0,0,0,0-1.407L18.7,5.7a.982.982,0,0,0-1.407,0L10,13,6.7,9.7A.982.982,0,0,0,5.3,9.7L3.7,11.3a.982.982,0,0,0,0,1.407L9.3,18.3a.982.982,0,0,0,1.407,0ZM24,4.5v15A4.507,4.507,0,0,1,19.5,24H4.5a4.336,4.336,0,0,1-3.18-1.32A4.331,4.331,0,0,1,0,19.5V4.5A4.336,4.336,0,0,1,1.32,1.32,4.331,4.331,0,0,1,4.5,0h15a4.336,4.336,0,0,1,3.18,1.32A4.331,4.331,0,0,1,24,4.5Z" fill="#031a61"/>
</svg>
