<svg xmlns="http://www.w3.org/2000/svg" xmlns:xlink="http://www.w3.org/1999/xlink" width="400" height="400" viewBox="0 0 400 400">
  <defs>
    <clipPath id="clip-support-icon">
      <rect width="400" height="400"/>
    </clipPath>
  </defs>
  <g id="support-icon" clip-path="url(#clip-support-icon)">
    <g id="Group_10" data-name="Group 10" transform="translate(-1017.317 -2158.286)">
      <g id="customer-service-fill" transform="translate(1036.492 2171)" opacity="0.498">
        <path id="Path_7" data-name="Path 7" d="M0,0H390.286V390.286H0Z" fill="none"/>
        <path id="Path_8" data-name="Path 8" d="M327.238,245.961A97.6,97.6,0,0,1,250.6,341.256l-10.375-31.125a65.1,65.1,0,0,0,45.794-31.678H245.929A32.524,32.524,0,0,1,213.4,245.929V180.881a32.524,32.524,0,0,1,32.524-32.524h47.778a130.112,130.112,0,0,0-258.174,0H83.31a32.524,32.524,0,0,1,32.524,32.524v65.048A32.524,32.524,0,0,1,83.31,278.453H34.524A32.524,32.524,0,0,1,2,245.929v-81.31a162.619,162.619,0,1,1,325.238,0Z" transform="translate(30.524 30.524)" fill="#5b61f9"/>
      </g>
      <g id="customer-service-line" transform="translate(1007.856 2157)">
        <path id="Path_9" data-name="Path 9" d="M0,0H390.286V390.286H0Z" fill="none"/>
        <path id="Path_10" data-name="Path 10" d="M327.238,245.961A97.6,97.6,0,0,1,250.6,341.256l-10.375-31.125a65.1,65.1,0,0,0,45.794-31.678H245.929A32.524,32.524,0,0,1,213.4,245.929V180.881a32.524,32.524,0,0,1,32.524-32.524h47.778a130.112,130.112,0,0,0-258.174,0H83.31a32.524,32.524,0,0,1,32.524,32.524v65.048A32.524,32.524,0,0,1,83.31,278.453H34.524A32.524,32.524,0,0,1,2,245.929v-81.31a162.619,162.619,0,1,1,325.238,0Zm-32.524-.033V180.881H245.929v65.048ZM34.524,180.881v65.048H83.31V180.881Z" transform="translate(30.524 30.524)" fill="#031a61"/>
      </g>
    </g>
  </g>
</svg>
