<svg xmlns="http://www.w3.org/2000/svg" xmlns:xlink="http://www.w3.org/1999/xlink" width="400" height="400" viewBox="0 0 400 400">
  <defs>
    <clipPath id="clip-whatsapp-icon">
      <rect width="400" height="400"/>
    </clipPath>
  </defs>
  <g id="whatsapp-icon" clip-path="url(#clip-whatsapp-icon)">
    <g id="Group_1" data-name="Group 1" transform="translate(-216.021 -870)">
      <g id="whatsapp-fill" transform="translate(245.117 879.714)" opacity="0.498">
        <path id="Path_35" data-name="Path 35" d="M0,0H390.286V390.286H0Z" fill="none"/>
        <path id="Path_36" data-name="Path 36" d="M2.065,327.239l21.986-80.789A162.546,162.546,0,1,1,82.822,305.2Z" transform="translate(30.524 30.524)" fill="#5b61f9"/>
      </g>
      <g id="whatsapp-line" transform="translate(216.021 865.767)">
        <path id="Path_37" data-name="Path 37" d="M0,0H390.286V390.286H0Z" fill="none"/>
        <path id="Path_38" data-name="Path 38" d="M87.424,270.224,99.2,277.1a130.052,130.052,0,1,0-47.046-47.046l6.863,11.774L48.4,280.876l39.029-10.652ZM2.065,327.239l21.986-80.789A162.546,162.546,0,1,1,82.822,305.2ZM105.93,88.318a55.074,55.074,0,0,1,6.554-.065c.878.065,1.756.163,2.634.26,2.586.293,5.431,1.87,6.391,4.049q7.269,16.49,14.115,33.174c1.008,2.472.407,5.643-1.512,8.733a71.231,71.231,0,0,1-4.277,6.049c-1.838,2.358-5.789,6.684-5.789,6.684a5.214,5.214,0,0,0-.992,4.309,14.388,14.388,0,0,0,1.659,3.334l.959,1.545a103.018,103.018,0,0,0,16.587,20.62c1.951,1.886,3.854,3.822,5.9,5.627A97.728,97.728,0,0,0,173.694,198.9l.081.033c1.382.6,2.082.927,4.1,1.789a23.364,23.364,0,0,0,3.106,1.073,5.692,5.692,0,0,0,5.968-2.114c11.774-14.262,12.847-15.189,12.944-15.189v.033a7.838,7.838,0,0,1,6.147-2.065,8.419,8.419,0,0,1,2.878.65c8.635,3.952,22.767,10.115,22.767,10.115l9.464,4.244a5.479,5.479,0,0,1,3.09,4.309,31.393,31.393,0,0,1-.211,6.066,45.29,45.29,0,0,1-3.057,11.92,18.784,18.784,0,0,1-3.415,4.911,38.673,38.673,0,0,1-5.366,4.683q-1,.753-2.033,1.464-3.034,1.925-6.228,3.578a32.361,32.361,0,0,1-13.546,3.74,83.832,83.832,0,0,1-9.042.228c-.13,0-9.237-1.415-9.237-1.415a153.643,153.643,0,0,1-62.446-33.272c-3.675-3.236-7.074-6.716-10.554-10.18-14.473-14.392-25.4-29.922-32.036-44.59a56.429,56.429,0,0,1-5.383-22.994A44.379,44.379,0,0,1,90.855,98.6a38.46,38.46,0,0,1,4.244-4.96,20.7,20.7,0,0,1,4.781-3.708,15.628,15.628,0,0,1,6.033-1.626Z" transform="translate(30.524 30.524)" fill="#031a61"/>
      </g>
    </g>
  </g>
</svg>
