<svg xmlns="http://www.w3.org/2000/svg" xmlns:xlink="http://www.w3.org/1999/xlink" width="1866" height="1544" viewBox="0 0 1866 1544">
  <defs>
    <clipPath id="clip-automation">
      <rect width="1866" height="1544"/>
    </clipPath>
  </defs>
  <g id="automation" clip-path="url(#clip-automation)">
    <g id="Group_5" data-name="Group 5" transform="translate(137.115 312.067)">
      <g id="Rectangle_2" data-name="Rectangle 2" transform="translate(-0.115 0.357)" fill="#5b61f9" stroke="#5b61f9" stroke-width="1">
        <rect width="1078" height="114" rx="16" stroke="none"/>
        <rect x="0.5" y="0.5" width="1077" height="113" rx="15.5" fill="none"/>
      </g>
      <text id="Dividi_contatto:_se_ha_il_TAG:_Italiano_" data-name="Dividi contatto: se ha il TAG: “Italiano”" transform="translate(142.885 76.357)" fill="#fff" font-size="50" font-family="OpenSans, Open Sans"><tspan x="0" y="0">Dividi contatto: se ha il TAG: “Italiano”</tspan></text>
      <path id="Union_1" data-name="Union 1" d="M5.314,58.18a1.321,1.321,0,0,1-.641-.827L.034,36.945a1.239,1.239,0,0,1,.5-1.334,1.232,1.232,0,0,1,1.4-.08l7.857,4.487L32.084,1.532C32.273,1.208,32.873.09,33.206,0a.122.122,0,0,1,.09.012.188.188,0,0,1,.185.214l3.1,5.334c.7,1.169,1.4,2.349,1.839,3.168L56.58,40.02l7.856-4.485a1.186,1.186,0,0,1,1.4.078,1.283,1.283,0,0,1,.533,1.313l-4.5,20.328a1.27,1.27,0,0,1-.606.808,1.33,1.33,0,0,1-1.042.133L40.032,51.966a1.252,1.252,0,0,1-.92-1.094,1.205,1.205,0,0,1,.633-1.241L47.6,45.147,33.017,20.117,18.77,45.144l7.857,4.487a1.157,1.157,0,0,1,.632,1.239,1.3,1.3,0,0,1-.883,1.114L6.321,58.294a1.5,1.5,0,0,1-.383.052A1.244,1.244,0,0,1,5.314,58.18Z" transform="translate(39.622 28.177)" fill="#fff"/>
    </g>
    <path id="Path_1" data-name="Path 1" d="M3491.5,362.5s3.088,35.979-32.617,38.053-784.742,0-812.253,0-27.521,34.637-27.521,34.637" transform="translate(-2816.792 144.557)" fill="none" stroke="#707070" stroke-width="1"/>
    <line id="Line_5" data-name="Line 5" y2="81.724" transform="translate(674.772 426.424)" fill="none" stroke="#6f6f6f" stroke-width="1"/>
    <path id="Path_16" data-name="Path 16" d="M2619.151,362.5s-2.036,35.979,21.5,38.053,517.3,0,535.437,0,18.142,34.637,18.142,34.637" transform="translate(-1944.334 144.557)" fill="none" stroke="#707070" stroke-width="1"/>
    <g id="Group_12" data-name="Group 12" transform="translate(745.216 844.332)">
      <g id="Rectangle_2-2" data-name="Rectangle 2" transform="translate(0 0)" fill="#031a61" stroke="#031a61" stroke-width="1">
        <rect width="1012.229" height="114.7" rx="16" stroke="none"/>
        <rect x="0.5" y="0.5" width="1011.229" height="113.7" rx="15.5" fill="none"/>
      </g>
      <text id="Invia_Email_Benvenuto_in_Inglese_" data-name="Invia Email “Benvenuto in Inglese”" transform="translate(154.845 75.94)" fill="#fff" font-size="50" font-family="OpenSans, Open Sans"><tspan x="0" y="0">Invia Email “Benvenuto in Inglese”</tspan></text>
      <path id="envelope-o" d="M60.616,45.461V17.486a21.441,21.441,0,0,1-2.513,2.4Q48.34,27.393,42.585,32.2q-1.859,1.567-3.023,2.441a16.755,16.755,0,0,1-3.151,1.766,9.153,9.153,0,0,1-3.735.892H32.6a9.14,9.14,0,0,1-3.734-.892,16.834,16.834,0,0,1-3.151-1.766Q24.552,33.769,22.7,32.2,16.94,27.393,7.177,19.89a21.44,21.44,0,0,1-2.513-2.4V45.463A1.183,1.183,0,0,0,5.83,46.629H59.45a1.183,1.183,0,0,0,1.166-1.166Zm0-38.286V6.283L60.6,5.81l-.109-.455-.2-.328-.328-.274-.51-.091H5.828A1.183,1.183,0,0,0,4.662,5.828q0,6.12,5.355,10.345,7.03,5.538,14.608,11.547.219.181,1.275,1.075t1.675,1.365q.62.471,1.621,1.148a9.523,9.523,0,0,0,1.84,1,4.372,4.372,0,0,0,1.567.328h.073a4.311,4.311,0,0,0,1.567-.328,9.78,9.78,0,0,0,1.84-1q1-.673,1.619-1.148T39.377,28.8q1.059-.89,1.275-1.075Q48.23,21.71,55.26,16.175a17.125,17.125,0,0,0,3.661-4.207,9.111,9.111,0,0,0,1.7-4.791Zm4.662-1.347V45.461a5.844,5.844,0,0,1-5.828,5.828H5.828a5.612,5.612,0,0,1-4.116-1.712A5.612,5.612,0,0,1,0,45.461V5.828A5.612,5.612,0,0,1,1.712,1.712,5.612,5.612,0,0,1,5.828,0H59.449a5.612,5.612,0,0,1,4.116,1.712,5.612,5.612,0,0,1,1.712,4.116Z" transform="translate(47.749 31.296)" fill="#fff"/>
    </g>
    <g id="Group_157" data-name="Group 157" transform="translate(725.216 1056.767)">
      <g id="Rectangle_2-3" data-name="Rectangle 2" transform="translate(20 0)" fill="#075e54" stroke="#075e54" stroke-width="1">
        <rect width="1017.229" height="114.7" rx="16" stroke="none"/>
        <rect x="0.5" y="0.5" width="1016.229" height="113.7" rx="15.5" fill="none"/>
      </g>
      <g id="Group_159" data-name="Group 159" transform="translate(9.317 0.41)">
        <text id="Invia_Whatsapp_Offerta_benvenuto_" data-name="Invia Whatsapp “Offerta benvenuto”" transform="translate(154.845 75.94)" fill="#fff" font-size="50" font-family="OpenSans, Open Sans"><tspan x="0" y="0">Invia Whatsapp “Offerta benvenuto”</tspan></text>
        <g id="whatsapp-fill" transform="translate(46.749 19.443)">
          <path id="Path_51" data-name="Path 51" d="M0,0H75V75H0Z" fill="none"/>
          <path id="Path_52" data-name="Path 52" d="M2.012,63.157,6.146,47.966A30.565,30.565,0,1,1,17.2,59.014ZM21.543,18.231a2.939,2.939,0,0,0-1.134.306,3.954,3.954,0,0,0-.9.7,6.815,6.815,0,0,0-.8.936A8.345,8.345,0,0,0,16.984,25.3a10.7,10.7,0,0,0,1.009,4.321,29.211,29.211,0,0,0,6.027,8.385c.654.651,1.293,1.306,1.981,1.914a28.891,28.891,0,0,0,11.742,6.256l1.74.266a16.628,16.628,0,0,0,1.7-.04,6.085,6.085,0,0,0,2.547-.706c.508-.269.746-.4,1.171-.673,0,0,.131-.086.382-.275a7.016,7.016,0,0,0,1.009-.881,3.509,3.509,0,0,0,.642-.923A8.516,8.516,0,0,0,47.51,40.7a6,6,0,0,0,.043-1.141,1.044,1.044,0,0,0-.581-.81l-1.78-.8s-2.66-1.159-4.284-1.9a1.523,1.523,0,0,0-.541-.125,1.474,1.474,0,0,0-1.156.388v-.006a36.824,36.824,0,0,0-2.431,2.853,1.07,1.07,0,0,1-1.125.4,4.33,4.33,0,0,1-.584-.2c-.379-.159-.511-.22-.771-.333l-.015-.006a18.378,18.378,0,0,1-4.8-3.058c-.385-.336-.743-.7-1.11-1.058a19.252,19.252,0,0,1-3.119-3.877l-.18-.29a2.823,2.823,0,0,1-.312-.627.98.98,0,0,1,.187-.81s.743-.813,1.089-1.254a13.394,13.394,0,0,0,.8-1.141,1.851,1.851,0,0,0,.284-1.639q-1.284-3.137-2.654-6.241a1.549,1.549,0,0,0-1.2-.761c-.165-.018-.33-.037-.5-.049a10.35,10.35,0,0,0-1.232.012Z" transform="translate(11.837 4.919)" fill="#fff"/>
        </g>
      </g>
    </g>
    <line id="Line_1" data-name="Line 1" y2="119.8" transform="translate(674.772 192.7)" fill="none" stroke="#6f6f6f" stroke-width="1"/>
    <path id="Path_6" data-name="Path 6" d="M0,0V81.724" transform="translate(1251.331 763.699)" fill="none" stroke="#6f6f6f" stroke-width="1"/>
    <path id="Path_51-2" data-name="Path 51" d="M0,0V102" transform="translate(1249.897 1171.467)" fill="none" stroke="#6f6f6f" stroke-width="1"/>
    <path id="Path_53" data-name="Path 53" d="M0,0V100.14" transform="translate(1251.331 956.627)" fill="none" stroke="#6f6f6f" stroke-width="1"/>
    <path id="Path_4" data-name="Path 4" d="M0,0V81.724" transform="translate(1249.896 579.747)" fill="none" stroke="#6f6f6f" stroke-width="1"/>
    <g id="Group_13" data-name="Group 13" transform="translate(1198.282 660.469)">
      <g id="Ellipse_1" data-name="Ellipse 1" transform="translate(0)" fill="#fff" stroke="#5b61f9" stroke-width="2">
        <circle cx="51.615" cy="51.615" r="51.615" stroke="none"/>
        <circle cx="51.615" cy="51.615" r="50.615" fill="none"/>
      </g>
      <text id="NO" transform="translate(22.506 64.808)" fill="#5b61f9" font-size="39" font-family="Nunito-Medium, Nunito" font-weight="500"><tspan x="0" y="0">NO</tspan></text>
    </g>
    <g id="Group_1" data-name="Group 1" transform="translate(76.898 78)">
      <g id="Rectangle_2-4" data-name="Rectangle 2" transform="translate(0.102)" fill="#fff" stroke="#5b61f9" stroke-width="2">
        <rect width="1199" height="115" rx="16" stroke="none"/>
        <rect x="1" y="1" width="1197" height="113" rx="15" fill="none"/>
      </g>
      <text id="Il_contatto_si_è_iscritto_alla_lista_Newsletter_" data-name="Il contatto si è iscritto alla lista “Newsletter”" transform="translate(129.102 76)" fill="#707070" font-size="50" font-family="OpenSans, Open Sans"><tspan x="0" y="0">Il contatto si è iscritto alla lista “Newsletter”</tspan></text>
      <path id="user" d="M54.42,54.038a12.319,12.319,0,0,1-2.658,7.951,7.963,7.963,0,0,1-6.4,3.316H9.056a7.959,7.959,0,0,1-6.4-3.316A12.332,12.332,0,0,1,0,54.038a61.166,61.166,0,0,1,.361-6.824A36.65,36.65,0,0,1,1.7,40.75a21.5,21.5,0,0,1,2.487-5.569,11.911,11.911,0,0,1,4-3.784,11.029,11.029,0,0,1,5.72-1.466A18.374,18.374,0,0,0,27.21,35.373a18.374,18.374,0,0,0,13.308-5.442A11.038,11.038,0,0,1,46.236,31.4a11.911,11.911,0,0,1,4,3.784,21.5,21.5,0,0,1,2.487,5.569,36.649,36.649,0,0,1,1.339,6.463,61.166,61.166,0,0,1,.361,6.824ZM43.536,16.326a15.725,15.725,0,0,1-4.784,11.543A15.738,15.738,0,0,1,27.21,32.652a15.72,15.72,0,0,1-11.543-4.784,15.733,15.733,0,0,1-4.784-11.543A15.733,15.733,0,0,1,15.668,4.784,15.72,15.72,0,0,1,27.21,0,15.738,15.738,0,0,1,38.753,4.784,15.725,15.725,0,0,1,43.536,16.326Z" transform="translate(37.278 26.456)" fill="#6f6f6f"/>
    </g>
    <g id="Group_7" data-name="Group 7" transform="translate(1198.281 1273.468)">
      <g id="Ellipse_1-2" data-name="Ellipse 1" transform="translate(0)" fill="#fff" stroke="#6f6f6f" stroke-width="1">
        <circle cx="51.615" cy="51.615" r="51.615" stroke="none"/>
        <circle cx="51.615" cy="51.615" r="51.115" fill="none"/>
      </g>
      <path id="plus" d="M32.942,32.942V52.851a2.844,2.844,0,0,1-5.688,0V32.942H7.344a2.844,2.844,0,0,1,0-5.688H27.254V7.344a2.844,2.844,0,0,1,5.688,0V27.254H52.851a2.844,2.844,0,0,1,0,5.688Z" transform="translate(21.517 21.517)" fill-rule="evenodd"/>
    </g>
  </g>
</svg>
