<svg xmlns="http://www.w3.org/2000/svg" xmlns:xlink="http://www.w3.org/1999/xlink" width="2000" height="1589" viewBox="0 0 2000 1589"><defs><filter id="a" x="998" y="823" width="1035" height="224" filterUnits="userSpaceOnUse"><feOffset dx="3" dy="3" input="SourceAlpha"/><feGaussianBlur stdDeviation="10" result="b"/><feFlood flood-opacity="0.161"/><feComposite operator="in" in2="b"/><feComposite in="SourceGraphic"/></filter><clipPath id="d"><rect width="2000" height="1589"/></clipPath></defs><g id="c" clip-path="url(#d)"><g transform="translate(14 8)"><g transform="translate(-1)" fill="#fff"><path d="M 1522 1564.5 L 40 1564.5 C 34.66740036010742 1564.5 29.49440002441406 1563.45556640625 24.625 1561.396240234375 C 19.92140007019043 1559.406616210938 15.69699954986572 1556.558349609375 12.06919956207275 1552.930786132812 C 8.44159984588623 1549.302978515625 5.593400001525879 1545.07861328125 3.603800058364868 1540.375 C 1.544399976730347 1535.505615234375 0.5 1530.332641601562 0.5 1525 L 0.5 40 C 0.5 34.66740036010742 1.544399976730347 29.49440002441406 3.603800058364868 24.625 C 5.593400001525879 19.92140007019043 8.44159984588623 15.69699954986572 12.06919956207275 12.06919956207275 C 15.69699954986572 8.44159984588623 19.92140007019043 5.593400001525879 24.625 3.603800058364868 C 29.49440002441406 1.544399976730347 34.66740036010742 0.5 40 0.5 L 1522 0.5 C 1527.332641601562 0.5 1532.505615234375 1.544399976730347 1537.375 3.603800058364868 C 1542.07861328125 5.593400001525879 1546.302978515625 8.44159984588623 1549.930786132812 12.06919956207275 C 1553.558349609375 15.69699954986572 1556.406616210938 19.92140007019043 1558.396240234375 24.625 C 1560.45556640625 29.49440002441406 1561.5 34.66740036010742 1561.5 40 L 1561.5 1525 C 1561.5 1530.332641601562 1560.45556640625 1535.505615234375 1558.396240234375 1540.375 C 1556.406616210938 1545.07861328125 1553.558349609375 1549.302978515625 1549.930786132812 1552.930786132812 C 1546.302978515625 1556.558349609375 1542.07861328125 1559.406616210938 1537.375 1561.396240234375 C 1532.505615234375 1563.45556640625 1527.332641601562 1564.5 1522 1564.5 Z" stroke="none"/><path d="M 40 1 C 34.734619140625 1 29.627197265625 2.031005859375 24.81982421875 4.064453125 C 20.17578125 6.028564453125 16.0047607421875 8.8408203125 12.4228515625 12.4228515625 C 8.8408203125 16.0047607421875 6.028564453125 20.17578125 4.064453125 24.81982421875 C 2.031005859375 29.627197265625 1 34.734619140625 1 40 L 1 1525 C 1 1530.265380859375 2.031005859375 1535.372802734375 4.064453125 1540.18017578125 C 6.028564453125 1544.82421875 8.8408203125 1548.995239257812 12.4228515625 1552.5771484375 C 16.0047607421875 1556.1591796875 20.17578125 1558.971435546875 24.81982421875 1560.935546875 C 29.627197265625 1562.968994140625 34.734619140625 1564 40 1564 L 1522 1564 C 1527.265380859375 1564 1532.372802734375 1562.968994140625 1537.18017578125 1560.935546875 C 1541.82421875 1558.971435546875 1545.995239257812 1556.1591796875 1549.5771484375 1552.5771484375 C 1553.1591796875 1548.995239257812 1555.971435546875 1544.82421875 1557.935546875 1540.18017578125 C 1559.968994140625 1535.372802734375 1561 1530.265380859375 1561 1525 L 1561 40 C 1561 34.734619140625 1559.968994140625 29.627197265625 1557.935546875 24.81982421875 C 1555.971435546875 20.17578125 1553.1591796875 16.0047607421875 1549.5771484375 12.4228515625 C 1545.995239257812 8.8408203125 1541.82421875 6.028564453125 1537.18017578125 4.064453125 C 1532.372802734375 2.031005859375 1527.265380859375 1 1522 1 L 40 1 M 40 0 L 1522 0 C 1544.091430664062 0 1562 17.9085693359375 1562 40 L 1562 1525 C 1562 1547.091430664062 1544.091430664062 1565 1522 1565 L 40 1565 C 17.9085693359375 1565 0 1547.091430664062 0 1525 L 0 40 C 0 17.9085693359375 17.9085693359375 0 40 0 Z" stroke="none" fill="#d9d9d9"/></g><text transform="translate(128 217)" fill="#031a61" font-size="68" font-family="OpenSans-Bold, Open Sans" font-weight="700"><tspan x="0" y="0">ISCRIVITI ALLA NOSTRA NEWSLETTER</tspan></text><g transform="translate(30 5)"><g transform="translate(98 525)"><g transform="translate(0 0)" fill="none" stroke="#ced4da" stroke-width="1"><rect width="1276" height="110" rx="18" stroke="none"/><rect x="0.5" y="0.5" width="1275" height="109" rx="17.5" fill="none"/></g><text transform="translate(40 70)" fill="#ced4da" font-size="42" font-family="OpenSans, Open Sans"><tspan x="0" y="0">Inserisci il tuo nome</tspan></text></g><text transform="translate(98 434)" fill="#6f6f6f" font-size="42" font-family="OpenSans-Bold, Open Sans" font-weight="700"><tspan x="0" y="45">Nome</tspan></text></g><g transform="translate(30 273)"><g transform="translate(98 525)"><g transform="translate(0 0)" fill="none" stroke="#ced4da" stroke-width="1"><rect width="1276" height="110" rx="18" stroke="none"/><rect x="0.5" y="0.5" width="1275" height="109" rx="17.5" fill="none"/></g><text transform="translate(40 70)" fill="#ced4da" font-size="42" font-family="OpenSans, Open Sans"><tspan x="0" y="0">Inserisci la tua email</tspan></text></g><text transform="translate(98 434)" fill="#6f6f6f" font-size="42" font-family="OpenSans-Bold, Open Sans" font-weight="700"><tspan x="0" y="45">Email</tspan></text></g><g transform="translate(30 603)"><g transform="translate(98 525)"><g transform="translate(0 0)" fill="none" stroke="#ced4da" stroke-width="1"><rect width="1276" height="110" rx="18" stroke="none"/><rect x="0.5" y="0.5" width="1275" height="109" rx="17.5" fill="none"/></g><text transform="translate(40 70)" fill="#ced4da" font-size="42" font-family="OpenSans, Open Sans"><tspan x="0" y="0">Inserisci il tuo username Instagram</tspan></text></g><text transform="translate(98 434)" fill="#6f6f6f" font-size="42" font-family="OpenSans-Bold, Open Sans" font-weight="700"><tspan x="0" y="45">Username</tspan></text></g><text transform="translate(128 304)" fill="#6f6f6f" font-size="42" font-family="OpenSans, Open Sans"><tspan x="0" y="45">Rimani aggiornato e scopri le nostre offerte esclusive.</tspan></text><g transform="translate(128 1287)"><rect width="217" height="110" rx="18" transform="translate(0 0)" fill="#5b61f9"/><text transform="translate(40 70)" fill="#fff" font-size="42" font-family="OpenSans, Open Sans"><tspan x="0" y="0">Iscriviti</tspan></text></g><g transform="translate(-407 322.616)"><g transform="translate(437 623.616)"><line x2="1488" transform="translate(0 36.863)" fill="none" stroke="#5b61f9" stroke-width="8"/><g transform="translate(622.488 0)"><rect width="243.024" height="73.726" rx="20" fill="#5b61f9"/><text transform="translate(27.306 46.653)" fill="#fff" font-size="31" font-family="OpenSans-Semibold, Open Sans" font-weight="600"><tspan x="0" y="0">Inserisci qui</tspan></text></g></g></g></g><g transform="translate(1024.687 849.718)"><g transform="matrix(1, 0, 0, 1, -1024.69, -849.72)" filter="url(#a)"><g transform="translate(1025 850)" fill="#fff" stroke="#031a61" stroke-width="1"><rect width="975" height="164" rx="23" stroke="none"/><rect x="0.5" y="0.5" width="974" height="163" rx="22.5" fill="none"/></g></g><text transform="translate(166.496 98.918)" fill="#031a61" font-size="46" font-family="OpenSans-Bold, Open Sans" font-weight="700"><tspan x="0" y="0">Numero di cellulare</tspan></text><path d="M48.638,24.319a1.67,1.67,0,0,1-.516,1.221l-6.948,6.948a1.737,1.737,0,0,1-2.959-1.221V27.794H27.792V38.216h3.474a1.727,1.727,0,0,1,1.221,2.959l-6.948,6.948a1.7,1.7,0,0,1-2.443,0l-6.948-6.948a1.738,1.738,0,0,1,1.221-2.959h3.474V27.794H10.422v3.474a1.727,1.727,0,0,1-2.959,1.221L.516,25.54a1.7,1.7,0,0,1,0-2.443l6.948-6.948a1.738,1.738,0,0,1,2.959,1.221v3.474H20.845V10.422H17.37a1.727,1.727,0,0,1-1.221-2.959L23.1.516a1.7,1.7,0,0,1,2.443,0l6.948,6.948a1.738,1.738,0,0,1-1.221,2.959H27.794V20.845H38.216V17.37a1.727,1.727,0,0,1,2.959-1.221L48.123,23.1a1.67,1.67,0,0,1,.516,1.221Z" transform="translate(876.376 58.09)" fill="#031a61"/><path d="M74.5,58.838a17.465,17.465,0,0,1-.53,3.731,21,21,0,0,1-1.111,3.624Q71.747,68.838,66.4,71.8a20.513,20.513,0,0,1-9.842,2.7,21.117,21.117,0,0,1-2.8-.184,21.452,21.452,0,0,1-3.042-.662q-1.666-.478-2.487-.768T45.292,71.8q-2.115-.795-2.593-.952a47.9,47.9,0,0,1-9.259-4.391A79.772,79.772,0,0,1,19.471,55.028,79.771,79.771,0,0,1,8.042,41.06,47.98,47.98,0,0,1,3.65,31.8q-.159-.476-.952-2.593T1.614,26.271q-.292-.819-.768-2.487a21.929,21.929,0,0,1-.662-3.042A20.633,20.633,0,0,1,0,17.938,20.521,20.521,0,0,1,2.7,8.1Q5.662,2.752,8.307,1.641A21.076,21.076,0,0,1,11.93.53,17.442,17.442,0,0,1,15.661,0a2.954,2.954,0,0,1,1.111.159q.952.317,2.8,4.021.582,1.006,1.587,2.858T23.016,10.4q.846,1.509,1.641,2.831.159.211.925,1.322a15.066,15.066,0,0,1,1.138,1.879,3.417,3.417,0,0,1,.37,1.509,4.391,4.391,0,0,1-1.509,2.645,25.847,25.847,0,0,1-3.28,2.91,31.929,31.929,0,0,0-3.28,2.8,4.031,4.031,0,0,0-1.509,2.434,3.568,3.568,0,0,0,.265,1.19q.265.714.449,1.084t.741,1.271q.557.9.608,1.006a55.53,55.53,0,0,0,9.207,12.435,55.53,55.53,0,0,0,12.435,9.207q.106.054,1.006.608t1.271.741a11.11,11.11,0,0,0,1.084.449,3.638,3.638,0,0,0,1.19.265A4.031,4.031,0,0,0,48.2,55.479a31.929,31.929,0,0,0,2.8-3.28,25.846,25.846,0,0,1,2.91-3.28,4.391,4.391,0,0,1,2.645-1.509,3.454,3.454,0,0,1,1.509.37,14.737,14.737,0,0,1,1.879,1.138q1.111.768,1.322.925,1.322.795,2.831,1.641t3.361,1.852q1.852,1.006,2.858,1.587,3.7,1.852,4.021,2.8A2.953,2.953,0,0,1,74.5,58.84Z" transform="translate(51.947 45.16)" fill="#031a61"/></g></g></svg>