<svg xmlns="http://www.w3.org/2000/svg" xmlns:xlink="http://www.w3.org/1999/xlink" width="2000" height="2000" viewBox="0 0 2000 2000"><defs><filter id="a" x="998" y="823" width="1035" height="224" filterUnits="userSpaceOnUse"><feOffset dx="3" dy="3" input="SourceAlpha"/><feGaussianBlur stdDeviation="10" result="b"/><feFlood flood-opacity="0.161"/><feComposite operator="in" in2="b"/><feComposite in="SourceGraphic"/></filter><clipPath id="d"><rect width="2000" height="2000"/></clipPath></defs><g id="c" clip-path="url(#d)"><g transform="translate(14 8)"><path d="M40,0H1522a40,40,0,0,1,40,40V1525a40,40,0,0,1-40,40H40a40,40,0,0,1-40-40V40A40,40,0,0,1,40,0Z" transform="translate(-1)" fill="#fff"/><text transform="translate(128 217)" fill="#031a61" font-size="68" font-family="OpenSans-Bold, Open Sans" font-weight="700"><tspan x="0" y="0">ISCRIVITI ALLA NOSTRA NEWSLETTER</tspan></text><g transform="translate(30 5)"><g transform="translate(98 525)"><g transform="translate(0 0)" fill="none" stroke="#ced4da" stroke-width="1"><rect width="1276" height="110" rx="18" stroke="none"/><rect x="0.5" y="0.5" width="1275" height="109" rx="17.5" fill="none"/></g><text transform="translate(40 70)" fill="#ced4da" font-size="42" font-family="OpenSans, Open Sans"><tspan x="0" y="0">Inserisci il tuo nome</tspan></text></g><text transform="translate(98 434)" fill="#6f6f6f" font-size="42" font-family="OpenSans-Bold, Open Sans" font-weight="700"><tspan x="0" y="45">Nome</tspan></text></g><g transform="translate(30 273)"><g transform="translate(98 525)"><g transform="translate(0 0)" fill="none" stroke="#ced4da" stroke-width="1"><rect width="1276" height="110" rx="18" stroke="none"/><rect x="0.5" y="0.5" width="1275" height="109" rx="17.5" fill="none"/></g><text transform="translate(40 70)" fill="#ced4da" font-size="42" font-family="OpenSans, Open Sans"><tspan x="0" y="0">Inserisci la tua email</tspan></text></g><text transform="translate(98 434)" fill="#6f6f6f" font-size="42" font-family="OpenSans-Bold, Open Sans" font-weight="700"><tspan x="0" y="45">Email</tspan></text></g><g transform="translate(30 603)"><g transform="translate(98 525)"><g transform="translate(0 0)" fill="none" stroke="#ced4da" stroke-width="1"><rect width="1276" height="110" rx="18" stroke="none"/><rect x="0.5" y="0.5" width="1275" height="109" rx="17.5" fill="none"/></g><text transform="translate(40 70)" fill="#ced4da" font-size="42" font-family="OpenSans, Open Sans"><tspan x="0" y="0">Inserisci il tuo username Instagram</tspan></text></g><text transform="translate(98 434)" fill="#6f6f6f" font-size="42" font-family="OpenSans-Bold, Open Sans" font-weight="700"><tspan x="0" y="45">Username</tspan></text></g><text transform="translate(128 304)" fill="#6f6f6f" font-size="42" font-family="OpenSans, Open Sans"><tspan x="0" y="45">Rimani aggiornato e scopri le nostre offerte esclusive.</tspan></text><g transform="translate(128 1287)"><rect width="217" height="110" rx="18" transform="translate(0 0)" fill="#5b61f9"/><text transform="translate(40 70)" fill="#fff" font-size="42" font-family="OpenSans, Open Sans"><tspan x="0" y="0">Iscriviti</tspan></text></g><g transform="translate(-407 322.616)"><g transform="translate(437 623.616)"><line x2="1488" transform="translate(0 36.863)" fill="none" stroke="#5b61f9" stroke-width="8"/><g transform="translate(622.488 0)"><rect width="243.024" height="73.726" rx="20" fill="#5b61f9"/><text transform="translate(27.306 46.653)" fill="#fff" font-size="31" font-family="OpenSans-Semibold, Open Sans" font-weight="600"><tspan x="0" y="0">Inserisci qui</tspan></text></g></g></g></g><g transform="translate(1024.687 849.718)"><g transform="matrix(1, 0, 0, 1, -1024.69, -849.72)" filter="url(#a)"><g transform="translate(1025 850)" fill="#fff" stroke="#031a61" stroke-width="1"><rect width="975" height="164" rx="23" stroke="none"/><rect x="0.5" y="0.5" width="974" height="163" rx="22.5" fill="none"/></g></g><text transform="translate(166.496 98.918)" fill="#031a61" font-size="46" font-family="OpenSans-Bold, Open Sans" font-weight="700"><tspan x="0" y="0">Numero di cellulare</tspan></text><path d="M48.638,24.319a1.67,1.67,0,0,1-.516,1.221l-6.948,6.948a1.737,1.737,0,0,1-2.959-1.221V27.794H27.792V38.216h3.474a1.727,1.727,0,0,1,1.221,2.959l-6.948,6.948a1.7,1.7,0,0,1-2.443,0l-6.948-6.948a1.738,1.738,0,0,1,1.221-2.959h3.474V27.794H10.422v3.474a1.727,1.727,0,0,1-2.959,1.221L.516,25.54a1.7,1.7,0,0,1,0-2.443l6.948-6.948a1.738,1.738,0,0,1,2.959,1.221v3.474H20.845V10.422H17.37a1.727,1.727,0,0,1-1.221-2.959L23.1.516a1.7,1.7,0,0,1,2.443,0l6.948,6.948a1.738,1.738,0,0,1-1.221,2.959H27.794V20.845H38.216V17.37a1.727,1.727,0,0,1,2.959-1.221L48.123,23.1a1.67,1.67,0,0,1,.516,1.221Z" transform="translate(876.376 58.09)" fill="#031a61"/><path d="M74.5,58.838a17.465,17.465,0,0,1-.53,3.731,21,21,0,0,1-1.111,3.624Q71.747,68.838,66.4,71.8a20.513,20.513,0,0,1-9.842,2.7,21.117,21.117,0,0,1-2.8-.184,21.452,21.452,0,0,1-3.042-.662q-1.666-.478-2.487-.768T45.292,71.8q-2.115-.795-2.593-.952a47.9,47.9,0,0,1-9.259-4.391A79.772,79.772,0,0,1,19.471,55.028,79.771,79.771,0,0,1,8.042,41.06,47.98,47.98,0,0,1,3.65,31.8q-.159-.476-.952-2.593T1.614,26.271q-.292-.819-.768-2.487a21.929,21.929,0,0,1-.662-3.042A20.633,20.633,0,0,1,0,17.938,20.521,20.521,0,0,1,2.7,8.1Q5.662,2.752,8.307,1.641A21.076,21.076,0,0,1,11.93.53,17.442,17.442,0,0,1,15.661,0a2.954,2.954,0,0,1,1.111.159q.952.317,2.8,4.021.582,1.006,1.587,2.858T23.016,10.4q.846,1.509,1.641,2.831.159.211.925,1.322a15.066,15.066,0,0,1,1.138,1.879,3.417,3.417,0,0,1,.37,1.509,4.391,4.391,0,0,1-1.509,2.645,25.847,25.847,0,0,1-3.28,2.91,31.929,31.929,0,0,0-3.28,2.8,4.031,4.031,0,0,0-1.509,2.434,3.568,3.568,0,0,0,.265,1.19q.265.714.449,1.084t.741,1.271q.557.9.608,1.006a55.53,55.53,0,0,0,9.207,12.435,55.53,55.53,0,0,0,12.435,9.207q.106.054,1.006.608t1.271.741a11.11,11.11,0,0,0,1.084.449,3.638,3.638,0,0,0,1.19.265A4.031,4.031,0,0,0,48.2,55.479a31.929,31.929,0,0,0,2.8-3.28,25.846,25.846,0,0,1,2.91-3.28,4.391,4.391,0,0,1,2.645-1.509,3.454,3.454,0,0,1,1.509.37,14.737,14.737,0,0,1,1.879,1.138q1.111.768,1.322.925,1.322.795,2.831,1.641t3.361,1.852q1.852,1.006,2.858,1.587,3.7,1.852,4.021,2.8A2.953,2.953,0,0,1,74.5,58.84Z" transform="translate(51.947 45.16)" fill="#031a61"/></g></g></svg>