<svg xmlns="http://www.w3.org/2000/svg" viewBox="0 0 400 300"><g id="_517_information_flow_flatline" data-name="#517_information_flow_flatline"><path d="M126.75,96.62H107.31a.46.46,0,0,1-.46-.46.45.45,0,0,1,.46-.46h19.44a.46.46,0,0,1,.46.46A.47.47,0,0,1,126.75,96.62Z" fill="#d1d3d4"/><path d="M135.81,88.38H107.15a.46.46,0,0,1-.46-.46.45.45,0,0,1,.46-.46h28.66a.45.45,0,0,1,.46.46A.46.46,0,0,1,135.81,88.38Z" fill="#d1d3d4"/><path d="M116.55,80.14h-9.31a.46.46,0,0,1-.46-.46.45.45,0,0,1,.46-.46h9.31a.46.46,0,0,1,.46.46A.47.47,0,0,1,116.55,80.14Z" fill="#d1d3d4"/><path d="M138.87,80.43H122.3a.46.46,0,0,1-.46-.46.47.47,0,0,1,.46-.46h16.57a.47.47,0,0,1,.46.46A.46.46,0,0,1,138.87,80.43Z" fill="#d1d3d4"/><path d="M126.75,96.62H107.31a.46.46,0,0,1-.46-.46.45.45,0,0,1,.46-.46h19.44a.46.46,0,0,1,.46.46A.47.47,0,0,1,126.75,96.62Z" fill="none" stroke="#e6e7e8" stroke-linecap="round" stroke-linejoin="round"/><path d="M135.81,88.38H107.15a.46.46,0,0,1-.46-.46.45.45,0,0,1,.46-.46h28.66a.45.45,0,0,1,.46.46A.46.46,0,0,1,135.81,88.38Z" fill="none" stroke="#e6e7e8" stroke-linecap="round" stroke-linejoin="round"/><path d="M116.55,80.14h-9.31a.46.46,0,0,1-.46-.46.45.45,0,0,1,.46-.46h9.31a.46.46,0,0,1,.46.46A.47.47,0,0,1,116.55,80.14Z" fill="none" stroke="#e6e7e8" stroke-linecap="round" stroke-linejoin="round"/><path d="M138.87,80.43H122.3a.46.46,0,0,1-.46-.46.47.47,0,0,1,.46-.46h16.57a.47.47,0,0,1,.46.46A.46.46,0,0,1,138.87,80.43Z" fill="none" stroke="#e6e7e8" stroke-linecap="round" stroke-linejoin="round"/><path d="M290,120.6H270.53a.46.46,0,0,1-.46-.46.47.47,0,0,1,.46-.46H290a.47.47,0,0,1,.46.46A.46.46,0,0,1,290,120.6Z" fill="#d1d3d4"/><path d="M297.3,120.6h-3.69a.45.45,0,0,1-.46-.46.46.46,0,0,1,.46-.46h3.69a.46.46,0,0,1,.46.46A.45.45,0,0,1,297.3,120.6Z" fill="#d1d3d4"/><path d="M299,112.37H270.37a.47.47,0,0,1,0-.93H299a.47.47,0,0,1,0,.93Z" fill="#d1d3d4"/><path d="M279.78,104.13h-9.31a.46.46,0,0,1-.46-.46.45.45,0,0,1,.46-.46h9.31a.46.46,0,0,1,.46.46A.47.47,0,0,1,279.78,104.13Z" fill="#d1d3d4"/><path d="M302.1,104.42H285.53a.46.46,0,1,1,0-.92H302.1a.46.46,0,1,1,0,.92Z" fill="#d1d3d4"/><path d="M290,120.6H270.53a.46.46,0,0,1-.46-.46.47.47,0,0,1,.46-.46H290a.47.47,0,0,1,.46.46A.46.46,0,0,1,290,120.6Z" fill="none" stroke="#e6e7e8" stroke-linecap="round" stroke-linejoin="round"/><path d="M297.3,120.6h-3.69a.45.45,0,0,1-.46-.46.46.46,0,0,1,.46-.46h3.69a.46.46,0,0,1,.46.46A.45.45,0,0,1,297.3,120.6Z" fill="none" stroke="#e6e7e8" stroke-linecap="round" stroke-linejoin="round"/><path d="M299,112.37H270.37a.47.47,0,0,1,0-.93H299a.47.47,0,0,1,0,.93Z" fill="none" stroke="#e6e7e8" stroke-linecap="round" stroke-linejoin="round"/><path d="M279.78,104.13h-9.31a.46.46,0,0,1-.46-.46.45.45,0,0,1,.46-.46h9.31a.46.46,0,0,1,.46.46A.47.47,0,0,1,279.78,104.13Z" fill="none" stroke="#e6e7e8" stroke-linecap="round" stroke-linejoin="round"/><path d="M302.1,104.42H285.53a.46.46,0,1,1,0-.92H302.1a.46.46,0,1,1,0,.92Z" fill="none" stroke="#e6e7e8" stroke-linecap="round" stroke-linejoin="round"/><path d="M122.74,213.12h0a.48.48,0,0,1-.44-.33l-9.13-25.42-10,19.52a.52.52,0,0,1-.4.27.5.5,0,0,1-.44-.2l-9.94-13-6.22,10a.49.49,0,0,1-.68.17L80,200.86a.51.51,0,0,1-.17-.69.5.5,0,0,1,.69-.17l5,3,6.34-10.17a.51.51,0,0,1,.4-.23.45.45,0,0,1,.42.19l9.9,12.95,10.2-19.84a.48.48,0,0,1,.48-.27.48.48,0,0,1,.43.33l9.11,25.36,4.33-9.16a.5.5,0,0,1,.9.43l-4.84,10.25A.49.49,0,0,1,122.74,213.12Z" fill="#d1d3d4"/><circle cx="85.68" cy="203.64" r="1.28" fill="#fff"/><path d="M85.69,205.42a1.78,1.78,0,1,1,1.77-1.78A1.78,1.78,0,0,1,85.69,205.42Zm0-2.55a.77.77,0,0,0-.78.77.78.78,0,1,0,1.55,0A.77.77,0,0,0,85.69,202.87Z" fill="#d1d3d4"/><circle cx="92.29" cy="193.09" r="1.28" fill="#fff"/><path d="M92.29,194.86a1.78,1.78,0,1,1,1.77-1.77A1.78,1.78,0,0,1,92.29,194.86Zm0-2.55a.78.78,0,0,0-.78.78.78.78,0,1,0,.78-.78Z" fill="#d1d3d4"/><circle cx="113.22" cy="186.12" r="1.28" fill="#fff"/><path d="M113.22,187.89a1.78,1.78,0,1,1,1.78-1.77A1.77,1.77,0,0,1,113.22,187.89Zm0-2.55a.78.78,0,1,0,.78.78A.78.78,0,0,0,113.22,185.34Z" fill="#d1d3d4"/><circle cx="122.74" cy="212.62" r="1.28" fill="#fff"/><path d="M122.74,214.39a1.78,1.78,0,1,1,1.77-1.77A1.78,1.78,0,0,1,122.74,214.39Zm0-2.55a.78.78,0,1,0,0,1.55.78.78,0,0,0,0-1.55Z" fill="#d1d3d4"/><circle cx="102.67" cy="206.66" r="1.28" fill="#fff"/><path d="M102.67,208.43a1.78,1.78,0,1,1,1.77-1.77A1.78,1.78,0,0,1,102.67,208.43Zm0-2.55a.78.78,0,0,0-.78.78.78.78,0,1,0,.78-.78Z" fill="#d1d3d4"/><path d="M72.5,105.53S71.25,91.85,96,91.85l-.74,52.24-19.81-8.77Z" fill="#fff"/><path d="M95.3,144.59a.52.52,0,0,1-.21,0l-19.8-8.77a.51.51,0,0,1-.3-.41l-3-29.79h0a10.87,10.87,0,0,1,3.06-7.74c3.92-4.3,11-6.48,21-6.48a.49.49,0,0,1,.36.15.5.5,0,0,1,.14.35L95.8,144.1a.51.51,0,0,1-.23.41A.47.47,0,0,1,95.3,144.59ZM76,135l18.85,8.35.72-51c-9.42.07-16,2.13-19.71,6.13a10,10,0,0,0-2.82,7Z" fill="#231f20"/><path d="M75,116H75a.51.51,0,0,1-.43-.56c0-.13,1.75-12.86,18.67-13.79a.5.5,0,0,1,.53.47.49.49,0,0,1-.47.53C77.21,103.5,75.6,115,75.54,115.53A.51.51,0,0,1,75,116Z" fill="#231f20"/><path d="M75.87,125.74h0a.5.5,0,0,1-.49-.51c0-.12.26-13,17-15.83a.5.5,0,0,1,.16,1c-15.86,2.71-16.14,14.36-16.14,14.85A.51.51,0,0,1,75.87,125.74Z" fill="#231f20"/><path d="M76,131.81h0a.51.51,0,0,1-.5-.5c0-.13.27-13,17-15.84a.51.51,0,0,1,.58.41.5.5,0,0,1-.41.58c-15.89,2.72-16.15,14.73-16.15,14.85A.5.5,0,0,1,76,131.81Z" fill="#231f20"/><path d="M250.93,57.3a.45.45,0,0,1-.36-.16s-.49-.49-1.44-1.32a.49.49,0,0,1,0-.7.51.51,0,0,1,.71,0c1,.86,1.48,1.36,1.5,1.38a.5.5,0,0,1,0,.71A.49.49,0,0,1,250.93,57.3Z" fill="#d1d3d4"/><path d="M177.87,260.91a.51.51,0,0,1-.5-.5.5.5,0,0,1,.5-.5l4-.05a.47.47,0,0,1,.51.49.52.52,0,0,1-.49.51l-4,.05Zm-4,0h0c-1.37,0-2.72-.08-4-.15a.5.5,0,1,1,.06-1c1.29.08,2.63.13,4,.15a.52.52,0,0,1,.49.51A.5.5,0,0,1,173.87,260.88Zm12-.12a.51.51,0,0,1-.5-.49.5.5,0,0,1,.48-.51l4-.16a.5.5,0,0,1,.52.48.5.5,0,0,1-.48.52l-4,.16Zm-20-.34h0c-1.37-.13-2.72-.3-4-.5a.51.51,0,0,1-.42-.57.5.5,0,0,1,.57-.42c1.27.19,2.59.36,4,.5a.5.5,0,0,1-.05,1Zm28,0a.51.51,0,0,1-.5-.47.5.5,0,0,1,.47-.53q2-.12,4-.27a.51.51,0,0,1,.53.46.5.5,0,0,1-.46.54c-1.33.1-2.66.19-4,.27Zm8-.6a.5.5,0,0,1,0-1c1.32-.12,2.65-.25,4-.39a.5.5,0,0,1,.1,1c-1.32.14-2.65.27-4,.39Zm-43.9-.6h-.1c-1.35-.29-2.67-.63-3.92-1a.5.5,0,0,1-.33-.62.49.49,0,0,1,.62-.34c1.22.36,2.51.69,3.84,1a.5.5,0,0,1-.11,1Zm51.86-.25a.5.5,0,0,1-.06-1c1.33-.17,2.65-.34,4-.53a.51.51,0,0,1,.56.43.49.49,0,0,1-.42.56c-1.32.19-2.65.36-4,.53Zm7.94-1.12a.5.5,0,0,1-.08-1c1.32-.21,2.64-.43,3.94-.67a.5.5,0,0,1,.18,1c-1.31.23-2.63.46-4,.67Zm-67.46-.91a.39.39,0,0,1-.18,0,36.63,36.63,0,0,1-3.68-1.69.5.5,0,0,1-.21-.68.5.5,0,0,1,.68-.2,33.71,33.71,0,0,0,3.58,1.64.51.51,0,0,1,.28.65A.51.51,0,0,1,150.31,256.91Zm75.35-.51a.49.49,0,0,1-.49-.4.5.5,0,0,1,.39-.59c1.31-.26,2.62-.54,3.91-.83a.51.51,0,0,1,.6.38.5.5,0,0,1-.38.6c-1.3.29-2.61.57-3.93.83Zm7.82-1.75a.5.5,0,0,1-.49-.38.5.5,0,0,1,.37-.6c1.3-.33,2.59-.66,3.86-1a.5.5,0,1,1,.27,1c-1.28.35-2.58.69-3.89,1Zm-90.19-1.53a.55.55,0,0,1-.3-.09,24.41,24.41,0,0,1-3.09-2.67.49.49,0,0,1,0-.7.5.5,0,0,1,.71,0,23.82,23.82,0,0,0,3,2.55.5.5,0,0,1,.11.7A.51.51,0,0,1,143.29,253.12Zm97.92-.6a.48.48,0,0,1-.48-.35.5.5,0,0,1,.33-.62c1.28-.39,2.55-.8,3.8-1.22a.51.51,0,0,1,.64.31.52.52,0,0,1-.32.64c-1.26.42-2.53.83-3.83,1.22A.36.36,0,0,1,241.21,252.52ZM248.8,250a.51.51,0,0,1-.47-.32.5.5,0,0,1,.29-.64c1.25-.47,2.5-1,3.72-1.46a.5.5,0,0,1,.38.92c-1.23.51-2.49,1-3.75,1.47A.47.47,0,0,1,248.8,250Zm-111-2.56a.49.49,0,0,1-.41-.22,19.4,19.4,0,0,1-1.88-3.65.5.5,0,0,1,.94-.36,18.52,18.52,0,0,0,1.77,3.46.5.5,0,0,1-.14.69A.48.48,0,0,1,137.75,247.4Zm118.45-.5a.5.5,0,0,1-.21-1c1.22-.56,2.42-1.14,3.59-1.74a.49.49,0,0,1,.67.22.5.5,0,0,1-.21.67c-1.18.6-2.4,1.19-3.63,1.75A.41.41,0,0,1,256.2,246.9Zm7.13-3.65a.5.5,0,0,1-.24-.93c1.16-.67,2.31-1.36,3.4-2.07a.49.49,0,0,1,.69.16.5.5,0,0,1-.15.69c-1.11.71-2.27,1.41-3.45,2.08A.45.45,0,0,1,263.33,243.25ZM134.88,240a.49.49,0,0,1-.49-.42,20.67,20.67,0,0,1-.25-2.73v-.23a9.08,9.08,0,0,1,.07-1.17.5.5,0,1,1,1,.12,9.24,9.24,0,0,0-.06,1v.2a18.61,18.61,0,0,0,.24,2.6.51.51,0,0,1-.42.58Zm135.19-1.06a.52.52,0,0,1-.41-.21.51.51,0,0,1,.11-.7c1.08-.78,2.14-1.6,3.14-2.43a.51.51,0,0,1,.71.06.52.52,0,0,1-.07.71c-1,.84-2.09,1.67-3.19,2.47A.53.53,0,0,1,270.07,238.92Zm6.15-5.12a.5.5,0,0,1-.34-.86c1-.93,1.89-1.88,2.75-2.85a.5.5,0,0,1,.71,0,.51.51,0,0,1,0,.71c-.88,1-1.83,2-2.81,2.9A.52.52,0,0,1,276.22,233.8Zm-140.17-1.54a.51.51,0,0,1-.42-.77,12.77,12.77,0,0,1,2.76-3.09.5.5,0,1,1,.63.77,12,12,0,0,0-2.54,2.85A.52.52,0,0,1,136.05,232.26Zm145.49-4.43a.49.49,0,0,1-.3-.1.51.51,0,0,1-.1-.7c.76-1,1.52-2.11,2.25-3.27a.5.5,0,0,1,.69-.15.49.49,0,0,1,.16.69c-.75,1.18-1.52,2.3-2.3,3.33A.48.48,0,0,1,281.54,227.83Zm-139.49-.74a.47.47,0,0,1-.44-.27.49.49,0,0,1,.21-.67,27.85,27.85,0,0,1,3.74-1.6.5.5,0,0,1,.64.3.5.5,0,0,1-.31.64,26,26,0,0,0-3.61,1.55A.59.59,0,0,1,142.05,227.09Zm35.33-1.88-.12,0c-1.28-.31-2.59-.58-3.89-.82a.5.5,0,0,1,.18-1c1.32.24,2.64.52,3.95.83a.5.5,0,0,1,.37.6A.51.51,0,0,1,177.38,225.21Zm-27.8-.79a.5.5,0,0,1-.11-1c1.28-.29,2.62-.53,4-.72a.5.5,0,0,1,.13,1c-1.34.18-2.65.41-3.9.7Zm19.93-.66h-.07c-1.32-.17-2.65-.3-4-.39a.5.5,0,0,1-.46-.53.52.52,0,0,1,.53-.47c1.33.09,2.68.23,4,.4a.5.5,0,0,1-.06,1Zm-12-.44a.5.5,0,0,1-.5-.47.52.52,0,0,1,.47-.53c1.17-.07,2.37-.1,3.58-.1h.46a.5.5,0,0,1,0,1h-.46c-1.19,0-2.37,0-3.52.1Zm128.34-2.24a.53.53,0,0,1-.24-.06.51.51,0,0,1-.2-.68c.62-1.13,1.23-2.33,1.82-3.55a.5.5,0,0,1,.66-.23.5.5,0,0,1,.24.67c-.59,1.23-1.21,2.44-1.84,3.59A.51.51,0,0,1,285.85,221.08Zm3.46-7.23a.43.43,0,0,1-.19,0,.49.49,0,0,1-.27-.65c.51-1.22,1-2.47,1.44-3.71a.5.5,0,0,1,.64-.3.49.49,0,0,1,.3.64c-.45,1.25-.94,2.52-1.46,3.75A.48.48,0,0,1,289.31,213.85Zm2.72-7.54a.39.39,0,0,1-.15,0,.5.5,0,0,1-.33-.62c.39-1.28.75-2.57,1.07-3.84a.5.5,0,0,1,.61-.36.49.49,0,0,1,.36.6c-.32,1.29-.69,2.6-1.08,3.89A.49.49,0,0,1,292,206.31Zm2-7.77h-.1a.5.5,0,0,1-.4-.58c.26-1.32.48-2.64.66-3.93a.5.5,0,0,1,.56-.43.51.51,0,0,1,.43.57c-.18,1.3-.4,2.64-.66,4A.5.5,0,0,1,294,198.54Zm1.07-7.93h0a.5.5,0,0,1-.46-.54c.09-1.3.14-2.59.14-3.84v-.13a.51.51,0,0,1,.5-.5.5.5,0,0,1,.5.5v.12c0,1.28-.05,2.6-.15,3.92A.49.49,0,0,1,295.06,190.61Zm0-8a.49.49,0,0,1-.5-.45,36.69,36.69,0,0,0-.53-3.92.51.51,0,0,1,.4-.59.5.5,0,0,1,.58.4,38.94,38.94,0,0,1,.55,4,.5.5,0,0,1-.46.54Zm-1.5-7.85a.51.51,0,0,1-.48-.36,29.69,29.69,0,0,0-1.41-3.67.5.5,0,1,1,.9-.42,29.65,29.65,0,0,1,1.47,3.8.5.5,0,0,1-.33.62A.4.4,0,0,1,293.52,174.75Zm-3.4-7.22a.52.52,0,0,1-.42-.22,23.4,23.4,0,0,0-2.44-3.06.5.5,0,0,1,0-.71.49.49,0,0,1,.7,0,23.94,23.94,0,0,1,2.55,3.19.49.49,0,0,1-.13.69A.51.51,0,0,1,290.12,167.53Zm-142.27-3.17H146a.5.5,0,0,1-.49-.51.49.49,0,0,1,.5-.49h0c1.32,0,2.66,0,4,0h0a.5.5,0,0,1,.5.5.49.49,0,0,1-.49.5Zm6.13-.07a.5.5,0,0,1-.5-.49.52.52,0,0,1,.49-.51c1.33,0,2.66-.06,4-.11a.52.52,0,0,1,.52.49.5.5,0,0,1-.48.51c-1.35,0-2.69.09-4,.11Zm-12,0h0c-1.36,0-2.69-.08-4-.13a.5.5,0,0,1-.47-.53.49.49,0,0,1,.52-.47c1.31.05,2.65.1,4,.13a.5.5,0,0,1,.49.52A.5.5,0,0,1,142,164.29Zm20-.26a.5.5,0,0,1-.49-.48A.49.49,0,0,1,162,163l4-.2a.49.49,0,0,1,.53.47.51.51,0,0,1-.47.53l-4,.2Zm-28-.09h0c-1.36-.09-2.69-.19-4-.31a.5.5,0,0,1-.45-.55.52.52,0,0,1,.54-.45c1.31.12,2.64.23,4,.32a.49.49,0,0,1,.46.53A.51.51,0,0,1,134,163.94ZM170,163.6a.51.51,0,0,1-.5-.47.5.5,0,0,1,.47-.53l4-.27a.49.49,0,0,1,.53.47.5.5,0,0,1-.46.53l-4,.27Zm-44-.4h-.06c-1.35-.16-2.69-.35-4-.55a.5.5,0,1,1,.15-1c1.29.2,2.61.39,4,.55a.5.5,0,0,1,.44.56A.51.51,0,0,1,126,163.2Zm52-.16a.5.5,0,0,1,0-1l4-.32a.5.5,0,0,1,.54.45.49.49,0,0,1-.45.54l-4,.32Zm8-.67a.5.5,0,0,1-.5-.46.51.51,0,0,1,.45-.54l4-.36a.49.49,0,0,1,.54.45.49.49,0,0,1-.45.54l-4,.37ZM118.06,162H118c-1.34-.27-2.66-.57-3.93-.88a.51.51,0,0,1-.37-.61.5.5,0,0,1,.61-.36c1.25.31,2.56.6,3.89.87a.49.49,0,0,1,.39.58A.51.51,0,0,1,118.06,162Zm166.58-.2a.48.48,0,0,1-.3-.11,25.38,25.38,0,0,0-3.31-2.09.5.5,0,0,1-.21-.68.51.51,0,0,1,.68-.21,26.42,26.42,0,0,1,3.44,2.19.5.5,0,0,1-.3.9ZM194,161.62a.5.5,0,0,1-.5-.45.52.52,0,0,1,.45-.55c1.34-.12,2.67-.26,4-.39a.5.5,0,0,1,.1,1l-4,.4Zm8-.8a.49.49,0,0,1-.49-.45.5.5,0,0,1,.44-.55l4-.41a.48.48,0,0,1,.55.44.5.5,0,0,1-.45.55l-4,.42ZM110.29,160a.39.39,0,0,1-.15,0c-1.33-.42-2.62-.87-3.81-1.34a.5.5,0,0,1,.36-.93c1.18.46,2.44.91,3.75,1.32a.5.5,0,0,1-.15,1Zm99.63,0a.5.5,0,0,1,0-1l4-.43a.5.5,0,0,1,.11,1l-4,.43Zm8.06-.86-.09-.5v-.5l3.94-.42a.5.5,0,0,1,.11,1Zm-.09-.5h0Zm8-.34a.49.49,0,0,1-.49-.45.5.5,0,0,1,.44-.55l4-.41a.5.5,0,1,1,.1,1l-4,.41ZM277.6,158l-.17,0a33.26,33.26,0,0,0-3.78-1.12.5.5,0,0,1-.37-.6.49.49,0,0,1,.6-.37,32.62,32.62,0,0,1,3.89,1.15.5.5,0,0,1-.17,1Zm-43.76-.52a.5.5,0,0,1-.05-1l4-.38a.52.52,0,0,1,.54.46.51.51,0,0,1-.45.54l-4,.38Zm-131-.43a.44.44,0,0,1-.22,0,37,37,0,0,1-3.53-2,.51.51,0,0,1-.15-.7.49.49,0,0,1,.69-.14,37.37,37.37,0,0,0,3.43,1.94.5.5,0,0,1-.22.95Zm139-.3a.5.5,0,0,1,0-1l4-.32a.5.5,0,0,1,.08,1c-1.31.1-2.64.2-4,.32Zm28-.6h-.07c-1.26-.17-2.59-.29-3.94-.36a.5.5,0,0,1-.48-.52.48.48,0,0,1,.53-.47c1.38.06,2.73.18,4,.35a.51.51,0,0,1,.43.57A.51.51,0,0,1,269.83,156.14Zm-20,0a.5.5,0,0,1,0-1c1.37-.09,2.71-.16,4-.22a.48.48,0,0,1,.52.47.49.49,0,0,1-.47.52c-1.3.07-2.63.14-4,.23Zm8-.38a.5.5,0,0,1-.5-.48.5.5,0,0,1,.49-.52c1.38,0,2.73,0,4,0h0a.5.5,0,0,1,.5.5.51.51,0,0,1-.5.5c-1.28,0-2.62,0-4,0ZM96.16,152.68a.52.52,0,0,1-.33-.12A25.24,25.24,0,0,1,93,149.67.49.49,0,0,1,93,149a.51.51,0,0,1,.71.06,24.88,24.88,0,0,0,2.76,2.77.51.51,0,0,1,.06.71A.52.52,0,0,1,96.16,152.68ZM91,146.58a.5.5,0,0,1-.43-.25c-.37-.64-.71-1.31-1-2s-.49-1.12-.72-1.69a.51.51,0,0,1,.27-.65.52.52,0,0,1,.66.27c.22.56.46,1.11.7,1.66s.62,1.29,1,1.9a.49.49,0,0,1-.18.68A.47.47,0,0,1,91,146.58ZM88,139.2a.49.49,0,0,1-.47-.34c-.41-1.26-.79-2.57-1.13-3.88a.5.5,0,0,1,1-.25c.33,1.3.7,2.58,1.11,3.82a.51.51,0,0,1-.32.63Zm-2-7.76a.49.49,0,0,1-.49-.4c-.25-1.3-.46-2.64-.64-4a.5.5,0,0,1,1-.13c.17,1.33.38,2.65.62,3.93a.51.51,0,0,1-.4.59Zm-1-7.94a.5.5,0,0,1-.5-.46c-.1-1.32-.16-2.68-.19-4a.5.5,0,0,1,.49-.51.55.55,0,0,1,.51.49c0,1.33.09,2.67.19,4a.5.5,0,0,1-.47.54Zm-.18-8h0a.49.49,0,0,1-.48-.51c0-1.33.1-2.68.2-4a.5.5,0,1,1,1,.07c-.1,1.33-.17,2.67-.2,4A.5.5,0,0,1,84.76,115.49Zm.58-8h-.06a.5.5,0,0,1-.44-.56c.16-1.31.34-2.65.56-4a.5.5,0,1,1,1,.15c-.21,1.32-.39,2.65-.55,4A.49.49,0,0,1,85.34,107.5Zm1.27-7.91h-.1a.49.49,0,0,1-.39-.59c.27-1.31.56-2.63.88-3.93a.5.5,0,0,1,1,.24c-.32,1.29-.62,2.6-.88,3.89A.5.5,0,0,1,86.61,99.59Zm1.92-7.78a.34.34,0,0,1-.14,0,.49.49,0,0,1-.34-.62c.37-1.29.78-2.59,1.2-3.84a.5.5,0,1,1,1,.32c-.42,1.24-.82,2.52-1.19,3.8A.49.49,0,0,1,88.53,91.81Zm2.55-7.59a.39.39,0,0,1-.18,0,.5.5,0,0,1-.29-.64c.48-1.27,1-2.52,1.52-3.73a.49.49,0,0,1,.66-.26.5.5,0,0,1,.26.66c-.52,1.19-1,2.44-1.51,3.68A.49.49,0,0,1,91.08,84.22Zm3.19-7.35a.59.59,0,0,1-.22-.05.51.51,0,0,1-.23-.67c.6-1.23,1.23-2.43,1.87-3.58a.51.51,0,0,1,.68-.19.5.5,0,0,1,.2.68c-.63,1.13-1.26,2.32-1.85,3.53A.51.51,0,0,1,94.27,76.87Zm3.91-7a.56.56,0,0,1-.27-.08.5.5,0,0,1-.15-.69c.74-1.17,1.51-2.29,2.28-3.34a.5.5,0,0,1,.7-.1.51.51,0,0,1,.11.7c-.76,1-1.52,2.13-2.25,3.27A.5.5,0,0,1,98.18,69.88ZM103,63.45a.46.46,0,0,1-.33-.13.49.49,0,0,1,0-.7c.87-1,1.79-2,2.74-3a.5.5,0,0,1,.7,0,.5.5,0,0,1,0,.71c-.93,1-1.84,1.94-2.7,2.93A.5.5,0,0,1,103,63.45Zm5.58-5.75a.49.49,0,0,1-.37-.16.5.5,0,0,1,0-.71c1-.9,2-1.8,3-2.67a.49.49,0,0,1,.7.05.51.51,0,0,1-.06.71c-1,.86-2,1.75-3,2.65A.5.5,0,0,1,108.54,57.7Zm137.79-4.25a.57.57,0,0,1-.3-.1c-1-.77-2.12-1.54-3.26-2.29a.5.5,0,0,1-.14-.69.51.51,0,0,1,.7-.14c1.14.76,2.25,1.54,3.3,2.31a.5.5,0,0,1,.1.7A.48.48,0,0,1,246.33,53.45Zm-131.69-.94a.5.5,0,0,1-.3-.89c1-.82,2.14-1.62,3.24-2.4a.51.51,0,0,1,.7.12.52.52,0,0,1-.12.7c-1.09.77-2.17,1.56-3.21,2.37A.5.5,0,0,1,114.64,52.51Zm125-3.49a.47.47,0,0,1-.25-.07c-1.12-.66-2.29-1.32-3.47-2a.5.5,0,0,1-.21-.68.51.51,0,0,1,.68-.21c1.2.65,2.38,1.31,3.51,2a.5.5,0,0,1,.17.69A.51.51,0,0,1,239.65,49ZM121.19,47.89a.49.49,0,0,1-.42-.23.5.5,0,0,1,.15-.69c1.13-.72,2.29-1.43,3.44-2.1a.5.5,0,0,1,.5.86c-1.14.67-2.28,1.37-3.4,2.08A.45.45,0,0,1,121.19,47.89Zm111.4-2.66a.41.41,0,0,1-.21,0c-1.19-.57-2.4-1.13-3.62-1.67a.5.5,0,0,1-.26-.66.5.5,0,0,1,.66-.26c1.23.54,2.46,1.11,3.65,1.69A.49.49,0,0,1,233,45,.48.48,0,0,1,232.59,45.23ZM128.11,43.86a.5.5,0,0,1-.44-.27.49.49,0,0,1,.21-.67c1.18-.62,2.39-1.23,3.6-1.8a.5.5,0,0,1,.67.23.51.51,0,0,1-.24.67c-1.2.57-2.4,1.17-3.57,1.78A.46.46,0,0,1,128.11,43.86ZM225.26,42a.58.58,0,0,1-.18,0c-1.23-.49-2.48-1-3.73-1.41a.5.5,0,1,1,.33-.94c1.26.45,2.53.93,3.77,1.42a.5.5,0,0,1-.19,1Zm-89.91-1.58a.5.5,0,0,1-.46-.31.51.51,0,0,1,.26-.66c1.24-.52,2.5-1,3.74-1.49a.5.5,0,1,1,.35.94c-1.23.46-2.47,1-3.7,1.48A.65.65,0,0,1,135.35,40.43Zm82.37-1.13-.15,0c-1.24-.4-2.51-.79-3.82-1.16a.5.5,0,0,1,.28-1c1.32.39,2.6.78,3.85,1.18a.5.5,0,0,1-.16,1Zm-74.87-1.69a.5.5,0,0,1-.48-.34.52.52,0,0,1,.32-.64c1.28-.42,2.57-.81,3.85-1.18a.5.5,0,1,1,.27,1c-1.26.36-2.54.75-3.81,1.16A.4.4,0,0,1,142.85,37.61ZM210,37.07a.3.3,0,0,1-.13,0c-1.26-.32-2.55-.63-3.88-.93a.5.5,0,1,1,.22-1c1.34.3,2.64.62,3.91,1a.49.49,0,0,1,.36.6A.5.5,0,0,1,210,37.07Zm-59.48-1.66a.5.5,0,0,1-.49-.38.5.5,0,0,1,.37-.6c1.3-.32,2.63-.61,3.93-.87a.5.5,0,1,1,.2,1c-1.3.26-2.61.55-3.89.86Zm51.66-.11h-.09c-1.29-.26-2.59-.5-3.93-.73a.5.5,0,0,1-.41-.58.49.49,0,0,1,.58-.4c1.34.23,2.66.47,3.95.73a.48.48,0,0,1,.39.58A.49.49,0,0,1,202.21,35.3Zm-7.89-1.36h-.07c-1.3-.19-2.62-.36-4-.53a.5.5,0,1,1,.12-1c1.35.16,2.68.34,4,.53a.5.5,0,0,1-.07,1Zm-35.92-.1a.5.5,0,0,1-.08-1c1.31-.21,2.65-.4,4-.56a.5.5,0,1,1,.12,1c-1.33.16-2.66.35-4,.56Zm28-.84h0c-1.34-.12-2.68-.22-4-.29a.5.5,0,0,1-.47-.53.49.49,0,0,1,.52-.47c1.32.08,2.67.18,4,.3a.5.5,0,0,1,0,1Zm-20-.12a.5.5,0,0,1,0-1c1.35-.11,2.7-.19,4-.26a.49.49,0,0,1,.52.48.49.49,0,0,1-.47.52c-1.32.06-2.65.15-4,.26Zm12-.34h0c-1.35,0-2.67,0-4,0h0a.5.5,0,0,1,0-1c1.32,0,2.67,0,4,0a.49.49,0,0,1,.49.51A.5.5,0,0,1,178.36,32.54Z" fill="#d1d3d4"/><path d="M183.35,226.9l-.15,0-1.9-.59a.5.5,0,1,1,.28-1l1.93.6a.5.5,0,0,1-.16,1Z" fill="#d1d3d4"/><path d="M126.53,69.17a15.3,15.3,0,0,0-13.68-27.38l6.84,13.69L106,62.32A15.3,15.3,0,0,0,126.53,69.17Z" fill="#fff"/><path d="M119.7,71.29a15.86,15.86,0,0,1-14.15-8.74.5.5,0,0,1,.22-.67L119,55.26,112.4,42a.5.5,0,0,1,0-.38.48.48,0,0,1,.25-.29,15.81,15.81,0,1,1,7.08,30Zm-13-8.75a14.82,14.82,0,0,0,19.64,6.18h0A14.8,14.8,0,0,0,113.52,42l6.61,13.24a.49.49,0,0,1-.22.67Z" fill="#231f20"/><path d="M101.11,60.64,114.8,53.8,108,40.11A15.3,15.3,0,0,0,101.11,60.64Z" fill="#fff"/><path d="M101.11,61.14a.51.51,0,0,1-.45-.27,15.82,15.82,0,0,1,7.08-21.21.51.51,0,0,1,.67.23l6.84,13.69a.5.5,0,0,1,0,.38.53.53,0,0,1-.26.29l-13.69,6.84A.42.42,0,0,1,101.11,61.14Zm6.63-20.35A14.82,14.82,0,0,0,101.34,60l12.79-6.39Z" fill="#231f20"/><path d="M256,87.34s2.67-9.57,2.91-10.92-.49-6.74,1-7.56,2.42,4.06,2.42,7.56c0,0,6.06-13.22,7.76-11.28s1.94,6.06,1.21,8.24S261,94.23,261,94.23Z" fill="#fff"/><path d="M261,94.73a.48.48,0,0,1-.4-.2l-5.09-6.89a.52.52,0,0,1-.08-.43c0-.1,2.66-9.56,2.9-10.87a14.39,14.39,0,0,0,0-2c0-3,0-5.28,1.18-5.94a1.09,1.09,0,0,1,1.13,0c1.16.68,1.73,3.62,1.94,6,1.65-3.4,4.93-9.67,6.79-10a1,1,0,0,1,.95.36c1.89,2.16,2,6.54,1.31,8.73s-9.83,20.16-10.21,20.92a.48.48,0,0,1-.41.27Zm-4.54-7.49,4.46,6c1.75-3.45,9.16-18.18,9.79-20.06.72-2.17.39-6-1.12-7.75-.87-.17-4.11,5-6.92,11.16a.49.49,0,0,1-.56.28.5.5,0,0,1-.4-.49c0-3.14-.76-6.67-1.54-7.13a.12.12,0,0,0-.14,0c-.76.43-.7,3.43-.67,5a13.51,13.51,0,0,1,0,2.16C259.13,77.77,256.92,85.73,256.5,87.24Z" fill="#231f20"/><path d="M241.65,216.86s-6.23,14.22-4.29,15.19,21.68,7.43,21.51,6.14-10.94-8.81-10.94-8.81l4.95-12.52Z" fill="#231f20"/><path d="M258.48,238.82c-3.79,0-21.17-6.24-21.34-6.32-.88-.45-1.53-3.09,4.05-15.84a.49.49,0,0,1,.46-.3h11.23a.49.49,0,0,1,.41.22.45.45,0,0,1,.05.46l-4.8,12.16c3.44,2.41,10.65,7.6,10.83,8.92a.6.6,0,0,1-.26.58A1.18,1.18,0,0,1,258.48,238.82ZM242,217.36c-3.08,7.09-5.08,13.58-4.38,14.25,2.06,1,17.2,5.87,20.48,6.24-1.25-1.35-6-4.94-10.44-8.06a.48.48,0,0,1-.17-.59l4.67-11.84Z" fill="#231f20"/><path d="M209.89,245.06c.24.73.24,12.6,0,15.51S219.83,280,223,276.82s-2.43-17.22-2.43-17.22l1-16Z" fill="#231f20"/><path d="M222,277.71a3,3,0,0,1-1.24-.3c-4.32-2-11.61-14.17-11.39-16.88.25-3,.22-14.54,0-15.32a.56.56,0,0,1,.07-.42.52.52,0,0,1,.35-.23l11.69-1.45a.48.48,0,0,1,.4.13.5.5,0,0,1,.16.4l-1,15.88c.75,1.9,5.51,14.43,2.28,17.65A1.79,1.79,0,0,1,222,277.71Zm-11.58-32.22c.2,2.65.15,12.69-.05,15.13-.18,2.11,6.73,14,10.81,15.88.85.39,1.22.17,1.43,0,2.39-2.39-1-12.85-2.55-16.67a.41.41,0,0,1,0-.22l1-15.4Z" fill="#231f20"/><path d="M195.77,97.89c-9.13-2.6-25.21,2.59-35,11.65-7.78,7.23,7,41.52,14.38,59l44.52-13.29S204.89,100.5,195.77,97.89Z" fill="#0b8c8c"/><path d="M219.69,155.24S265,169,265.88,178.83s-12.31,44.81-12.31,44.81L238.25,221s13.14-36.67,6.92-39.44S213.74,174,213.74,174s2.6,20.87,7.19,34.95,2.85,39.22,2.85,39.22l-16,2.63s-.6-32.34-7.34-47.11-25.27-35.19-25.27-35.19Z" fill="#231f20"/><path d="M207.78,251.33a.52.52,0,0,1-.32-.11.48.48,0,0,1-.18-.38c0-.32-.67-32.41-7.3-46.91s-25-34.86-25.18-35.07a.47.47,0,0,1-.11-.47.49.49,0,0,1,.33-.34l44.53-13.29a.45.45,0,0,1,.28,0c1.87.56,45.6,14,46.55,24,.93,9.86-11.8,43.61-12.35,45a.49.49,0,0,1-.55.31l-15.32-2.66a.5.5,0,0,1-.35-.24.51.51,0,0,1,0-.42C247.3,194.23,247.3,183,245,182c-5.53-2.46-26.59-6.57-30.64-7.34.49,3.71,3,21.72,7.07,34.18,4.57,14,2.89,39.16,2.88,39.41a.51.51,0,0,1-.42.46l-16,2.63Zm-31.72-82.55c3.08,3.47,18.77,21.47,24.83,34.73,6.22,13.61,7.25,42.3,7.37,46.74l15-2.47c.2-3.26,1.35-25.77-2.85-38.64-4.55-14-7.18-34.84-7.21-35a.5.5,0,0,1,.16-.43.48.48,0,0,1,.43-.12c1,.19,25.34,4.77,31.54,7.54,2.88,1.28,2.6,8.27-.85,21.35-2.13,8.09-4.86,16-5.6,18.16l14.32,2.49c1.44-3.85,13-35.13,12.14-44.21-.25-2.67-4.47-7.45-23.13-15.07-10.59-4.32-21.21-7.63-22.56-8Z" fill="#231f20"/><path d="M159.91,76.06a2.49,2.49,0,0,1,1.69.28c-1.1-2.42,1.14-4.29,2.59-5.83a8.16,8.16,0,0,1,6.34-2.66,16.91,16.91,0,0,1,7.92,2.79c2,1.15,4.14,2.5,6.33,1.9a10.74,10.74,0,0,1,2-.6c.69-.06,1.51.36,1.52,1.06a1.6,1.6,0,0,1-.44,1,6.9,6.9,0,0,1-2.61,2c.5.81,1.64.83,2.59.76l3-.22c.56,0,1.27,0,1.48.52a1.26,1.26,0,0,1-.09.89,10.56,10.56,0,0,1-3.91,5,6.32,6.32,0,0,0,4.33-.58c.33,4.3-2.85,8.26-6.72,10.2A27.27,27.27,0,0,1,173.51,95c-3.18-.08-7.22.69-10-1.45a18.29,18.29,0,0,1-6.63-10.79,7.15,7.15,0,0,1,.43-4.9A3.7,3.7,0,0,1,159.91,76.06Z" fill="#fff"/><path d="M169.44,95.57c-2.19,0-4.43-.24-6.2-1.62a18.85,18.85,0,0,1-6.82-11.1,7.47,7.47,0,0,1,.49-5.24,4.22,4.22,0,0,1,2.92-2h0a3.49,3.49,0,0,1,1,0c-.31-2,1.29-3.64,2.49-4.88l.49-.5a8.63,8.63,0,0,1,6.71-2.82,17.65,17.65,0,0,1,8.16,2.86l.15.08c1.81,1.08,3.87,2.29,5.79,1.77.24-.07.46-.15.69-.24a4.75,4.75,0,0,1,1.39-.38,2.14,2.14,0,0,1,1.57.51,1.42,1.42,0,0,1,.49,1,2.05,2.05,0,0,1-.55,1.33,7.59,7.59,0,0,1-2.11,1.76,3.62,3.62,0,0,0,1.66.14l3-.22c1-.08,1.72.2,2,.84a1.7,1.7,0,0,1-.09,1.24,11,11,0,0,1-3.12,4.51,5.92,5.92,0,0,0,2.84-.67.5.5,0,0,1,.73.4c.37,4.78-3.24,8.81-7,10.69a27.75,27.75,0,0,1-12.65,2.5c-.7,0-1.44,0-2.2,0S170.07,95.57,169.44,95.57Zm-9.45-19a3.21,3.21,0,0,0-2.21,1.55,6.56,6.56,0,0,0-.38,4.56,17.82,17.82,0,0,0,6.45,10.5c2,1.55,4.75,1.46,7.41,1.37.79,0,1.55,0,2.27,0a26.36,26.36,0,0,0,12.17-2.4c3.25-1.63,6.4-5,6.46-9a6.9,6.9,0,0,1-4,.31.52.52,0,0,1-.38-.4.54.54,0,0,1,.21-.51,10.13,10.13,0,0,0,3.74-4.78,1.08,1.08,0,0,0,.09-.53c-.07-.17-.44-.25-1-.21l-3,.22c-1.08.08-2.41,0-3-1a.53.53,0,0,1-.05-.41.54.54,0,0,1,.28-.31,6.3,6.3,0,0,0,2.42-1.82,1.13,1.13,0,0,0,.33-.66.43.43,0,0,0-.16-.32,1.2,1.2,0,0,0-.82-.25,4.42,4.42,0,0,0-1.11.31,8,8,0,0,1-.78.27c-2.34.64-4.59-.69-6.57-1.87l-.15-.08a16.63,16.63,0,0,0-7.68-2.72,7.66,7.66,0,0,0-5.95,2.5l-.5.52c-1.4,1.43-2.84,2.91-2,4.76a.51.51,0,0,1-.12.58.48.48,0,0,1-.58.06,2.11,2.11,0,0,0-1.37-.22Z" fill="#231f20"/><path d="M183,99l3.47,7.91s-1.47,5.82-7.25,5.65-7.6-4.17-7.61-4.18l-2.41-8.79-1.49-5.4a6,6,0,0,1-.46-1.66c.14-1.31,1.6-2.25,1.84-3.62a10.9,10.9,0,0,0-1.65-7.88c2.66,1.5,5.66,3,8.63,2.29a14.06,14.06,0,0,1-2-1.8l6.23,1.14a14.66,14.66,0,0,0,2.43.18c.92,0,.47-.48,1.3.48,2.08,2.4,3.05,6.84,3.22,9.92C187.46,97.66,183,99,183,99Z" fill="#fff"/><path d="M179.42,113.08h-.26c-6.19-.18-8.06-4.5-8.07-4.54l-3.9-14.2a4.54,4.54,0,0,0-.15-.43,3.33,3.33,0,0,1-.33-1.42,4.42,4.42,0,0,1,1-2.06,4.06,4.06,0,0,0,.85-1.59A10.4,10.4,0,0,0,167,81.32a.48.48,0,0,1,0-.61.5.5,0,0,1,.61-.1c2.19,1.25,4.69,2.51,7.18,2.39a12.16,12.16,0,0,1-1.15-1.12.48.48,0,0,1-.07-.58.5.5,0,0,1,.52-.25l6.24,1.14a15,15,0,0,0,2.28.17,1.06,1.06,0,0,0,.46-.06c.51-.18.7,0,1.22.64,2.25,2.6,3.23,7.15,3.4,10.29.2,3.79-2.85,5.52-4.11,6.06l3.27,7.44a.62.62,0,0,1,0,.33C186.9,107.12,185.32,113.08,179.42,113.08Zm-7.37-4.82s1.76,3.67,7.14,3.82h.23c4.67,0,6.21-4.21,6.48-5.11l-3.4-7.75a.49.49,0,0,1,0-.41.52.52,0,0,1,.31-.27c.17-.05,4.13-1.31,3.92-5.26-.17-3.21-1.2-7.43-3.1-9.61-.16-.19-.25-.31-.32-.38a2.76,2.76,0,0,1-.61.07,15.24,15.24,0,0,1-2.51-.19l-4.62-.84.76.61a.48.48,0,0,1,.19.5.51.51,0,0,1-.37.39c-2.6.6-5.16-.33-7.47-1.52a11.38,11.38,0,0,1,.86,6.71,5,5,0,0,1-1,2,3.52,3.52,0,0,0-.81,1.58,3.17,3.17,0,0,0,.26,1,4.76,4.76,0,0,1,.18.53l3.9,14.18Z" fill="#231f20"/><path d="M184.78,103.18a6.07,6.07,0,0,1-5.64-.48c-2.92-1.82-3.14-3.82-3.14-3.82a9.38,9.38,0,0,0,7,.14Z" fill="#231f20"/><path d="M182.41,104.16a6.62,6.62,0,0,1-3.53-1c-3.09-1.93-3.37-4.1-3.38-4.2a.5.5,0,0,1,.71-.5,8.93,8.93,0,0,0,6.55.13.5.5,0,0,1,.65.26l1.83,4.16a.5.5,0,0,1-.24.65A6.41,6.41,0,0,1,182.41,104.16Zm-5.58-4.45a7,7,0,0,0,2.58,2.57,5.58,5.58,0,0,0,4.71.62l-1.43-3.24A9.66,9.66,0,0,1,176.83,99.71Z" fill="#231f20"/><path d="M178.8,86.9s3.92,3.56,3.43,4.48-2.52.89-2.52.89" fill="#fff"/><path d="M179.73,92.77h0a.49.49,0,0,1-.49-.5.5.5,0,0,1,.5-.5h0c.7,0,1.82-.2,2.06-.63,0-.42-1.54-2.24-3.33-3.87a.5.5,0,0,1,.67-.74c1.93,1.75,4.1,4,3.54,5.08S180.07,92.77,179.73,92.77Z" fill="#231f20"/><ellipse cx="176" cy="87.34" rx="0.73" ry="1.03" transform="translate(-11.58 28.88) rotate(-9.08)" fill="#231f20"/><ellipse cx="183.47" cy="85.83" rx="0.73" ry="1.03" transform="translate(-19.04 89.87) rotate(-26.21)" fill="#231f20"/><path d="M179.74,96.15a7,7,0,0,1-3.23-.87.5.5,0,0,1-.22-.67.49.49,0,0,1,.67-.22c4.52,2.33,6.73-1.45,6.82-1.61a.5.5,0,0,1,.87.49A6.06,6.06,0,0,1,179.74,96.15Z" fill="#231f20"/><path d="M169.49,91.44a3.58,3.58,0,0,0-2.69-.56,2.46,2.46,0,0,0-1.89,1.87,3.1,3.1,0,0,0,1.28,2.76,5.8,5.8,0,0,0,4.53,1.27" fill="#fff"/><path d="M169.87,97.34a6.32,6.32,0,0,1-4-1.44,3.55,3.55,0,0,1-1.44-3.24,3,3,0,0,1,2.27-2.27,4.06,4.06,0,0,1,3.07.63.51.51,0,0,1,.15.7.51.51,0,0,1-.7.14,3,3,0,0,0-2.3-.49,1.93,1.93,0,0,0-1.51,1.46,2.68,2.68,0,0,0,1.11,2.3,5.24,5.24,0,0,0,4.13,1.15.52.52,0,0,1,.58.42.51.51,0,0,1-.42.57A5.82,5.82,0,0,1,169.87,97.34Z" fill="#231f20"/><path d="M182.49,111.9l-1.61,3.38,2.24.65s12.1,33.39,38,27.29l6.73-8.77-9.11-3.56s-4.46,3.76-13,1.59c-10.06-2.56-21-16.85-21-16.85l.47-2.83Z" fill="#231f20"/><path d="M215,144.46c-20.7,0-31.15-25.36-32.22-28.12l-2-.58a.5.5,0,0,1-.32-.28.51.51,0,0,1,0-.42l1.61-3.37a.48.48,0,0,1,.6-.26l2.77.9a.5.5,0,0,1,.33.56l-.43,2.6c1.27,1.61,11.41,14.17,20.6,16.51,8.13,2.07,12.49-1.46,12.53-1.49a.51.51,0,0,1,.5-.09l9.12,3.56a.5.5,0,0,1,.29.33.49.49,0,0,1-.08.44l-6.74,8.78a.53.53,0,0,1-.28.18A27.62,27.62,0,0,1,215,144.46ZM181.58,115l1.68.5a.46.46,0,0,1,.33.3c.12.33,12.2,32.75,37.26,27l6.23-8.11-8.24-3.22c-1.06.77-5.52,3.47-13.18,1.52-10.11-2.58-20.82-16.45-21.27-17a.5.5,0,0,1-.1-.39l.4-2.4-1.94-.63Z" fill="#231f20"/><path d="M176,92.1a4.19,4.19,0,1,1,4.18-4.18A4.19,4.19,0,0,1,176,92.1Zm0-7.37a3.19,3.19,0,1,0,3.18,3.19A3.19,3.19,0,0,0,176,84.73Z" fill="#231f20"/><path d="M182.67,89.75a4.19,4.19,0,1,1,4.19-4.19A4.19,4.19,0,0,1,182.67,89.75Zm0-7.37a3.19,3.19,0,1,0,3.19,3.18A3.19,3.19,0,0,0,182.67,82.38Z" fill="#231f20"/><path d="M168.32,91.42a.5.5,0,0,1-.16-1l4-1.34a.5.5,0,0,1,.31,1l-4,1.33A.45.45,0,0,1,168.32,91.42Z" fill="#231f20"/><path d="M273,53.25s-.55-.39-1.37-.9c0,0-.92,1.82-.94,1.75S273,53.25,273,53.25Z" fill="#231f20"/><path d="M270.75,54.61h-.13a.49.49,0,0,1-.43-.37c-.06-.23-.09-.36.14-.52s.52-1,.84-1.58a.48.48,0,0,1,.31-.26.45.45,0,0,1,.39.06c.84.51,1.4.91,1.4.91a.49.49,0,0,1-.13.88c-.87.3-1.84.64-2.14.77A.3.3,0,0,1,270.75,54.61Zm1.06-1.54,0,.06.08,0Z" fill="#231f20"/><polygon points="264.46 84.91 263.13 84.05 263.69 82.64 264.46 84.91" fill="#231f20"/><path d="M264.47,85.41a.48.48,0,0,1-.28-.08l-1.33-.86a.49.49,0,0,1-.19-.6l.56-1.41a.54.54,0,0,1,.48-.32.51.51,0,0,1,.46.34l.77,2.27a.5.5,0,0,1-.17.56A.49.49,0,0,1,264.47,85.41Z" fill="#231f20"/><path d="M265.07,84.93l12.59-4.12a1.13,1.13,0,0,0,.76-1.27l-5.14-25.79a.8.8,0,0,0-1.13-.59L259.67,58.1a1.2,1.2,0,0,0-.7,1.29l5,24.91A.81.81,0,0,0,265.07,84.93Z" fill="#231f20"/><path d="M264.79,85.48a1.28,1.28,0,0,1-.66-.18,1.34,1.34,0,0,1-.63-.9l-5-24.91a1.68,1.68,0,0,1,1-1.85l12.48-5a1.38,1.38,0,0,1,1.16.05,1.33,1.33,0,0,1,.65.91l5.14,25.79a1.63,1.63,0,0,1-1.09,1.85l-12.6,4.12h0A1.29,1.29,0,0,1,264.79,85.48Zm.28-.55h0Zm7.43-31.34-.17,0-12.48,5a.69.69,0,0,0-.39.72l5,24.91a.32.32,0,0,0,.43.26l12.6-4.12a.65.65,0,0,0,.42-.7l-5.14-25.79a.3.3,0,0,0-.15-.23A.32.32,0,0,0,272.5,53.59Z" fill="#231f20"/><path d="M263.68,84.05l12.6-4.12a1.14,1.14,0,0,0,.75-1.27L271.9,52.87a.81.81,0,0,0-1.14-.59l-12.48,4.94a1.18,1.18,0,0,0-.69,1.29l5,24.91A.81.81,0,0,0,263.68,84.05Z" fill="#fff"/><path d="M263.4,84.6a1.25,1.25,0,0,1-.65-.18,1.35,1.35,0,0,1-.64-.9l-5-24.91a1.68,1.68,0,0,1,1-1.85l12.48-4.95a1.36,1.36,0,0,1,1.15,0,1.32,1.32,0,0,1,.66.91l5.13,25.79a1.63,1.63,0,0,1-1.09,1.85l-12.6,4.12h0A1.25,1.25,0,0,1,263.4,84.6Zm.28-.55h0Zm7.43-31.34a.45.45,0,0,0-.16,0l-12.48,4.95a.67.67,0,0,0-.39.72l5,24.91a.35.35,0,0,0,.16.24.36.36,0,0,0,.27,0l12.6-4.12a.64.64,0,0,0,.42-.7L271.41,53a.33.33,0,0,0-.15-.23A.37.37,0,0,0,271.11,52.71Z" fill="#231f20"/><path d="M268.69,80.55l2.45-.8a.7.7,0,0,0,.46-.78l-.2-1a.51.51,0,0,0-.68-.4l-2.46.82a.69.69,0,0,0-.44.77l.19,1A.51.51,0,0,0,268.69,80.55Z" fill="#e6e7e8"/><path d="M263.66,56.92a.13.13,0,0,1-.12-.08.13.13,0,0,1,.07-.16l3.65-1.44a.13.13,0,0,1,.1.24l-3.66,1.43Z" fill="#e6e7e8"/><path d="M262.66,57.31a.12.12,0,0,1,0-.24l.48-.19a.13.13,0,0,1,.16.07.11.11,0,0,1-.07.16l-.48.19Z" fill="#e6e7e8"/><polygon points="270.6 54.64 259.34 59.32 263.55 79.22 274.53 75.22 270.6 54.64" fill="#e6e7e8"/><path d="M144,166c-.12.6.12,6.54,0,7.63-.14,1.31,1.86,2.53,2.52,3.46,1.29,1.83,2.06,4.4,2.86,6.48.11.29.21.65,0,.86a.65.65,0,0,1-.38.16c-1.27.17-2.29-1-3.05-2L144,180c.49.68-.64,5.51-.79,6.53a23,23,0,0,1-1,5.15c-1,2.52-7.45,2.19-8.18-.13-.89-2.82-2.32-8.55-.46-14.09-.12-2.27-1.46-15.15-1.46-15.15Z" fill="#fff"/><path d="M138.22,193.89h-.31c-1.73-.07-3.91-.69-4.4-2.23-1.68-5.36-1.85-10.17-.49-14.3-.15-2.48-1.43-14.91-1.45-15a.54.54,0,0,1,.19-.44.54.54,0,0,1,.46-.09l11.88,3.76a.51.51,0,0,1,.34.58c-.05.26,0,2,0,3.45,0,1.83.06,3.55,0,4.14s.77,1.43,1.44,2.07a7.12,7.12,0,0,1,1,1,22.71,22.71,0,0,1,2.42,5.21q.26.72.51,1.38a1.22,1.22,0,0,1-.13,1.39,1.07,1.07,0,0,1-.66.3c-1.53.22-2.69-1.07-3.52-2.21l-1-1.31c-.1.88-.31,2.11-.66,3.86-.09.5-.17.89-.21,1.11,0,.38-.1.76-.15,1.16a17.09,17.09,0,0,1-.87,4.11C142,193.36,139.94,193.89,138.22,193.89ZM132.65,163c.29,2.81,1.27,12.45,1.38,14.42a.57.57,0,0,1,0,.18c-1.3,3.89-1.14,8.66.47,13.78.26.82,1.72,1.46,3.47,1.53,1.57.05,3.34-.36,3.77-1.43a16.51,16.51,0,0,0,.81-3.87c0-.4.1-.79.16-1.18,0-.22.11-.64.21-1.16.25-1.22.89-4.47.65-5a.5.5,0,0,1,.82-.57h0l1.92,2.64c.68.91,1.58,1.95,2.58,1.81l.1,0s0-.11-.1-.32c-.18-.44-.35-.91-.52-1.4a21.83,21.83,0,0,0-2.29-5,6.87,6.87,0,0,0-.86-.9c-.88-.82-1.87-1.76-1.75-2.9.06-.52,0-2.38,0-4s0-2.66,0-3.21Z" fill="#231f20"/><path d="M167.8,104.3c-3,2.52-31,14.34-39.24,26.92-4.19,6.41,2.42,42.44,2.42,42.44l14.91-2.9L146.1,139c1.73-2.16,21.1-12.95,21.1-12.95Z" fill="#0b8c8c"/><path d="M195.77,97.89s37,4.8,41.22,3.38,20.74-21.68,20.74-21.68l8.2,8.75s-8.85,26.92-20.81,29.72-45.57,0-45.57,0Z" fill="#0b8c8c"/><path d="M146.1,139.48a.51.51,0,0,1-.42-.23.49.49,0,0,1,.16-.69L170.45,123a.49.49,0,0,1,.69.16.5.5,0,0,1-.15.69l-24.62,15.54A.5.5,0,0,1,146.1,139.48Z" fill="#231f20"/><path d="M212.4,131.71a.5.5,0,0,1-.48-.34c-.33-1-10.92-28.16-11-28.43a.5.5,0,1,1,.93-.36c.44,1.12,10.71,27.47,11.05,28.47a.5.5,0,0,1-.31.64A.47.47,0,0,1,212.4,131.71Z" fill="#231f20"/><path d="M213.7,27.48l-22.41-4.61a3.84,3.84,0,0,0-4.54,3l-2.26,11a3.83,3.83,0,0,0,3,4.53l-.88,5.86,5.34-4.94,18,3.7a3.84,3.84,0,0,0,4.54-3l2.26-11A3.83,3.83,0,0,0,213.7,27.48Z" fill="#fff"/><path d="M186.57,47.76a.53.53,0,0,1-.24-.06.51.51,0,0,1-.26-.51l.82-5.42a4.36,4.36,0,0,1-2.89-5l2.26-11A4.36,4.36,0,0,1,188.13,23a4.26,4.26,0,0,1,3.26-.62L213.8,27h0a4.32,4.32,0,0,1,3.37,5.12l-2.27,11a4.34,4.34,0,0,1-5.12,3.38l-17.72-3.65-5.15,4.77A.5.5,0,0,1,186.57,47.76Zm3.94-24.47a3.25,3.25,0,0,0-1.83.55A3.3,3.3,0,0,0,187.24,26L185,37a3.34,3.34,0,0,0,2.57,3.94.5.5,0,0,1,.39.56l-.67,4.46,4.3-4a.52.52,0,0,1,.44-.13l18,3.7a3.34,3.34,0,0,0,4-2.6l2.26-11a3.33,3.33,0,0,0-2.6-3.94h0l-22.4-4.62A3.91,3.91,0,0,0,190.51,23.29Z" fill="#231f20"/><path d="M210.35,36.23h-.1l-19.52-3.73a.5.5,0,0,1-.4-.58.51.51,0,0,1,.59-.4l19.52,3.73a.51.51,0,0,1,.4.59A.5.5,0,0,1,210.35,36.23Z" fill="#d1d3d4"/><path d="M203.48,40h-.09l-13.52-2.58a.5.5,0,0,1-.4-.59.49.49,0,0,1,.58-.39L203.58,39a.5.5,0,0,1-.1,1Z" fill="#d1d3d4"/><path d="M104.61,123.43S79.15,125,72.5,105.53l4,50.8s5.3,10.43,29.14,12.71Z" fill="#fff"/><path d="M105.65,169.54h-.05c-23.84-2.28-29.32-12.54-29.54-13a.41.41,0,0,1,0-.19l-4-50.8a.5.5,0,0,1,.4-.53.48.48,0,0,1,.57.33c6.45,18.89,31.36,17.58,31.61,17.56a.48.48,0,0,1,.37.14.52.52,0,0,1,.16.35l1,45.61a.55.55,0,0,1-.16.38A.55.55,0,0,1,105.65,169.54ZM77,156.19c.55.94,6.46,10.08,28.13,12.3l-1-44.54c-3.48.07-23.42-.17-30.87-15.31Z" fill="#231f20"/><polygon points="269.61 177.31 298.88 144.08 331.19 166.69 293.75 206.59 269.61 177.31" fill="#fff"/><path d="M293.75,207.09h0a.53.53,0,0,1-.37-.18l-24.14-29.29a.5.5,0,0,1,0-.64l29.27-33.23a.52.52,0,0,1,.67-.08l32.31,22.61a.5.5,0,0,1,.21.36.47.47,0,0,1-.13.39l-37.45,39.9A.5.5,0,0,1,293.75,207.09Zm-23.48-29.77,23.5,28.51,36.66-39.06-31.47-22Z" fill="#231f20"/><path d="M290.62,164.76l1.76-.5c.3-.09.61-.16.92-.22a.86.86,0,0,1,1,.42c.22.42.4.85.61,1.28a4.27,4.27,0,0,0,.35.67.87.87,0,0,0,.43.33q1.1.21,2.19.36a.78.78,0,0,0,.69-.29c.4-.42.78-.85,1.18-1.27a2.33,2.33,0,0,1,.51-.43.61.61,0,0,1,.47-.07,10,10,0,0,1,2.64,1.56.68.68,0,0,1,.22.82c-.19.57-.37,1.15-.58,1.72a1.12,1.12,0,0,0,.17,1.21c.39.48.76,1,1.13,1.47a.7.7,0,0,0,.6.27l1.18,0,1,0a.71.71,0,0,1,.73.53c.25.87.49,1.75.71,2.63a.75.75,0,0,1-.41.85c-.42.23-.87.41-1.3.62-.2.1-.4.2-.59.31a.9.9,0,0,0-.48.68c-.09.62-.18,1.23-.29,1.84a1,1,0,0,0,.34,1c.46.42.93.83,1.39,1.26a.82.82,0,0,1,.19,1.12c-.4.7-.81,1.4-1.23,2.09a.87.87,0,0,1-1.18.44c-.39-.12-.76-.27-1.14-.4s-.55-.17-.83-.24a.75.75,0,0,0-.68.12c-.52.38-1,.76-1.54,1.15a1,1,0,0,0-.41.91c0,.4.07.81.09,1.22a6.26,6.26,0,0,1,0,.75.75.75,0,0,1-.59.76l-2.39.62a1.58,1.58,0,0,1-.38,0,.67.67,0,0,1-.68-.4c-.25-.5-.49-1-.73-1.52a.54.54,0,0,1,0-.11,1.2,1.2,0,0,0-1.1-.79c-.48,0-1-.14-1.44-.22a1.2,1.2,0,0,0-1.16.44c-.37.42-.73.84-1.12,1.24a.8.8,0,0,1-1.18.19c-.73-.41-1.44-.84-2.15-1.29a.76.76,0,0,1-.36-1c.13-.46.3-.91.46-1.36a1.48,1.48,0,0,0-.31-1.94c-.24-.32-.5-.63-.74-.95a1.13,1.13,0,0,0-1-.46c-.47,0-.94.08-1.41.09a3.64,3.64,0,0,1-.74-.05.55.55,0,0,1-.5-.42c-.21-.84-.43-1.67-.64-2.51a1.42,1.42,0,0,1,0-.36.68.68,0,0,1,.39-.69l1.5-.72a3.83,3.83,0,0,0,.44-.25.86.86,0,0,0,.45-.65c.08-.59.17-1.18.25-1.78a.94.94,0,0,0-.35-.91l-1.24-1.12-.05,0c-.51-.51-.56-.75-.21-1.37s.83-1.37,1.26-2a.74.74,0,0,1,1-.34c.52.17,1,.35,1.53.55a1.28,1.28,0,0,0,1.42-.2c.45-.36.91-.7,1.37-1.06a.71.71,0,0,0,.3-.62c0-.57-.05-1.13-.07-1.7a1.57,1.57,0,0,1,.21-1.08Zm7.87,16.87a5.46,5.46,0,0,0,1.33-7.65,5.55,5.55,0,0,0-7.58-1.28,5.48,5.48,0,0,0-1.36,7.57A5.4,5.4,0,0,0,298.49,181.63Z" fill="#0b8c8c"/><path d="M313.14,163.39l.88-.25c.15,0,.31-.08.46-.12a.43.43,0,0,1,.49.22c.11.2.21.42.31.63a1.8,1.8,0,0,0,.17.34.42.42,0,0,0,.22.16c.36.08.73.14,1.09.19a.4.4,0,0,0,.35-.15l.59-.63a1,1,0,0,1,.25-.22.29.29,0,0,1,.24,0,5,5,0,0,1,1.32.78.34.34,0,0,1,.11.41c-.1.28-.19.57-.29.85a.56.56,0,0,0,.08.61c.2.24.38.49.57.74a.37.37,0,0,0,.3.13l.59,0h.5a.36.36,0,0,1,.37.27c.12.43.24.87.35,1.31a.36.36,0,0,1-.21.42c-.2.12-.43.21-.64.31l-.3.16a.47.47,0,0,0-.24.34c-.05.31-.09.61-.14.92a.48.48,0,0,0,.17.49l.69.63a.4.4,0,0,1,.09.56c-.19.35-.4.7-.61,1a.44.44,0,0,1-.59.22l-.57-.2a2.77,2.77,0,0,0-.41-.12.35.35,0,0,0-.34.06l-.77.57a.51.51,0,0,0-.21.46c0,.2,0,.4.05.6s0,.26,0,.38a.39.39,0,0,1-.3.38l-1.19.31a1.23,1.23,0,0,1-.19,0,.35.35,0,0,1-.34-.2c-.12-.25-.24-.51-.37-.76,0,0,0,0,0-.06a.58.58,0,0,0-.55-.39l-.72-.11a.58.58,0,0,0-.58.22c-.18.21-.37.41-.56.62a.4.4,0,0,1-.59.09c-.36-.2-.72-.42-1.07-.64a.38.38,0,0,1-.19-.49c.07-.23.16-.46.24-.68.17-.49.16-.57-.16-1l-.37-.48a.57.57,0,0,0-.5-.23l-.7,0a2.3,2.3,0,0,1-.37,0,.3.3,0,0,1-.25-.22c-.1-.42-.21-.83-.32-1.25a1.09,1.09,0,0,1,0-.18.33.33,0,0,1,.19-.34l.75-.37a1.55,1.55,0,0,0,.22-.12.45.45,0,0,0,.23-.33l.12-.88a.46.46,0,0,0-.18-.46l-.61-.56,0,0c-.25-.25-.28-.37-.1-.69s.41-.68.63-1a.37.37,0,0,1,.5-.17c.25.09.51.17.76.28a.68.68,0,0,0,.71-.1l.68-.53a.35.35,0,0,0,.15-.31l0-.86a.76.76,0,0,1,.1-.53Zm3.93,8.43a2.74,2.74,0,0,0,.67-3.83,2.78,2.78,0,0,0-3.79-.63,2.73,2.73,0,0,0-.68,3.78A2.7,2.7,0,0,0,317.07,171.82Z" fill="#0b8c8c"/><path d="M308.55,158.19a.49.49,0,0,1-.32-.12L298.56,150a.5.5,0,0,1-.07-.7.52.52,0,0,1,.71-.07l9.67,8.08a.49.49,0,0,1,.06.7A.48.48,0,0,1,308.55,158.19Z" fill="#d1d3d4"/><path d="M302.81,159.62a.51.51,0,0,1-.32-.12l-6.82-5.69a.5.5,0,0,1,.64-.77l6.82,5.7a.49.49,0,0,1,.07.7A.5.5,0,0,1,302.81,159.62Z" fill="#d1d3d4"/><rect x="143.44" y="208.2" width="42.87" height="28.44" transform="matrix(0.98, -0.21, 0.21, 0.98, -43.73, 40.38)" fill="#fff"/><path d="M147,241.39a.5.5,0,0,1-.49-.4l-6.08-27.78a.48.48,0,0,1,.07-.37.47.47,0,0,1,.31-.22l41.88-9.16a.5.5,0,0,1,.6.38l6.07,27.78a.48.48,0,0,1-.06.37.49.49,0,0,1-.32.22l-41.87,9.17Zm-5.48-27.9,5.86,26.8,40.9-8.95-5.86-26.8Z" fill="#231f20"/><rect x="171.62" y="213.63" width="4.49" height="15.76" transform="translate(391.05 400.74) rotate(167.66)" fill="#fff"/><path d="M173.35,230.19a.51.51,0,0,1-.49-.39l-3.36-15.4a.5.5,0,0,1,.06-.38.52.52,0,0,1,.32-.22l4.39-1a.49.49,0,0,1,.59.38l3.37,15.4a.51.51,0,0,1-.07.38.5.5,0,0,1-.31.22l-4.39,1Zm-2.77-15.52,3.15,14.42,3.42-.74L174,213.93Z" fill="#d1d3d4"/><rect x="164.84" y="219.16" width="4.49" height="11.76" transform="translate(378.41 409.17) rotate(167.66)" fill="#fff"/><path d="M166.15,231.77a.5.5,0,0,1-.49-.4l-2.51-11.49a.49.49,0,0,1,.38-.59l4.39-1a.51.51,0,0,1,.38.06.47.47,0,0,1,.21.32L171,230.2a.52.52,0,0,1-.07.38.45.45,0,0,1-.31.21l-4.39,1Zm-1.92-11.61,2.3,10.51,3.41-.75-2.3-10.51Z" fill="#d1d3d4"/><rect x="158.21" y="226.03" width="4.49" height="6.41" transform="translate(366.2 418.87) rotate(167.66)" fill="#fff"/><path d="M159,233.34a.51.51,0,0,1-.49-.39l-1.37-6.26a.5.5,0,0,1,.38-.6l4.39-1a.52.52,0,0,1,.38.07.5.5,0,0,1,.22.31l1.37,6.26a.52.52,0,0,1-.39.6l-4.39,1Zm-.78-6.38,1.16,5.29,3.41-.75-1.15-5.28Z" fill="#d1d3d4"/><path d="M154.49,234.32a.5.5,0,0,1-.49-.4l-4.18-19.1a.49.49,0,0,1,.38-.59.5.5,0,0,1,.6.38l4.07,18.61,27.4-6a.49.49,0,0,1,.59.38.5.5,0,0,1-.38.6l-27.88,6.1Z" fill="#d1d3d4"/><circle cx="254.86" cy="152.65" r="8.69" fill="#fff"/><path d="M254.86,161.84a9.19,9.19,0,1,1,9.19-9.19A9.19,9.19,0,0,1,254.86,161.84Zm0-17.37a8.19,8.19,0,1,0,8.19,8.18A8.19,8.19,0,0,0,254.86,144.47Z" fill="#231f20"/><path d="M254.86,159a6.35,6.35,0,1,1,6.35-6.35A6.35,6.35,0,0,1,254.86,159Zm0-11.77a5.42,5.42,0,1,0,5.42,5.42A5.42,5.42,0,0,0,254.86,147.23Z" fill="#d1d3d4"/><path d="M254.86,156.22a3.57,3.57,0,1,1,3.57-3.57A3.57,3.57,0,0,1,254.86,156.22Zm0-6.22a2.65,2.65,0,1,0,2.65,2.65A2.65,2.65,0,0,0,254.86,150Z" fill="#d1d3d4"/><path d="M211.79,31.81h-.1l-19.52-3.72a.51.51,0,0,1-.4-.59.5.5,0,0,1,.59-.4l19.52,3.73a.51.51,0,0,1,.4.59A.5.5,0,0,1,211.79,31.81Z" fill="#d1d3d4"/><path d="M232.07,69.53a4.7,4.7,0,1,1,4.69-4.69A4.7,4.7,0,0,1,232.07,69.53Zm0-8.39a3.7,3.7,0,1,0,3.69,3.7A3.7,3.7,0,0,0,232.07,61.14Z" fill="#d1d3d4"/><circle cx="117.74" cy="120.51" r="2.94" fill="#d1d3d4"/></g></svg>