<svg xmlns="http://www.w3.org/2000/svg" viewBox="0 0 400 300"><g id="_554_finance_analytics_flatline" data-name="#554_finance_analytics_flatline"><path d="M347.31,211.08a18.69,18.69,0,0,0-1.45-2.9c-1.77-4,1.68-8.12,4.13-11.71a28.81,28.81,0,0,0,4.35-10.13,3.24,3.24,0,0,0-.2-2.58,2.37,2.37,0,0,0-1.77-.88c-2.25-.16-4.1,1.77-5.2,3.74s-1.91,4.22-3.67,5.63c-3.41,2.72-9.59,1.7-11.37,5.69-1.1,2.47.27,5.82-1.54,7.83a7,7,0,0,1-2.26,1.42c-4.82,2.29-9.24,5.74-11.83,10.41-5.77,10.45,3.75,28.18,16.75,22.21,8.05-3.69,5.57-10.53,6.78-17C340.83,218.43,348.41,215.56,347.31,211.08Z" fill="#231f20"/><path d="M328.08,241.5a12.11,12.11,0,0,1-8.95-4.17c-4.95-5.35-6.3-14.12-3.06-20,3-5.48,8.23-8.8,12.05-10.62l.16-.08a6,6,0,0,0,1.94-1.23c.89-1,.9-2.42.92-3.94a9.39,9.39,0,0,1,.54-3.76c1.12-2.53,3.83-3.21,6.46-3.86a13.26,13.26,0,0,0,5.05-2,11.48,11.48,0,0,0,2.76-4c.25-.51.51-1,.79-1.51.71-1.27,2.67-4.2,5.67-4a2.8,2.8,0,0,1,2.14,1.08,3.73,3.73,0,0,1,.28,3,29.49,29.49,0,0,1-4.43,10.3c-.26.39-.54.79-.82,1.19-2.21,3.16-4.73,6.75-3.27,10a9.36,9.36,0,0,0,.59,1.06,7.48,7.48,0,0,1,.89,1.92h0c.68,2.77-1.53,4.91-3.68,7-1.6,1.55-3.26,3.15-3.59,4.93a34.88,34.88,0,0,0-.44,5c-.19,4.92-.37,9.56-6.62,12.43A12.88,12.88,0,0,1,328.08,241.5Zm24-58.13c-2.28,0-3.9,2.42-4.5,3.49-.27.48-.52,1-.77,1.47a12.21,12.21,0,0,1-3,4.3,13.84,13.84,0,0,1-5.43,2.2c-2.5.63-4.86,1.22-5.79,3.31a8.56,8.56,0,0,0-.46,3.36c0,1.63,0,3.33-1.18,4.6a6.72,6.72,0,0,1-2.24,1.46l-.16.08c-3.69,1.75-8.71,5-11.61,10.2-3,5.5-1.76,13.76,2.92,18.81a10.93,10.93,0,0,0,13.19,2.71c5.69-2.62,5.85-6.76,6-11.57a34.38,34.38,0,0,1,.45-5.11c.39-2.09,2.16-3.81,3.88-5.46,2-2,3.95-3.81,3.4-6a6.33,6.33,0,0,0-.78-1.65,13,13,0,0,1-.64-1.17c-1.68-3.8,1-7.63,3.36-11,.28-.4.56-.79.82-1.18a28.7,28.7,0,0,0,4.28-9.95,2.91,2.91,0,0,0-.12-2.19,1.85,1.85,0,0,0-1.4-.67Z" fill="#231f20"/><path d="M68.81,214.18c-3.58-2.35-4.27-7.21-6.34-11-2.83-5.14-8.36-8.21-13.93-10-.93-.31-2.14-.51-2.73.27a2.07,2.07,0,0,0-.31,1.43c.31,5.51,6,9.62,6.18,15.13.07,3.07-1.61,6.32-.22,9.06s5.11,3.53,6.32,6.28c.84,1.92.17,4.12.18,6.21.12,14.24,26.13,15.53,31.83,4.9,2.57-4.78.67-10.65-2.52-14.62C81.89,215.14,75,218.24,68.81,214.18Z" fill="#231f20"/><path d="M74.44,244a25,25,0,0,1-5.94-.69c-6.86-1.7-11-6.07-11-11.7a19.77,19.77,0,0,1,.13-2,8.1,8.1,0,0,0-.27-4,8.07,8.07,0,0,0-3-3A9.48,9.48,0,0,1,51,219.29c-.95-1.88-.57-3.95-.21-5.95a16.48,16.48,0,0,0,.38-3.31c-.06-2.66-1.49-5-3-7.42s-3-4.86-3.17-7.7a2.67,2.67,0,0,1,.41-1.77c.62-.8,1.72-.95,3.28-.43C55.62,195,60.41,198.45,62.91,203a35.14,35.14,0,0,1,1.72,3.86c1.1,2.78,2.14,5.41,4.45,6.92h0c2.51,1.65,5.21,2.09,7.82,2.51,3.7.6,7.52,1.22,10.76,5.26,3,3.69,5.41,9.87,2.57,15.16C87.58,241.64,80.89,244,74.44,244ZM47.09,193.4a1.09,1.09,0,0,0-.89.35,1.67,1.67,0,0,0-.2,1.11c.14,2.58,1.54,4.84,3,7.22s3.09,5,3.16,7.92a17.34,17.34,0,0,1-.4,3.52c-.35,1.92-.68,3.74.12,5.32a8.71,8.71,0,0,0,3,2.87,9,9,0,0,1,3.36,3.44,8.83,8.83,0,0,1,.35,4.47c-.06.65-.12,1.31-.12,1.94.06,7.42,7.21,10,10.28,10.74,7.38,1.82,17.35,0,20.61-6.08,2.61-4.86.3-10.62-2.47-14.07-3-3.74-6.47-4.3-10.14-4.89-2.71-.44-5.52-.9-8.21-2.67s-3.72-4.58-4.83-7.38A33.3,33.3,0,0,0,62,203.46c-2.38-4.31-7-7.61-13.66-9.81A4.4,4.4,0,0,0,47.09,193.4Z" fill="#231f20"/><path d="M87.89,198c.1-2.33,1.48-4.42,1.8-6.73.78-5.79-4.93-10-8.69-14.5C77,172,74.9,166,72.6,160.29c-.84-2.08-1.78-4.24-3.54-5.63s-4.6-1.68-6.12,0c-1.12,1.23-1.19,3.08-1.08,4.75A35.74,35.74,0,0,0,64.66,171c1.41,3.3,3.37,6.7,2.75,10.24-.51,2.92-2.66,5.21-4.34,7.64s-3,5.66-1.57,8.27c.85,1.6,2.5,2.57,3.92,3.69a17.67,17.67,0,0,1,5.66,18.82A25.52,25.52,0,0,0,69.47,225c-.3,3.09,1.4,6.05,3.55,8.29,7.87,8.18,28.79,9.62,32.15-4,1.47-5.95-1.21-13.69-5.31-18C96.06,207.27,87.61,204.59,87.89,198Z" fill="#231f20"/><path d="M89.57,239.94c-6.39,0-13.09-2.38-16.91-6.36-1.54-1.6-4.06-4.85-3.68-8.68a15.08,15.08,0,0,1,1.07-3.84c.19-.5.39-1,.55-1.52a17.24,17.24,0,0,0-5.49-18.28l-.92-.7a10.09,10.09,0,0,1-3.13-3.14c-1.69-3.18.28-6.87,1.6-8.79.36-.52.75-1,1.13-1.56,1.35-1.82,2.75-3.71,3.13-5.88.49-2.82-.78-5.64-2-8.36-.24-.54-.48-1.07-.71-1.61a36.08,36.08,0,0,1-2.83-11.8c-.12-1.64-.08-3.71,1.21-5.12,1.76-1.93,4.9-1.52,6.79,0s2.78,3.58,3.69,5.84l.75,1.9c2,5.05,4.07,10.28,7.57,14.43.79.94,1.7,1.9,2.57,2.83,3.38,3.57,6.88,7.27,6.23,12.06a15.55,15.55,0,0,1-.9,3.17,11.93,11.93,0,0,0-.89,3.51h0c-.19,4.27,3.6,6.85,7.27,9.34a28.83,28.83,0,0,1,4.56,3.54c4.53,4.71,6.87,12.64,5.44,18.43-1.22,4.93-4.86,8.44-10.25,9.89A22.91,22.91,0,0,1,89.57,239.94ZM65.74,154a3.2,3.2,0,0,0-2.43,1c-1,1.12-1.05,2.93-1,4.37a35.2,35.2,0,0,0,2.75,11.48c.23.53.47,1.06.71,1.59,1.29,2.86,2.62,5.82,2.08,8.94-.42,2.41-1.89,4.39-3.31,6.31q-.57.75-1.11,1.53c-1,1.39-3,4.93-1.54,7.75a9.24,9.24,0,0,0,2.85,2.82c.32.23.63.47.94.71a18.25,18.25,0,0,1,5.82,19.37c-.17.52-.37,1-.57,1.56A14.22,14.22,0,0,0,70,225c-.34,3.43,2,6.42,3.41,7.89,4.79,5,14.36,7.34,21.77,5.35,3.56-1,8.1-3.31,9.54-9.16,1.49-6-1.47-13.63-5.19-17.51a28.33,28.33,0,0,0-4.4-3.4c-3.71-2.52-7.91-5.37-7.71-10.2a12.84,12.84,0,0,1,1-3.81,14,14,0,0,0,.85-3c.59-4.31-2.74-7.83-6-11.24-.88-.94-1.8-1.9-2.61-2.87-3.61-4.28-5.7-9.58-7.73-14.71l-.76-1.89c-.85-2.13-1.75-4.15-3.38-5.43A5,5,0,0,0,65.74,154Zm22.15,44h0Z" fill="#231f20"/><rect x="258.61" y="178.76" width="70.16" height="65.34" transform="translate(587.38 422.87) rotate(-180)" fill="#0b8c8c"/><path d="M328.77,244.6H258.61a.5.5,0,0,1-.5-.5V178.76a.5.5,0,0,1,.5-.5h70.16a.5.5,0,0,1,.5.5V244.1A.5.5,0,0,1,328.77,244.6Zm-69.66-1h69.16V179.26H259.11Z" fill="#231f20"/><rect x="168.43" y="148" width="70.16" height="96.1" transform="translate(407.03 392.1) rotate(-180)" fill="#0b8c8c"/><path d="M238.6,244.6H168.43a.5.5,0,0,1-.5-.5V148a.51.51,0,0,1,.5-.5H238.6a.51.51,0,0,1,.5.5v96.1A.5.5,0,0,1,238.6,244.6Zm-69.67-1H238.1V148.5H168.93Z" fill="#231f20"/><rect x="78.26" y="98.16" width="70.16" height="145.94" transform="translate(226.68 342.26) rotate(-180)" fill="#0b8c8c"/><path d="M148.42,244.6H78.26a.5.5,0,0,1-.5-.5V98.16a.5.5,0,0,1,.5-.5h70.16a.5.5,0,0,1,.5.5V244.1A.5.5,0,0,1,148.42,244.6Zm-69.66-1h69.16V98.66H78.76Z" fill="#231f20"/><polygon points="275.9 136.28 275.9 149.3 266.32 149.3 275.9 154.88 275.9 170.4 323.73 170.4 323.73 136.28 275.9 136.28" fill="#fff"/><path d="M323.73,170.9H275.9a.51.51,0,0,1-.5-.5V155.17l-9.33-5.44a.5.5,0,0,1,.25-.93h9.08V136.28a.51.51,0,0,1,.5-.5h47.83a.5.5,0,0,1,.5.5V170.4A.5.5,0,0,1,323.73,170.9Zm-47.33-1h46.83V136.78H276.4V149.3a.5.5,0,0,1-.5.5h-7.73l8,4.65a.5.5,0,0,1,.25.43Z" fill="#231f20"/><path d="M288.5,115.93c.13-.39.26-.78.4-1.17.07-.2.15-.4.23-.6a.58.58,0,0,1,.62-.38c.32,0,.63.11.94.16a4.43,4.43,0,0,0,.51.06.52.52,0,0,0,.35-.11c.36-.35.71-.71,1.05-1.07a.53.53,0,0,0,.11-.5c-.08-.38-.17-.76-.25-1.14a1.38,1.38,0,0,1,0-.45.42.42,0,0,1,.14-.29,6.88,6.88,0,0,1,1.89-.86.48.48,0,0,1,.54.19c.24.33.49.66.72,1a.79.79,0,0,0,.75.38c.41,0,.83,0,1.25-.06a.47.47,0,0,0,.38-.23c.15-.22.29-.44.43-.66s.25-.39.38-.57a.49.49,0,0,1,.58-.2c.58.2,1.16.4,1.73.62a.51.51,0,0,1,.31.56c0,.32-.1.64-.16,1,0,.15,0,.3-.05.45a.6.6,0,0,0,.19.53c.3.29.61.57.91.87a.66.66,0,0,0,.67.19l1.24-.28a.55.55,0,0,1,.69.33c.24.49.47,1,.68,1.49a.59.59,0,0,1-.21.83c-.21.16-.44.31-.66.47l-.46.37a.55.55,0,0,0-.19.42c0,.44,0,.87,0,1.3a.68.68,0,0,0,.35.58l.71.42c.14.09.29.18.42.28a.49.49,0,0,1,.19.62c-.19.53-.38,1-.58,1.56a1,1,0,0,1-.13.23.44.44,0,0,1-.48.22l-1.13-.18-.08,0a.82.82,0,0,0-.86.3c-.21.25-.45.48-.68.72a.81.81,0,0,0-.21.81c.09.37.18.73.26,1.1a.54.54,0,0,1-.36.73c-.5.24-1,.47-1.54.69a.52.52,0,0,1-.69-.18c-.2-.25-.38-.52-.57-.78-.4-.57-.5-.62-1.2-.58l-.81,0a.74.74,0,0,0-.64.37c-.16.27-.32.55-.49.81a3,3,0,0,1-.31.39.37.37,0,0,1-.43.11l-1.64-.61a1.43,1.43,0,0,1-.21-.12.45.45,0,0,1-.23-.49l.18-1.11a1.87,1.87,0,0,0,0-.34.6.6,0,0,0-.19-.5l-.88-.83a.65.65,0,0,0-.65-.15l-1.1.25h0c-.48.09-.63,0-.84-.42s-.44-1-.64-1.49a.49.49,0,0,1,.19-.68c.3-.22.59-.44.9-.64a.86.86,0,0,0,.44-.86c0-.39,0-.78-.06-1.17a.5.5,0,0,0-.23-.41l-1-.62a1,1,0,0,1-.51-.53Zm12.39,2.17a3.69,3.69,0,0,0-3.72-3.7,3.76,3.76,0,0,0-3.65,3.71,3.71,3.71,0,0,0,3.67,3.68A3.65,3.65,0,0,0,300.89,118.1Z" fill="#fff"/><path d="M295.08,127.31a.89.89,0,0,1-.31-.06l-1.64-.61a1.39,1.39,0,0,1-.28-.16,1,1,0,0,1-.48-1l.18-1.12a1.33,1.33,0,0,0,0-.28c0-.08,0-.1,0-.11l-.89-.83a.17.17,0,0,0-.19,0l-.8.19-.3.07a1.12,1.12,0,0,1-1.45-.68c-.24-.5-.45-1-.66-1.52a1,1,0,0,1,.36-1.27q.45-.34.93-.66a.39.39,0,0,0,.21-.41c0-.25,0-.5,0-.76l0-.41-1-.64a1.52,1.52,0,0,1-.72-.79.88.88,0,0,1,0-.16v-.14a.41.41,0,0,1,0-.16l.1-.32.3-.86c.07-.21.16-.42.24-.62a1.07,1.07,0,0,1,1.14-.68c.21,0,.43.06.65.1l.45.08a2.4,2.4,0,0,0,.28,0,14.41,14.41,0,0,0,1.05-1l-.13-.55c-.05-.22-.1-.43-.14-.65a2,2,0,0,1-.05-.6.88.88,0,0,1,.38-.66,7.16,7.16,0,0,1,2-.92.94.94,0,0,1,1.07.38l.25.34.49.66c.1.15.16.17.29.16l.84,0,.43,0c.07-.14.16-.27.24-.41l.25-.38.32-.47a1,1,0,0,1,1.14-.37c.59.2,1.17.4,1.75.63a1,1,0,0,1,.63,1.07c0,.23-.07.45-.11.68l-.05.31c0,.13,0,.27-.06.41a.18.18,0,0,0,0,.13l.21.19c.24.22.48.45.71.69.06.06.1.08.22,0l1.23-.28a1,1,0,0,1,1.25.6c.24.5.47,1,.69,1.51a1.07,1.07,0,0,1-.36,1.42l-.41.3-.26.18-.43.34v.35c0,.32,0,.65,0,1a.19.19,0,0,0,.1.17l.3.17.42.25a4.87,4.87,0,0,1,.47.32,1,1,0,0,1,.35,1.19c-.19.52-.38,1-.58,1.56a1.72,1.72,0,0,1-.17.31,1,1,0,0,1-1,.46l-1.13-.19-.11,0a.32.32,0,0,0-.37.14c-.16.18-.33.36-.5.53l-.2.2a.35.35,0,0,0-.09.35c.1.37.19.74.27,1.12a1,1,0,0,1-.63,1.28c-.52.25-1,.48-1.56.7a1,1,0,0,1-1.28-.33c-.17-.21-.33-.44-.49-.66l-.1-.14c-.28-.4-.28-.4-.76-.37l-.81,0a.26.26,0,0,0-.24.14l-.16.27-.34.56a4.14,4.14,0,0,1-.37.46A.93.93,0,0,1,295.08,127.31Zm-3.52-5.21a1.16,1.16,0,0,1,.79.32l.88.82a1.08,1.08,0,0,1,.35.9c0,.13,0,.26,0,.39l-.18,1.11.13.06,1.56.59a1.93,1.93,0,0,0,.22-.28l.32-.52.17-.28a1.21,1.21,0,0,1,1-.61l.82,0a1.46,1.46,0,0,1,1.63.79l.1.14c.15.21.3.42.46.62h0l.09,0h0c.52-.21,1-.44,1.53-.68l.1-.06a.44.44,0,0,1,0-.12c-.08-.36-.16-.72-.25-1.07a1.3,1.3,0,0,1,.33-1.29l.21-.22c.15-.15.31-.3.45-.47a1.29,1.29,0,0,1,1.35-.46l1.18.19c0-.06.06-.11.06-.13.2-.52.39-1,.58-1.56A2.1,2.1,0,0,0,305,120l-.7-.41a1.19,1.19,0,0,1-.59-1c0-.34,0-.67,0-1v-.3a1.07,1.07,0,0,1,.37-.82q.24-.21.48-.39l.29-.2c.12-.09.24-.17.36-.27a.6.6,0,0,0,.11-.1.44.44,0,0,0,0-.13c-.21-.5-.44-1-.67-1.47l-.13-.06-1.24.28a1.18,1.18,0,0,1-1.14-.33c-.22-.23-.46-.45-.69-.66l-.2-.2a1.11,1.11,0,0,1-.35-.93,3.86,3.86,0,0,1,.06-.49l.06-.33c0-.2.07-.4.09-.6-.56-.26-1.13-.46-1.7-.66-.11.16-.21.3-.3.45l-.24.37-.28.42a.94.94,0,0,1-.77.45l-.44,0-.8,0a1.24,1.24,0,0,1-1.19-.59c-.15-.22-.3-.43-.46-.63l-.26-.35a6,6,0,0,0-1.67.74,1.36,1.36,0,0,0,0,.27c0,.21.09.42.14.63l.11.51a1,1,0,0,1-.23.94c-.35.37-.71.74-1.07,1.09a1,1,0,0,1-.69.25,2.7,2.7,0,0,1-.48,0l-.45-.08-.58-.09s-.07,0-.11.08-.15.37-.22.57l-.29.84L289,116a1.16,1.16,0,0,0,.27.2l1,.62a1,1,0,0,1,.46.81l0,.42c0,.25,0,.49,0,.74a1.36,1.36,0,0,1-.67,1.31c-.3.2-.58.4-.86.62-.07,0-.08.07-.08.07.24.52.45,1,.67,1.49a1,1,0,0,0,.1.17l.2,0,.33-.08.78-.18A1.22,1.22,0,0,1,291.56,122.1Zm5.64.19h0a4.17,4.17,0,0,1-2.93-7.14,4.11,4.11,0,0,1,2.91-1.25,4.18,4.18,0,0,1,4.22,4.19,4,4,0,0,1-1.12,2.89A4.2,4.2,0,0,1,297.2,122.29Zm-.05-7.39a3.19,3.19,0,0,0-2.18,1,3.16,3.16,0,0,0-1,2.25,3.19,3.19,0,0,0,3.17,3.18h0a3.12,3.12,0,0,0,2.34-1,3,3,0,0,0,.85-2.15v0a3.19,3.19,0,0,0-3.22-3.2Z" fill="#d1d3d4"/><polygon points="162.33 79.39 153.65 75.48 153.65 56.33 108.44 56.33 108.44 85.56 153.65 85.56 153.65 79.39 162.33 79.39" fill="#fff"/><path d="M153.65,86.06H108.44a.5.5,0,0,1-.5-.5V56.32a.51.51,0,0,1,.5-.5h45.21a.5.5,0,0,1,.5.5V75.15l8.39,3.78a.5.5,0,0,1-.21,1h-8.18v5.67A.5.5,0,0,1,153.65,86.06Zm-44.71-1h44.21V79.39a.5.5,0,0,1,.5-.5H160l-6.55-3a.5.5,0,0,1-.3-.45V56.82H108.94Z" fill="#231f20"/><path d="M131.79,64.22,138.53,71a.35.35,0,0,0,.27.11h10.34a10,10,0,1,1-17.44-6.94Z" fill="#0b8c8c"/><path d="M139.53,60.75v9.62h.1l9.31,0c.21,0,.21,0,.2-.21A10,10,0,0,0,140,60.8Z" fill="#d1d3d4"/><path d="M138.82,70.24V60.76a10.73,10.73,0,0,0-3.27.69,10.06,10.06,0,0,0-3.36,2.17Z" fill="#d1d3d4"/><path d="M124.91,65.84H113.34a.5.5,0,0,1-.5-.5.5.5,0,0,1,.5-.5h11.57a.5.5,0,0,1,.5.5A.5.5,0,0,1,124.91,65.84Z" fill="#d1d3d4"/><path d="M124.91,70.71H113.34a.5.5,0,0,1-.5-.5.5.5,0,0,1,.5-.5h11.57a.5.5,0,0,1,.5.5A.5.5,0,0,1,124.91,70.71Z" fill="#d1d3d4"/><path d="M121,75.58h-7.61a.5.5,0,0,1-.5-.5.5.5,0,0,1,.5-.5H121a.5.5,0,0,1,.5.5A.5.5,0,0,1,121,75.58Z" fill="#d1d3d4"/><rect x="285.92" y="150.6" width="3.71" height="15.13" fill="#0b8c8c"/><rect x="292.76" y="156.85" width="3.71" height="8.88" fill="#0b8c8c"/><rect x="299.6" y="152.78" width="3.71" height="12.95" fill="#0b8c8c"/><rect x="306.45" y="160.17" width="3.71" height="5.56" fill="#0b8c8c"/><rect x="313.29" y="152.78" width="3.71" height="12.95" fill="#0b8c8c"/><path d="M316.91,141.43h-6.28a.48.48,0,0,1-.47-.48.47.47,0,0,1,.47-.48h6.28a.48.48,0,0,1,.48.48A.49.49,0,0,1,316.91,141.43Z" fill="#d1d3d4"/><path d="M314.73,143.76h-4.1a.48.48,0,0,1-.47-.48.47.47,0,0,1,.47-.48h4.1a.48.48,0,0,1,.48.48A.49.49,0,0,1,314.73,143.76Z" fill="#d1d3d4"/><path d="M308.76,153.32c-2.11,0-3.88-2.27-5.31-4.09-.75-1-1.68-2.15-2.12-2.15h0a6.39,6.39,0,0,0-2.36,1c-1.31.76-2.78,1.62-4.25,1.54-2.61-.14-7.21-5.49-7.72-6.1a.47.47,0,0,1,.05-.67.49.49,0,0,1,.68.06c1.32,1.56,5.18,5.65,7,5.76a7.76,7.76,0,0,0,3.71-1.42,7,7,0,0,1,2.81-1.17c.87,0,1.79,1.1,2.91,2.52,1.32,1.69,3,3.8,4.64,3.72,1.44-.07,2.12-1.32,2.92-2.77s1.62-3,3.33-3.28a.49.49,0,0,1,.56.38.48.48,0,0,1-.38.56c-1.27.24-1.95,1.48-2.67,2.8-.82,1.49-1.74,3.17-3.71,3.26Z" fill="#d1d3d4"/><path d="M320.17,166.21H282.92a.48.48,0,0,1,0-1h37.25a.48.48,0,0,1,0,1Z" fill="#d1d3d4"/><path d="M287.45,144.33a1.1,1.1,0,1,1,1.1-1.1A1.09,1.09,0,0,1,287.45,144.33Zm0-1.24a.14.14,0,0,0-.14.14c0,.16.29.16.29,0A.15.15,0,0,0,287.45,143.09Z" fill="#d1d3d4"/><path d="M315.19,147.88a1.1,1.1,0,0,1,0-2.2,1.1,1.1,0,1,1,0,2.2Zm0-1.24a.14.14,0,0,0-.14.14c0,.16.28.16.28,0A.14.14,0,0,0,315.19,146.64Z" fill="#d1d3d4"/><path d="M302.34,102.39V99.55c-1-.28-2-.49-3-.82a8.76,8.76,0,0,1-4.61-3.46,8.59,8.59,0,0,1-1.33-4.8h5.53a4.4,4.4,0,0,0,3.39,4.1V87.05c-1.11-.32-2.21-.62-3.31-1a7.79,7.79,0,0,1-3.22-1.83A6.42,6.42,0,0,1,294,80.76a9,9,0,0,1,.35-4.82,8,8,0,0,1,4.86-4.82,25.51,25.51,0,0,1,2.8-.72l.33-.07V66.58h5.18v.36c0,1.08,0,2.15,0,3.22,0,.27.09.35.34.41a10.84,10.84,0,0,1,4.83,2.25,7.83,7.83,0,0,1,2.74,4.81c.09.51.13,1,.2,1.58H310a3.94,3.94,0,0,0-2.44-3.57v7l.61.14a20.06,20.06,0,0,1,4.41,1.41,6.41,6.41,0,0,1,3.83,5.34,8.39,8.39,0,0,1-1.46,6.1,8.5,8.5,0,0,1-4.18,3.1c-1,.36-2.12.59-3.24.9v2.75Zm5.2-14.26v6.53a4.72,4.72,0,0,0,2.29-1c1.2-1,1.63-3.45-.13-4.52A21.62,21.62,0,0,0,307.54,88.13Zm-5.22-6.68v-6.3a19,19,0,0,0-2,1,2.72,2.72,0,0,0,.17,4.55C301.08,81,301.69,81.19,302.32,81.45Z" fill="#0b8c8c"/><path d="M307.52,102.89h-5.18a.51.51,0,0,1-.5-.5V99.94l-.59-.15c-.71-.18-1.39-.36-2.07-.59a9.32,9.32,0,0,1-4.87-3.66,9,9,0,0,1-1.41-5.07.48.48,0,0,1,.5-.5h5.53a.49.49,0,0,1,.5.43,3.87,3.87,0,0,0,2.39,3.47V87.43l-.63-.18c-.78-.23-1.56-.45-2.33-.69a8.37,8.37,0,0,1-3.42-2,6.82,6.82,0,0,1-1.93-3.75,9.48,9.48,0,0,1,.37-5.09,8.52,8.52,0,0,1,5.15-5.1,14.36,14.36,0,0,1,2-.55l.82-.18V66.58a.5.5,0,0,1,.5-.5h5.18a.5.5,0,0,1,.5.5v1.26c0,.75,0,1.5,0,2.25a11.25,11.25,0,0,1,5,2.35,8.29,8.29,0,0,1,2.91,5.1c.07.36.11.73.15,1.1l.06.51a.51.51,0,0,1-.5.56H310a.51.51,0,0,1-.5-.47,3.39,3.39,0,0,0-1.44-2.74v5.75l.21,0a19.86,19.86,0,0,1,4.52,1.45,6.87,6.87,0,0,1,4.11,5.73,8.8,8.8,0,0,1-1.55,6.45,8.91,8.91,0,0,1-4.42,3.28c-.73.25-1.46.44-2.24.64L308,100v2.37A.5.5,0,0,1,307.52,102.89Zm-4.68-1H307V99.64a.5.5,0,0,1,.37-.48l1-.28c.76-.19,1.47-.38,2.17-.62a8,8,0,0,0,3.93-2.91,7.79,7.79,0,0,0,1.37-5.75,5.87,5.87,0,0,0-3.54-4.95,19.37,19.37,0,0,0-4.31-1.37l-.44-.1-.17-.05a.49.49,0,0,1-.39-.48v-7a.54.54,0,0,1,.23-.43.51.51,0,0,1,.48,0,4.38,4.38,0,0,1,2.68,3.53h4.62c0-.34-.07-.67-.13-1a7.33,7.33,0,0,0-2.57-4.51,10.47,10.47,0,0,0-4.61-2.15.82.82,0,0,1-.74-.89c0-.78,0-1.55,0-2.32v-.76h-4.18v3.25a.49.49,0,0,1-.4.49l-.12,0-.19,0-.89.2a12.49,12.49,0,0,0-1.85.5,7.54,7.54,0,0,0-4.57,4.53,8.3,8.3,0,0,0-.32,4.55,5.81,5.81,0,0,0,1.65,3.22,7.14,7.14,0,0,0,3,1.71c.76.25,1.53.47,2.31.69l1,.28a.5.5,0,0,1,.36.48v7.52a.49.49,0,0,1-.19.39.5.5,0,0,1-.44.09A4.81,4.81,0,0,1,298.5,91h-4.59a7.85,7.85,0,0,0,1.24,4,8.27,8.27,0,0,0,4.36,3.26c.64.22,1.29.39,2,.57l1,.25a.5.5,0,0,1,.36.48Zm4.7-6.73a.47.47,0,0,1-.32-.12.53.53,0,0,1-.18-.38V88.13a.5.5,0,0,1,.71-.45l.7.3a11,11,0,0,1,1.51.72,2.93,2.93,0,0,1,1.41,2.36,3.64,3.64,0,0,1-1.22,3,5.16,5.16,0,0,1-2.53,1.12Zm.5-6.27V94a4,4,0,0,0,1.47-.77,2.66,2.66,0,0,0,.86-2.14,1.93,1.93,0,0,0-.93-1.57,11,11,0,0,0-1.38-.65ZM302.32,82a.46.46,0,0,1-.19,0l-.58-.23c-.44-.17-.85-.33-1.26-.53a2.92,2.92,0,0,1-1.58-2.48,3.29,3.29,0,0,1,1.36-2.93,9,9,0,0,1,1.38-.73l.65-.31a.49.49,0,0,1,.72.45v6.3a.48.48,0,0,1-.22.41A.47.47,0,0,1,302.32,82Zm-.5-6a8.31,8.31,0,0,0-1.19.63,2.32,2.32,0,0,0-.92,2,1.91,1.91,0,0,0,1,1.64,11.52,11.52,0,0,0,1.07.47Z" fill="#231f20"/><path d="M238.22,59.57S270,58,276.43,79v42s-24.69-19.48-38.21-13Z" fill="#d1d3d4"/><path d="M276.43,121.42a.51.51,0,0,1-.31-.11c-.25-.19-24.62-19.21-37.68-12.9a.48.48,0,0,1-.48,0,.52.52,0,0,1-.24-.43V59.57a.5.5,0,0,1,.48-.5c.32,0,32.25-1.35,38.71,19.74a.77.77,0,0,1,0,.15v42a.5.5,0,0,1-.28.45A.59.59,0,0,1,276.43,121.42Zm-31.77-15.31c4.93,0,10.94,1.82,18,5.44a100.61,100.61,0,0,1,13.31,8.36V79c-5.86-18.9-33.25-19.06-37.21-19v47.14A15.56,15.56,0,0,1,244.66,106.11Z" fill="#231f20"/><path d="M270,108.56a.5.5,0,0,1-.49-.4c-1.83-8.92-5.42-21.58-7.66-21.79-1.18-.12-1.83,2.74-2.4,5.26-.65,2.85-1.26,5.55-2.84,6.17a2.31,2.31,0,0,1-2.22-.42c-4.93-3.31-10.12-24.24-10.34-25.13a.51.51,0,0,1,.37-.61.5.5,0,0,1,.6.37c.06.21,5.31,21.45,9.92,24.54a1.46,1.46,0,0,0,1.31.33c1.08-.44,1.69-3.11,2.22-5.47.73-3.21,1.4-6.24,3.47-6,3.8.36,7.79,18.88,8.55,22.59a.5.5,0,0,1-.39.59Z" fill="#231f20"/><path d="M276.43,79s-2.18,17.12-12.84,20.79V137s8-3.62,12.84-16Z" fill="#fff"/><path d="M263.59,137.47a.5.5,0,0,1-.5-.5V99.75a.51.51,0,0,1,.34-.47c10.24-3.53,12.48-20.22,12.5-20.38a.48.48,0,0,1,.53-.44.51.51,0,0,1,.47.5v42a.57.57,0,0,1,0,.18c-4.83,12.48-12.77,16.17-13.1,16.32A.54.54,0,0,1,263.59,137.47Zm.5-37.37v36c2-1.21,8-5.42,11.84-15.3v-37C274.48,89.18,271.16,97.45,264.09,100.1Z" fill="#231f20"/><path d="M258.41,69a.45.45,0,0,1-.27-.08,14.42,14.42,0,0,0-5.8-2.09.5.5,0,0,1-.45-.55.51.51,0,0,1,.54-.45,15.38,15.38,0,0,1,6.26,2.25.51.51,0,0,1,.14.7A.52.52,0,0,1,258.41,69Z" fill="#231f20"/><path d="M258,72.29a.57.57,0,0,1-.28-.08A11.86,11.86,0,0,0,254,70.59a.5.5,0,1,1,.16-1,12.82,12.82,0,0,1,4.11,1.76.5.5,0,0,1,.15.69A.51.51,0,0,1,258,72.29Z" fill="#231f20"/><path d="M222,107.9l4.94-3.2c1.56-1,3.33-4,4.62-3.86s-1.48,3.69-1.48,3.69,5.22-3.08,6.72-3,2,2.68,1.56,3.42-4.75,2.13-6.43,3.45a73.2,73.2,0,0,1-7,4.07" fill="#fff"/><path d="M224.91,113a.5.5,0,0,1-.23-.94,71.35,71.35,0,0,0,6.91-4,21.86,21.86,0,0,1,3.83-2,12.54,12.54,0,0,0,2.49-1.3,2.66,2.66,0,0,0-.26-1.9,1.18,1.18,0,0,0-.9-.74c-1-.07-4.48,1.77-6.45,2.93a.5.5,0,0,1-.63-.1.51.51,0,0,1,0-.64,9.32,9.32,0,0,0,1.71-2.89c-.53.07-1.41,1-2.13,1.85a11.48,11.48,0,0,1-2,1.94l-4.94,3.2-.54-.84s3.38-2.2,4.94-3.2a10.69,10.69,0,0,0,1.84-1.77c1.07-1.19,2.09-2.31,3.11-2.17a.84.84,0,0,1,.71.52,3,3,0,0,1-.61,2.18c1.67-.89,4-2,5-2h.07a2.11,2.11,0,0,1,1.74,1.28,3.36,3.36,0,0,1,.21,2.9c-.3.47-1.21.89-2.91,1.67a21.16,21.16,0,0,0-3.63,1.91,70.14,70.14,0,0,1-7.07,4.12A.46.46,0,0,1,224.91,113Z" fill="#231f20"/><path d="M226.44,87.65a24.69,24.69,0,0,1,5.13-2.05c2-.4,4.55-.54,4.09-1.43s-5.2-.27-5.22-.26c2.17-.29,4.22-6.91,4.87-8.52a1.83,1.83,0,0,0,.17-.82.59.59,0,0,0-.55-.54.84.84,0,0,0-.5.28c-3.64,3.35-6.9,6.82-10.7,10C223.35,84.69,226.44,87.65,226.44,87.65Z" fill="#fff"/><path d="M226.44,88.15a.52.52,0,0,1-.35-.14c-2.9-2.79-2.9-3.39-2.89-3.59a.71.71,0,0,1,.19-.44c2.33-2,4.5-4.08,6.59-6.12,1.33-1.29,2.7-2.62,4.11-3.92a1.3,1.3,0,0,1,.81-.41,1.05,1.05,0,0,1,1.07,1,2.05,2.05,0,0,1-.2,1.07c-.09.23-.21.55-.35.94-.92,2.55-2,5.22-3.18,6.71,1.8-.12,3.49,0,3.87.72a.89.89,0,0,1,0,.81c-.33.63-1.35.83-3.13,1.11l-1.33.23a24.63,24.63,0,0,0-5,2A.46.46,0,0,1,226.44,88.15Zm-2.17-3.61a20.3,20.3,0,0,0,2.26,2.5,23.11,23.11,0,0,1,4.94-1.93c.45-.09.92-.16,1.37-.24a10.39,10.39,0,0,0,2.31-.52,14,14,0,0,0-4.64.05.5.5,0,0,1-.14-1c1.56-.21,3.41-5.31,4.11-7.24.15-.4.27-.74.36-1a1.27,1.27,0,0,0,.14-.57.15.15,0,0,0-.06-.11,1,1,0,0,1-.15.16c-1.4,1.29-2.77,2.62-4.09,3.9C228.64,80.56,226.53,82.61,224.27,84.54Z" fill="#231f20"/><path d="M192.6,89.51s16.6,4.47,19.24,4.13l11.34-10,5.4,4.54s-4.19,8.84-9.07,13.66-32.67,2.57-32.67,2.57Z" fill="#fff"/><path d="M200.5,105.45c-7,0-13.17-.49-13.7-.53a.48.48,0,0,1-.38-.23.51.51,0,0,1,0-.45l5.76-14.91a.5.5,0,0,1,.6-.3c4.4,1.18,16,4.13,18.75,4.13h.15l11.22-9.88a.49.49,0,0,1,.65,0l5.4,4.54a.5.5,0,0,1,.13.6c-.17.36-4.28,9-9.17,13.8C217.22,104.82,208.38,105.45,200.5,105.45ZM187.55,104c4.25.3,27.36,1.73,31.61-2.47s8-11.5,8.8-13.18l-4.77-4-11,9.71a.51.51,0,0,1-.27.12c-2.5.32-16.3-3.31-19-4Z" fill="#231f20"/><path d="M217.29,191.62s-3.44,3.23-3.21,5,10.51,13.33,11.75,12.2-2.16-11-2.16-11Z" fill="#231f20"/><path d="M225.6,209.37a1.42,1.42,0,0,1-.49-.1c-2.58-.94-11.28-10.87-11.52-12.62-.26-1.93,3-5.05,3.36-5.39a.5.5,0,0,1,.69,0L224,197.4a.5.5,0,0,1,.13.19c1.05,3.08,3.36,10.36,2,11.57A.77.77,0,0,1,225.6,209.37Zm-8.31-17.06c-1.24,1.24-2.85,3.22-2.71,4.21.24,1.78,9.34,11.59,10.95,11.85.41-.79-.61-5.41-2.3-10.34Z" fill="#231f20"/><polygon points="222.34 183.36 217.29 191.62 223.67 197.76 230.18 188.17 222.34 183.36" fill="#fff"/><path d="M223.67,198.26a.5.5,0,0,1-.35-.14L216.94,192a.51.51,0,0,1-.08-.62l5-8.26a.48.48,0,0,1,.31-.23.5.5,0,0,1,.38.06l7.84,4.81a.5.5,0,0,1,.23.32.49.49,0,0,1-.08.39L224.08,198a.49.49,0,0,1-.36.21Zm-5.74-6.72,5.66,5.44,5.88-8.66-7-4.28Z" fill="#231f20"/><path d="M207.54,131.41s28.44,11,33.64,16.43-3.37,38.59-11.11,43.95l-10.28-7.12s9-25.13,7.13-27.52-25.73-8.47-25.73-8.47L187.52,129Z" fill="#231f20"/><path d="M230.07,192.29a.47.47,0,0,1-.28-.09l-10.28-7.12a.51.51,0,0,1-.19-.58c4.39-12.22,8.28-25.68,7.21-27-1.32-1.66-15.95-5.87-25.46-8.3a.5.5,0,0,1-.29-.2l-13.67-19.65a.5.5,0,0,1,.47-.78l20,2.38.12,0c1.17.45,28.61,11.14,33.81,16.55,2,2,1.9,7.17,1.51,11.13-1.21,12.06-7.13,29.73-12.69,33.58A.47.47,0,0,1,230.07,192.29Zm-9.68-7.81,9.67,6.7c5.27-4.09,10.82-21,12-32.66.53-5.29.09-9-1.23-10.34-4.95-5.14-31.95-15.72-33.4-16.29l-18.86-2.24,12.94,18.59c3.17.81,23.91,6.2,25.81,8.6C227.65,157.27,228.92,160.64,220.39,184.48Z" fill="#231f20"/><polygon points="195.84 203.59 193.93 211.54 201.26 216.22 204.39 205.31 195.84 203.59" fill="#fff"/><path d="M201.26,216.71a.52.52,0,0,1-.27-.07L193.66,212a.5.5,0,0,1-.21-.54l1.91-7.95a.48.48,0,0,1,.58-.37l8.55,1.72a.46.46,0,0,1,.33.23.51.51,0,0,1,.05.4l-3.13,10.9a.47.47,0,0,1-.3.33Zm-6.76-5.4,6.47,4.12,2.79-9.74-7.54-1.52Z" fill="#231f20"/><path d="M177.9,135.44s-2.71,12.66,4.34,13.73c12.68,1.92,19.1,11.6,19.17,18.2.11,9.19-7.79,37.54-7.79,37.54l13,4.84s14.35-37.09,12.27-47.26-18.32-32.81-18.32-32.81Z" fill="#231f20"/><path d="M206.62,210.25a.57.57,0,0,1-.18,0l-13-4.84a.5.5,0,0,1-.3-.6c.08-.28,7.88-28.39,7.78-37.41-.12-10.16-11.26-16.57-18.76-17.71a5.28,5.28,0,0,1-3.66-2.28c-2.76-4-1.16-11.71-1.09-12a.5.5,0,0,1,.37-.38l22.67-5.76a.5.5,0,0,1,.53.19c.66.93,16.32,22.85,18.4,33s-11.71,46-12.3,47.54A.49.49,0,0,1,206.62,210.25Zm-12.4-5.64,12.11,4.51c1.63-4.3,14-37.23,12.07-46.53s-16.18-29.73-18-32.34l-22,5.6c-.26,1.44-1.24,7.73,1,11a4.23,4.23,0,0,0,3,1.85c13.39,2,19.52,12.16,19.6,18.69C202,176,195.25,200.85,194.22,204.61Z" fill="#231f20"/><path d="M184.54,79.23c-6.57-1.77-4.77-12.16-3.48-17.08a5,5,0,0,1,1.47-2.78,2,2,0,0,1,2.82.2c-.15-1.38,1.2-2.46,2.5-3a10.52,10.52,0,0,1,7.67,0c1.7.69,3.24,1.83,5,2.16s4.06-.59,4.24-2.41a7.47,7.47,0,0,1,2,6.42c-.43,2.51-2,3.63-3.67,5.21S201,72,199,73.31c-3.67,2.37-5.59,5.69-10.22,6.16A11.78,11.78,0,0,1,184.54,79.23Z" fill="#fff"/><path d="M187.26,80.05a10.89,10.89,0,0,1-2.84-.34c-7.13-1.91-5.07-13-3.85-17.68A5.48,5.48,0,0,1,182.21,59a2.8,2.8,0,0,1,2.16-.57,2.71,2.71,0,0,1,.59.18,4.53,4.53,0,0,1,2.71-2.45,11,11,0,0,1,8,0c.64.26,1.26.58,1.85.89a11.7,11.7,0,0,0,3.09,1.24,3.78,3.78,0,0,0,2.84-.62,1.94,1.94,0,0,0,.82-1.35.5.5,0,0,1,.85-.3,8,8,0,0,1,2.17,6.86c-.41,2.41-1.74,3.6-3.28,5l-.54.5a9.71,9.71,0,0,0-1.7,2.32,8.34,8.34,0,0,1-2.55,3,28.53,28.53,0,0,0-3.09,2.42c-2.08,1.79-4,3.48-7.35,3.82A14.06,14.06,0,0,1,187.26,80.05Zm-3.32-20.67a1.8,1.8,0,0,0-1.1.37,4.7,4.7,0,0,0-1.3,2.53c-1.14,4.39-3.13,14.78,3.13,16.46h0a11.47,11.47,0,0,0,4.05.24c3-.31,4.75-1.83,6.8-3.59a28,28,0,0,1,3.2-2.5A7.53,7.53,0,0,0,201,70.2a10.37,10.37,0,0,1,1.88-2.55l.55-.5c1.46-1.32,2.62-2.36,3-4.42A7,7,0,0,0,205,57.4a3.09,3.09,0,0,1-.93,1.09,4.8,4.8,0,0,1-3.62.8A12.05,12.05,0,0,1,197.1,58c-.57-.29-1.17-.6-1.76-.84a10,10,0,0,0-7.31,0c-1.17.46-2.3,1.39-2.18,2.45a.5.5,0,0,1-.33.53.51.51,0,0,1-.59-.21,1,1,0,0,0-.72-.44A1.23,1.23,0,0,0,183.94,59.38Z" fill="#231f20"/><path d="M200.74,74s1.94,4.89,1.16,5.66-2.6-.24-2.6-.24" fill="#fff"/><path d="M201.08,80.42a4.78,4.78,0,0,1-2-.59.5.5,0,1,1,.48-.88c.61.34,1.67.67,2,.32s-.35-2.79-1.27-5.12a.49.49,0,0,1,.28-.65.5.5,0,0,1,.65.28c.76,1.94,1.92,5.33,1,6.2A1.6,1.6,0,0,1,201.08,80.42Z" fill="#231f20"/><path d="M201.33,68.16c1.5,1.86.32,4.86-.13,6.89-.62,2.85-1.31,5.69-2.06,8.5-.48,1.79-5.17.84-5.89.13l-.82,6.07s-1.8,3.08-5.21.53-3.78-5.15-3.78-5.15l2-8.18s3.1.67,5.7-2.63,3.73-9,3.73-9S199.87,66.35,201.33,68.16Z" fill="#fff"/><path d="M189.79,91.79a4.84,4.84,0,0,1-2.87-1.11c-3.53-2.64-4-5.36-4-5.48a.41.41,0,0,1,0-.19L185,76.82a.49.49,0,0,1,.59-.36c.11,0,2.83.55,5.2-2.45,2.5-3.17,3.61-8.72,3.63-8.77a.47.47,0,0,1,.21-.32.49.49,0,0,1,.37-.07c.21,0,5.16,1.06,6.72,3h0c1.4,1.74.76,4.23.24,6.23-.1.38-.19.75-.27,1.09-.62,2.85-1.32,5.71-2.07,8.52a1.78,1.78,0,0,1-1.43,1.25,8.49,8.49,0,0,1-4.54-.45l-.73,5.34a.6.6,0,0,1-.06.19,3.9,3.9,0,0,1-2.4,1.72A3.71,3.71,0,0,1,189.79,91.79ZM184,85.15a8.83,8.83,0,0,0,3.57,4.73,3.53,3.53,0,0,0,2.74.87A3,3,0,0,0,192,89.58l.81-6a.5.5,0,0,1,.34-.4.49.49,0,0,1,.51.12,7.07,7.07,0,0,0,4.32.63c.41-.11.66-.29.73-.53.74-2.8,1.43-5.65,2.06-8.49.07-.35.17-.72.27-1.12.46-1.78,1-4-.05-5.35h0c-1-1.23-4.07-2.16-5.65-2.54-.34,1.49-1.49,5.88-3.72,8.7a6.67,6.67,0,0,1-5.71,2.86Z" fill="#231f20"/><path d="M199.52,81.41a2.37,2.37,0,0,1-3.2-1.64" fill="#fff"/><path d="M198.54,82.06a2.87,2.87,0,0,1-1.32-.3,2.8,2.8,0,0,1-1.38-1.86.5.5,0,0,1,.35-.61.51.51,0,0,1,.62.35,1.8,1.8,0,0,0,.87,1.23,2.39,2.39,0,0,0,1.67.07.51.51,0,0,1,.64.31.49.49,0,0,1-.3.63A3.86,3.86,0,0,1,198.54,82.06Z" fill="#231f20"/><path d="M194.88,74.64a3.93,3.93,0,0,0-.38-2.12,6,6,0,0,0-.77-1.52,1.92,1.92,0,0,0-1.44-.79,1.77,1.77,0,0,0-1.3.65,3.3,3.3,0,0,0-.66,1.34,6.26,6.26,0,0,0,1.69,6l-.13-.21" fill="#fff"/><path d="M192,78.73a.52.52,0,0,1-.35-.14,6.82,6.82,0,0,1-1.82-6.52,3.83,3.83,0,0,1,.76-1.54,2.27,2.27,0,0,1,1.68-.82h0a2.39,2.39,0,0,1,1.83,1,6,6,0,0,1,.83,1.65,4.4,4.4,0,0,1,.41,2.4.5.5,0,0,1-1-.19,3.51,3.51,0,0,0-.36-1.86,5.4,5.4,0,0,0-.69-1.38,1.41,1.41,0,0,0-1.05-.6h0a1.27,1.27,0,0,0-.92.48,2.7,2.7,0,0,0-.55,1.14,5.76,5.76,0,0,0,1.24,5.22.49.49,0,0,1,.26.21l.12.21a.5.5,0,0,1-.42.76Z" fill="#231f20"/><path d="M193.25,83.68a7.81,7.81,0,0,1-3.05-3.17s-.75,4.38,2.71,6.42Z" fill="#231f20"/><path d="M192.91,87.43a.43.43,0,0,1-.25-.07c-3.72-2.19-3-6.74-2.95-6.93a.52.52,0,0,1,.44-.42.5.5,0,0,1,.52.31,7.24,7.24,0,0,0,2.83,2.92.51.51,0,0,1,.25.49L193.41,87a.51.51,0,0,1-.28.4A.54.54,0,0,1,192.91,87.43Zm-2.26-5.27A5.51,5.51,0,0,0,192.5,86l.22-2.1A9.64,9.64,0,0,1,190.65,82.16Z" fill="#231f20"/><ellipse cx="199.53" cy="71.65" rx="1.04" ry="0.41" transform="translate(59.75 231.05) rotate(-68.5)" fill="#231f20"/><path d="M180.58,82.56s10.5,1.79,14,8,4.31,28.31,6.21,30,6.81,10.44,6.7,10.84-31.46,6.31-31.46,6.31-.92-7.17-3.14-16.6S171.71,82.12,180.58,82.56Z" fill="#fff"/><path d="M176.08,138.22a.5.5,0,0,1-.29-.09.49.49,0,0,1-.2-.34c0-.07-1-7.27-3.14-16.56-1.76-7.49-1.68-30.19,4.11-37.14a4.87,4.87,0,0,1,4.05-2h.06c.44.07,10.77,1.89,14.39,8.22,2,3.56,3.14,11.89,4.1,19.24.62,4.71,1.32,10,2,10.67,1.64,1.48,7.08,10.49,6.85,11.34-.11.4-.19.7-31.85,6.68Zm4.3-55.16a3.9,3.9,0,0,0-3,1.67c-5.21,6.25-5.81,28.16-3.91,36.27,1.87,7.91,2.83,14.31,3.09,16.14,11.28-2.14,27.58-5.3,30.4-6-.81-1.77-4.76-8.66-6.41-10.16-.92-.84-1.46-4.64-2.33-11.28-.91-6.9-2-15.49-4-18.88-3.29-5.75-13.06-7.61-13.66-7.72Z" fill="#231f20"/><polygon points="194.26 89.95 193.43 92.97 194.65 93.42 194.98 114.72 199.42 118.63 201.38 112 195.61 93.5 196.47 92.49 194.26 89.95" fill="#231f20"/><path d="M188.11,92.46c.21.34,9.82,20.84,9.82,20.84l25.14-8.51,5,7.4s-21.86,12.64-30,14.27S175.43,98,176,95" fill="#fff"/><path d="M197.46,127c-1.76,0-3.82-1.17-6.14-3.49C184,116.17,175,97.58,175.55,94.86a.51.51,0,0,1,.59-.39.5.5,0,0,1,.39.59c-.43,2.12,8,20.24,15.5,27.77,2.4,2.4,4.41,3.45,6,3.14,7.27-1.46,26.13-12.12,29.33-14l-4.47-6.63-24.77,8.38a.51.51,0,0,1-.62-.26c-2.63-5.62-9.52-20.3-9.79-20.79a.51.51,0,0,1,.18-.68.5.5,0,0,1,.68.16c.2.33,7.69,16.29,9.65,20.48l24.72-8.36a.5.5,0,0,1,.57.2l5,7.39a.49.49,0,0,1,.07.39.48.48,0,0,1-.23.32c-.9.52-22,12.7-30.1,14.33A3.64,3.64,0,0,1,197.46,127Z" fill="#231f20"/><path d="M198.61,126.61c-5.41,0-10.68-4.93-15.69-14.68a.49.49,0,0,1,.22-.67.5.5,0,0,1,.67.21c5.05,9.83,10.26,14.58,15.5,14.11s16.64-7.33,16.75-7.4a.5.5,0,1,1,.52.85c-.47.29-11.62,7.06-17.18,7.55Z" fill="#231f20"/><path d="M193.93,211.54s-2.77,6.9-2.58,7.56,10.07,16.9,11.73,12.45-1.82-15.34-1.82-15.34Z" fill="#231f20"/><path d="M202.15,232.82h-.06c-3.36-.15-11-12.92-11.22-13.59s1.31-4.66,2.6-7.88a.55.55,0,0,1,.31-.29.52.52,0,0,1,.42.06l7.33,4.68a.49.49,0,0,1,.21.26c.14.45,3.51,11.1,1.81,15.66A1.46,1.46,0,0,1,202.15,232.82Zm-8-20.54a48,48,0,0,0-2.33,6.74c.37.92,7.78,12.8,10.32,12.8h0c.1,0,.29,0,.46-.45,1.47-3.94-1.35-13.44-1.78-14.83Z" fill="#231f20"/><path d="M214.11,151.59a.49.49,0,0,1-.43-.24l-8.56-14.13a.5.5,0,0,1,.85-.51l8.56,14.12a.49.49,0,0,1-.17.69A.47.47,0,0,1,214.11,151.59Z" fill="#fff"/></g></svg>