<svg xmlns="http://www.w3.org/2000/svg" viewBox="0 0 400 300"><g id="_265_money_jar_flatline" data-name="#265_money_jar_flatline"><ellipse cx="185.47" cy="253.22" rx="78.06" ry="13.59" fill="#d1d3d4"/><path d="M241.3,131.52c-6.76-6-4.4-25.9-4.4-25.9H163.1s2.36,19.89-4.4,25.9-20,9-20,26.65v92.41h122.7V158.17C261.35,140.53,248.05,137.53,241.3,131.52Z" fill="#fff"/><path d="M261.35,251.08H138.65a.5.5,0,0,1-.5-.5V158.17c0-13.74,8.12-18.92,14.65-23.08a44.55,44.55,0,0,0,5.57-3.94c6.49-5.77,4.26-25.28,4.24-25.48a.47.47,0,0,1,.12-.39.51.51,0,0,1,.37-.16h73.8a.51.51,0,0,1,.37.16.47.47,0,0,1,.12.39c0,.2-2.25,19.71,4.24,25.48h0a44.55,44.55,0,0,0,5.57,3.94c6.53,4.16,14.65,9.34,14.65,23.08v92.41A.5.5,0,0,1,261.35,251.08Zm-122.2-1h121.7V158.17c0-13.19-7.53-18-14.18-22.23a45.19,45.19,0,0,1-5.71-4.05h0c-6.31-5.61-5-22.42-4.62-25.77H163.66c.34,3.35,1.69,20.16-4.62,25.77a45.19,45.19,0,0,1-5.71,4.05c-6.65,4.24-14.18,9-14.18,22.23Z" fill="#231f20"/><path d="M187,215.11c-3.56,5.92.43,19.07.43,19.07l5.28,3.83a16.69,16.69,0,0,0,17.2-28.61L204,206.54S190.51,209.18,187,215.11Z" fill="#0b8c8c"/><path d="M201.23,240.9a17,17,0,0,1-8.83-2.46l-5.32-3.86a.44.44,0,0,1-.18-.26c-.17-.54-4-13.42-.38-19.47h0c3.64-6,16.82-8.69,17.38-8.8a.48.48,0,0,1,.31,0l5.87,2.86a17.19,17.19,0,0,1-8.85,32Zm-13.42-7,5.14,3.73a16.19,16.19,0,0,0,16.65-27.78l-5.67-2.77c-1.53.33-13.35,3-16.55,8.31S187.38,232.37,187.81,233.88Z" fill="#231f20"/><circle cx="197.62" cy="221.53" r="16.69" fill="#0b8c8c"/><path d="M197.59,238.71a17.18,17.18,0,1,1,14.77-8.33A17.13,17.13,0,0,1,197.59,238.71Zm.06-33.38a16.59,16.59,0,0,0-3.94.48,16.15,16.15,0,1,0,3.94-.48Z" fill="#231f20"/><path d="M188.26,213.88c.7.42,1.39.83,2.08,1.26.14.08.21.07.31,0a7.18,7.18,0,0,1,3-2,5.19,5.19,0,0,1,3.7.08c.32.12.64.28,1,.43l-1.94,3.22a2.5,2.5,0,0,0-1.62-.32,12.48,12.48,0,0,0-1.27.41V217l4,2.41.29-.29a13.38,13.38,0,0,1,2.33-2.05,4.27,4.27,0,0,1,4.37-.35,5.62,5.62,0,0,1,3.33,6.39c-.15.72-.39,1.42-.6,2.17l1.56.93-1.78,3-1.6-1c-.52.5-1,1-1.51,1.44a5.88,5.88,0,0,1-3.57,1.45,5.81,5.81,0,0,1-3.21-.89L199,227a3,3,0,0,0,3.52-.53l-4.31-2.59c-.53.5-1.06,1-1.6,1.49a5.46,5.46,0,0,1-2.25,1.29,4.24,4.24,0,0,1-2.61-.18,5.94,5.94,0,0,1-2.64-1.86,5.38,5.38,0,0,1-1.09-4.44c.12-.63.37-1.23.55-1.85l.08-.21-2.16-1.3Zm16.08,9.66a3,3,0,0,0,.22-1.68,2,2,0,0,0-2.1-1.63,4,4,0,0,0-1.81,1.1Zm-13-3.74a9.89,9.89,0,0,0-.1,1.49,1.84,1.84,0,0,0,2.3,1.63,4,4,0,0,0,1.38-1Z" fill="#fff"/><path d="M197.44,123.12C193,128.38,194.71,142,194.71,142l4.57,4.66A16.7,16.7,0,1,0,221,121.28l-5.31-3.79S201.94,117.87,197.44,123.12Z" fill="#0b8c8c"/><path d="M210.12,151.15A17.12,17.12,0,0,1,199,147l-4.61-4.69a.61.61,0,0,1-.14-.29c-.07-.56-1.73-13.9,2.85-19.26s18-5.79,18.6-5.81a.62.62,0,0,1,.3.09l5.31,3.8a17.18,17.18,0,0,1-11.15,30.27Zm-14.93-9.38,4.45,4.54a16.19,16.19,0,0,0,21-24.65L215.52,118c-1.56.06-13.66.73-17.7,5.45S195,140.22,195.19,141.77Z" fill="#231f20"/><circle cx="206.91" cy="131.22" r="16.69" fill="#0b8c8c"/><path d="M206.9,148.4a17.19,17.19,0,1,1,11.18-30.25h0A17.19,17.19,0,0,1,206.9,148.4Zm0-33.37a16.18,16.18,0,1,0,10.51,3.88h0A16.14,16.14,0,0,0,206.92,115Z" fill="#231f20"/><path d="M198.94,122.13l1.85,1.58a.2.2,0,0,0,.31,0,7.31,7.31,0,0,1,3.26-1.49,5.25,5.25,0,0,1,3.63.69c.3.18.58.39.89.59l-2.44,2.85a2.56,2.56,0,0,0-1.55-.58,12,12,0,0,0-1.32.19v.09l3.55,3,.34-.25a12.92,12.92,0,0,1,2.63-1.62,4.27,4.27,0,0,1,4.37.37,5.51,5.51,0,0,1,2.46,3.39,5.61,5.61,0,0,1-.24,3.46c-.26.69-.61,1.34-.94,2l1.38,1.18-2.24,2.63-1.43-1.22c-.6.41-1.14.82-1.73,1.17a5.56,5.56,0,0,1-6.77-.57l2.4-2.81a2.94,2.94,0,0,0,3.55.06l-3.81-3.26c-.61.4-1.21.81-1.83,1.2a5.42,5.42,0,0,1-2.43.89,4.22,4.22,0,0,1-2.55-.6,6,6,0,0,1-2.29-2.27,5.37,5.37,0,0,1-.34-4.56,16.3,16.3,0,0,1,.85-1.73l.11-.2-1.92-1.64Zm14.26,12.19a3.07,3.07,0,0,0,.5-1.62,2,2,0,0,0-1.8-2,4,4,0,0,0-2,.78Zm-12.15-5.83a9.39,9.39,0,0,0-.35,1.44,1.85,1.85,0,0,0,2,2,4.15,4.15,0,0,0,1.53-.73Z" fill="#fff"/><path d="M154.2,99.61v13.51c0,5.6,20.51,10.14,45.8,10.14s45.8-4.54,45.8-10.14V99.61Z" fill="#fff"/><path d="M200,123.76c-22.76,0-46.3-4-46.3-10.64V99.61a.5.5,0,0,1,.5-.5h91.6a.5.5,0,0,1,.5.5v13.51C246.3,119.78,222.76,123.76,200,123.76Zm-45.3-23.65v13c0,4.66,18.2,9.64,45.3,9.64s45.3-5,45.3-9.64v-13Z" fill="#231f20"/><ellipse cx="200" cy="99.61" rx="45.8" ry="10.14" fill="#fff"/><path d="M200,110.24c-22.76,0-46.3-4-46.3-10.63S177.24,89,200,89s46.3,4,46.3,10.64S222.76,110.24,200,110.24ZM200,90c-27.1,0-45.3,5-45.3,9.64s18.2,9.63,45.3,9.63,45.3-5,45.3-9.63S227.1,90,200,90Z" fill="#231f20"/><ellipse cx="200" cy="250.58" rx="61.35" ry="13.58" fill="#fff"/><path d="M200,264.65c-34.68,0-61.85-6.18-61.85-14.07S165.32,236.5,200,236.5s61.85,6.18,61.85,14.08S234.68,264.65,200,264.65Zm0-27.15c-29.39,0-60.85,5.25-60.85,13.08s31.46,13.07,60.85,13.07,60.85-5.25,60.85-13.07S229.39,237.5,200,237.5Z" fill="#231f20"/><path d="M146,239.06a.5.5,0,0,1-.5-.5v-83c0-5.45,7.17-10.74,13.49-15.42,3.8-2.81,7.39-5.46,7.93-7.25a42.58,42.58,0,0,0,1.67-9.63.47.47,0,0,1,.52-.48.5.5,0,0,1,.48.52,43.68,43.68,0,0,1-1.71,9.89c-.65,2.1-4.19,4.72-8.3,7.75-5.82,4.31-13.08,9.68-13.08,14.62v83A.5.5,0,0,1,146,239.06Z" fill="#d1d3d4"/><path d="M254,239.06a.5.5,0,0,1-.5-.5v-83c0-4.94-7.26-10.31-13.08-14.62-4.11-3-7.65-5.65-8.3-7.75a43.68,43.68,0,0,1-1.71-9.89.5.5,0,0,1,.48-.52h0a.5.5,0,0,1,.5.48,42.58,42.58,0,0,0,1.67,9.63c.54,1.79,4.13,4.44,7.93,7.25,6.32,4.68,13.49,10,13.49,15.42v83A.5.5,0,0,1,254,239.06Z" fill="#d1d3d4"/><path d="M154.41,236.3v8.59c0,3.25,8,5.89,17.75,5.89s17.74-2.64,17.74-5.89V236.3Z" fill="#0b8c8c"/><path d="M172.16,251.28c-9,0-18.25-2.39-18.25-6.39V236.3a.5.5,0,0,1,.5-.5H189.9a.5.5,0,0,1,.5.5v8.59C190.4,248.89,181.12,251.28,172.16,251.28ZM154.91,236.8v8.09c0,2.6,6.93,5.39,17.25,5.39s17.24-2.79,17.24-5.39V236.8Z" fill="#231f20"/><ellipse cx="172.16" cy="236.3" rx="17.74" ry="5.89" fill="#231f20"/><path d="M172.16,242.69c-9,0-18.25-2.39-18.25-6.39s9.28-6.39,18.25-6.39,18.24,2.39,18.24,6.39S181.12,242.69,172.16,242.69Zm0-11.78c-10.32,0-17.25,2.79-17.25,5.39s6.93,5.39,17.25,5.39,17.24-2.79,17.24-5.39S182.47,230.91,172.16,230.91Z" fill="#231f20"/><path d="M158.59,224.53v8.58c0,3.26,7.95,5.89,17.75,5.89s17.74-2.63,17.74-5.89v-8.58Z" fill="#0b8c8c"/><path d="M176.34,239.5c-9,0-18.25-2.39-18.25-6.39v-8.58a.5.5,0,0,1,.5-.5h35.49a.5.5,0,0,1,.5.5v8.58C194.58,237.11,185.3,239.5,176.34,239.5ZM159.09,225v8.08c0,2.61,6.93,5.39,17.25,5.39s17.24-2.78,17.24-5.39V225Z" fill="#231f20"/><ellipse cx="176.34" cy="224.53" rx="17.74" ry="5.89" fill="#231f20"/><path d="M176.34,230.91c-9,0-18.25-2.39-18.25-6.38s9.28-6.39,18.25-6.39,18.24,2.39,18.24,6.39S185.3,230.91,176.34,230.91Zm0-11.77c-10.32,0-17.25,2.78-17.25,5.39s6.93,5.38,17.25,5.38,17.24-2.78,17.24-5.38S186.65,219.14,176.34,219.14Z" fill="#231f20"/><path d="M155,211.4V220c0,3.25,7.95,5.89,17.75,5.89s17.74-2.64,17.74-5.89V211.4Z" fill="#0b8c8c"/><path d="M172.71,226.38c-9,0-18.25-2.39-18.25-6.39V211.4a.5.5,0,0,1,.5-.5h35.49a.5.5,0,0,1,.5.5V220C191,224,181.67,226.38,172.71,226.38ZM155.46,211.9V220c0,2.6,6.93,5.39,17.25,5.39S190,222.59,190,220V211.9Z" fill="#231f20"/><ellipse cx="172.71" cy="211.4" rx="17.74" ry="5.89" fill="#231f20"/><path d="M172.71,217.79c-9,0-18.25-2.39-18.25-6.39s9.28-6.39,18.25-6.39S191,207.4,191,211.4,181.67,217.79,172.71,217.79Zm0-11.78c-10.32,0-17.25,2.79-17.25,5.39s6.93,5.39,17.25,5.39S190,214,190,211.4,183,206,172.71,206Z" fill="#231f20"/><path d="M201.12,234.8v8.59c0,3.26,7.94,5.89,17.74,5.89s17.75-2.63,17.75-5.89V234.8Z" fill="#0b8c8c"/><path d="M218.86,249.78c-9,0-18.24-2.39-18.24-6.39V234.8a.5.5,0,0,1,.5-.5h35.49a.5.5,0,0,1,.5.5v8.59C237.11,247.39,227.83,249.78,218.86,249.78ZM201.62,235.3v8.09c0,2.61,6.93,5.39,17.24,5.39s17.25-2.78,17.25-5.39V235.3Z" fill="#231f20"/><ellipse cx="218.86" cy="234.8" rx="17.74" ry="5.89" fill="#231f20"/><path d="M218.86,241.19c-9,0-18.24-2.39-18.24-6.39s9.28-6.38,18.24-6.38,18.25,2.39,18.25,6.38S227.83,241.19,218.86,241.19Zm0-11.77c-10.31,0-17.24,2.78-17.24,5.38s6.93,5.39,17.24,5.39,17.25-2.78,17.25-5.39S229.18,229.42,218.86,229.42Z" fill="#231f20"/><path d="M198.81,224.62v8.59c0,3.25,7.94,5.89,17.74,5.89s17.75-2.64,17.75-5.89v-8.59Z" fill="#0b8c8c"/><path d="M216.55,239.6c-9,0-18.24-2.39-18.24-6.39v-8.59a.5.5,0,0,1,.5-.5H234.3a.5.5,0,0,1,.5.5v8.59C234.8,237.21,225.52,239.6,216.55,239.6Zm-17.24-14.48v8.09c0,2.6,6.93,5.39,17.24,5.39s17.25-2.79,17.25-5.39v-8.09Z" fill="#231f20"/><ellipse cx="216.55" cy="224.62" rx="17.74" ry="5.89" fill="#231f20"/><path d="M216.55,231c-9,0-18.24-2.39-18.24-6.39s9.28-6.39,18.24-6.39,18.25,2.39,18.25,6.39S225.52,231,216.55,231Zm0-11.78c-10.31,0-17.24,2.79-17.24,5.39s6.93,5.39,17.24,5.39,17.25-2.79,17.25-5.39S226.87,219.23,216.55,219.23Z" fill="#231f20"/><path d="M201.67,212.22v8.59c0,3.25,7.94,5.89,17.74,5.89s17.75-2.64,17.75-5.89v-8.59Z" fill="#0b8c8c"/><path d="M219.41,227.2c-9,0-18.24-2.39-18.24-6.39v-8.59a.5.5,0,0,1,.5-.5h35.49a.5.5,0,0,1,.5.5v8.59C237.66,224.81,228.38,227.2,219.41,227.2Zm-17.24-14.48v8.09c0,2.6,6.93,5.39,17.24,5.39s17.25-2.79,17.25-5.39v-8.09Z" fill="#231f20"/><ellipse cx="219.41" cy="212.22" rx="17.74" ry="5.89" fill="#231f20"/><path d="M219.41,218.61c-9,0-18.24-2.39-18.24-6.39s9.28-6.39,18.24-6.39,18.25,2.39,18.25,6.39S228.38,218.61,219.41,218.61Zm0-11.78c-10.31,0-17.24,2.79-17.24,5.39s6.93,5.39,17.24,5.39,17.25-2.79,17.25-5.39S229.73,206.83,219.41,206.83Z" fill="#231f20"/><path d="M198.81,199.77v8.59c0,3.25,7.94,5.89,17.74,5.89s17.75-2.64,17.75-5.89v-8.59Z" fill="#0b8c8c"/><path d="M216.55,214.75c-9,0-18.24-2.39-18.24-6.39v-8.59a.5.5,0,0,1,.5-.5H234.3a.5.5,0,0,1,.5.5v8.59C234.8,212.36,225.52,214.75,216.55,214.75Zm-17.24-14.48v8.09c0,2.6,6.93,5.39,17.24,5.39s17.25-2.79,17.25-5.39v-8.09Z" fill="#231f20"/><ellipse cx="216.55" cy="199.77" rx="17.74" ry="5.89" fill="#231f20"/><path d="M216.55,206.16c-9,0-18.24-2.39-18.24-6.39s9.28-6.39,18.24-6.39,18.25,2.39,18.25,6.39S225.52,206.16,216.55,206.16Zm0-11.78c-10.31,0-17.24,2.79-17.24,5.39s6.93,5.39,17.24,5.39,17.25-2.79,17.25-5.39S226.87,194.38,216.55,194.38Z" fill="#231f20"/><path d="M204.53,189.59v8.59c0,3.25,7.94,5.88,17.74,5.88S240,201.43,240,198.18v-8.59Z" fill="#0b8c8c"/><path d="M222.27,204.56c-9,0-18.24-2.38-18.24-6.38v-8.59a.5.5,0,0,1,.5-.5H240a.5.5,0,0,1,.5.5v8.59C240.52,202.18,231.24,204.56,222.27,204.56ZM205,190.09v8.09c0,2.6,6.93,5.38,17.24,5.38s17.25-2.78,17.25-5.38v-8.09Z" fill="#231f20"/><ellipse cx="222.27" cy="189.59" rx="17.74" ry="5.89" fill="#231f20"/><path d="M222.27,196c-9,0-18.24-2.38-18.24-6.38s9.28-6.39,18.24-6.39,18.25,2.39,18.25,6.39S231.24,196,222.27,196Zm0-11.77C212,184.2,205,187,205,189.59S212,195,222.27,195s17.25-2.78,17.25-5.38S232.59,184.2,222.27,184.2Z" fill="#231f20"/><path d="M200.64,179.41V188c0,3.26,7.94,5.89,17.74,5.89s17.75-2.63,17.75-5.89v-8.58Z" fill="#0b8c8c"/><path d="M218.38,194.38c-9,0-18.24-2.39-18.24-6.39v-8.58a.5.5,0,0,1,.5-.5h35.49a.5.5,0,0,1,.5.5V188C236.63,192,227.35,194.38,218.38,194.38Zm-17.24-14.47V188c0,2.61,6.93,5.39,17.24,5.39s17.25-2.78,17.25-5.39v-8.08Z" fill="#231f20"/><ellipse cx="218.38" cy="179.41" rx="17.74" ry="5.89" fill="#0b8c8c"/><path d="M218.38,185.79c-9,0-18.24-2.39-18.24-6.38s9.27-6.39,18.24-6.39,18.25,2.39,18.25,6.39S227.35,185.79,218.38,185.79Zm0-11.77c-10.31,0-17.24,2.78-17.24,5.39s6.93,5.38,17.24,5.38,17.25-2.78,17.25-5.38S228.7,174,218.38,174Z" fill="#231f20"/><path d="M181.08,245.6l.39,6.4c.08,4.29,8.27,7.62,18.29,7.43s18.08-3.82,18-8.11l-.39-6.4Z" fill="#0b8c8c"/><path d="M199,259.94a33.43,33.43,0,0,1-12.25-2.08c-3.65-1.48-5.69-3.56-5.73-5.85l-.39-6.38a.54.54,0,0,1,.13-.37.52.52,0,0,1,.36-.16l36.29-.68h0a.5.5,0,0,1,.5.47l.39,6.4c.09,4.66-8,8.45-18.49,8.64Zm-17.34-13.85L182,252c0,1.86,1.89,3.66,5.1,5a33.15,33.15,0,0,0,12.68,2c9.56-.18,17.58-3.66,17.51-7.6l-.36-5.9Z" fill="#231f20"/><ellipse cx="199.23" cy="245.26" rx="18.15" ry="7.78" transform="translate(-4.56 3.77) rotate(-1.07)" fill="#0b8c8c"/><path d="M198.56,253.54a33.47,33.47,0,0,1-12.25-2.08c-3.65-1.48-5.69-3.56-5.73-5.85-.08-4.64,8-8.43,18.49-8.62a34.08,34.08,0,0,1,13.07,2.07c3.65,1.48,5.69,3.56,5.73,5.85.09,4.64-8,8.43-18.49,8.62ZM199.89,238h-.8c-9.56.18-17.58,3.66-17.51,7.6,0,1.84,1.9,3.64,5.11,4.94a33,33,0,0,0,12.67,2c9.57-.17,17.59-3.66,17.51-7.6,0-1.84-1.89-3.64-5.1-4.94A32.34,32.34,0,0,0,199.89,238Z" fill="#231f20"/><path d="M212.11,244.17l-2.57.26c-.17,0-.19,0-.12.13a2.13,2.13,0,0,1,.69,1.93c-.19.68-1,1.15-2.24,1.42-.34.07-.71.13-1.09.19l-2.48-2.16a2.16,2.16,0,0,0,1.28-.47,2.13,2.13,0,0,0,.27-.62l-.09,0-4.8.48.13.23a4.61,4.61,0,0,1,.73,1.71c.15,1-.65,1.6-2.34,1.9a12.12,12.12,0,0,1-4.91-.19,10.15,10.15,0,0,1-3.42-1.41c-.53-.36-1-.74-1.48-1.11l-1.76.18-1.21-1.74,1.73-.18a7.9,7.9,0,0,1-.2-1,1.64,1.64,0,0,1,1-1.56,6.6,6.6,0,0,1,2.48-.68l1.45,1.59c-1.19.2-1.82.61-1.61,1.31l4.74-.5c-.13-.35-.28-.69-.39-1a1,1,0,0,1,.15-1.11,2.88,2.88,0,0,1,1.56-.72,11.85,11.85,0,0,1,3-.23,14,14,0,0,1,4.77,1.06c.57.25,1.06.53,1.6.8l.19.1,2.52-.26Zm-19.17,1.93a4.11,4.11,0,0,0,1.38.77,3.53,3.53,0,0,0,2.84-.1c.35-.32.14-.71.05-1.1Zm11-3c-.5-.2-.92-.39-1.4-.54-1.13-.35-2.55-.25-2.81.19-.13.23,0,.5.13.78Z" fill="#fff"/><path d="M211.29,170.11,210,176.39c-1,4.17,6,9.51,15.74,11.93s18.45,1,19.48-3.17l1.29-6.28Z" fill="#0b8c8c"/><path d="M234.81,190a38.32,38.32,0,0,1-9.2-1.2c-10.14-2.52-17.21-8-16.1-12.53L210.8,170a.49.49,0,0,1,.22-.32.54.54,0,0,1,.39-.06l35.22,8.76a.5.5,0,0,1,.37.58l-1.29,6.28c-.55,2.25-3,3.82-6.89,4.45A25.34,25.34,0,0,1,234.81,190Zm-23.14-19.28-1.18,5.77c-1,3.85,6.08,9,15.37,11.34a32.91,32.91,0,0,0,12.8.88c3.42-.55,5.63-1.9,6.08-3.68l1.18-5.79Z" fill="#231f20"/><ellipse cx="228.9" cy="174.49" rx="7.78" ry="18.15" transform="translate(4.32 354.51) rotate(-76.03)" fill="#0b8c8c"/><path d="M236.09,183.72a38.31,38.31,0,0,1-9.19-1.2,34,34,0,0,1-12.08-5.39c-3.15-2.38-4.57-4.92-4-7.14s3-3.79,6.89-4.42A37.68,37.68,0,0,1,243,171.86c3.14,2.38,4.57,4.91,4,7.13h0c-.56,2.23-3,3.8-6.9,4.43A25.34,25.34,0,0,1,236.09,183.72Zm-14.38-17.46a24.72,24.72,0,0,0-3.86.29c-3.42.56-5.63,1.9-6.08,3.68s.89,4,3.65,6.1a36.81,36.81,0,0,0,24.52,6.1c3.43-.55,5.64-1.89,6.08-3.68h0c.45-1.78-.88-4-3.64-6.1a33.29,33.29,0,0,0-11.73-5.22A37.69,37.69,0,0,0,221.71,166.26Z" fill="#231f20"/><path d="M241.62,176.78l-2.55-.42c-.16,0-.19,0-.14.1a2.16,2.16,0,0,1,.16,2c-.36.61-1.23.87-2.54.8-.34,0-.72-.07-1.1-.1l-1.83-2.74a2.18,2.18,0,0,0,1.36-.11,2.57,2.57,0,0,0,.42-.53l-.08-.06-4.76-.78c0,.08,0,.16.07.25a4.71,4.71,0,0,1,.26,1.85c-.11,1-1,1.38-2.75,1.22a12.14,12.14,0,0,1-4.7-1.45,10.19,10.19,0,0,1-2.93-2.25c-.42-.49-.76-1-1.14-1.46l-1.75-.28-.72-2,1.72.28a8,8,0,0,1,.06-1,1.63,1.63,0,0,1,1.36-1.26,6.6,6.6,0,0,1,2.56,0l1,1.91c-1.21-.11-1.92.11-1.91.84l4.72.76c0-.38-.09-.74-.11-1.1a1,1,0,0,1,.43-1,2.82,2.82,0,0,1,1.69-.3,11.77,11.77,0,0,1,3,.57,13.71,13.71,0,0,1,4.33,2.26c.49.38.89.78,1.34,1.19l.15.14,2.51.4Zm-19-3.11a4,4,0,0,0,1.13,1.1,3.6,3.6,0,0,0,2.77.65c.42-.22.32-.66.33-1Zm11.45-.06c-.44-.33-.79-.63-1.21-.89-1-.64-2.4-.91-2.76-.55-.2.19-.13.49-.08.79Z" fill="#fff"/><path d="M167.93,182l5.47,3.35c3.56,2.4,11-2.4,16.58-10.71s7.25-17,3.68-19.4l-5.46-3.35Z" fill="#0b8c8c"/><path d="M175.59,186.44a4.38,4.38,0,0,1-2.47-.7l-5.45-3.35a.51.51,0,0,1-.15-.7l20.27-30.11a.49.49,0,0,1,.67-.15l5.46,3.35c3.87,2.61,2.31,11.43-3.52,20.11C185.63,182,179.7,186.44,175.59,186.44Zm-7-4.63,5,3.09c3.29,2.21,10.56-2.64,15.91-10.57s7.09-16.5,3.81-18.71l-5-3.09Z" fill="#231f20"/><ellipse cx="178.07" cy="166.91" rx="18.15" ry="7.78" transform="translate(-59.83 221.44) rotate(-56.06)" fill="#0b8c8c"/><path d="M170.12,183.09a4.31,4.31,0,0,1-2.46-.71c-1.9-1.28-2.55-4.11-1.81-8a37.79,37.79,0,0,1,14.55-21.62c3.31-2.13,6.18-2.61,8.08-1.33h0c1.9,1.28,2.54,4.12,1.81,8a37.92,37.92,0,0,1-14.55,21.62A10.88,10.88,0,0,1,170.12,183.09ZM186,151.74a9.92,9.92,0,0,0-5.08,1.88,36.79,36.79,0,0,0-14.11,21c-.64,3.4-.14,5.95,1.38,7s4.07.54,7-1.34a36.86,36.86,0,0,0,14.11-21c.65-3.4.15-5.94-1.38-7h0A3.36,3.36,0,0,0,186,151.74Z" fill="#231f20"/><path d="M184.56,155.74,183.3,158c-.08.14-.07.18,0,.17a2.12,2.12,0,0,1,2,.55c.45.54.39,1.44-.12,2.65-.14.32-.31.65-.47,1l-3.2.78a2.16,2.16,0,0,0,.36-1.31,2.83,2.83,0,0,0-.36-.58l-.08.06-2.35,4.21.25,0a4.63,4.63,0,0,1,1.83.39c.88.43.94,1.45.21,3a12.45,12.45,0,0,1-3,3.92,10.24,10.24,0,0,1-3.12,2c-.6.23-1.17.39-1.76.58l-.86,1.54h-2.11l.84-1.52a6.67,6.67,0,0,1-.93-.41,1.61,1.61,0,0,1-.71-1.7,6.52,6.52,0,0,1,.86-2.41l2.13-.29c-.51,1.1-.55,1.85.15,2.08q1.16-2.08,2.32-4.17c-.37-.09-.73-.17-1.07-.27a1,1,0,0,1-.82-.76,2.74,2.74,0,0,1,.3-1.69,11.23,11.23,0,0,1,1.55-2.61,13.58,13.58,0,0,1,3.6-3.29c.53-.33,1-.57,1.57-.86l.19-.09,1.24-2.22Zm-9.41,16.8a4.07,4.07,0,0,0,1.42-.69,3.55,3.55,0,0,0,1.55-2.38c-.06-.47-.5-.53-.87-.67ZM179,161.75c-.46.31-.86.54-1.25.84-.94.73-1.67,1.95-1.46,2.41.11.25.42.28.72.34Z" fill="#fff"/><path d="M154.72,201.21l.39,6.4c.08,4.3,8.27,7.62,18.29,7.44s18.08-3.82,18-8.12l-.39-6.4Z" fill="#0b8c8c"/><path d="M172.57,215.56c-10,0-17.87-3.42-18-7.94l-.38-6.38a.45.45,0,0,1,.13-.36.49.49,0,0,1,.35-.17L191,200h0a.49.49,0,0,1,.5.46l.39,6.4c0,2.31-1.91,4.47-5.5,6.09a34.06,34.06,0,0,1-13,2.56ZM155.25,201.7l.36,5.88c.08,4,8.22,7.15,17.78,7A33,33,0,0,0,186,212.07c3.16-1.42,5-3.29,4.92-5.13l-.36-5.9Z" fill="#231f20"/><ellipse cx="172.87" cy="200.87" rx="18.15" ry="7.78" transform="translate(-3.73 3.27) rotate(-1.07)" fill="#0b8c8c"/><path d="M172.19,209.16c-10.06,0-17.88-3.42-18-7.94s8-8.42,18.49-8.62a34.36,34.36,0,0,1,13.08,2.07c3.65,1.49,5.68,3.57,5.72,5.86h0c.05,2.28-1.91,4.44-5.5,6.06a34.05,34.05,0,0,1-13,2.56Zm1.35-15.57h-.81c-9.56.18-17.58,3.66-17.51,7.61s8.23,7.12,17.79,6.94a33.2,33.2,0,0,0,12.59-2.47c3.16-1.43,5-3.3,4.91-5.14h0c0-1.83-1.89-3.63-5.1-4.94A32.45,32.45,0,0,0,173.54,193.59Z" fill="#231f20"/><path d="M185.75,199.79l-2.57.25c-.17,0-.19.05-.12.13a2.13,2.13,0,0,1,.69,1.93c-.19.68-1,1.15-2.24,1.43-.34.07-.71.12-1.09.19l-2.48-2.17a2.23,2.23,0,0,0,1.28-.46,2.7,2.7,0,0,0,.28-.63l-.1,0-4.8.48.13.22a4.58,4.58,0,0,1,.73,1.72c.15,1-.65,1.6-2.34,1.89a12.29,12.29,0,0,1-4.91-.18,10.36,10.36,0,0,1-3.42-1.42c-.53-.36-1-.73-1.47-1.11l-1.77.18-1.2-1.73,1.73-.18a8.4,8.4,0,0,1-.21-1,1.65,1.65,0,0,1,1-1.57,6.5,6.5,0,0,1,2.47-.67l1.46,1.58c-1.19.21-1.83.61-1.62,1.31l4.74-.49c-.13-.35-.27-.7-.39-1a1.06,1.06,0,0,1,.15-1.11,2.88,2.88,0,0,1,1.56-.73,11.44,11.44,0,0,1,3-.22,13.76,13.76,0,0,1,4.77,1.06c.58.24,1.06.52,1.6.8l.19.1,2.52-.26Zm-19.17,1.93a4.29,4.29,0,0,0,1.38.76,3.57,3.57,0,0,0,2.84-.09c.35-.32.15-.72,0-1.1Zm11-3c-.51-.2-.93-.4-1.41-.55-1.13-.35-2.55-.25-2.8.19-.14.24,0,.51.13.78Z" fill="#fff"/><path d="M205.48,66.41l4.2,4.81c2.67,3.34,11.15,1,18.94-5.25s11.93-14,9.26-17.34l-4.19-4.81Z" fill="#0b8c8c"/><path d="M213.64,73.25a5.36,5.36,0,0,1-4.36-1.71l-4.18-4.8a.5.5,0,0,1-.12-.37.53.53,0,0,1,.19-.35l28.2-22.59a.5.5,0,0,1,.69.07l4.2,4.81c1.43,1.79,1.2,4.68-.65,8.14a34,34,0,0,1-8.68,9.91C223.41,70.78,217.66,73.25,213.64,73.25Zm-7.44-6.77,3.85,4.41c2.47,3.08,10.82.64,18.25-5.31a33,33,0,0,0,8.43-9.6c1.62-3,1.9-5.61.76-7l-3.87-4.44Z" fill="#231f20"/><ellipse cx="219.58" cy="55.12" rx="18.07" ry="7.74" transform="translate(13.74 149.36) rotate(-38.69)" fill="#0b8c8c"/><path d="M209.44,68.44a5.35,5.35,0,0,1-4.35-1.71c-2.89-3.61,1.22-11.54,9.34-18A34,34,0,0,1,226,42.38c3.79-1.05,6.65-.65,8.08,1.13h0c2.88,3.61-1.22,11.53-9.34,18C219.22,66,213.47,68.44,209.44,68.44Zm20.29-25.63a13.32,13.32,0,0,0-3.46.53,32.88,32.88,0,0,0-11.21,6.13c-7.44,6-11.64,13.57-9.19,16.63s10.81.62,18.24-5.33,11.64-13.57,9.19-16.63h0A4.41,4.41,0,0,0,229.73,42.81Z" fill="#231f20"/><path d="M229.08,46.43l-1.87,1.77c-.12.11-.12.15,0,.17a2.11,2.11,0,0,1,1.72,1.11c.26.65-.06,1.48-.9,2.48l-.74.81-3.27-.2c.39-.42.72-.82.72-1.14a2.28,2.28,0,0,0-.16-.66l-.09,0L221,54.1l.23.1a4.47,4.47,0,0,1,1.62.91c.71.67.46,1.65-.69,2.91a12.05,12.05,0,0,1-4,2.84,10.06,10.06,0,0,1-3.55,1c-.64,0-1.22,0-1.84,0l-1.28,1.21-2-.64,1.26-1.19a7.21,7.21,0,0,1-.76-.66,1.61,1.61,0,0,1-.18-1.83,6.63,6.63,0,0,1,1.54-2l2.11.37c-.81.89-1.07,1.59-.48,2l3.44-3.28c-.31-.19-.64-.37-.93-.57a1,1,0,0,1-.56-1,2.89,2.89,0,0,1,.79-1.52,11.55,11.55,0,0,1,2.25-2,13.63,13.63,0,0,1,4.4-2.06c.6-.16,1.16-.23,1.75-.34l.21,0,1.83-1.74ZM215.14,59.6a4.09,4.09,0,0,0,1.55-.23c1-.34,2.08-1.22,2.18-1.8s-.32-.65-.63-.9ZM222,50.5c-.52.15-1,.25-1.44.42-1.11.41-2.16,1.35-2.1,1.85,0,.27.32.4.58.54Z" fill="#fff"/><path d="M169,36.88l-4.46,4.56c-3.11,2.94-.08,11.2,6.76,18.46s14.91,10.78,18,7.85l4.46-4.57Z" fill="#0b8c8c"/><path d="M186.35,69.28a12.34,12.34,0,0,1-4.8-1.17A34,34,0,0,1,171,60.25c-7.14-7.58-10.09-16-6.73-19.17l4.45-4.55a.44.44,0,0,1,.36-.15.52.52,0,0,1,.36.16l24.77,26.3a.5.5,0,0,1,0,.69l-4.46,4.57A4.76,4.76,0,0,1,186.35,69.28ZM169,37.6l-4.1,4.19c-2.87,2.71.23,10.84,6.76,17.77A32.68,32.68,0,0,0,182,67.19c3.16,1.38,5.74,1.45,7.07.2l4.11-4.21Z" fill="#231f20"/><ellipse cx="181.43" cy="50.03" rx="7.74" ry="18.07" transform="translate(15.05 138) rotate(-43.28)" fill="#0b8c8c"/><path d="M190.8,64.72c-4.06,0-10-3.36-15.37-9-7.14-7.58-10.09-16-6.73-19.16,1.66-1.57,4.56-1.57,8.16,0a34,34,0,0,1,10.57,7.86,33.86,33.86,0,0,1,7.21,11c1.35,3.68,1.18,6.57-.48,8.14A4.75,4.75,0,0,1,190.8,64.72ZM172.05,36.35a3.78,3.78,0,0,0-2.66.89c-2.86,2.69.24,10.82,6.77,17.76s14.46,10.51,17.32,7.82c1.33-1.25,1.41-3.83.23-7.07a33,33,0,0,0-7-10.68,32.77,32.77,0,0,0-10.24-7.63A11.29,11.29,0,0,0,172.05,36.35Z" fill="#231f20"/><path d="M190.85,58.8l-1.91-1.72c-.12-.12-.16-.11-.17,0a2.13,2.13,0,0,1-1,1.8c-.62.31-1.49.06-2.55-.7-.28-.21-.56-.44-.86-.68l-.07-3.27a2.21,2.21,0,0,0,1.2.63,2.27,2.27,0,0,0,.65-.22l0-.09-3.56-3.21a1.35,1.35,0,0,0-.08.24,4.62,4.62,0,0,1-.78,1.69c-.61.76-1.61.59-3-.46a12.14,12.14,0,0,1-3.15-3.75,10.16,10.16,0,0,1-1.24-3.46c-.09-.63-.12-1.22-.17-1.83l-1.31-1.18.47-2.05,1.29,1.15c.21-.28.38-.58.59-.81a1.62,1.62,0,0,1,1.81-.32,6.64,6.64,0,0,1,2.16,1.37L179,44.06c-.95-.73-1.68-.94-2.06-.31l3.54,3.17c.17-.33.33-.67.5-1a1,1,0,0,1,.92-.63,2.82,2.82,0,0,1,1.58.66,12,12,0,0,1,2.19,2.08,13.92,13.92,0,0,1,2.4,4.22c.21.59.32,1.14.48,1.72,0,.06,0,.13,0,.21l1.89,1.68ZM176.61,46a4.18,4.18,0,0,0,.35,1.53c.42,1,1.38,2,2,2s.63-.37.85-.7Zm9.62,6.11c-.19-.51-.33-1-.54-1.4-.49-1.07-1.52-2.05-2-1.94-.27.05-.37.34-.49.62Z" fill="#fff"/><path d="M225,225.93c-3.56,5.93.43,19.07.43,19.07l5.28,3.84a16.69,16.69,0,0,0,17.2-28.61l-5.87-2.87S228.57,220,225,225.93Z" fill="#0b8c8c"/><path d="M239.29,251.72a17.08,17.08,0,0,1-8.83-2.45l-5.32-3.86a.51.51,0,0,1-.18-.26c-.17-.55-4-13.43-.38-19.48h0c3.64-6,16.82-8.69,17.38-8.8a.56.56,0,0,1,.31,0l5.87,2.87a17.19,17.19,0,0,1-8.85,31.94Zm-13.42-7,5.14,3.73a16.19,16.19,0,0,0,16.65-27.77L242,217.89c-1.53.32-13.35,3-16.55,8.3h0C222.24,231.51,225.44,243.2,225.87,244.7Z" fill="#231f20"/><circle cx="235.68" cy="232.35" r="16.69" fill="#0b8c8c"/><path d="M235.66,249.54a17,17,0,0,1-8.83-2.46,17.19,17.19,0,1,1,17.71-29.47h0a17.19,17.19,0,0,1-8.88,31.93Zm.05-33.38a16.18,16.18,0,1,0,8.32,2.31A16.19,16.19,0,0,0,235.71,216.16Z" fill="#231f20"/><path d="M226.32,224.71c.7.41,1.39.83,2.08,1.25.14.08.21.07.31-.05a7.34,7.34,0,0,1,3-2,5.24,5.24,0,0,1,3.7.08c.32.13.64.28,1,.43l-1.93,3.22a2.6,2.6,0,0,0-1.63-.32,12.48,12.48,0,0,0-1.27.41v.09l4,2.41.3-.3a12.9,12.9,0,0,1,2.32-2,4.27,4.27,0,0,1,4.37-.36,5.55,5.55,0,0,1,3,2.94,5.64,5.64,0,0,1,.34,3.46c-.15.71-.39,1.42-.6,2.16l1.57.94-1.78,3-1.61-1c-.52.5-1,1-1.51,1.44a5.88,5.88,0,0,1-3.57,1.45,5.73,5.73,0,0,1-3.21-.89l1.91-3.17a2.92,2.92,0,0,0,3.51-.53l-4.31-2.58c-.53.49-1,1-1.6,1.48a5.31,5.31,0,0,1-2.24,1.29,4.34,4.34,0,0,1-2.62-.17,6.08,6.08,0,0,1-2.64-1.86,5.35,5.35,0,0,1-1.08-4.44,17,17,0,0,1,.54-1.85c0-.07,0-.13.08-.22l-2.16-1.3Zm16.08,9.66a3.07,3.07,0,0,0,.22-1.68,2,2,0,0,0-2.09-1.63,4,4,0,0,0-1.82,1.09Zm-13-3.74a9.68,9.68,0,0,0-.1,1.48,1.85,1.85,0,0,0,2.3,1.64,4,4,0,0,0,1.39-1Z" fill="#fff"/><path d="M166.48,222.52c-6.78-1.38-17.85,6.75-17.85,6.75l-1.86,6.25a16.69,16.69,0,1,0,32.7,6.71l.76-6.48S173.25,223.91,166.48,222.52Z" fill="#0b8c8c"/><path d="M163.16,256.07a17.2,17.2,0,0,1-16.88-20.65l1.87-6.29a.46.46,0,0,1,.19-.26c.46-.34,11.33-8.25,18.24-6.84h0c6.91,1.42,13.79,13,14.08,13.46a.57.57,0,0,1,.06.31l-.75,6.49a17.18,17.18,0,0,1-16.81,13.78Zm-14.1-26.5-1.81,6.1A16.19,16.19,0,0,0,179,242.13l.73-6.27c-.81-1.34-7.25-11.6-13.33-12.85h0C160.3,221.77,150.34,228.67,149.06,229.57Z" fill="#231f20"/><circle cx="163.97" cy="234.72" r="16.69" fill="#0b8c8c"/><path d="M164,251.92a17.2,17.2,0,1,1,3.42-34,17.2,17.2,0,0,1,13.39,20.3h0A17.23,17.23,0,0,1,164,251.92Zm-.07-33.39A16.19,16.19,0,1,0,179.84,238l.49.1-.49-.1a16.21,16.21,0,0,0-12.61-19.12A16.76,16.76,0,0,0,163.94,218.53Z" fill="#231f20"/><path d="M168.07,223.35c-.16.8-.32,1.59-.49,2.38,0,.16,0,.22.14.28a7.24,7.24,0,0,1,2.88,2.13,5.22,5.22,0,0,1,1.15,3.52c0,.34-.05.69-.08,1.06L168,232a2.47,2.47,0,0,0-.24-1.63,10,10,0,0,0-.81-1.07l-.07,0-.94,4.59.38.17a13.55,13.55,0,0,1,2.7,1.52,4.25,4.25,0,0,1,1.78,4,5.57,5.57,0,0,1-1.77,3.8,5.66,5.66,0,0,1-3.15,1.47c-.73.09-1.47.1-2.24.15l-.36,1.79-3.39-.7.38-1.84c-.64-.32-1.27-.6-1.86-.94a5.83,5.83,0,0,1-2.55-2.88,5.73,5.73,0,0,1-.23-3.33l3.62.75a2.94,2.94,0,0,0,1.67,3.14c.34-1.66.67-3.29,1-4.93-.65-.33-1.3-.66-1.94-1a5.41,5.41,0,0,1-2-1.69,4.19,4.19,0,0,1-.7-2.52,6,6,0,0,1,.87-3.11,5.36,5.36,0,0,1,3.83-2.5,15.34,15.34,0,0,1,1.92-.1h.23l.51-2.47Zm-3.76,18.38a3,3,0,0,0,1.65-.35,2,2,0,0,0,.84-2.52,3.92,3.92,0,0,0-1.63-1.35Zm-.78-13.46a10.3,10.3,0,0,0-1.44.4,1.85,1.85,0,0,0-.78,2.71,4.16,4.16,0,0,0,1.38,1Z" fill="#fff"/><path d="M215.65,99.36c-1.74-4.82-4.87-11.62-9.23-14-7-3.75-21.92,1.6-21.92,1.6l-4.1,6.3a19.19,19.19,0,0,0-2,6Z" fill="#0b8c8c"/><path d="M215.65,99.86H178.38a.49.49,0,0,1-.38-.17.48.48,0,0,1-.11-.41A19.61,19.61,0,0,1,180,93.07l4.12-6.33a.55.55,0,0,1,.25-.2c.62-.22,15.19-5.39,22.32-1.57,4.43,2.36,7.6,9,9.47,14.22a.5.5,0,0,1-.47.67Zm-36.68-1h36c-1.83-4.91-4.78-10.89-8.75-13-6.37-3.4-19.75,1-21.35,1.58l-4,6.15A18.5,18.5,0,0,0,179,98.86Z" fill="#231f20"/><path d="M218.83,99.36a19.22,19.22,0,1,0-38.34,0Z" fill="#0b8c8c"/><path d="M218.83,99.86H180.49a.5.5,0,0,1-.5-.46,19.72,19.72,0,1,1,39.34,0A.5.5,0,0,1,218.83,99.86Zm-37.87-1h37.4a18.72,18.72,0,1,0-37.4,0Z" fill="#231f20"/><path d="M195.14,97.11c.59.6,1.2,1.17,1.81,1.76l-.27.49h7.14c-.44-.44-.89-.86-1.37-1.26l-.36-.32L204.63,93l.1,0a12.49,12.49,0,0,1,.54,1.44,2.88,2.88,0,0,1-.27,1.88l3.82,2c.15-.39.31-.76.43-1.14a5.91,5.91,0,0,0-.12-4.26,8.31,8.31,0,0,0-2.47-3.3c-.14-.12-.16-.2-.08-.35.45-.82.89-1.65,1.33-2.47L204.39,85,203,87.53l-.25-.07a20.61,20.61,0,0,0-2.16-.53,6.22,6.22,0,0,0-5.05,1.51,6.84,6.84,0,0,0-2,3.15,4.84,4.84,0,0,0-.05,3A6.13,6.13,0,0,0,195.14,97.11Zm4.42-6.35a12.55,12.55,0,0,1,1.72,0c-.79,1.47-1.53,2.85-2.27,4.25a4.59,4.59,0,0,1-1.2-1.54A2.13,2.13,0,0,1,199.56,90.76Z" fill="#fff"/><path d="M224.54,99.86H174.3a.5.5,0,0,1,0-1h50.24a.5.5,0,0,1,0,1Z" fill="#231f20"/></g></svg>