<svg xmlns="http://www.w3.org/2000/svg" viewBox="0 0 400 300"><g id="_518_data_processing_flatline" data-name="#518_data_processing_flatline"><polygon points="234.3 89.63 176.91 89.63 182.91 69.48 240.3 69.48 234.3 89.63" fill="#fff"/><path d="M234.3,90.22H176.91a.6.6,0,0,1-.57-.76l6-20.15a.58.58,0,0,1,.57-.42H240.3a.59.59,0,0,1,.57.76l-6,20.15A.58.58,0,0,1,234.3,90.22ZM177.7,89h56.16l5.65-19H183.36Z" fill="#231f20"/><polygon points="231.53 83.61 232.96 78.82 186.36 78.82 184.93 83.61 231.53 83.61" fill="#fff"/><path d="M231.53,84.2h-46.6a.58.58,0,0,1-.47-.24.6.6,0,0,1-.1-.52l1.43-4.79a.6.6,0,0,1,.57-.42H233a.59.59,0,0,1,.47.24.6.6,0,0,1,.09.52l-1.43,4.79A.58.58,0,0,1,231.53,84.2ZM185.72,83h45.37l1.07-3.61H186.8Z" fill="#231f20"/><polygon points="207.89 83.61 209.32 78.82 186.36 78.82 184.93 83.61 207.89 83.61" fill="#231f20"/><path d="M207.89,84.2h-23a.61.61,0,0,1-.48-.24.6.6,0,0,1-.09-.52l1.43-4.79a.59.59,0,0,1,.57-.42h23a.6.6,0,0,1,.57.76l-1.43,4.79A.58.58,0,0,1,207.89,84.2ZM185.73,83h21.72l1.07-3.6H186.8Z" fill="#231f20"/><path d="M229.56,135.6s12.6-14.43,14.72-20.89,8-17.64,9.46-15.5-3.29,13.69-3.29,13.69,12.09-18.12,15.84-15.79,6.91,9.68,3.88,14.07S245.3,141,245.3,141Z" fill="#fff"/><path d="M245.3,141.56a.58.58,0,0,1-.19,0l-15.74-5.36a.6.6,0,0,1-.38-.41.58.58,0,0,1,.12-.55c.13-.14,12.55-14.42,14.6-20.69,1.75-5.33,6.76-15.77,9.37-16.16a1.16,1.16,0,0,1,1.14.51c1,1.46-.25,6.1-1.52,9.76,4-5.51,10.84-13.93,13.91-12a12.9,12.9,0,0,1,5.12,8,8.83,8.83,0,0,1-1.08,6.88c-3,4.36-24,28.8-24.9,29.84A.61.61,0,0,1,245.3,141.56Zm-14.72-6.23,14.53,4.95c2.48-2.89,21.76-25.38,24.57-29.44a7.72,7.72,0,0,0,.89-6A11.87,11.87,0,0,0,266,97.61c-1.36-.83-6.92,3.45-15,15.62a.59.59,0,0,1-1-.56c1.94-4.67,4.26-11.83,3.35-13.12h0c-1.29,0-6.18,8.55-8.41,15.34C243,120.67,233.11,132.38,230.58,135.33Z" fill="#231f20"/><path d="M180.33,241.05l2.12,15.5s-94.85,1.12-93.72,0,0-23.86,0-23.86Z" fill="#231f20"/><path d="M111.78,257.65c-23.25,0-23.41-.39-23.6-.85a.62.62,0,0,1,.13-.67c.57-1.07.35-12.87-.17-23.41a.59.59,0,0,1,.64-.62l91.61,8.36a.6.6,0,0,1,.53.51l2.12,15.5a.59.59,0,0,1-.14.46.58.58,0,0,1-.44.21c-.24,0-23.59.28-46.7.42C125.83,257.62,118,257.65,111.78,257.65Zm-22.31-1.52c5.89.61,57.37.24,92.3-.17l-2-14.36-90.45-8.26C89.73,241,90.15,252.8,89.47,256.13Z" fill="#231f20"/><path d="M147.16,54c-.22-.36-.44-.72-.67-1.08a22.25,22.25,0,0,0-19.58-10,43,43,0,0,0-9.43,1.45c-3.11.88-4.19,3.66-6.83,5a4.58,4.58,0,0,1-1.77.35,17.66,17.66,0,0,0-5.62,1.41c-4.86,2.11-8.11,8.87-9.86,13.55a108.84,108.84,0,0,0-6.05,28.54c-.81,9-1.87,19.08,1.54,27.73a77,77,0,0,0,14.19,23.52c11.31,12.41,28.29,19.77,45,18.42,10-.81,19.47-4.52,28.28-9.22,5.06-2.7,10.06-5.83,13.51-10.41,6.51-8.62,6-21.73-1-30-7.53-9-19.38-12.84-26.89-22C153.7,81.09,154,65.31,147.16,54Z" fill="#fff"/><path d="M144.22,163.69c-15.21,0-30.84-7-41.58-18.76a76.54,76.54,0,0,1-14.29-23.7c-3.35-8.47-2.46-18.32-1.67-27l.09-1a108.67,108.67,0,0,1,6.07-28.69c1.93-5.16,5.27-11.76,10.19-13.9a18.24,18.24,0,0,1,5.81-1.45H109a3.79,3.79,0,0,0,1.37-.27,10.56,10.56,0,0,0,2.68-2.17,9.41,9.41,0,0,1,4.26-2.88,43.28,43.28,0,0,1,9.57-1.48A22.93,22.93,0,0,1,147,52.62c.24.36.46.73.68,1.09h0c3.11,5.16,4.77,11.3,6.39,17.23,1.93,7.11,3.93,14.46,8.41,20,3.75,4.6,8.72,7.93,13.53,11.14s9.59,6.42,13.35,10.9c7.16,8.53,7.6,22,1,30.75-3.63,4.82-9,8-13.7,10.57-10.39,5.54-19.71,8.57-28.51,9.29C146.85,163.64,145.53,163.69,144.22,163.69ZM127.73,43.54l-.8,0A42.6,42.6,0,0,0,117.64,45a8.55,8.55,0,0,0-3.74,2.58,12,12,0,0,1-3,2.39,4.87,4.87,0,0,1-1.82.4h-.17a17,17,0,0,0-5.43,1.36C99,53.7,95.8,60,94,65a107.69,107.69,0,0,0-6,28.38l-.09,1c-.77,8.56-1.65,18.26,1.59,26.48a75.55,75.55,0,0,0,14.07,23.33c11.43,12.54,28.5,19.52,44.55,18.23,8.63-.7,17.8-3.69,28-9.15,4.63-2.46,9.82-5.61,13.32-10.24,6.26-8.3,5.83-21.16-1-29.28-3.65-4.35-8.46-7.57-13.11-10.68-4.88-3.26-9.92-6.63-13.79-11.38-4.63-5.68-6.67-13.15-8.63-20.38-1.59-5.86-3.24-11.91-6.26-16.93h0c-.21-.36-.43-.71-.66-1.06A21.74,21.74,0,0,0,127.73,43.54Z" fill="#231f20"/><path d="M84.45,246.82c-3.39-22-16.28-112.54-1.45-127,16.91-16.5,63.41-15.78,71.93-.86,4.63,8.09,17.65,21.71,18.65,39.41,1.42,25.11,8.9,72.36,10.69,88.47Z" fill="#0b8c8c"/><polygon points="121.98 246.82 111.6 118.94 138.01 121.73 152.37 246.82 121.98 246.82" fill="#231f20"/><path d="M152.37,247.41H122a.6.6,0,0,1-.59-.54L111,119a.58.58,0,0,1,.65-.63l26.41,2.79a.6.6,0,0,1,.53.52L153,246.75a.58.58,0,0,1-.14.46A.61.61,0,0,1,152.37,247.41Zm-29.84-1.18h29.18l-14.23-124-25.23-2.67Z" fill="#231f20"/><path d="M136.5,105.22,138,121.73s-5,5.76-11.76,6.3c-11,.89-14.65-9.09-14.65-9.09-.43-7.65-.92-15.29-1.33-22.93-.28-5.21-3.08-15.92,1.9-19.41,1.38-1,3-1.58,4.41-2.47a13.47,13.47,0,0,0,6.13-12.84c1.85,2.26,3.82,4.61,6.52,5.73a18.1,18.1,0,0,0,7.11.89c2.38,0,5.32-.53,7.65-.08,2.5.49,1.72,0,2.37,2.16.77,2.61.39,6.16.56,8.88.3,4.92.73,9.87.73,14.8C147.18,102.34,136.5,105.22,136.5,105.22Z" fill="#fff"/><path d="M124.89,128.68c-10.27,0-13.81-9.44-13.85-9.54a.51.51,0,0,1,0-.17c-.2-3.45-.4-6.89-.61-10.34q-.37-6.28-.73-12.59c0-1.07-.22-2.42-.4-3.85-.71-5.53-1.67-13.11,2.56-16.08a20.19,20.19,0,0,1,2.54-1.45c.64-.33,1.3-.66,1.9-1a12.94,12.94,0,0,0,5.85-12.25.6.6,0,0,1,.35-.62.59.59,0,0,1,.7.17c1.71,2.09,3.66,4.46,6.28,5.55a18,18,0,0,0,6.89.85c.76,0,1.57-.07,2.43-.13a21,21,0,0,1,5.33.06l.91.16c1.19.21,1.44.34,1.66,1.38.05.24.12.58.25,1a22.26,22.26,0,0,1,.54,6.26c0,1,0,1.91,0,2.76.07,1.16.15,2.32.23,3.48.24,3.72.5,7.56.5,11.35-.44,8-9,11.29-11.11,12l1.47,16a.59.59,0,0,1-.14.44c-.21.24-5.26,5.95-12.16,6.5Q125.58,128.68,124.89,128.68Zm-12.71-9.87c.38,1,4,9.42,14,8.63,5.75-.46,10.28-5,11.2-5.92l-1.5-16.25a.59.59,0,0,1,.44-.62c.1,0,10.27-2.88,10.71-11,0-3.71-.25-7.53-.5-11.23-.08-1.17-.15-2.33-.22-3.49-.06-.89-.05-1.83-.05-2.83a21.86,21.86,0,0,0-.49-5.92,10.56,10.56,0,0,1-.28-1.13,3.34,3.34,0,0,0-.09-.37,3.36,3.36,0,0,1-.61-.08l-.94-.16a19.94,19.94,0,0,0-5,0c-.88.06-1.71.12-2.5.13a18.51,18.51,0,0,1-7.35-.93A15.55,15.55,0,0,1,123.39,63a14.21,14.21,0,0,1-6.49,11.59c-.65.4-1.33.75-2,1.08a20.55,20.55,0,0,0-2.4,1.37c-3.64,2.56-2.73,9.73-2.07,15,.19,1.45.36,2.82.42,3.94q.33,6.28.73,12.58Q111.89,113.69,112.18,118.81Z" fill="#231f20"/><path d="M117,86.63c-1.25-3.51-5.84-6-9.49-5.1-4.71,1.21-4.13,6.63-2.29,10a8.77,8.77,0,0,0,12,3.39" fill="#fff"/><path d="M112.88,96.63a9.36,9.36,0,0,1-8.19-4.84c-1.12-2-2-5.34-.93-7.91a5.11,5.11,0,0,1,3.6-2.92c3.88-1,8.84,1.66,10.19,5.47a.59.59,0,1,1-1.12.4,8,8,0,0,0-8.78-4.73,4,4,0,0,0-2.8,2.25c-.88,2-.19,4.92.88,6.86a8.17,8.17,0,0,0,11.2,3.17.58.58,0,0,1,.81.22.59.59,0,0,1-.22.81A9.49,9.49,0,0,1,112.88,96.63Z" fill="#231f20"/><path d="M135,76.47s6.92,7.8,5.76,9.47-5.12,1.22-5.12,1.22" fill="#fff"/><path d="M136.91,87.81c-.66,0-1.16,0-1.3-.06a.6.6,0,0,1-.52-.66.58.58,0,0,1,.66-.52c.93.11,3.78.16,4.56-1,.47-.68-2.25-4.85-5.71-8.75a.6.6,0,1,1,.89-.79c2.17,2.45,7.09,8.35,5.8,10.21C140.39,87.58,138.3,87.81,136.91,87.81Z" fill="#231f20"/><path d="M136.5,105.22s-6.17,1.75-14.11-2.43c0,0,3.88,11.35,14.92,11.37Z" fill="#231f20"/><path d="M137.31,114.75h0c-11.33,0-15.44-11.65-15.48-11.77a.58.58,0,0,1,.18-.64.59.59,0,0,1,.66-.08c7.63,4,13.6,2.41,13.66,2.39a.59.59,0,0,1,.5.08.6.6,0,0,1,.26.44l.81,8.93a.59.59,0,0,1-.59.65ZM123.58,104c1.42,2.89,5.37,9.17,13.08,9.52l-.69-7.61A21.33,21.33,0,0,1,123.58,104Z" fill="#231f20"/><ellipse cx="126.47" cy="77.54" rx="1.15" ry="2.62" transform="matrix(1, 0, 0, 1, -0.26, 0.43)" fill="#231f20"/><ellipse cx="141.32" cy="76.45" rx="1.15" ry="2.62" transform="translate(-4.07 8.06) rotate(-3.22)" fill="#231f20"/><path d="M132.79,99.68a5.69,5.69,0,0,1-.91-.08,3.08,3.08,0,0,1-2.12-1.44c-1.74-2.75-.25-8.44-.19-8.69a.59.59,0,0,1,.7-.42l9,1.87a.6.6,0,0,1,.47.66,11.25,11.25,0,0,1-3.87,7A5.14,5.14,0,0,1,132.79,99.68Zm-2.2-9.35c-.41,1.81-.92,5.47.17,7.19a1.89,1.89,0,0,0,1.33.91,3.86,3.86,0,0,0,3.06-.77,9.92,9.92,0,0,0,3.3-5.69Z" fill="#231f20"/><path d="M195.24,160.35c4.32-2.16,38.68-39.8,38.68-39.8l20,16.75c-.36,2.75-31.76,68.41-50.14,65.06s-57.82-26.88-57.82-26.88l9-56.54S190.91,162.51,195.24,160.35Z" fill="#0b8c8c"/><path d="M182.45,233.28a.59.59,0,0,1-.58-.49l-15.63-90.54a.59.59,0,1,1,1.17-.2L183,232.59a.58.58,0,0,1-.48.68Z" fill="#231f20"/><path d="M130.15,207c.07-.57,4.63-1.2,5.28-1.39,2.31-.68,4.73-1.12,7.09-1.6,4.59-.92,9.5-1.93,14.2-1.51,8.25.75-1.88,6-1.88,6s19.14-4.88,18,0-10.14,9.39-15.77,10.89-28.53,0-28.53,0Z" fill="#fff"/><path d="M147.12,220.63c-8.22,0-18-.63-18.6-.67a.63.63,0,0,1-.42-.21.61.61,0,0,1-.13-.45s1.58-12.3,1.59-12.39h0c.09-.69.91-1,4.58-1.65.54-.1,1-.18,1.13-.23,2-.58,4.09-1,6.11-1.4l1.28-.26c4.63-.93,9.41-1.89,14.11-1.47,1.48.14,3.48.48,3.75,1.85.22,1.12-1,2.35-2.32,3.36,4.76-1,12.72-2.31,14.74-.33a1.85,1.85,0,0,1,.49,1.85c-1.19,5.15-10.18,9.72-16.19,11.32C155.3,220.46,151.42,220.63,147.12,220.63Zm-17.9-1.81c3.72.23,22.76,1.3,27.72,0,5.78-1.54,14.32-6,15.34-10.45a.68.68,0,0,0-.17-.74c-1.72-1.69-11.42,0-17.13,1.45a.59.59,0,0,1-.69-.37.58.58,0,0,1,.28-.73c2.44-1.27,5-3.17,4.79-4-.06-.31-.8-.73-2.7-.9-4.53-.41-9.22.54-13.77,1.45l-1.28.26c-2,.39-4.06.8-6,1.38-.18.05-.66.14-1.25.25a24.66,24.66,0,0,0-3.64.84C130.53,208.62,129.52,216.53,129.22,218.82Zm1.51-11.76Z" fill="#231f20"/><path d="M80.56,123.56c-.39,1-36.19,86.15-18,97.32s74.79,6.84,74.79,6.84L135,202.48l-45.45-6.1Z" fill="#0b8c8c"/><path d="M133,203.07h-.1l-53.32-8.45a.59.59,0,0,1,.19-1.17l53.32,8.45a.59.59,0,0,1,.49.67A.58.58,0,0,1,133,203.07Z" fill="#231f20"/><path d="M86.84,194.63a.59.59,0,0,1-.59-.59c-.15-14.1,3.74-49.61,3.78-50a.61.61,0,0,1,.66-.52.59.59,0,0,1,.52.65c0,.36-3.92,35.8-3.78,49.83a.58.58,0,0,1-.58.6Z" fill="#231f20"/><polygon points="195.04 206.61 127.58 206.61 139.33 164.78 206.79 164.78 195.04 206.61" fill="#fff"/><path d="M195,207.2H127.58a.61.61,0,0,1-.47-.23.6.6,0,0,1-.1-.52l11.76-41.83a.59.59,0,0,1,.56-.43h67.46a.59.59,0,0,1,.47.24.58.58,0,0,1,.1.51L195.6,206.77A.59.59,0,0,1,195,207.2ZM128.36,206h66.23L206,165.37H139.78Z" fill="#231f20"/><rect x="109.47" y="206.61" width="86.22" height="3.44" fill="#fff"/><path d="M195.69,210.64H109.47a.58.58,0,0,1-.59-.59v-3.44a.58.58,0,0,1,.59-.59h86.22a.59.59,0,0,1,.59.59v3.44A.59.59,0,0,1,195.69,210.64Zm-85.63-1.18h85V207.2h-85Z" fill="#231f20"/><rect x="109.47" y="206.61" width="19.11" height="3.44" fill="#fff"/><path d="M128.58,210.64H109.47a.58.58,0,0,1-.59-.59v-3.44a.58.58,0,0,1,.59-.59h19.11a.58.58,0,0,1,.59.59v3.44A.58.58,0,0,1,128.58,210.64Zm-18.52-1.18H128V207.2H110.06Z" fill="#231f20"/><path d="M147.18,210.17c4.19-1.33,7.84-3.91,11.62-6.16,3-1.81,6.36-3.51,9.92-4a38.1,38.1,0,0,1,4,0c1.17,0,2.81-.47,3.61.7,1.55,2.25.37,7.85-8.33,13.57" fill="#fff"/><path d="M168,214.9a.59.59,0,0,1-.32-1.08c4.8-3.16,7.91-6.78,8.53-9.93a3.65,3.65,0,0,0-.37-2.81c-.42-.62-1.25-.6-2.38-.5l-.71,0a16,16,0,0,1-1.71,0,11.17,11.17,0,0,0-2.24,0,26.59,26.59,0,0,0-9.69,3.92c-.78.46-1.56.94-2.34,1.42a43.24,43.24,0,0,1-9.41,4.8.6.6,0,0,1-.74-.39.59.59,0,0,1,.38-.74,42.27,42.27,0,0,0,9.15-4.68l2.35-1.43c2.9-1.72,6.37-3.55,10.13-4.07a12.13,12.13,0,0,1,2.48,0c.55,0,1.06.06,1.59,0l.65,0c1.1-.09,2.62-.23,3.47,1a4.86,4.86,0,0,1,.55,3.71c-.4,2-2.1,6.12-9.05,10.68A.55.55,0,0,1,168,214.9Z" fill="#231f20"/><path d="M301.5,187.86h-94a.58.58,0,0,1-.56-.77L248,59.67a.59.59,0,0,1,.56-.42h94a.58.58,0,0,1,.48.25.62.62,0,0,1,.09.53L302.07,187.45A.59.59,0,0,1,301.5,187.86Zm-93.22-1.18h92.79L341.8,60.44H249Z" fill="#231f20"/><path d="M286,78.62H254.49a.44.44,0,0,1-.37-.19.43.43,0,0,1-.07-.41l3.73-11.56a.46.46,0,0,1,.44-.32h31.53a.44.44,0,0,1,.37.19.48.48,0,0,1,.07.42L286.46,78.3A.46.46,0,0,1,286,78.62Zm-30.9-.92h30.57l3.43-10.64H258.55Z" fill="#d1d3d4"/><path d="M328.79,67.06H297.92a.46.46,0,0,1-.46-.46.47.47,0,0,1,.46-.46h30.87a.46.46,0,0,1,.46.46A.45.45,0,0,1,328.79,67.06Z" fill="#d1d3d4"/><path d="M326.43,74.38H295.56a.45.45,0,0,1-.46-.46.46.46,0,0,1,.46-.46h30.87a.46.46,0,0,1,.46.46A.45.45,0,0,1,326.43,74.38Z" fill="#d1d3d4"/><path d="M324.07,81.71H293.2a.47.47,0,1,1,0-.93h30.87a.47.47,0,0,1,0,.93Z" fill="#d1d3d4"/><path d="M321.71,89H290.83a.47.47,0,0,1,0-.93h30.88a.47.47,0,0,1,0,.93Z" fill="#d1d3d4"/><path d="M288,121h-5.3a.46.46,0,0,1-.37-.18.45.45,0,0,1-.07-.42l3.27-10.14a.46.46,0,0,1,.44-.32h5.3a.44.44,0,0,1,.37.19.46.46,0,0,1,.07.41l-3.27,10.15A.45.45,0,0,1,288,121Zm-4.67-.92h4.33l3-9.22h-4.34Z" fill="#d1d3d4"/><path d="M300.26,121H295a.49.49,0,0,1-.37-.18.48.48,0,0,1-.07-.42l6.06-18.75a.45.45,0,0,1,.43-.32h5.31a.47.47,0,0,1,.37.19.46.46,0,0,1,.06.41L300.7,120.7A.45.45,0,0,1,300.26,121Zm-4.66-.92h4.33l5.75-17.83h-4.33Z" fill="#d1d3d4"/><path d="M312.56,121h-5.3a.46.46,0,0,1-.37-.18.48.48,0,0,1-.07-.42l8-24.85a.46.46,0,0,1,.44-.32h5.3a.44.44,0,0,1,.37.19.46.46,0,0,1,.07.41l-8,24.86A.45.45,0,0,1,312.56,121Zm-4.67-.92h4.34L320,96.16h-4.34Z" fill="#d1d3d4"/><path d="M317.18,121H278.05a.46.46,0,0,1-.47-.46.47.47,0,0,1,.47-.46h39.13a.46.46,0,0,1,.46.46A.45.45,0,0,1,317.18,121Z" fill="#d1d3d4"/><path d="M238.92,175.75H223.15a.45.45,0,0,1-.37-.19.48.48,0,0,1-.07-.42l10.95-33.91a.45.45,0,0,1,.43-.32h15.77a.44.44,0,0,1,.37.19.46.46,0,0,1,.07.41l-10.94,33.92A.46.46,0,0,1,238.92,175.75Zm-15.13-.92h14.79l10.65-33h-14.8Z" fill="#d1d3d4"/><path d="M277.25,174.13c-5.17,0-9.45-2-12.05-5.55-2.79-3.83-3.35-9-1.57-14.5h0c3.52-10.9,15.25-19.76,26.16-19.76a.46.46,0,0,1,.37.18.48.48,0,0,1,.07.42l-6.08,18.84H303a.44.44,0,0,1,.37.19.43.43,0,0,1,.07.41C299.88,165.26,288.15,174.13,277.25,174.13Zm-12.74-19.77c-1.69,5.23-1.18,10.09,1.43,13.68,2.43,3.33,6.44,5.16,11.31,5.16,10.33,0,21.44-8.25,25.07-18.52h-18.8a.44.44,0,0,1-.37-.19.43.43,0,0,1-.07-.41l6.08-18.83c-10.36.33-21.31,8.78-24.65,19.11Z" fill="#d1d3d4"/><path d="M307,151.81H287.58a.47.47,0,0,1-.37-.19.46.46,0,0,1-.06-.41l6.27-19.44a.46.46,0,0,1,.44-.32c5.16,0,9.44,2,12,5.55,2.79,3.83,3.35,9,1.57,14.5A.45.45,0,0,1,307,151.81Zm-18.81-.92h18.47c1.57-5.11,1-9.84-1.53-13.35-2.37-3.26-6.26-5.08-11-5.17Z" fill="#d1d3d4"/><path d="M256.3,174.81H245.42a.46.46,0,0,1-.46-.46.45.45,0,0,1,.46-.46H256.3a.45.45,0,0,1,.46.46A.46.46,0,0,1,256.3,174.81Z" fill="#d1d3d4"/><path d="M253.89,168.33h-6.38a.46.46,0,1,1,0-.92h6.38a.46.46,0,0,1,0,.92Z" fill="#d1d3d4"/><path d="M254.72,125.07c-4.74,0-8.68-1.82-11.07-5.11-2.57-3.52-3.08-8.25-1.44-13.33,3.23-10,14-18.15,24-18.15,4.75,0,8.68,1.81,11.08,5.1,2.56,3.52,3.07,8.26,1.44,13.33h0C275.52,116.92,264.74,125.07,254.72,125.07ZM266.23,89.4c-9.65,0-20,7.86-23.15,17.51-1.54,4.79-1.08,9.23,1.31,12.51,2.22,3,5.89,4.72,10.33,4.72,9.65,0,20-7.85,23.15-17.51h0c1.55-4.79,1.08-9.23-1.31-12.51C274.35,91.08,270.68,89.4,266.23,89.4Zm12.08,17.37h0Z" fill="#d1d3d4"/><path d="M319,227.22H260.62a.6.6,0,0,1-.48-.24.59.59,0,0,1-.08-.53l15.58-48.29a.58.58,0,0,1,.56-.41h58.41a.59.59,0,0,1,.56.78l-15.58,48.28A.58.58,0,0,1,319,227.22ZM261.44,226H318.6l15.19-47.1H276.63Z" fill="#231f20"/><path d="M244.12,247.24H195.69a.6.6,0,0,1-.48-.24.56.56,0,0,1-.09-.53l12.92-40a.59.59,0,0,1,.56-.41H257a.6.6,0,0,1,.48.24.59.59,0,0,1,.08.53l-12.92,40A.57.57,0,0,1,244.12,247.24Zm-47.62-1.18h47.19l12.53-38.86H209Z" fill="#231f20"/><path d="M254.49,214.9H206.12a.59.59,0,0,1,0-1.18h48.37a.59.59,0,0,1,0,1.18Z" fill="#231f20"/><path d="M323.74,193.51H278.05a.46.46,0,0,1-.47-.46.47.47,0,0,1,.47-.46h45.69a.47.47,0,0,1,.46.46A.46.46,0,0,1,323.74,193.51Z" fill="#d1d3d4"/><path d="M321.71,200.39h-9.33a.46.46,0,0,1-.46-.46.47.47,0,0,1,.46-.46h9.33a.47.47,0,0,1,.46.46A.46.46,0,0,1,321.71,200.39Z" fill="#d1d3d4"/><path d="M305.81,200.39H294.36a.46.46,0,0,1-.46-.46.47.47,0,0,1,.46-.46h11.45a.46.46,0,0,1,.46.46A.45.45,0,0,1,305.81,200.39Z" fill="#d1d3d4"/><path d="M286.76,200.39H276a.46.46,0,0,1-.46-.46.47.47,0,0,1,.46-.46h10.75a.47.47,0,0,1,.46.46A.46.46,0,0,1,286.76,200.39Z" fill="#d1d3d4"/><path d="M319.46,207.87H285a.45.45,0,0,1-.46-.46A.46.46,0,0,1,285,207h34.48a.47.47,0,0,1,.46.46A.46.46,0,0,1,319.46,207.87Z" fill="#d1d3d4"/><path d="M278.6,207.87h-4.83a.45.45,0,0,1-.46-.46.46.46,0,0,1,.46-.46h4.83a.47.47,0,0,1,.46.46A.46.46,0,0,1,278.6,207.87Z" fill="#d1d3d4"/><path d="M316.49,215.36H304.22a.47.47,0,0,1,0-.93h12.27a.47.47,0,0,1,0,.93Z" fill="#d1d3d4"/><path d="M294.74,215.36H270.8a.47.47,0,0,1,0-.93h23.94a.47.47,0,0,1,0,.93Z" fill="#d1d3d4"/><path d="M252.51,121.15h0a.61.61,0,0,1-.56-.63c.26-5.09-1.85-7.17-1.87-7.19a.59.59,0,0,1,0-.83.58.58,0,0,1,.83,0c.1.09,2.54,2.42,2.25,8.11A.6.6,0,0,1,252.51,121.15Z" fill="#231f20"/><path d="M224.26,218.39l1.77-.48.92-.21a.68.68,0,0,1,.86.41c.13.39.22.81.33,1.21a3.19,3.19,0,0,0,.2.64.56.56,0,0,0,.35.31c.66.14,1.34.25,2,.35a.94.94,0,0,0,.72-.27l1.37-1.22a3.15,3.15,0,0,1,.57-.41.66.66,0,0,1,.47-.06,7.58,7.58,0,0,1,2.21,1.48.61.61,0,0,1,.05.78c-.3.55-.59,1.1-.9,1.64a1.05,1.05,0,0,0-.07,1.16c.27.46.52.94.79,1.4a.53.53,0,0,0,.51.26l1.13,0,1,0c.34,0,.57.17.59.51.07.83.13,1.66.16,2.5a.9.9,0,0,1-.56.81c-.44.22-.9.39-1.35.59-.21.09-.43.19-.63.3a1.11,1.11,0,0,0-.59.65c-.21.58-.41,1.17-.64,1.75a.85.85,0,0,0,.13.94l1.08,1.2a.76.76,0,0,1,0,1.07c-.52.67-1,1.33-1.59,2a1,1,0,0,1-1.21.42c-.34-.11-.67-.26-1-.38s-.49-.17-.74-.24a.85.85,0,0,0-.68.13c-.57.36-1.14.72-1.7,1.09a1.22,1.22,0,0,0-.56.86c-.05.39-.09.78-.15,1.16a5.88,5.88,0,0,1-.14.73.93.93,0,0,1-.71.72l-2.39.59c-.12,0-.25,0-.37,0a.53.53,0,0,1-.58-.38l-.39-1.45,0-.11a.88.88,0,0,0-.89-.75c-.45,0-.88-.14-1.32-.21a1.36,1.36,0,0,0-1.2.42c-.43.4-.86.8-1.3,1.18s-.74.45-1.17.18c-.61-.39-1.21-.8-1.8-1.22-.32-.23-.36-.52-.15-.94s.47-.86.71-1.29c.52-.93.53-1.08.09-1.86l-.53-.9A.84.84,0,0,0,216,235c-.45,0-.91.08-1.36.09A3.12,3.12,0,0,1,214,235a.41.41,0,0,1-.39-.4c0-.8-.09-1.6-.13-2.39a2,2,0,0,1,0-.34.84.84,0,0,1,.51-.66l1.58-.69.47-.24a1.05,1.05,0,0,0,.55-.62c.19-.56.39-1.13.59-1.69a.78.78,0,0,0-.16-.87l-1-1.07,0,0c-.39-.48-.4-.71.07-1.3s1-1.31,1.6-1.95a.82.82,0,0,1,1-.33c.46.16.91.33,1.35.53a1.36,1.36,0,0,0,1.39-.19c.5-.35,1-.67,1.51-1a.9.9,0,0,0,.41-.59c.09-.55.17-1.09.26-1.63a1.82,1.82,0,0,1,.42-1Zm4.17,16.08c2.73-1.66,3.95-4.88,2.78-7.29-1-2-4-3-7-1.22-2.67,1.63-3.93,4.88-2.79,7.21C222.8,235.92,226.33,235.91,228.43,234.47Z" fill="#231f20"/><path d="M225.44,243.33a1.11,1.11,0,0,1-1.16-.81l-.39-1.46,0-.14c0-.16-.06-.25-.36-.28s-.65-.09-1-.14l-.4-.07a.78.78,0,0,0-.7.26q-.64.62-1.32,1.2a1.4,1.4,0,0,1-1.87.23c-.62-.4-1.23-.81-1.82-1.24a1.21,1.21,0,0,1-.34-1.69c.18-.36.38-.71.58-1.07l.14-.24c.41-.72.41-.72.09-1.27l-.52-.9a.26.26,0,0,0-.3-.14l-.45,0-.93.05a3.83,3.83,0,0,1-.81-.05,1,1,0,0,1-.88-1l-.05-.79c0-.54-.05-1.07-.08-1.61a1.85,1.85,0,0,1,0-.43,1.46,1.46,0,0,1,.86-1.13l1.58-.69.42-.21a.5.5,0,0,0,.28-.3c.18-.53.37-1,.55-1.58l0-.12c.06-.17,0-.21,0-.27l-.71-.78-.26-.29a1.42,1.42,0,0,1,0-2.11c.52-.67,1.07-1.32,1.62-2a1.39,1.39,0,0,1,1.66-.5c.48.17,1,.34,1.4.55a.77.77,0,0,0,.81-.14c.31-.22.63-.43,1-.64l.57-.37c.14-.09.15-.17.15-.2l.11-.67c.05-.32.1-.64.16-1a2.32,2.32,0,0,1,.57-1.33.58.58,0,0,1,.12-.1l.19-.11a.51.51,0,0,1,.15-.07l.49-.13,1.29-.35c.32-.09.63-.15,1-.22a1.26,1.26,0,0,1,1.54.8c.09.27.16.55.23.83l.16.59a2.08,2.08,0,0,0,.11.35c.59.14,1.25.25,1.92.35a.49.49,0,0,0,.24-.14l.59-.53.78-.68a3.8,3.8,0,0,1,.69-.5,1.28,1.28,0,0,1,1-.07,8.06,8.06,0,0,1,2.38,1.61,1.2,1.2,0,0,1,.15,1.48l-.32.59c-.19.35-.38.71-.59,1.06s-.13.47-.08.55c.19.3.35.61.52.92l.28.5a3.51,3.51,0,0,1,.66-.07l.63,0c.28,0,.55,0,.82,0a1.11,1.11,0,0,1,1.17,1.05c.07.84.13,1.68.16,2.52a1.46,1.46,0,0,1-.88,1.37c-.31.15-.62.28-.93.41l-.45.19-.6.28a.61.61,0,0,0-.31.33l-.14.39c-.16.46-.32.92-.5,1.37-.08.21,0,.27,0,.34s.35.39.53.59.37.4.55.61a1.33,1.33,0,0,1,0,1.82c-.53.67-1.06,1.34-1.6,2a1.54,1.54,0,0,1-1.85.61l-.63-.23-.39-.15a5.68,5.68,0,0,0-.7-.22s-.09,0-.2.05l-.35.22-1.34.86a.62.62,0,0,0-.3.45l-.07.51c0,.22-.05.44-.08.66s-.09.52-.15.78a1.55,1.55,0,0,1-1.14,1.16l-2.4.58a2.07,2.07,0,0,1-.46.05Zm-.09-1.19.08.6,0-.6h.21c.8-.19,1.59-.38,2.39-.59.11,0,.22-.08.28-.29s.09-.44.12-.66l.09-.64.07-.52a1.78,1.78,0,0,1,.82-1.27l1.36-.88.34-.22a1.44,1.44,0,0,1,1.15-.2c.27.07.53.16.79.25l.43.17.55.2c.23.08.31.1.57-.23.54-.65,1.06-1.31,1.58-2,.16-.2.13-.23.06-.31l-.53-.6-.54-.61a1.41,1.41,0,0,1-.24-1.54c.17-.44.33-.89.49-1.33l.14-.4a1.74,1.74,0,0,1,.87-1c.22-.11.45-.22.67-.31l.47-.2c.29-.12.57-.24.85-.38.11-.06.24-.16.24-.26,0-.83-.09-1.66-.16-2.48a6.83,6.83,0,0,1-.77.06l-.63,0-.69,0a1.21,1.21,0,0,1-1-.56l-.29-.51c-.16-.29-.32-.59-.49-.87a1.63,1.63,0,0,1,.07-1.77c.2-.34.38-.68.56-1l.33-.6a.3.3,0,0,0,0-.11,7.34,7.34,0,0,0-1.94-1.29,2,2,0,0,0-.49.34l-.77.68-.6.53a1.46,1.46,0,0,1-1.19.42c-.69-.1-1.38-.21-2.05-.36a1.18,1.18,0,0,1-.75-.61,2.77,2.77,0,0,1-.21-.61l-.15-.58c-.07-.26-.13-.51-.21-.75,0,0-.07,0-.18,0l-.89.2-1.27.35-.46.14a1.38,1.38,0,0,0-.21.65l-.27,1.63a1.43,1.43,0,0,1-.66,1l-.58.38-.93.63a1.92,1.92,0,0,1-2,.24c-.42-.19-.85-.35-1.3-.51-.17-.06-.19-.06-.37.15-.54.64-1.08,1.28-1.59,1.93a1.67,1.67,0,0,0-.23.36h0s0,.06.16.21l.28.31c.22.26.45.51.68.76a1.37,1.37,0,0,1,.29,1.48l0,.11-.55,1.57a1.64,1.64,0,0,1-.83.95c-.17.1-.34.18-.51.26l-1.58.69a.26.26,0,0,0-.16.22,1.42,1.42,0,0,0,0,.21c0,.53,0,1.06.08,1.6l0,.65a2.8,2.8,0,0,0,.48,0l.88-.05.46,0a1.44,1.44,0,0,1,1.41.73l.52.91a1.94,1.94,0,0,1-.08,2.44l-.14.25c-.19.33-.39.67-.56,1a.47.47,0,0,0-.07.18c.62.42,1.21.82,1.81,1.21l.16.08a1,1,0,0,0,.3-.21c.43-.38.86-.77,1.28-1.17a1.93,1.93,0,0,1,1.7-.56l.42.07c.28,0,.57.1.87.13a1.46,1.46,0,0,1,1.41,1.23l.42,1.51A.17.17,0,0,0,225.35,242.14Zm0-6.12a5.53,5.53,0,0,1-1.42-.18,4.44,4.44,0,0,1-3-2.41c-1.28-2.6.07-6.18,3-8a6.22,6.22,0,0,1,5-.79,4.49,4.49,0,0,1,2.81,2.26c1.31,2.69,0,6.22-3,8.05A6.17,6.17,0,0,1,225.3,236Zm2.06-10.4a5.4,5.4,0,0,0-2.82.85c-2.38,1.45-3.55,4.4-2.55,6.44a3.33,3.33,0,0,0,2.19,1.79,5,5,0,0,0,3.92-.72l0,0c2.48-1.5,3.6-4.37,2.56-6.53a3.3,3.3,0,0,0-2.08-1.63A4.33,4.33,0,0,0,227.36,225.62Z" fill="#231f20"/><path d="M206.47,74.5H188a.47.47,0,0,1,0-.93h18.44a.47.47,0,0,1,0,.93Z" fill="#d1d3d4"/></g></svg>