<svg xmlns="http://www.w3.org/2000/svg" viewBox="0 0 400 300"><g id="_492_conventiona_flatline" data-name="#492_conventiona_flatline"><path d="M122.35,73s-16.85,10.1-19.6,27.72c-1.9,12.12,0,70.41,0,70.41h20Z" fill="#0b8c8c"/><polygon points="127.29 138.56 125.17 248.15 143.25 249.41 155.77 171.31 172.22 252.25 192.09 248.15 175.99 131 127.29 138.56" fill="#231f20"/><path d="M172.22,252.75a.5.5,0,0,1-.27-.08.52.52,0,0,1-.22-.32l-15.9-78.24-12.08,75.38a.51.51,0,0,1-.53.42l-18.08-1.26a.5.5,0,0,1-.47-.51l2.12-109.59a.49.49,0,0,1,.42-.48l48.7-7.56a.48.48,0,0,1,.37.09.5.5,0,0,1,.2.34l16.11,117.14a.5.5,0,0,1-.4.56l-19.87,4.1Zm-16.45-81.94a.5.5,0,0,1,.49.4l16.35,80.45,18.92-3.9-16-116.18L127.78,139l-2.1,108.7,17.15,1.19,12.45-77.65a.5.5,0,0,1,.48-.42Z" fill="#231f20"/><rect x="216.62" y="44.88" width="122.18" height="77.36" rx="3.54" fill="#fff"/><path d="M335.26,122.74H220.15a4,4,0,0,1-4-4V48.41a4,4,0,0,1,4-4H335.26a4,4,0,0,1,4,4V118.7A4,4,0,0,1,335.26,122.74ZM220.15,45.38a3,3,0,0,0-3,3V118.7a3,3,0,0,0,3,3H335.26a3,3,0,0,0,3-3V48.41a3,3,0,0,0-3-3Z" fill="#d1d3d4"/><path d="M331.94,116.85H223.48a.5.5,0,0,1-.5-.5V50.76a.5.5,0,0,1,.5-.5H331.94a.5.5,0,0,1,.5.5v65.59A.5.5,0,0,1,331.94,116.85Zm-108-1H331.44V51.26H224Z" fill="#d1d3d4"/><path d="M259.69,66,277.94,84.2a.91.91,0,0,0,.73.31h27.95a27,27,0,1,1-47.16-18.77Z" fill="#0b8c8c"/><path d="M280.64,56.57v26l.27,0,25.19-.06c.55,0,.56,0,.52-.57a27.18,27.18,0,0,0-16.08-23.09,27.71,27.71,0,0,0-8.72-2.21Z" fill="#d1d3d4"/><path d="M278.72,82.25V56.59a28.94,28.94,0,0,0-8.84,1.86,27.78,27.78,0,0,0-9.09,5.86Z" fill="#d1d3d4"/><path d="M134.84,51.58a83.63,83.63,0,0,1-2.18-10.8c-.32-3.66.17-7.54,2.25-10.57a6.68,6.68,0,0,1,3.37-2.73,7.29,7.29,0,0,1,3.34.32,34.78,34.78,0,0,1,3.17-2.07,21.62,21.62,0,0,1,7.56-1.84c3.68-.35,7.94-.16,10.28,2.7,1.72,2.1,1.87,5,1.94,7.75l.18,6.95" fill="#fff"/><path d="M134.84,52.1a.51.51,0,0,1-.5-.41c-.21-.94-.44-1.87-.67-2.8a55.4,55.4,0,0,1-1.53-8.06c-.26-3-.07-7.39,2.35-10.91a5.53,5.53,0,0,1,7-2.69,32.87,32.87,0,0,1,3-2,22.37,22.37,0,0,1,7.74-1.89c5.22-.51,8.73.44,10.73,2.89s2,5.64,2.05,8.05l.19,7a.52.52,0,0,1-.5.53.49.49,0,0,1-.53-.5l-.19-7c-.07-2.94-.26-5.53-1.82-7.43-1.76-2.16-5-3-9.83-2.51A21.29,21.29,0,0,0,145,26.19a34.39,34.39,0,0,0-3.1,2,.5.5,0,0,1-.46.07,6.49,6.49,0,0,0-3-.31,6.23,6.23,0,0,0-3.09,2.52c-2.25,3.27-2.42,7.37-2.17,10.24a52.94,52.94,0,0,0,1.51,7.9c.22.94.45,1.88.66,2.83a.5.5,0,0,1-.39.61Z" fill="#231f20"/><path d="M178.93,149c-4-18.82-11.81-75.34-13.59-76.15-4.33-2-27.22-4.21-32.4,4.6-1.61,2.76,3.09,60.81,5.16,76.82Z" fill="#231f20"/><polygon points="156.64 81.56 153.72 88.43 160.78 129.29 155.77 137.81 147.64 131.84 150.49 88.1 143.25 79.14 156.64 81.56" fill="#fff"/><path d="M155.77,138.32a.5.5,0,0,1-.31-.1l-8.13-6a.52.52,0,0,1-.21-.45L150,88.26l-7.11-8.8a.53.53,0,0,1,0-.59.52.52,0,0,1,.54-.24l13.38,2.42a.5.5,0,0,1,.36.27.49.49,0,0,1,0,.44l-2.86,6.73,7,40.72a.49.49,0,0,1-.07.35l-5,8.51a.5.5,0,0,1-.34.24Zm-7.6-6.73,7.44,5.46,4.63-7.85-7-40.69a.45.45,0,0,1,0-.28L155.91,82l-11.38-2.06,6.36,7.88a.52.52,0,0,1,.11.36Z" fill="#231f20"/><path d="M146.88,160.81l-8-86.53,22-.77,4,87.3,20.92-2.09c-3.23-28.5-5.81-81.18-8.51-84.12-10.15-11-36.17-7.33-36.17-7.33s-18.73.9-24.67,11.87c-1.49,2.75.1,76.33.31,88.21Z" fill="#0b8c8c"/><path d="M119.75,164.17h0a.52.52,0,0,1-.52-.51c0-.75,0-75,0-76.12a.51.51,0,0,1,.51-.52.51.51,0,0,1,.53.5c0,1.08,0,73.07,0,76.14A.51.51,0,0,1,119.75,164.17Z" fill="#231f20"/><path d="M116.53,167.87a.52.52,0,0,1-.11-1L146,160.39,145.42,145a.53.53,0,0,1,.49-.54.54.54,0,0,1,.54.5l.64,15.86a.51.51,0,0,1-.41.52l-30,6.55Z" fill="#231f20"/><path d="M159.22,67l1.19,7.69s-1.21,11.2-9.68,9.24-11.82-9.6-11.82-9.6L137.83,54s6.23-3.4,4.26-17a41.74,41.74,0,0,0,22,2.85s3,14,2.06,20.53A7.24,7.24,0,0,1,159.22,67Z" fill="#fff"/><path d="M152.64,84.62a9.11,9.11,0,0,1-2-.24,18.64,18.64,0,0,1-12.19-9.89.58.58,0,0,1,0-.18L137.31,54a.52.52,0,0,1,.27-.48c.06,0,5.88-3.45,4-16.45a.5.5,0,0,1,.21-.49.53.53,0,0,1,.53-.05A41.64,41.64,0,0,0,164,39.31a.53.53,0,0,1,.58.4c.12.58,3,14.15,2.06,20.72a7.73,7.73,0,0,1-6.81,7l1.1,7.15a.33.33,0,0,1,0,.14c0,.24-.7,6.09-4.38,8.7A6.52,6.52,0,0,1,152.64,84.62ZM139.42,74.16c.39.81,3.79,7.44,11.43,9.22a6.12,6.12,0,0,0,5.1-.82c3.11-2.21,3.86-7.28,3.94-7.91L158.71,67a.53.53,0,0,1,.12-.41.53.53,0,0,1,.39-.18,6.67,6.67,0,0,0,6.39-6.15c.83-5.72-1.45-17.41-2-19.88a43.63,43.63,0,0,1-20.93-2.59c1.42,11.57-3.14,15.56-4.36,16.41Z" fill="#231f20"/><path d="M154.88,48s4,7.37,2.81,8.48-4.24,0-4.24,0" fill="#fff"/><path d="M156,57.49a8.8,8.8,0,0,1-2.72-.51.5.5,0,0,1-.3-.64.49.49,0,0,1,.64-.3c.71.25,2.92.81,3.73.08.48-.45-.91-4.21-2.9-7.87a.49.49,0,0,1,.2-.68.49.49,0,0,1,.67.2c1.27,2.32,4.06,7.85,2.7,9.09A3,3,0,0,1,156,57.49Z" fill="#231f20"/><ellipse cx="147.66" cy="46.7" rx="0.83" ry="1.9" transform="translate(-1.83 6.25) rotate(-2.41)" fill="#231f20"/><ellipse cx="160.94" cy="46.7" rx="0.83" ry="1.9" transform="translate(-1.82 6.81) rotate(-2.41)" fill="#231f20"/><path d="M143.25,50.45a11.45,11.45,0,0,0-2.9-3.3,3.94,3.94,0,0,0-2.17-.95,3.48,3.48,0,0,0-1.86.55,6.85,6.85,0,0,0-3.26,4.56,5.52,5.52,0,0,0,.1,2.65,6,6,0,0,0,2.64,3.17,18.08,18.08,0,0,0,3.85,1.67" fill="#fff"/><path d="M139.65,59.31a.5.5,0,0,1-.17,0,18.7,18.7,0,0,1-4-1.72,6.55,6.55,0,0,1-2.85-3.45,5.8,5.8,0,0,1-.11-2.91,7.39,7.39,0,0,1,3.5-4.91,4,4,0,0,1,2.14-.62,4.54,4.54,0,0,1,2.46,1.06,12.08,12.08,0,0,1,3,3.45.52.52,0,0,1-.89.53A11.07,11.07,0,0,0,140,47.56a3.6,3.6,0,0,0-1.87-.85,3.06,3.06,0,0,0-1.58.48,6.37,6.37,0,0,0-3,4.22,4.94,4.94,0,0,0,.08,2.4,5.56,5.56,0,0,0,2.42,2.89,17.82,17.82,0,0,0,3.75,1.61.52.52,0,0,1,.32.66A.53.53,0,0,1,139.65,59.31Z" fill="#231f20"/><path d="M159.22,67A23.16,23.16,0,0,1,145,64.61s7.23,11.12,15.31,9.55Z" fill="#231f20"/><path d="M158.74,74.82c-7.58,0-13.85-9.51-14.13-9.94a.5.5,0,0,1,0-.61.51.51,0,0,1,.6-.11,23,23,0,0,0,13.87,2.3.54.54,0,0,1,.39.07.51.51,0,0,1,.21.34l1.11,7.22a.49.49,0,0,1-.4.56A8.14,8.14,0,0,1,158.74,74.82Zm-12.17-9c2.23,2.86,7.52,8.63,13.2,7.89l-1-6.22A23.7,23.7,0,0,1,146.57,65.86Z" fill="#231f20"/><ellipse cx="155.26" cy="60.94" rx="1.38" ry="2.14" fill="#231f20"/><path d="M148.49,53.4a6.73,6.73,0,1,1,6.73-6.73A6.74,6.74,0,0,1,148.49,53.4Zm0-12.43a5.7,5.7,0,1,0,5.7,5.7A5.71,5.71,0,0,0,148.49,41Z" fill="#231f20"/><path d="M161.9,53.4a6.73,6.73,0,1,1,6.73-6.73A6.74,6.74,0,0,1,161.9,53.4Zm0-12.43a5.7,5.7,0,1,0,5.7,5.7A5.7,5.7,0,0,0,161.9,41Z" fill="#231f20"/><path d="M228.92,86.19c-.08-.94,4.57-3.77,5.32-4.56q4-4.29,8.08-8.6a5,5,0,0,1,2.93-1.9,1,1,0,0,1,.63.11c.56.33.34,1.18,0,1.76a55.14,55.14,0,0,1-4,6.58q6-4.14,12.17-7.93c.64-.39,1.45-.79,2.11-.42a1.83,1.83,0,0,1,.75,1.21,8.8,8.8,0,0,1-1.1,5.92c-2.91,5.75-8.14,9.82-13.4,13.3-2.55,1.68-4.74,3.61-7.21,5.41-.49.36-5.05,3.08-5,3.65Z" fill="#fff"/><path d="M230.25,101.24a.53.53,0,0,1-.51-.47h0L229.49,98c-.39-4.21-1.08-11.74-1.08-11.77-.07-.84,1.16-1.82,3.79-3.7a18.76,18.76,0,0,0,1.66-1.26l5.33-5.67L242,72.67a5.52,5.52,0,0,1,3.25-2,1.52,1.52,0,0,1,1,.17c.7.42.79,1.36.23,2.44-.77,1.5-1.62,3-2.52,4.4,3.27-2.22,6.61-4.37,10-6.42a2.62,2.62,0,0,1,2.63-.43,2.27,2.27,0,0,1,1,1.54c.45,1.81.07,3.86-1.14,6.27-3,6-8.56,10.18-13.58,13.5-1.52,1-3,2.13-4.34,3.22-.93.73-1.86,1.46-2.84,2.18l-.85.55a28.47,28.47,0,0,0-4,2.78.53.53,0,0,1-.48.42Zm.52-.57v0Zm-1.33-14.49c.05.55.71,7.69,1.08,11.73.06.7.11,1.22.14,1.62.65-.51,1.72-1.24,3.49-2.36.4-.25.69-.44.8-.52,1-.71,1.89-1.43,2.82-2.16,1.4-1.09,2.84-2.23,4.41-3.26,4.9-3.25,10.3-7.34,13.22-13.11a8.15,8.15,0,0,0,1.06-5.55,1.3,1.3,0,0,0-.51-.89c-.42-.24-1.07.09-1.59.41-4.1,2.5-8.18,5.17-12.13,7.91a.5.5,0,0,1-.66-.06.51.51,0,0,1-.06-.66,54.63,54.63,0,0,0,4-6.52c.26-.49.32-1,.15-1.08a.52.52,0,0,0-.32,0,4.5,4.5,0,0,0-2.59,1.73l-2.76,2.94L234.61,82a16.67,16.67,0,0,1-1.81,1.39C231.77,84.12,229.62,85.65,229.44,86.18Zm0,0Z" fill="#231f20"/><path d="M325,101.22H308.52a.5.5,0,0,1,0-1H325a.5.5,0,0,1,0,1Z" fill="#d1d3d4"/><path d="M325,104.53H308.52a.5.5,0,0,1-.5-.5.51.51,0,0,1,.5-.5H325a.5.5,0,0,1,.5.5A.5.5,0,0,1,325,104.53Z" fill="#d1d3d4"/><path d="M320,107.85H308.52a.51.51,0,0,1-.5-.5.5.5,0,0,1,.5-.5H320a.5.5,0,0,1,.5.5A.5.5,0,0,1,320,107.85Z" fill="#d1d3d4"/><path d="M248.77,58.13H232.34a.51.51,0,0,1-.5-.5.5.5,0,0,1,.5-.5h16.43a.5.5,0,0,1,.5.5A.5.5,0,0,1,248.77,58.13Z" fill="#d1d3d4"/><path d="M248.77,61.44H232.34a.5.5,0,1,1,0-1h16.43a.5.5,0,1,1,0,1Z" fill="#d1d3d4"/><path d="M243.86,64.75H232.34a.5.5,0,0,1-.5-.5.51.51,0,0,1,.5-.5h11.52a.5.5,0,0,1,.5.5A.5.5,0,0,1,243.86,64.75Z" fill="#d1d3d4"/><path d="M294.91,186.58c1.12-7,12.67-8.68,12.1-.47a12.14,12.14,0,0,1-3.08,7.7,7.15,7.15,0,0,1-7.75,1.81" fill="#fff"/><path d="M298.59,196.63a6.34,6.34,0,0,1-2.62-.54.51.51,0,0,1,.42-.94,6.58,6.58,0,0,0,7.17-1.7,11.66,11.66,0,0,0,2.93-7.38c.28-4-2.44-4.76-3.62-4.89a6.94,6.94,0,0,0-7.45,5.48.5.5,0,0,1-.59.42.52.52,0,0,1-.43-.59,7.92,7.92,0,0,1,8.59-6.34c2.37.27,4.81,2,4.53,6a12.67,12.67,0,0,1-3.22,8A8.15,8.15,0,0,1,298.59,196.63Z" fill="#231f20"/><path d="M266.13,186.58c-1.12-7-12.67-8.68-12.1-.47a12.14,12.14,0,0,0,3.08,7.7,7.15,7.15,0,0,0,7.75,1.81" fill="#fff"/><path d="M262.45,196.63a8.15,8.15,0,0,1-5.71-2.46,12.67,12.67,0,0,1-3.22-8c-.28-4,2.15-5.72,4.53-6a7.93,7.93,0,0,1,8.59,6.34.52.52,0,0,1-.43.59.5.5,0,0,1-.59-.42,6.94,6.94,0,0,0-7.46-5.48c-1.18.13-3.9.88-3.62,4.89a11.63,11.63,0,0,0,2.94,7.37,6.57,6.57,0,0,0,7.17,1.71.51.51,0,0,1,.42.94A6.34,6.34,0,0,1,262.45,196.63Z" fill="#231f20"/><path d="M299.37,187.09l-2-20.46s-5.55-6.82-16.88-6.82-16.88,6.82-16.88,6.82l-.85,18.07c0,8.91,2.29,14.26,5.76,17.31l-.89,19.34s3.13,6.81,12.25,6.81a14.71,14.71,0,0,0,12.82-6.81l-.8-17.51C295.46,201.76,298.06,197.18,299.37,187.09Z" fill="#fff"/><path d="M280.52,159.81c11.33,0,16.88,6.82,16.88,6.82l2,20.46c-1.31,10.09-3.91,14.67-7.44,16.75l.8,17.51a14.71,14.71,0,0,1-12.82,6.81c-9.12,0-12.25-6.81-12.25-6.81l.89-19.34c-3.47-3-5.76-8.4-5.76-17.31l.85-18.07s5.54-6.82,16.88-6.82m0-1c-11.69,0-17.44,6.92-17.68,7.21a1,1,0,0,0-.23.61l-.85,18.06c0,8.22,1.93,14.19,5.73,17.79l-.86,18.87a1.1,1.1,0,0,0,.1.47c.14.31,3.51,7.41,13.18,7.41a15.62,15.62,0,0,0,13.72-7.34,1.06,1.06,0,0,0,.13-.55L293,204.39c3.92-2.64,6.21-8,7.4-17.17a1.69,1.69,0,0,0,0-.23l-2-20.45a1,1,0,0,0-.23-.56c-.24-.29-6-7.21-17.68-7.21Z" fill="#231f20"/><path d="M322.33,231.5c-11.27-15.56-30.58-16.94-42.13-16.94s-30.86,1.38-42.13,16.94-10.74,44.74-10.74,44.74H333.06S333.6,247.06,322.33,231.5Z" fill="#231f20"/><path d="M333.06,276.74H227.33a.51.51,0,0,1-.5-.49c0-.3-.41-29.53,10.83-45,12.42-17.15,35.09-17.15,42.54-17.15,30.11,0,39.46,12.91,42.53,17.15,11.24,15.51,10.84,44.74,10.83,45A.5.5,0,0,1,333.06,276.74Zm-105.23-1H332.56c0-3.89-.39-29.8-10.64-44h0c-10.86-15-29-16.73-41.72-16.73s-30.86,1.73-41.73,16.73C228.22,245.94,227.83,271.85,227.83,275.74Z" fill="#231f20"/><path d="M245.51,267.73a.51.51,0,0,1-.51-.46l-3.47-33.8a.52.52,0,0,1,1-.1L246,267.16a.52.52,0,0,1-.46.57Z" fill="#fff"/><path d="M310.05,276.75H310a.52.52,0,0,1-.44-.58l4.15-30.84a.51.51,0,0,1,.58-.44.52.52,0,0,1,.44.58l-4.15,30.84A.51.51,0,0,1,310.05,276.75Z" fill="#fff"/><path d="M260.07,216.63s.33-4.11,2.12-5.25,30.51-3,33.85,0a11.13,11.13,0,0,1,3.33,7.59S266.11,215.92,260.07,216.63Z" fill="#0b8c8c"/><path d="M303.61,218.09l-.15,0c-24.88-7.65-45.67-.09-45.88,0a.52.52,0,0,1-.36-1c.21-.08,21.32-7.77,46.54,0a.51.51,0,0,1-.15,1Z" fill="#231f20"/><path d="M255.26,189.62c-.3,1.18-.6,2.37-.91,3.55-1.57,6-3.3,12-3.38,18.15s1.7,12.65,6.18,16.89c4.06,3.84,9.73,5.37,15.21,6.49,5.64,1.15,11.47,2,17.16,1.09s11.29-3.89,14.18-8.88c3-5.17,2.68-11.61,1.51-17.48-1.48-7.44-3.82-14.65-3.84-22.24,0-8.22.34-16.6-2-24.58-1.07-3.65-2.84-7.31-6-9.43s-8-2.11-10.36.85c.7-.86-7-2.8-7.73-2.8a9.44,9.44,0,0,0-5.51,1.56c-5.61,3.35-8.22,7.39-9.42,13.74Q258.16,178.16,255.26,189.62Z" fill="#fff"/><path d="M284.45,236.7a61.5,61.5,0,0,1-12.2-1.5c-5.6-1.15-11.36-2.74-15.45-6.62s-6.44-10.2-6.35-17.27c.08-5.75,1.58-11.41,3-16.89l.37-1.38c.31-1.18.61-2.36.91-3.55h0c1.92-7.59,3.64-15.35,5.1-23.06,1.26-6.66,4.06-10.74,9.67-14.08a10,10,0,0,1,5.78-1.64c.3,0,6.13,1.24,7.81,2.46,2.73-2.69,7.52-2.45,10.55-.42,2.81,1.89,4.84,5.07,6.2,9.72,2.06,7,2,14.43,2,21.58,0,1,0,2.1,0,3.14,0,5.43,1.26,10.81,2.47,16,.47,2,.95,4.08,1.36,6.14,1.5,7.58,1,13.42-1.57,17.84-2.71,4.68-8.15,8.09-14.55,9.13A31.91,31.91,0,0,1,284.45,236.7Zm-28.69-46.95c-.3,1.18-.6,2.37-.92,3.55l-.36,1.39c-1.44,5.41-2.92,11-3,16.63-.09,6.79,2.1,12.81,6,16.51s9.5,5.24,15,6.36,11.28,2,17,1.09c6.1-1,11.27-4.22,13.82-8.63,2.44-4.19,2.91-9.79,1.46-17.12-.41-2.05-.89-4.11-1.36-6.11-1.22-5.25-2.48-10.67-2.5-16.23,0-1,0-2.09,0-3.15,0-7.07,0-14.39-2-21.28-1.29-4.41-3.18-7.41-5.78-9.15-2.84-1.91-7.4-2.06-9.66.74h0a.52.52,0,0,1-.92-.37c-.9-.74-6.52-2.21-7.23-2.24a9,9,0,0,0-5.23,1.49c-5.32,3.18-8,7.06-9.19,13.4-1.46,7.72-3.18,15.5-5.11,23.12Z" fill="#231f20"/><path d="M128.78,186.58c1.12-7,12.67-8.68,12.1-.47a12.14,12.14,0,0,1-3.08,7.7,7.15,7.15,0,0,1-7.75,1.81" fill="#fff"/><path d="M132.46,196.63a6.34,6.34,0,0,1-2.62-.54.52.52,0,0,1-.26-.68.51.51,0,0,1,.68-.26,6.58,6.58,0,0,0,7.17-1.7,11.68,11.68,0,0,0,2.94-7.38c.28-4-2.44-4.76-3.62-4.89a6.94,6.94,0,0,0-7.46,5.48.51.51,0,1,1-1-.17,7.91,7.91,0,0,1,8.58-6.34c2.38.27,4.81,2,4.54,6a12.74,12.74,0,0,1-3.23,8A8.15,8.15,0,0,1,132.46,196.63Z" fill="#231f20"/><path d="M100,186.58c-1.12-7-12.67-8.68-12.1-.47a12.14,12.14,0,0,0,3.08,7.7,7.15,7.15,0,0,0,7.75,1.81" fill="#fff"/><path d="M96.32,196.63a8.15,8.15,0,0,1-5.71-2.46,12.67,12.67,0,0,1-3.22-8c-.28-4,2.16-5.72,4.53-6a7.93,7.93,0,0,1,8.59,6.34.52.52,0,0,1-.43.59.5.5,0,0,1-.59-.42A6.94,6.94,0,0,0,92,181.18c-1.18.13-3.9.88-3.62,4.89a11.62,11.62,0,0,0,2.93,7.37,6.57,6.57,0,0,0,7.17,1.71.51.51,0,1,1,.42.94A6.34,6.34,0,0,1,96.32,196.63Z" fill="#231f20"/><path d="M133.24,187.09l-2-20.46s-5.54-6.82-16.88-6.82-16.88,6.82-16.88,6.82l-.84,18.07c0,8.91,2.28,14.26,5.75,17.31l-.88,19.34s3.12,6.81,12.24,6.81a14.71,14.71,0,0,0,12.82-6.81l-.8-17.51C129.33,201.76,131.93,197.18,133.24,187.09Z" fill="#fff"/><path d="M114.39,159.81c11.34,0,16.88,6.82,16.88,6.82l2,20.46c-1.31,10.09-3.91,14.67-7.44,16.75l.8,17.51a14.71,14.71,0,0,1-12.82,6.81c-9.12,0-12.24-6.81-12.24-6.81l.88-19.34c-3.47-3-5.75-8.4-5.75-17.31l.84-18.07s5.55-6.82,16.88-6.82m0-1c-11.69,0-17.44,6.92-17.68,7.21a1,1,0,0,0-.23.61l-.85,18.06c0,8.22,1.93,14.19,5.74,17.79l-.86,18.87a1,1,0,0,0,.09.47c.14.31,3.51,7.41,13.18,7.41a15.66,15.66,0,0,0,13.73-7.34,1.06,1.06,0,0,0,.12-.55l-.77-16.91c3.92-2.64,6.21-8,7.41-17.17a.88.88,0,0,0,0-.23l-2-20.45a1,1,0,0,0-.23-.56c-.24-.29-6-7.21-17.68-7.21Z" fill="#231f20"/><path d="M94.24,190.91c2.55,1.94,5.32,3.33,6.42,7a4.38,4.38,0,0,0,.66,1.55,2.88,2.88,0,0,0,1.14.77,9.24,9.24,0,0,0,3.88.76,3.45,3.45,0,0,1,3,.9,8.23,8.23,0,0,0,7.76.62,4.84,4.84,0,0,1,2-.65,7.7,7.7,0,0,1,1.9.53c2.92.77,5.37-1.55,7.28-3.37,1-.95,1.55-1.09,2.09-2.41s-.16-2.74.86-3.88a6.37,6.37,0,0,1,1.36-1c1.91-1.32,2.61-3.78,3.16-6a34.92,34.92,0,0,0,1.3-7.63,5.82,5.82,0,0,1,.5-3,12.17,12.17,0,0,1,1-1.22,4.36,4.36,0,0,0,.78-4.08c-.38-1.14-1.23-2.13-1.33-3.33-.05-.66.14-1.33.11-2-.1-2.16-2.33-3.5-4.28-4.44.44-4.12-4.91-4.56-7.52-6a10.51,10.51,0,0,0-5.47-1.73c-1.17.06-2.29.49-3.45.6-2.75.27-5.74-1.16-8.18.15a11.25,11.25,0,0,1-2.15,1.23,5.92,5.92,0,0,1-2.44-.08,10.27,10.27,0,0,0-7.33,2,42.43,42.43,0,0,0-4,4.76,5.68,5.68,0,0,0-4.88,7,5.2,5.2,0,0,1,.28,1.08,4.74,4.74,0,0,1-.17,1.23,5.64,5.64,0,0,0,1.65,5,5,5,0,0,0,.21,7.61A6.6,6.6,0,0,0,92,188.82,14.48,14.48,0,0,0,94.24,190.91Z" fill="#fff"/><path d="M113.85,203.69a8.7,8.7,0,0,1-4.76-1.39l-.29-.2a3.56,3.56,0,0,0-1-.56,3.76,3.76,0,0,0-1.13-.07h-.3a9.53,9.53,0,0,1-4.1-.8,3.45,3.45,0,0,1-1.33-.91,3.86,3.86,0,0,1-.68-1.51l-.07-.22c-.87-2.86-2.83-4.26-4.92-5.75-.44-.31-.88-.63-1.32-1a14.72,14.72,0,0,1-2.38-2.17,7.25,7.25,0,0,1-1.76-6,5.63,5.63,0,0,1-.37-7.84A6.22,6.22,0,0,1,88,170.2l.06-.3a3.44,3.44,0,0,0,.1-.81,3.36,3.36,0,0,0-.18-.69l-.08-.27A6.22,6.22,0,0,1,93,160.48a45,45,0,0,1,4-4.69,10.77,10.77,0,0,1,7.69-2.12l.45.07a3.09,3.09,0,0,0,3-.64,9,9,0,0,1,.83-.53c1.64-.88,3.47-.63,5.24-.39a13.9,13.9,0,0,0,3.13.19,12.72,12.72,0,0,0,1.53-.28,11,11,0,0,1,1.95-.32,11.16,11.16,0,0,1,5.74,1.78,16.33,16.33,0,0,0,2.32.95c2.5.89,5.61,2,5.49,5.18,2,1,4.14,2.42,4.25,4.73a6.9,6.9,0,0,1-.05,1,4.46,4.46,0,0,0,0,.95,5,5,0,0,0,.68,1.84,8.53,8.53,0,0,1,.62,1.37,4.92,4.92,0,0,1-.87,4.57,6,6,0,0,1-.42.46,5.11,5.11,0,0,0-.58.7,4.68,4.68,0,0,0-.42,2.39v.35a35.29,35.29,0,0,1-1.31,7.75c-.63,2.55-1.36,5-3.37,6.33-.14.1-.29.19-.44.28a3.67,3.67,0,0,0-.83.62,2.69,2.69,0,0,0-.49,1.91,4.83,4.83,0,0,1-.27,1.82,4.4,4.4,0,0,1-1.52,2c-.21.17-.43.36-.69.61-1.93,1.83-4.56,4.34-7.77,3.49-.24-.07-.47-.15-.71-.24a2.29,2.29,0,0,0-2.46.17l-.35.16A8.53,8.53,0,0,1,113.85,203.69Zm-6.75-3.26a3.5,3.5,0,0,1,1,.11,4.83,4.83,0,0,1,1.33.71l.27.19a7.69,7.69,0,0,0,7.25.58l.34-.16a4.76,4.76,0,0,1,1.84-.54,4.41,4.41,0,0,1,1.43.34,6.26,6.26,0,0,0,.61.21c2.64.7,4.94-1.48,6.78-3.24.28-.27.53-.47.75-.65a3.35,3.35,0,0,0,1.22-1.59,3.93,3.93,0,0,0,.2-1.44,3.62,3.62,0,0,1,.75-2.58,4,4,0,0,1,1.06-.81l.39-.26c1.72-1.18,2.38-3.38,3-5.73a34.31,34.31,0,0,0,1.28-7.52v-.34a5.48,5.48,0,0,1,.58-2.92,4.72,4.72,0,0,1,.71-.87l.37-.41a3.87,3.87,0,0,0,.68-3.59,8.67,8.67,0,0,0-.56-1.21,6.06,6.06,0,0,1-.79-2.23,6.21,6.21,0,0,1,0-1.15,5.32,5.32,0,0,0,.05-.87c-.09-1.89-2.17-3.13-4-4a.52.52,0,0,1-.29-.52c.28-2.66-2.3-3.57-4.79-4.46a17.56,17.56,0,0,1-2.47-1,10,10,0,0,0-5.19-1.66,10.51,10.51,0,0,0-1.78.3,14.17,14.17,0,0,1-1.65.3,14.65,14.65,0,0,1-3.37-.2c-1.68-.23-3.27-.45-4.62.28a8.21,8.21,0,0,0-.73.47,4.92,4.92,0,0,1-1.52.81,5.31,5.31,0,0,1-2.21,0l-.44-.07a9.73,9.73,0,0,0-7,2,47.9,47.9,0,0,0-3.85,4.51.51.51,0,0,1-.45.33,5.18,5.18,0,0,0-4.42,6.34l.08.24a4,4,0,0,1,.23,1,4.19,4.19,0,0,1-.12,1.09l-.06.27A5.18,5.18,0,0,0,90.51,175a.48.48,0,0,1,.16.39.47.47,0,0,1-.19.38,4.53,4.53,0,0,0,.19,6.8.53.53,0,0,1,.2.55,6.07,6.07,0,0,0,1.47,5.41,14,14,0,0,0,2.21,2h0c.43.33.87.64,1.3.95,2.14,1.52,4.34,3.09,5.31,6.29l.07.23a3,3,0,0,0,.49,1.15,2.7,2.7,0,0,0,.94.62,8.74,8.74,0,0,0,3.67.71h.77Z" fill="#231f20"/><path d="M93.94,216.63s.33-4.11,2.13-5.25,30.51-3,33.84,0a11.13,11.13,0,0,1,3.33,7.59S100,215.92,93.94,216.63Z" fill="#0b8c8c"/><path d="M156.2,231.5c-11.27-15.56-30.58-16.94-42.13-16.94s-30.86,1.38-42.13,16.94S61.2,276.24,61.2,276.24H166.93S167.47,247.06,156.2,231.5Z" fill="#fff"/><path d="M166.93,276.75H61.2a.5.5,0,0,1-.51-.5c0-.3-.41-29.54,10.83-45.05C84,214,106.62,214,114.07,214c30.12,0,39.47,12.92,42.55,17.16,11.24,15.51,10.84,44.75,10.83,45.05A.51.51,0,0,1,166.93,276.75Zm-105.21-1h104.7c0-3.94-.41-29.8-10.64-43.92h0c-10.86-15-29-16.72-41.71-16.72s-30.85,1.73-41.71,16.72C62.12,245.93,61.72,271.78,61.72,275.72Z" fill="#231f20"/><path d="M83.58,276.75a.5.5,0,0,1-.51-.47l-2.7-35.7a.52.52,0,0,1,.47-.56.53.53,0,0,1,.56.48l2.7,35.7a.52.52,0,0,1-.48.55Z" fill="#231f20"/><path d="M146.74,276.75h0a.51.51,0,0,1-.47-.55L149,241.54a.51.51,0,0,1,.55-.47.51.51,0,0,1,.48.55l-2.74,34.66A.51.51,0,0,1,146.74,276.75Z" fill="#231f20"/><path d="M222.87,192.94c1.12-7,12.67-8.67,12.1-.47a12.1,12.1,0,0,1-3.08,7.7,7.16,7.16,0,0,1-7.75,1.82" fill="#fff"/><path d="M226.55,203a6.47,6.47,0,0,1-2.62-.54.52.52,0,0,1-.26-.69.52.52,0,0,1,.68-.26,6.58,6.58,0,0,0,7.17-1.7,11.66,11.66,0,0,0,2.93-7.38c.28-4-2.44-4.75-3.62-4.89-3-.35-6.86,1.81-7.45,5.48a.52.52,0,0,1-.59.43.52.52,0,0,1-.43-.59,7.91,7.91,0,0,1,8.59-6.34c2.37.27,4.81,2,4.53,6a12.61,12.61,0,0,1-3.23,8A8.1,8.1,0,0,1,226.55,203Z" fill="#231f20"/><path d="M194.08,192.94c-1.11-7-12.66-8.67-12.09-.47a12,12,0,0,0,3.08,7.7,7.16,7.16,0,0,0,7.75,1.82" fill="#fff"/><path d="M190.41,203a8.12,8.12,0,0,1-5.71-2.47,12.72,12.72,0,0,1-3.23-8c-.28-4,2.16-5.71,4.53-6a7.91,7.91,0,0,1,8.59,6.34.51.51,0,0,1-.42.59.53.53,0,0,1-.6-.43c-.58-3.66-4.39-5.83-7.45-5.48-1.18.14-3.9.89-3.62,4.89a11.62,11.62,0,0,0,2.94,7.38,6.57,6.57,0,0,0,7.16,1.7.52.52,0,1,1,.43,1A6.5,6.5,0,0,1,190.41,203Z" fill="#231f20"/><path d="M227.33,193.46l-2-20.46s-5.55-6.83-16.88-6.83S191.6,173,191.6,173l-.85,18.06c0,8.91,2.28,14.26,5.75,17.31l-.88,19.35s3.13,6.81,12.25,6.81a14.73,14.73,0,0,0,12.82-6.81l-.8-17.52C223.42,208.12,226,203.55,227.33,193.46Z" fill="#fff"/><path d="M208.48,166.17c11.33,0,16.88,6.83,16.88,6.83l2,20.46c-1.31,10.09-3.91,14.66-7.44,16.74l.8,17.52a14.73,14.73,0,0,1-12.82,6.81c-9.12,0-12.25-6.81-12.25-6.81l.88-19.35c-3.47-3.05-5.75-8.4-5.75-17.31L191.6,173s5.54-6.83,16.88-6.83m0-1c-11.69,0-17.45,6.91-17.68,7.21a1,1,0,0,0-.23.6L189.72,191c0,8.23,1.93,14.2,5.73,17.8l-.86,18.86a1.14,1.14,0,0,0,.09.48c.14.3,3.52,7.41,13.19,7.41a15.62,15.62,0,0,0,13.72-7.35,1,1,0,0,0,.13-.54L221,210.75c3.91-2.63,6.21-8,7.4-17.16a.88.88,0,0,0,0-.23l-2-20.46a1,1,0,0,0-.22-.55c-.24-.3-6-7.21-17.68-7.21Z" fill="#231f20"/><path d="M189.65,195.07c.36,1,.74,1.93,1.15,2.88,1,2.25,3.77,4.88,5.08,7,1.57,2.5,1.35,2,4.17,2.27a96.6,96.6,0,0,0,18.47.21c1.45-.12,3-.34,4-1.4a6,6,0,0,0,1.07-2q3.54-9,6.43-18.28a17.84,17.84,0,0,0,.9-7.81c-.06-.7-.44-6.64-2-6.1,1-.36,2.38.31,3.44.59-1.25-2.89-3.87-6-7-5.88.71-4.15-3.17-6.95-7.13-8.37s-8.32-.88-12.48-.23A39.44,39.44,0,0,0,195,160.77c-6.5,3-10.69,11.28-9.44,18.47A89.73,89.73,0,0,0,189.65,195.07Z" fill="#fff"/><path d="M210.41,208.25a98,98,0,0,1-10.42-.56l-1.22-.1c-1.77-.12-2-.28-3.33-2.41a28.93,28.93,0,0,0-2.07-2.69,20,20,0,0,1-3-4.33c-.4-.94-.79-1.92-1.16-2.91h0a89.37,89.37,0,0,1-4.1-15.92c-1.28-7.37,3.09-15.91,9.73-19a40.07,40.07,0,0,1,10.87-2.87c4.23-.66,8.69-1.19,12.73.26,5,1.79,7.79,4.88,7.54,8.34,3.2.23,5.7,3.4,6.9,6.18a.51.51,0,0,1-.08.54.54.54,0,0,1-.52.17c-.27-.07-.55-.17-.84-.26s-.65-.21-1-.29a16.6,16.6,0,0,1,1,5.42v.1a18.66,18.66,0,0,1-.91,8c-1.93,6.15-4.09,12.31-6.45,18.32a6.63,6.63,0,0,1-1.17,2.13c-1.12,1.2-2.83,1.44-4.34,1.57Q214.51,208.26,210.41,208.25Zm-20.27-13.36c.36,1,.74,1.94,1.13,2.86a19.82,19.82,0,0,0,2.89,4.08,28,28,0,0,1,2.16,2.8c1.15,1.83,1.15,1.83,2.52,1.93l1.26.1a95.67,95.67,0,0,0,18.38.22c1.32-.11,2.81-.31,3.67-1.24a5.66,5.66,0,0,0,1-1.81c2.35-6,4.51-12.12,6.42-18.24a17.39,17.39,0,0,0,.87-7.61v-.11c-.37-4.83-1.16-5.48-1.25-5.54v0l-.05,0a.51.51,0,1,1-.34-1h0a4.25,4.25,0,0,1,2.62.23c-1.35-2.47-3.57-4.66-6-4.52a.54.54,0,0,1-.4-.17.53.53,0,0,1-.13-.43c.78-4.56-4.49-7-6.79-7.79-3.82-1.36-8.14-.85-12.23-.21a38.62,38.62,0,0,0-10.59,2.78c-6.25,2.94-10.36,11-9.16,17.92a89,89,0,0,0,4.06,15.74Z" fill="#231f20"/><path d="M188,223s.33-4.12,2.12-5.25,30.51-3,33.84,0a11.09,11.09,0,0,1,3.34,7.58S194.07,222.28,188,223Z" fill="#fff"/><path d="M227.33,225.85h-.05c-.33,0-33.28-3-39.19-2.34a.5.5,0,0,1-.42-.14.53.53,0,0,1-.16-.41c0-.45.41-4.41,2.37-5.65,1.42-.9,30.72-3.27,34.46.05a11.54,11.54,0,0,1,3.5,8,.5.5,0,0,1-.17.38A.48.48,0,0,1,227.33,225.85Zm-36.55-3.48c9.13,0,31.88,2,36,2.39a10.37,10.37,0,0,0-3.12-6.63c-1.28-1.14-7.84-1.67-17.12-1.4-8.67.25-15.43,1-16.1,1.46-1.1.69-1.63,2.92-1.82,4.24C189.2,222.39,189.93,222.37,190.78,222.37Z" fill="#231f20"/><path d="M250.29,237.86c-11.28-15.55-30.58-16.94-42.14-16.94s-30.86,1.39-42.13,16.94-10.73,38.38-10.73,38.38H261S261.56,253.42,250.29,237.86Z" fill="#0b8c8c"/><path d="M261,276.75H155.29a.52.52,0,0,1-.52-.5c0-.23-.41-23.17,10.84-38.69,12.42-17.15,35.09-17.15,42.54-17.15,30.13,0,39.48,12.91,42.55,17.15C262,253.08,261.54,276,261.54,276.25A.52.52,0,0,1,261,276.75Zm-105.22-1H260.51c0-3.43-.52-23.59-10.64-37.55-10.86-15-29-16.73-41.72-16.73s-30.85,1.73-41.71,16.73C156.32,252.13,155.81,272.29,155.8,275.72Z" fill="#0b8c8c"/><path d="M176.17,276.75a.51.51,0,0,1-.52-.49l-1.35-30.84a.53.53,0,0,1,.49-.54.54.54,0,0,1,.54.5l1.35,30.84a.51.51,0,0,1-.49.53Z" fill="#231f20"/><path d="M238.92,276.75h0a.51.51,0,0,1-.48-.54L240,247.59a.5.5,0,0,1,.54-.48.51.51,0,0,1,.49.54l-1.62,28.62A.52.52,0,0,1,238.92,276.75Z" fill="#231f20"/><path d="M177.37,74.6S199.65,92,204.24,94.28s23.48-10.17,23.48-10.17l12.84,11.17S218.39,122,204.24,121.47s-31.85-24.92-31.85-24.92" fill="#0b8c8c"/><path d="M240.56,88.05a.54.54,0,0,1-.28-.08.53.53,0,0,1-.16-.72c3-4.63,1.39-7.37,1.37-7.4a.52.52,0,1,1,.88-.54c.09.14,2,3.33-1.38,8.5A.52.52,0,0,1,240.56,88.05Z" fill="#231f20"/><path d="M165,161.32a.54.54,0,0,1-.34-.12.53.53,0,0,1-.17-.37l-1.18-25.56a.52.52,0,0,1,.49-.54.52.52,0,0,1,.54.49l1.15,25,20.38-2a.52.52,0,1,1,.1,1L165,161.32Z" fill="#231f20"/></g></svg>