<?xml version="1.0" encoding="UTF-8" standalone="no"?><!-- Generator: Gravit.io --><svg xmlns="http://www.w3.org/2000/svg" xmlns:xlink="http://www.w3.org/1999/xlink" style="isolation:isolate" viewBox="0 0 164.891 117.515" width="164.891pt" height="117.515pt"><defs><clipPath id="_clipPath_IDwRYHafGsj1QnfZSLViQ8AH476EbhfT"><rect width="164.891" height="117.515"/></clipPath></defs><g clip-path="url(#_clipPath_IDwRYHafGsj1QnfZSLViQ8AH476EbhfT)"><g><circle vector-effect="non-scaling-stroke" cx="107.6143826969917" cy="59.13899187977609" r="57.27708588968264" fill="rgb(2,143,105)"/><path d=" M 58.744 96.33 C 58.751 96.33 58.758 96.33 58.764 96.33 C 58.758 96.33 58.758 96.33 58.758 96.33 L 58.758 96.33 L 58.744 96.33 C 53.733 96.336 48.761 95.33 44.139 93.377 C 39.677 91.49 35.619 88.749 32.196 85.32 C 28.766 81.89 26.026 77.838 24.132 73.369 C 22.179 68.748 21.179 63.776 21.186 58.758 C 21.179 53.739 22.186 48.767 24.139 44.139 C 26.026 39.684 28.766 35.625 32.196 32.196 C 35.619 28.766 39.677 26.032 44.139 24.139 C 48.767 22.186 53.733 21.179 58.758 21.186 C 63.776 21.179 68.742 22.186 73.369 24.139 C 77.832 26.032 81.89 28.766 85.313 32.196 C 88.749 35.625 91.483 39.684 93.377 44.146 C 95.33 48.767 96.33 53.739 96.33 58.758 C 96.33 63.776 95.33 68.748 93.377 73.369 C 91.483 77.838 88.749 81.89 85.313 85.32 C 81.89 88.749 77.832 91.49 73.369 93.377 C 68.748 95.33 63.783 96.336 58.764 96.33 M 58.764 117.515 C 58.758 117.515 58.758 117.515 58.758 117.515 L 58.758 117.515 L 58.764 117.515 Z  M 58.764 117.515 C 58.758 117.515 58.758 117.515 58.758 117.515 C 50.899 117.522 43.12 115.946 35.89 112.894 C 28.912 109.935 22.57 105.658 17.214 100.302 C 11.851 94.946 7.581 88.603 4.621 81.625 C 1.562 74.389 -0.007 66.616 0 58.758 C -0.007 50.906 1.562 43.133 4.621 35.897 C 7.581 28.912 11.851 22.576 17.214 17.22 C 22.57 11.857 28.912 7.581 35.89 4.628 C 43.12 1.569 50.899 -0.007 58.758 0 C 66.61 -0.007 74.389 1.569 81.625 4.628 C 88.597 7.581 94.939 11.857 100.295 17.22 C 105.658 22.576 109.935 28.912 112.888 35.89 C 115.946 43.127 117.515 50.906 117.515 58.758 C 117.515 66.616 115.946 74.389 112.888 81.625 C 109.935 88.603 105.658 94.946 100.295 100.302 C 94.939 105.658 88.597 109.935 81.625 112.894 C 74.389 115.946 66.61 117.522 58.758 117.515" fill-rule="evenodd" fill="rgb(44,48,56)"/></g></g></svg>