<?xml version="1.0" encoding="UTF-8" standalone="no"?><!-- Generator: Gravit.io --><svg xmlns="http://www.w3.org/2000/svg" xmlns:xlink="http://www.w3.org/1999/xlink" style="isolation:isolate" viewBox="0 0 111.667 21.035" width="111.667pt" height="21.035pt"><defs><clipPath id="_clipPath_q4skW2ZBWbPgGsGKhBxzENxGnWkK5vxj"><rect width="111.667" height="21.035"/></clipPath></defs><g clip-path="url(#_clipPath_q4skW2ZBWbPgGsGKhBxzENxGnWkK5vxj)"><path d=" M 7.53 6.681 L 6.676 10.708 L 7.196 10.708 L 7.196 10.708 Q 8.513 10.708 9.269 10.068 L 9.269 10.068 L 9.269 10.068 Q 10.025 9.427 10.025 8.351 L 10.025 8.351 L 10.025 8.351 Q 10.025 6.681 8.216 6.681 L 8.216 6.681 L 7.53 6.681 L 7.53 6.681 Z  M 12.874 8.277 L 12.874 8.277 L 12.874 8.277 Q 12.874 10.513 11.301 11.788 L 11.301 11.788 L 11.301 11.788 Q 9.729 13.064 6.964 13.064 L 6.964 13.064 L 6.166 13.064 L 5.155 17.888 L 2.325 17.888 L 5.192 4.325 L 8.328 4.325 L 8.328 4.325 Q 10.573 4.325 11.723 5.313 L 11.723 5.313 L 11.723 5.313 Q 12.874 6.301 12.874 8.277 Z  M 19.052 3.453 L 15.991 17.888 L 13.198 17.888 L 16.26 3.453 L 19.052 3.453 L 19.052 3.453 Z  M 22.262 18.074 L 22.262 18.074 L 22.262 18.074 Q 20.898 18.074 20.115 17.086 L 20.115 17.086 L 20.115 17.086 Q 19.331 16.098 19.331 14.317 L 19.331 14.317 L 19.331 14.317 Q 19.331 12.48 19.999 10.814 L 19.999 10.814 L 19.999 10.814 Q 20.667 9.149 21.752 8.235 L 21.752 8.235 L 21.752 8.235 Q 22.837 7.321 24.136 7.321 L 24.136 7.321 L 24.136 7.321 Q 25.036 7.321 25.69 7.711 L 25.69 7.711 L 25.69 7.711 Q 26.344 8.101 26.706 8.843 L 26.706 8.843 L 26.78 8.843 L 27.309 7.516 L 29.461 7.516 L 27.253 17.888 L 25.129 17.888 L 25.259 16.543 L 25.222 16.543 L 25.222 16.543 Q 23.979 18.074 22.262 18.074 Z  M 23.357 15.82 L 23.357 15.82 L 23.357 15.82 Q 23.997 15.82 24.591 15.198 L 24.591 15.198 L 24.591 15.198 Q 25.185 14.576 25.546 13.514 L 25.546 13.514 L 25.546 13.514 Q 25.908 12.452 25.908 11.107 L 25.908 11.107 L 25.908 11.107 Q 25.908 10.448 25.551 10.017 L 25.551 10.017 L 25.551 10.017 Q 25.194 9.585 24.609 9.585 L 24.609 9.585 L 24.609 9.585 Q 23.979 9.585 23.408 10.253 L 23.408 10.253 L 23.408 10.253 Q 22.837 10.921 22.499 12.016 L 22.499 12.016 L 22.499 12.016 Q 22.16 13.111 22.16 14.187 L 22.16 14.187 L 22.16 14.187 Q 22.16 15.003 22.471 15.411 L 22.471 15.411 L 22.471 15.411 Q 22.782 15.82 23.357 15.82 Z  M 34.48 18.074 L 34.48 18.074 L 34.48 18.074 Q 32.616 18.074 31.618 17.077 L 31.618 17.077 L 31.618 17.077 Q 30.621 16.079 30.621 14.261 L 30.621 14.261 L 30.621 14.261 Q 30.621 12.294 31.312 10.684 L 31.312 10.684 L 31.312 10.684 Q 32.003 9.075 33.256 8.198 L 33.256 8.198 L 33.256 8.198 Q 34.508 7.321 36.113 7.321 L 36.113 7.321 L 36.113 7.321 Q 37.802 7.321 39.156 7.989 L 39.156 7.989 L 38.303 10.114 L 38.303 10.114 Q 37.802 9.901 37.319 9.743 L 37.319 9.743 L 37.319 9.743 Q 36.837 9.585 36.225 9.585 L 36.225 9.585 L 36.225 9.585 Q 35.436 9.585 34.801 10.179 L 34.801 10.179 L 34.801 10.179 Q 34.165 10.773 33.808 11.807 L 33.808 11.807 L 33.808 11.807 Q 33.451 12.841 33.451 14.029 L 33.451 14.029 L 33.451 14.029 Q 33.451 14.92 33.873 15.37 L 33.873 15.37 L 33.873 15.37 Q 34.295 15.82 35.046 15.82 L 35.046 15.82 L 35.046 15.82 Q 35.751 15.82 36.354 15.601 L 36.354 15.601 L 36.354 15.601 Q 36.958 15.383 37.598 15.059 L 37.598 15.059 L 37.598 17.341 L 37.598 17.341 Q 36.188 18.074 34.48 18.074 Z  M 45.418 9.335 L 45.418 9.335 L 45.418 9.335 Q 44.602 9.335 43.878 10.077 L 43.878 10.077 L 43.878 10.077 Q 43.155 10.819 42.932 11.886 L 42.932 11.886 L 43.35 11.886 L 43.35 11.886 Q 44.788 11.886 45.59 11.436 L 45.59 11.436 L 45.59 11.436 Q 46.393 10.986 46.393 10.216 L 46.393 10.216 L 46.393 10.216 Q 46.393 9.335 45.418 9.335 Z  M 43.897 18.074 L 43.897 18.074 L 43.897 18.074 Q 41.949 18.074 40.873 17.026 L 40.873 17.026 L 40.873 17.026 Q 39.796 15.977 39.796 14.066 L 39.796 14.066 L 39.796 14.066 Q 39.796 12.146 40.562 10.564 L 40.562 10.564 L 40.562 10.564 Q 41.327 8.982 42.635 8.152 L 42.635 8.152 L 42.635 8.152 Q 43.943 7.321 45.595 7.321 L 45.595 7.321 L 45.595 7.321 Q 47.237 7.321 48.155 8.078 L 48.155 8.078 L 48.155 8.078 Q 49.074 8.834 49.074 10.151 L 49.074 10.151 L 49.074 10.151 Q 49.074 11.886 47.524 12.828 L 47.524 12.828 L 47.524 12.828 Q 45.975 13.769 43.099 13.769 L 43.099 13.769 L 42.626 13.769 L 42.607 13.964 L 42.607 14.15 L 42.607 14.15 Q 42.607 14.994 43.085 15.481 L 43.085 15.481 L 43.085 15.481 Q 43.563 15.968 44.454 15.968 L 44.454 15.968 L 44.454 15.968 Q 45.261 15.968 45.919 15.792 L 45.919 15.792 L 45.919 15.792 Q 46.578 15.615 47.515 15.17 L 47.515 15.17 L 47.515 17.276 L 47.515 17.276 Q 45.919 18.074 43.897 18.074 Z  M 59.845 11.979 L 58.611 17.888 L 55.818 17.888 L 57.089 11.83 L 57.089 11.83 Q 57.238 11.199 57.238 10.726 L 57.238 10.726 L 57.238 10.726 Q 57.238 9.585 56.236 9.585 L 56.236 9.585 L 56.236 9.585 Q 55.382 9.585 54.687 10.643 L 54.687 10.643 L 54.687 10.643 Q 53.991 11.7 53.592 13.593 L 53.592 13.593 L 52.683 17.888 L 49.89 17.888 L 52.952 3.453 L 55.744 3.453 L 55.744 3.453 Q 55.382 5.132 55.188 6.032 L 55.188 6.032 L 55.188 6.032 Q 54.993 6.932 54.39 8.899 L 54.39 8.899 L 54.464 8.899 L 54.464 8.899 Q 55.039 8.184 55.744 7.753 L 55.744 7.753 L 55.744 7.753 Q 56.449 7.321 57.377 7.321 L 57.377 7.321 L 57.377 7.321 Q 58.657 7.321 59.358 8.096 L 59.358 8.096 L 59.358 8.096 Q 60.058 8.871 60.058 10.309 L 60.058 10.309 L 60.058 10.309 Q 60.058 10.986 59.845 11.979 L 59.845 11.979 L 59.845 11.979 Z  M 68.491 11.431 L 68.491 11.431 L 68.491 11.431 Q 68.491 9.604 67.165 9.604 L 67.165 9.604 L 67.165 9.604 Q 66.469 9.604 65.917 10.17 L 65.917 10.17 L 65.917 10.17 Q 65.365 10.736 65.017 11.83 L 65.017 11.83 L 65.017 11.83 Q 64.669 12.925 64.669 14.085 L 64.669 14.085 L 64.669 14.085 Q 64.669 15.801 66.061 15.801 L 66.061 15.801 L 66.061 15.801 Q 66.756 15.801 67.313 15.23 L 67.313 15.23 L 67.313 15.23 Q 67.87 14.66 68.18 13.644 L 68.18 13.644 L 68.18 13.644 Q 68.491 12.628 68.491 11.431 Z  M 71.302 11.431 L 71.302 11.431 L 71.302 11.431 Q 71.302 13.389 70.648 14.901 L 70.648 14.901 L 70.648 14.901 Q 69.994 16.413 68.76 17.244 L 68.76 17.244 L 68.76 17.244 Q 67.526 18.074 65.829 18.074 L 65.829 18.074 L 65.829 18.074 Q 64.02 18.074 62.939 16.984 L 62.939 16.984 L 62.939 16.984 Q 61.858 15.894 61.858 14.085 L 61.858 14.085 L 61.858 14.085 Q 61.858 12.109 62.521 10.564 L 62.521 10.564 L 62.521 10.564 Q 63.185 9.019 64.437 8.17 L 64.437 8.17 L 64.437 8.17 Q 65.689 7.321 67.369 7.321 L 67.369 7.321 L 67.369 7.321 Q 69.187 7.321 70.245 8.416 L 70.245 8.416 L 70.245 8.416 Q 71.302 9.511 71.302 11.431 Z  M 78.334 3.453 L 75.273 17.888 L 72.48 17.888 L 75.542 3.453 L 78.334 3.453 L 78.334 3.453 Z  M 81.544 18.074 L 81.544 18.074 L 81.544 18.074 Q 80.181 18.074 79.397 17.081 L 79.397 17.081 L 79.397 17.081 Q 78.613 16.089 78.613 14.298 L 78.613 14.298 L 78.613 14.298 Q 78.613 12.48 79.276 10.824 L 79.276 10.824 L 79.276 10.824 Q 79.939 9.168 81.025 8.245 L 81.025 8.245 L 81.025 8.245 Q 82.11 7.321 83.418 7.321 L 83.418 7.321 L 83.418 7.321 Q 84.179 7.321 84.731 7.665 L 84.731 7.665 L 84.731 7.665 Q 85.283 8.008 85.775 8.843 L 85.775 8.843 L 85.849 8.843 L 85.868 8.583 L 85.868 8.583 Q 85.923 7.563 86.1 6.774 L 86.1 6.774 L 86.805 3.453 L 89.597 3.453 L 86.536 17.888 L 84.411 17.888 L 84.541 16.543 L 84.504 16.543 L 84.504 16.543 Q 83.845 17.35 83.126 17.712 L 83.126 17.712 L 83.126 17.712 Q 82.407 18.074 81.544 18.074 Z  M 82.713 15.82 L 82.713 15.82 L 82.713 15.82 Q 83.326 15.82 83.906 15.184 L 83.906 15.184 L 83.906 15.184 Q 84.485 14.549 84.838 13.491 L 84.838 13.491 L 84.838 13.491 Q 85.19 12.433 85.19 11.218 L 85.19 11.218 L 85.19 11.218 Q 85.19 10.476 84.843 10.03 L 84.843 10.03 L 84.843 10.03 Q 84.495 9.585 83.892 9.585 L 83.892 9.585 L 83.892 9.585 Q 83.261 9.585 82.69 10.253 L 82.69 10.253 L 82.69 10.253 Q 82.12 10.921 81.781 12.016 L 81.781 12.016 L 81.781 12.016 Q 81.442 13.111 81.442 14.187 L 81.442 14.187 L 81.442 14.187 Q 81.442 15.82 82.713 15.82 Z  M 95.525 9.335 L 95.525 9.335 L 95.525 9.335 Q 94.709 9.335 93.985 10.077 L 93.985 10.077 L 93.985 10.077 Q 93.262 10.819 93.039 11.886 L 93.039 11.886 L 93.457 11.886 L 93.457 11.886 Q 94.895 11.886 95.697 11.436 L 95.697 11.436 L 95.697 11.436 Q 96.5 10.986 96.5 10.216 L 96.5 10.216 L 96.5 10.216 Q 96.5 9.335 95.525 9.335 Z  M 94.004 18.074 L 94.004 18.074 L 94.004 18.074 Q 92.056 18.074 90.979 17.026 L 90.979 17.026 L 90.979 17.026 Q 89.903 15.977 89.903 14.066 L 89.903 14.066 L 89.903 14.066 Q 89.903 12.146 90.669 10.564 L 90.669 10.564 L 90.669 10.564 Q 91.434 8.982 92.742 8.152 L 92.742 8.152 L 92.742 8.152 Q 94.05 7.321 95.702 7.321 L 95.702 7.321 L 95.702 7.321 Q 97.344 7.321 98.262 8.078 L 98.262 8.078 L 98.262 8.078 Q 99.181 8.834 99.181 10.151 L 99.181 10.151 L 99.181 10.151 Q 99.181 11.886 97.631 12.828 L 97.631 12.828 L 97.631 12.828 Q 96.082 13.769 93.206 13.769 L 93.206 13.769 L 92.733 13.769 L 92.714 13.964 L 92.714 14.15 L 92.714 14.15 Q 92.714 14.994 93.192 15.481 L 93.192 15.481 L 93.192 15.481 Q 93.67 15.968 94.561 15.968 L 94.561 15.968 L 94.561 15.968 Q 95.368 15.968 96.026 15.792 L 96.026 15.792 L 96.026 15.792 Q 96.685 15.615 97.622 15.17 L 97.622 15.17 L 97.622 17.276 L 97.622 17.276 Q 96.026 18.074 94.004 18.074 Z  M 107.465 7.321 L 107.465 7.321 L 107.465 7.321 Q 108.013 7.321 108.356 7.424 L 108.356 7.424 L 107.744 10.114 L 107.744 10.114 Q 107.326 9.965 106.816 9.965 L 106.816 9.965 L 106.816 9.965 Q 105.74 9.965 104.928 10.814 L 104.928 10.814 L 104.928 10.814 Q 104.116 11.663 103.773 13.25 L 103.773 13.25 L 102.79 17.888 L 99.997 17.888 L 102.196 7.516 L 104.33 7.516 L 104.135 9.437 L 104.19 9.437 L 104.19 9.437 Q 105.554 7.321 107.465 7.321 Z " fill="rgb(140,152,164)"/></g></svg>