<?xml version="1.0" encoding="UTF-8" standalone="no"?><!-- Generator: Gravit.io --><svg xmlns="http://www.w3.org/2000/svg" xmlns:xlink="http://www.w3.org/1999/xlink" style="isolation:isolate" viewBox="0 0 108 21.908" width="108pt" height="21.908pt"><defs><clipPath id="_clipPath_yYMYRWXOjSBmpePSmsJ4LIQfnbcPlxxO"><rect width="108" height="21.908"/></clipPath></defs><g clip-path="url(#_clipPath_yYMYRWXOjSBmpePSmsJ4LIQfnbcPlxxO)"><path d=" M 4.086 21.612 L 0 21.612 L 0 0.592 L 14.122 0.592 L 14.122 4.174 L 4.086 4.174 L 4.086 9.592 L 12.434 9.592 L 12.434 12.908 L 4.086 12.908 L 4.086 21.612 Z  M 20.576 21.612 L 16.609 21.612 L 16.609 6.099 L 20.576 6.099 L 20.576 21.612 Z  M 20.576 3.937 L 16.609 3.937 L 16.609 0 L 20.576 0 L 20.576 3.937 Z  M 38.576 11.931 L 38.576 21.612 L 34.609 21.612 L 34.609 12.908 L 34.609 12.908 Q 34.609 11.043 33.957 10.184 L 33.957 10.184 L 33.957 10.184 Q 33.306 9.326 32.151 9.326 L 32.151 9.326 L 32.151 9.326 Q 31.559 9.326 30.938 9.562 L 30.938 9.562 L 30.938 9.562 Q 30.316 9.799 29.768 10.229 L 29.768 10.229 L 29.768 10.229 Q 29.22 10.658 28.776 11.25 L 28.776 11.25 L 28.776 11.25 Q 28.332 11.842 28.125 12.553 L 28.125 12.553 L 28.125 21.612 L 24.158 21.612 L 24.158 6.099 L 27.74 6.099 L 27.74 8.97 L 27.74 8.97 Q 28.599 7.49 30.227 6.661 L 30.227 6.661 L 30.227 6.661 Q 31.855 5.832 33.898 5.832 L 33.898 5.832 L 33.898 5.832 Q 35.349 5.832 36.266 6.365 L 36.266 6.365 L 36.266 6.365 Q 37.184 6.898 37.688 7.757 L 37.688 7.757 L 37.688 7.757 Q 38.191 8.615 38.383 9.711 L 38.383 9.711 L 38.383 9.711 Q 38.576 10.806 38.576 11.931 L 38.576 11.931 Z  M 48.464 21.908 L 48.464 21.908 L 48.464 21.908 Q 46.865 21.908 45.503 21.286 L 45.503 21.286 L 45.503 21.286 Q 44.141 20.664 43.164 19.569 L 43.164 19.569 L 43.164 19.569 Q 42.187 18.474 41.64 17.008 L 41.64 17.008 L 41.64 17.008 Q 41.092 15.543 41.092 13.855 L 41.092 13.855 L 41.092 13.855 Q 41.092 12.168 41.61 10.717 L 41.61 10.717 L 41.61 10.717 Q 42.128 9.266 43.046 8.171 L 43.046 8.171 L 43.046 8.171 Q 43.964 7.076 45.237 6.454 L 45.237 6.454 L 45.237 6.454 Q 46.51 5.832 48.02 5.832 L 48.02 5.832 L 48.02 5.832 Q 49.737 5.832 51.113 6.661 L 51.113 6.661 L 51.113 6.661 Q 52.49 7.49 53.26 8.822 L 53.26 8.822 L 53.26 0 L 57.227 0 L 57.227 17.053 L 57.227 17.053 Q 57.227 17.674 57.434 17.941 L 57.434 17.941 L 57.434 17.941 Q 57.641 18.207 58.145 18.237 L 58.145 18.237 L 58.145 21.612 L 58.145 21.612 Q 57.109 21.819 56.457 21.819 L 56.457 21.819 L 56.457 21.819 Q 55.391 21.819 54.711 21.286 L 54.711 21.286 L 54.711 21.286 Q 54.03 20.753 53.941 19.895 L 53.941 19.895 L 53.852 18.918 L 53.852 18.918 Q 52.993 20.398 51.528 21.153 L 51.528 21.153 L 51.528 21.153 Q 50.062 21.908 48.464 21.908 Z  M 49.5 18.533 L 49.5 18.533 L 49.5 18.533 Q 50.062 18.533 50.655 18.34 L 50.655 18.34 L 50.655 18.34 Q 51.247 18.148 51.75 17.793 L 51.75 17.793 L 51.75 17.793 Q 52.253 17.438 52.653 16.964 L 52.653 16.964 L 52.653 16.964 Q 53.053 16.49 53.26 15.928 L 53.26 15.928 L 53.26 12.227 L 53.26 12.227 Q 53.023 11.576 52.594 11.028 L 52.594 11.028 L 52.594 11.028 Q 52.164 10.48 51.617 10.081 L 51.617 10.081 L 51.617 10.081 Q 51.069 9.681 50.462 9.444 L 50.462 9.444 L 50.462 9.444 Q 49.855 9.207 49.263 9.207 L 49.263 9.207 L 49.263 9.207 Q 48.375 9.207 47.62 9.592 L 47.62 9.592 L 47.62 9.592 Q 46.865 9.977 46.332 10.643 L 46.332 10.643 L 46.332 10.643 Q 45.799 11.309 45.503 12.168 L 45.503 12.168 L 45.503 12.168 Q 45.207 13.026 45.207 13.944 L 45.207 13.944 L 45.207 13.944 Q 45.207 14.921 45.533 15.75 L 45.533 15.75 L 45.533 15.75 Q 45.859 16.579 46.421 17.201 L 46.421 17.201 L 46.421 17.201 Q 46.984 17.822 47.768 18.178 L 47.768 18.178 L 47.768 18.178 Q 48.553 18.533 49.5 18.533 Z  M 68.329 21.908 L 68.329 21.908 L 68.329 21.908 Q 66.464 21.908 64.954 21.271 L 64.954 21.271 L 64.954 21.271 Q 63.444 20.635 62.378 19.539 L 62.378 19.539 L 62.378 19.539 Q 61.313 18.444 60.735 16.993 L 60.735 16.993 L 60.735 16.993 Q 60.158 15.543 60.158 13.944 L 60.158 13.944 L 60.158 13.944 Q 60.158 12.286 60.72 10.821 L 60.72 10.821 L 60.72 10.821 Q 61.283 9.355 62.349 8.245 L 62.349 8.245 L 62.349 8.245 Q 63.414 7.135 64.939 6.484 L 64.939 6.484 L 64.939 6.484 Q 66.464 5.832 68.359 5.832 L 68.359 5.832 L 68.359 5.832 Q 70.253 5.832 71.748 6.484 L 71.748 6.484 L 71.748 6.484 Q 73.243 7.135 74.294 8.23 L 74.294 8.23 L 74.294 8.23 Q 75.345 9.326 75.893 10.776 L 75.893 10.776 L 75.893 10.776 Q 76.441 12.227 76.441 13.796 L 76.441 13.796 L 76.441 13.796 Q 76.441 14.181 76.426 14.536 L 76.426 14.536 L 76.426 14.536 Q 76.411 14.891 76.352 15.128 L 76.352 15.128 L 64.362 15.128 L 64.362 15.128 Q 64.451 16.046 64.806 16.757 L 64.806 16.757 L 64.806 16.757 Q 65.161 17.467 65.724 17.97 L 65.724 17.97 L 65.724 17.97 Q 66.286 18.474 66.997 18.74 L 66.997 18.74 L 66.997 18.74 Q 67.707 19.007 68.477 19.007 L 68.477 19.007 L 68.477 19.007 Q 69.661 19.007 70.712 18.429 L 70.712 18.429 L 70.712 18.429 Q 71.763 17.852 72.148 16.905 L 72.148 16.905 L 75.553 17.852 L 75.553 17.852 Q 74.694 19.628 72.814 20.768 L 72.814 20.768 L 72.814 20.768 Q 70.934 21.908 68.329 21.908 Z  M 64.303 12.553 L 72.355 12.553 L 72.355 12.553 Q 72.207 10.806 71.067 9.755 L 71.067 9.755 L 71.067 9.755 Q 69.928 8.704 68.299 8.704 L 68.299 8.704 L 68.299 8.704 Q 67.5 8.704 66.804 8.985 L 66.804 8.985 L 66.804 8.985 Q 66.109 9.266 65.576 9.77 L 65.576 9.77 L 65.576 9.77 Q 65.043 10.273 64.702 10.984 L 64.702 10.984 L 64.702 10.984 Q 64.362 11.694 64.303 12.553 L 64.303 12.553 Z  M 83.102 21.908 L 83.102 21.908 L 83.102 21.908 Q 81.977 21.908 81 21.538 L 81 21.538 L 81 21.538 Q 80.023 21.168 79.312 20.502 L 79.312 20.502 L 79.312 20.502 Q 78.602 19.836 78.202 18.947 L 78.202 18.947 L 78.202 18.947 Q 77.803 18.059 77.803 16.993 L 77.803 16.993 L 77.803 16.993 Q 77.803 15.898 78.291 14.965 L 78.291 14.965 L 78.291 14.965 Q 78.78 14.033 79.653 13.382 L 79.653 13.382 L 79.653 13.382 Q 80.526 12.73 81.74 12.36 L 81.74 12.36 L 81.74 12.36 Q 82.954 11.99 84.405 11.99 L 84.405 11.99 L 84.405 11.99 Q 85.441 11.99 86.433 12.168 L 86.433 12.168 L 86.433 12.168 Q 87.424 12.345 88.194 12.671 L 88.194 12.671 L 88.194 11.783 L 88.194 11.783 Q 88.194 10.243 87.321 9.414 L 87.321 9.414 L 87.321 9.414 Q 86.447 8.586 84.73 8.586 L 84.73 8.586 L 84.73 8.586 Q 83.487 8.586 82.303 9.03 L 82.303 9.03 L 82.303 9.03 Q 81.118 9.474 79.875 10.332 L 79.875 10.332 L 78.661 7.816 L 78.661 7.816 Q 81.651 5.832 85.115 5.832 L 85.115 5.832 L 85.115 5.832 Q 88.461 5.832 90.311 7.475 L 90.311 7.475 L 90.311 7.475 Q 92.161 9.118 92.161 12.227 L 92.161 12.227 L 92.161 17.053 L 92.161 17.053 Q 92.161 17.674 92.383 17.941 L 92.383 17.941 L 92.383 17.941 Q 92.605 18.207 93.109 18.237 L 93.109 18.237 L 93.109 21.612 L 93.109 21.612 Q 92.102 21.819 91.362 21.819 L 91.362 21.819 L 91.362 21.819 Q 90.237 21.819 89.63 21.316 L 89.63 21.316 L 89.63 21.316 Q 89.023 20.812 88.875 19.984 L 88.875 19.984 L 88.786 19.125 L 88.786 19.125 Q 87.75 20.487 86.27 21.197 L 86.27 21.197 L 86.27 21.197 Q 84.789 21.908 83.102 21.908 Z  M 84.227 19.007 L 84.227 19.007 L 84.227 19.007 Q 85.234 19.007 86.137 18.651 L 86.137 18.651 L 86.137 18.651 Q 87.039 18.296 87.543 17.704 L 87.543 17.704 L 87.543 17.704 Q 88.194 17.201 88.194 16.579 L 88.194 16.579 L 88.194 14.803 L 88.194 14.803 Q 87.484 14.536 86.655 14.373 L 86.655 14.373 L 86.655 14.373 Q 85.826 14.211 85.056 14.211 L 85.056 14.211 L 85.056 14.211 Q 83.516 14.211 82.539 14.906 L 82.539 14.906 L 82.539 14.906 Q 81.563 15.602 81.563 16.668 L 81.563 16.668 L 81.563 16.668 Q 81.563 17.674 82.332 18.34 L 82.332 18.34 L 82.332 18.34 Q 83.102 19.007 84.227 19.007 Z  M 101.724 21.908 L 101.724 21.908 L 101.724 21.908 Q 99.77 21.908 97.905 21.286 L 97.905 21.286 L 97.905 21.286 Q 96.039 20.664 94.707 19.51 L 94.707 19.51 L 96.188 17.023 L 96.188 17.023 Q 97.609 18.03 98.956 18.548 L 98.956 18.548 L 98.956 18.548 Q 100.303 19.066 101.635 19.066 L 101.635 19.066 L 101.635 19.066 Q 102.819 19.066 103.5 18.622 L 103.5 18.622 L 103.5 18.622 Q 104.181 18.178 104.181 17.349 L 104.181 17.349 L 104.181 17.349 Q 104.181 16.52 103.382 16.135 L 103.382 16.135 L 103.382 16.135 Q 102.582 15.75 100.776 15.247 L 100.776 15.247 L 100.776 15.247 Q 99.266 14.832 98.201 14.447 L 98.201 14.447 L 98.201 14.447 Q 97.135 14.063 96.484 13.574 L 96.484 13.574 L 96.484 13.574 Q 95.832 13.086 95.536 12.449 L 95.536 12.449 L 95.536 12.449 Q 95.24 11.812 95.24 10.924 L 95.24 10.924 L 95.24 10.924 Q 95.24 9.74 95.699 8.793 L 95.699 8.793 L 95.699 8.793 Q 96.158 7.845 96.987 7.179 L 96.987 7.179 L 96.987 7.179 Q 97.816 6.513 98.926 6.158 L 98.926 6.158 L 98.926 6.158 Q 100.036 5.803 101.339 5.803 L 101.339 5.803 L 101.339 5.803 Q 103.086 5.803 104.61 6.306 L 104.61 6.306 L 104.61 6.306 Q 106.135 6.809 107.408 7.934 L 107.408 7.934 L 105.809 10.332 L 105.809 10.332 Q 104.625 9.444 103.515 9.03 L 103.515 9.03 L 103.515 9.03 Q 102.405 8.615 101.309 8.615 L 101.309 8.615 L 101.309 8.615 Q 100.303 8.615 99.622 9.03 L 99.622 9.03 L 99.622 9.03 Q 98.941 9.444 98.941 10.362 L 98.941 10.362 L 98.941 10.362 Q 98.941 10.776 99.104 11.043 L 99.104 11.043 L 99.104 11.043 Q 99.266 11.309 99.622 11.516 L 99.622 11.516 L 99.622 11.516 Q 99.977 11.724 100.554 11.916 L 100.554 11.916 L 100.554 11.916 Q 101.132 12.109 101.99 12.316 L 101.99 12.316 L 101.99 12.316 Q 103.589 12.73 104.729 13.145 L 104.729 13.145 L 104.729 13.145 Q 105.868 13.559 106.594 14.092 L 106.594 14.092 L 106.594 14.092 Q 107.319 14.625 107.66 15.321 L 107.66 15.321 L 107.66 15.321 Q 108 16.016 108 16.993 L 108 16.993 L 108 16.993 Q 108 19.273 106.312 20.59 L 106.312 20.59 L 106.312 20.59 Q 104.625 21.908 101.724 21.908 Z " fill="rgb(33,37,41)"/></g></svg>