<?xml version="1.0" encoding="UTF-8"?><svg id="Layer_1" xmlns="http://www.w3.org/2000/svg" xmlns:xlink="http://www.w3.org/1999/xlink" viewBox="0 0 1989 385"><defs><style>.cls-1{fill:none;}.cls-2{clip-path:url(#clippath);}.cls-3{fill:#fff;}.cls-4{fill:#5b61f9;}.cls-5{clip-path:url(#clippath-1);}.cls-6{isolation:isolate;}</style><clipPath id="clippath"><rect class="cls-1" width="1989" height="385"/></clipPath><clipPath id="clippath-1"><rect class="cls-1" width="1988" height="384"/></clipPath></defs><g class="cls-2"><g id="Logo-Sendflows-White"><g class="cls-5"><g id="Group_1"><g id="symbol-sendflows"><path id="Path_1" class="cls-3" d="M89.07,180.59c9.58-37.68,30.28-66.73,50.61-90.47,2.49-2.89,2.16-7.25-.73-9.74-1.9-1.63-4.53-2.11-6.89-1.25L18.17,120.93C3.83,126.15-3.56,142.02,1.67,156.36c1.39,3.8,3.59,7.25,6.46,10.11l61.42,61.42c2.69,2.71,7.06,2.72,9.77,.03,1.18-1.17,1.9-2.73,2.02-4.39,1.37-14.5,3.96-28.86,7.74-42.93h0Z"/><path id="Path_2" class="cls-4" d="M343.12,1.69l-51.38,18.92c-25.8,9.4-44.92,31.47-50.54,58.35-1.29,6.16-2.19,12.4-2.7,18.67-3.99,48.73,18.21,65.38,6.42,121.17-5.16,23.74-13.54,64.06-49.04,84.02-8.33,4.61-17.3,7.94-26.62,9.89-3.73,.81-6.09,4.5-5.28,8.22,.28,1.29,.93,2.48,1.87,3.41l47.93,47.97c10.56,10.47,27.61,10.4,38.09-.16,2.69-2.71,4.77-5.96,6.1-9.54L378.53,37.28c5.33-14.3-1.95-30.22-16.26-35.54-6.17-2.3-12.96-2.32-19.15-.05Z"/></g><g class="cls-6"><path class="cls-3" d="M416.38,266.73l46.23-26.8c8.38,19.43,22.78,32.5,49.25,32.5s31.83-10.05,31.83-19.09c0-14.41-13.4-20.1-48.58-29.82-34.84-9.71-69.01-26.46-69.01-71.36s38.19-71.36,78.73-71.36,68.68,18.42,85.76,52.93l-45.23,26.47c-8.04-16.75-19.1-27.14-40.54-27.14-16.75,0-25.13,8.38-25.13,17.75,0,10.72,5.7,18.09,42.21,29.15,35.51,10.72,75.38,23.12,75.38,72.7,0,45.23-36.18,72.03-87.1,72.03s-80.74-23.45-93.8-57.96Z"/><path class="cls-3" d="M712.51,279.8c13.74,0,25.46-5.36,32.16-12.73l40.2,23.12c-16.42,22.78-41.21,34.51-73.03,34.51-57.29,0-92.8-38.53-92.8-88.44s36.18-88.44,89.11-88.44c48.91,0,85.09,37.86,85.09,88.44,0,7.04-.67,13.74-2.01,20.1h-118.93c6.37,17.42,21.78,23.45,40.2,23.45Zm30.82-60.97c-5.36-19.43-20.44-26.47-35.51-26.47-19.1,0-31.83,9.38-36.52,26.47h72.03Z"/><path class="cls-3" d="M982.52,217.15v102.85h-50.25v-95.48c0-20.77-13.07-30.49-29.15-30.49-18.43,0-31.16,10.72-31.16,34.51v91.46h-50.25V152.5h50.25v15.75c9.05-12.4,25.8-20.44,47.91-20.44,33.84,0,62.65,24.12,62.65,69.35Z"/><path class="cls-3" d="M1188.88,85.5v234.5h-50.25v-15.75c-11.05,12.73-27.47,20.44-49.92,20.44-43.88,0-80.07-38.53-80.07-88.44s36.18-88.44,80.07-88.44c22.45,0,38.86,7.71,49.92,20.44V85.5h50.25Zm-50.25,150.75c0-25.12-16.75-40.87-39.87-40.87s-39.87,15.75-39.87,40.87,16.75,40.87,39.87,40.87,39.87-15.75,39.87-40.87Z"/></g><g class="cls-6"><path class="cls-4" d="M1379.82,88.85v231.15h-50.25V124.69c-4.02-.33-8.04-.33-11.72-.33-18.76,0-31.16,8.71-31.16,28.14h24.46v48.24h-24.46v119.26h-50.25v-119.26h-22.45v-48.24h22.45c0-46.9,25.8-71.69,81.41-71.69,23.79,0,42.55,3.68,61.98,8.04Z"/><path class="cls-4" d="M1408.29,236.25c0-49.92,39.53-88.44,88.78-88.44s88.78,38.53,88.78,88.44-39.53,88.44-88.78,88.44-88.78-38.53-88.78-88.44Zm127.3,0c0-23.79-16.75-39.53-38.53-39.53s-38.53,15.75-38.53,39.53,16.75,39.53,38.53,39.53,38.53-15.75,38.53-39.53Z"/><path class="cls-4" d="M1845.48,152.5l-53.6,167.5h-46.9l-26.8-89.45-26.8,89.45h-46.9l-53.6-167.5h53.6l24.12,89.78,26.13-89.78h46.9l26.13,89.78,24.12-89.78h53.6Z"/><path class="cls-4" d="M1985.5,269.75c0,38.53-33.5,54.94-69.68,54.94-33.5,0-58.96-12.73-72.03-39.87l43.55-24.79c4.35,12.73,13.74,19.76,28.48,19.76,12.06,0,18.09-3.68,18.09-10.38,0-18.43-82.41-8.71-82.41-66.67,0-36.52,30.82-54.94,65.66-54.94,27.14,0,51.26,12.06,65.33,35.85l-42.88,23.12c-4.69-8.71-11.39-14.74-22.45-14.74-8.71,0-14.07,3.35-14.07,9.38,0,19.1,82.41,6.37,82.41,68.34Z"/></g></g></g></g></g></svg>