<svg width="1967" height="385" viewBox="0 0 1967 385" fill="none" xmlns="http://www.w3.org/2000/svg">
<g clip-path="url(#clip0_2_4)">
<path d="M89.074 180.591C98.655 142.912 119.352 113.863 139.681 90.125C140.679 88.9655 141.264 87.5076 141.344 85.98C141.424 84.4523 140.994 82.9413 140.123 81.6839C139.252 80.4265 137.988 79.4937 136.53 79.0319C135.072 78.57 133.501 78.6052 132.065 79.132L18.17 120.926C13.8017 122.519 9.90592 125.188 6.84323 128.686C3.78053 132.185 1.64995 136.399 0.648732 140.94C-0.35249 145.48 -0.19199 150.2 1.11537 154.662C2.42274 159.124 4.8347 163.184 8.12798 166.466L69.544 227.882C70.4779 228.822 71.6624 229.474 72.9564 229.76C74.2504 230.045 75.5993 229.953 76.8422 229.493C78.0851 229.033 79.1695 228.226 79.9663 227.167C80.7631 226.108 81.2385 224.843 81.336 223.521C82.7033 209.019 85.2918 194.658 89.074 180.591Z" fill="#031A61"/>
<path d="M343.122 1.686L291.747 20.602C279.055 25.2256 267.753 33.0102 258.908 43.2196C250.063 53.429 243.969 65.7258 241.202 78.947C239.914 85.108 239.012 91.3435 238.502 97.617C234.51 146.351 256.712 162.994 244.92 218.791C239.759 242.529 231.378 282.849 195.878 302.809C187.548 307.418 178.573 310.751 169.254 312.697C168.042 312.962 166.924 313.548 166.016 314.394C165.109 315.24 164.446 316.314 164.097 317.505C163.749 318.695 163.727 319.958 164.034 321.16C164.342 322.361 164.967 323.458 165.845 324.335L213.778 372.301C216.973 375.469 220.911 377.785 225.232 379.04C229.552 380.294 234.119 380.446 238.513 379.481C242.908 378.516 246.991 376.466 250.389 373.517C253.787 370.569 256.392 366.816 257.967 362.601L378.528 37.279C380.371 32.3281 380.757 26.9527 379.639 21.7894C378.521 16.6262 375.947 11.8915 372.221 8.14611C368.496 4.40075 363.774 1.80168 358.617 0.656747C353.46 -0.488183 348.083 -0.130995 343.122 1.686Z" fill="#5B61F9"/>
</g>
<path d="M1306.91 84.666C1324.12 84.666 1344.53 87.314 1368.15 92.61V321H1318.5V128.027C1315.85 127.806 1311.99 127.696 1306.91 127.696C1286.39 127.696 1276.13 136.964 1276.13 155.5H1300.29V203.164H1276.13V321H1226.48V203.164H1204.3V155.5H1226.48C1226.48 108.277 1253.29 84.666 1306.91 84.666Z" fill="#5B61F9"/>
<path d="M1546.33 300.478C1529.34 317.249 1508.59 325.634 1484.1 325.634C1459.61 325.634 1438.86 317.249 1421.87 300.478C1404.88 283.487 1396.38 262.744 1396.38 238.25C1396.38 213.756 1404.88 193.124 1421.87 176.353C1438.86 159.362 1459.61 150.866 1484.1 150.866C1508.59 150.866 1529.34 159.362 1546.33 176.353C1563.32 193.124 1571.81 213.756 1571.81 238.25C1571.81 262.744 1563.32 283.487 1546.33 300.478ZM1456.96 266.385C1464.24 273.667 1473.29 277.308 1484.1 277.308C1494.91 277.308 1503.96 273.667 1511.24 266.385C1518.52 259.103 1522.16 249.725 1522.16 238.25C1522.16 226.775 1518.52 217.397 1511.24 210.115C1503.96 202.833 1494.91 199.192 1484.1 199.192C1473.29 199.192 1464.24 202.833 1456.96 210.115C1449.68 217.397 1446.03 226.775 1446.03 238.25C1446.03 249.725 1449.68 259.103 1456.96 266.385Z" fill="#5B61F9"/>
<path d="M1775.48 155.5H1828.44L1775.48 321H1729.14L1702.66 232.623L1676.18 321H1629.84L1576.88 155.5H1629.84L1653.67 244.208L1679.49 155.5H1725.83L1751.65 244.208L1775.48 155.5Z" fill="#5B61F9"/>
<path d="M1885.13 203.826C1885.13 207.136 1887.89 209.894 1893.4 212.101C1899.14 214.087 1905.98 216.183 1913.93 218.39C1921.87 220.376 1929.81 223.024 1937.76 226.334C1945.7 229.644 1952.43 235.161 1957.95 242.884C1963.69 250.387 1966.55 259.875 1966.55 271.35C1966.55 289.224 1959.93 302.795 1946.69 312.063C1933.45 321.11 1917.13 325.634 1897.71 325.634C1862.84 325.634 1839.12 312.504 1826.54 286.245L1869.57 261.751C1873.99 274.77 1883.36 281.28 1897.71 281.28C1909.62 281.28 1915.58 277.86 1915.58 271.019C1915.58 267.709 1912.71 264.951 1906.97 262.744C1901.46 260.537 1894.73 258.441 1886.78 256.455C1878.84 254.248 1870.9 251.49 1862.95 248.18C1855.01 244.649 1848.17 239.243 1842.43 231.961C1836.91 224.679 1834.15 215.742 1834.15 205.15C1834.15 187.938 1840.33 174.588 1852.69 165.099C1865.27 155.61 1880.72 150.866 1899.03 150.866C1912.71 150.866 1925.18 153.955 1936.43 160.134C1947.69 166.092 1956.74 174.808 1963.58 186.283L1921.21 209.122C1915.91 199.413 1908.52 194.558 1899.03 194.558C1889.76 194.558 1885.13 197.647 1885.13 203.826Z" fill="#5B61F9"/>
<path d="M508.955 325.634C485.344 325.634 465.594 320.559 449.706 310.408C434.039 300.037 422.895 286.024 416.275 268.371L461.953 241.891C471.221 263.296 487.44 273.998 510.61 273.998C531.573 273.998 542.055 267.709 542.055 255.131C542.055 248.29 538.635 242.994 531.794 239.243C525.174 235.271 512.596 230.747 494.06 225.672C484.351 223.024 475.855 220.045 468.573 216.735C461.291 213.425 454.119 209.122 447.058 203.826C440.217 198.309 434.921 191.469 431.17 183.304C427.639 175.139 425.874 165.761 425.874 155.169C425.874 133.764 433.487 116.663 448.713 103.864C464.16 91.0653 482.475 84.666 503.659 84.666C522.636 84.666 539.407 89.1897 553.971 98.237C568.535 107.064 580.01 119.973 588.395 136.964L543.71 163.113C539.517 154.286 534.332 147.666 528.153 143.253C521.974 138.619 513.81 136.302 503.659 136.302C495.715 136.302 489.536 138.067 485.123 141.598C480.93 144.908 478.834 148.99 478.834 153.845C478.834 159.582 481.482 164.547 486.778 168.74C492.295 172.933 503.549 177.567 520.54 182.642C529.808 185.511 536.98 187.828 542.055 189.593C547.13 191.358 553.53 194.337 561.253 198.53C569.197 202.502 575.155 206.805 579.127 211.439C583.32 215.852 586.961 221.81 590.05 229.313C593.36 236.595 595.015 244.98 595.015 254.469C595.015 276.536 587.071 293.968 571.183 306.767C555.295 319.345 534.552 325.634 508.955 325.634Z" fill="#031A61"/>
<path d="M669.03 258.11C674.767 273.557 688.007 281.28 708.75 281.28C722.21 281.28 732.802 277.087 740.526 268.702L780.246 291.541C763.916 314.27 739.864 325.634 708.088 325.634C680.284 325.634 657.996 317.359 641.226 300.809C624.676 284.259 616.401 263.406 616.401 238.25C616.401 213.315 624.565 192.572 640.895 176.022C657.445 159.251 678.629 150.866 704.447 150.866C728.499 150.866 748.47 159.251 764.358 176.022C780.466 192.572 788.521 213.315 788.521 238.25C788.521 245.311 787.859 251.931 786.535 258.11H669.03ZM668.037 221.038H739.202C734.347 203.605 722.652 194.889 704.116 194.889C684.918 194.889 672.891 203.605 668.037 221.038Z" fill="#031A61"/>
<path d="M913.665 150.866C931.318 150.866 945.992 156.934 957.688 169.071C969.604 181.208 975.562 197.978 975.562 219.383V321H925.912V226.665C925.912 216.956 923.153 209.563 917.637 204.488C912.341 199.192 905.5 196.544 897.115 196.544C887.626 196.544 880.123 199.413 874.607 205.15C869.09 210.887 866.332 219.383 866.332 230.637V321H816.682V155.5H866.332V171.057C876.262 157.596 892.039 150.866 913.665 150.866Z" fill="#031A61"/>
<path d="M1129.81 89.3H1179.46V321H1129.81V305.443C1118.11 318.904 1101.68 325.634 1080.49 325.634C1058.65 325.634 1040 317.249 1024.55 300.478C1009.11 283.487 1001.38 262.744 1001.38 238.25C1001.38 213.756 1009.11 193.124 1024.55 176.353C1040 159.362 1058.65 150.866 1080.49 150.866C1101.68 150.866 1118.11 157.596 1129.81 171.057V89.3ZM1061.96 267.709C1069.24 274.991 1078.73 278.632 1090.42 278.632C1102.12 278.632 1111.61 274.991 1118.89 267.709C1126.17 260.427 1129.81 250.607 1129.81 238.25C1129.81 225.893 1126.17 216.073 1118.89 208.791C1111.61 201.509 1102.12 197.868 1090.42 197.868C1078.73 197.868 1069.24 201.509 1061.96 208.791C1054.67 216.073 1051.03 225.893 1051.03 238.25C1051.03 250.607 1054.67 260.427 1061.96 267.709Z" fill="#031A61"/>
<defs>
<clipPath id="clip0_2_4">
<rect width="383" height="385" fill="white"/>
</clipPath>
</defs>
</svg>
