<svg xmlns="http://www.w3.org/2000/svg" xmlns:xlink="http://www.w3.org/1999/xlink" width="593" height="113" viewBox="0 0 593 113"><defs><clipPath id="b"><rect width="593" height="113"/></clipPath></defs><g id="a" clip-path="url(#b)"><g transform="translate(-0.24 -0.432)"><path d="M.24,75.527c1.824-5.351,5.412-9.4,9.612-13,2.339-2,4.763-3.918,7-6.024,3.184-3.012,3.588-5.3,1.922-9.367-1.6-3.869-3.673-7.6-4.788-11.6A62.522,62.522,0,0,1,11.713,9.172c.4-2.853,1.224-5.535,3.906-7.224a10.837,10.837,0,0,1,8.816-1A26.633,26.633,0,0,1,35.334,6.4a45.551,45.551,0,0,1,15.5,24.245c1.114,4.335.4,8.571-.82,12.71-2.18,7.273-4.629,14.473-6.967,21.7a.735.735,0,0,0,0,.624c.245-.38.465-.759.735-1.114,4.641-6.122,9.245-12.245,13.935-18.294,4.31-5.559,10.384-7.9,17.143-8.963,8.118-1.286,16.09-.98,23.779,2.229a24.184,24.184,0,0,1,8.375,5.547c4.114,4.31,4.237,9.073.086,13.322a45.71,45.71,0,0,1-6.857,5.706c-8.363,5.743-17.424,9.8-27.624,11.02a16.237,16.237,0,0,0-2.278.551,6.514,6.514,0,0,0-5.118,5.767c-.514,3.955-.771,7.959-1.224,11.939A28.641,28.641,0,0,1,60.583,104.8c-2.192,3.833-6.2,5.241-10.139,3.233A13.041,13.041,0,0,1,46,104.364c-2.8-3.747-5.327-7.7-7.91-11.608A32.471,32.471,0,0,1,36.007,88.9a10.714,10.714,0,0,1-1.151-7.849c-3.392,2.927-7.531,3.208-11.62,3.441-4.3.245-8.571.282-12.918.318-5.106,0-8.167-2.216-10.053-7.286Z" transform="translate(0)" fill="#a62648"/><path d="M410.445,107.491c-2.8-.392-5.633-.612-8.388-1.224a23.473,23.473,0,0,1-13.224-7.347,14.7,14.7,0,0,1-2.571-4.2,5.437,5.437,0,0,1,1.58-6.38,6.5,6.5,0,0,1,7.175-.233,19.726,19.726,0,0,1,2.559,2.18c3.245,3.037,6.82,5.4,11.376,5.914a18.367,18.367,0,0,0,9.8-1.224,11.5,11.5,0,0,0,7.286-10.763c.122-3.282,0-6.575,0-10.261-.343.465-.453.6-.551.747-4.714,7.886-12,10.58-20.731,9.8-9.416-.845-15.759-6.122-19.041-14.767a40.212,40.212,0,0,1,.147-29.767A22.837,22.837,0,0,1,416.922,27.52a19.1,19.1,0,0,1,7.886,7.029,5.265,5.265,0,0,0,1.31,1.433c0-1.322-.061-2.657,0-3.98.318-4.984,4.065-7.714,8.951-6.563a6.122,6.122,0,0,1,4.739,5.18,16.852,16.852,0,0,1,.171,2.449V82.732c0,5.951-1.42,11.412-5.486,15.918s-9.159,6.735-14.914,7.812c-2.339.429-4.739.612-7.1.906ZM426.192,55.23a24.881,24.881,0,0,0-2.216-10.775c-2.584-5.265-6.759-8.18-12.7-8.069s-9.894,3.269-12.1,8.645a26.853,26.853,0,0,0-.086,20.143c2.02,5.216,5.89,8.326,11.657,8.571,6.122.294,10.518-2.449,13.237-7.873a24.7,24.7,0,0,0,2.2-10.641Z" transform="translate(85.907 5.555)" fill="#a62648"/><path d="M115.773,40.227c.147-.233.318-.441.453-.673A20.461,20.461,0,0,1,136.92,29.4c9,1.114,15.282,5.89,18.588,14.167a41.853,41.853,0,0,1-.11,32.522,22.69,22.69,0,0,1-30.943,11.841,19.237,19.237,0,0,1-8.229-7.494A3.465,3.465,0,0,0,115.21,79.3v3.857c-.073,5.241-4.151,8.216-9.2,6.735a5.927,5.927,0,0,1-4.273-5.229,26.243,26.243,0,0,1-.11-2.78V14.354a6.869,6.869,0,0,1,13.653-.588,14.544,14.544,0,0,1,.147,2.192V40.117Zm-.331,19.935a22.616,22.616,0,0,0,2.706,11.3c2.657,4.727,6.661,7.347,12.171,7.224a12.5,12.5,0,0,0,11.926-8.216,27.036,27.036,0,0,0,0-21.49,12.441,12.441,0,0,0-11.314-8.229c-5.767-.355-9.967,2.278-12.759,7.2a23.657,23.657,0,0,0-2.731,12.208Z" transform="translate(22.76 1.676)" fill="#a62648"/><path d="M241.488,76.051a20.314,20.314,0,0,1-15.331,9.882,21.49,21.49,0,0,1-14.29-2.633c-5.988-3.575-8.669-9.012-8.363-15.918.282-6.612,3.869-11.02,9.8-13.788,4.9-2.241,10.053-2.731,15.294-3,3.918-.208,7.824-.4,11.731-.673.416,0,1.139-.539,1.139-.833a31.337,31.337,0,0,0-.282-5.975c-.71-3.673-3.588-6.208-7.653-6.882-6.22-1.016-11.326.71-14.939,6.122a6.931,6.931,0,0,1-6.306,3.318,5.473,5.473,0,0,1-5.461-6.735,13.886,13.886,0,0,1,5.657-8.449,27.245,27.245,0,0,1,13.029-4.9,34.726,34.726,0,0,1,17.069,1.555c8.18,3.049,12.575,9.306,12.6,18.012V79.443c0,4.971-3.673,7.788-8.571,6.673a5.914,5.914,0,0,1-4.678-5.669c-.086-1.433,0-2.89,0-4.335Zm-.22-17.143c-5.29.392-10.506.624-15.686,1.224a15.269,15.269,0,0,0-5.143,1.922,5.853,5.853,0,0,0-2.939,4.188c-.869,4.114,1.335,7.58,5.633,8.914,10.628,3.269,20.167-5.082,18.135-16.261Z" transform="translate(45.624 5.55)" fill="#a62648"/><path d="M167.245,59.142a14.559,14.559,0,0,0,15.6,16.58,17.351,17.351,0,0,0,13.09-7.09,6.771,6.771,0,0,1,4.4-2.9c4.347-.588,7.347,2.767,6.122,6.992a15.783,15.783,0,0,1-5.424,7.653,24.22,24.22,0,0,1-10.469,5.033,37.2,37.2,0,0,1-16.592.135c-9.429-2.118-15.808-7.739-18.784-16.886a39.722,39.722,0,0,1,.122-25.482c4.286-12.71,15.086-18.637,27.637-17.914,8.645.49,15.784,3.98,20.706,11.278a27.563,27.563,0,0,1,4.543,16.824c-.122,3.575-2.449,5.743-6.245,5.755h-32.9Zm.1-9.184H194.6c.171-6.245-3.882-13.6-12.441-13.984a13.751,13.751,0,0,0-14.816,13.984Z" transform="translate(34.325 5.56)" fill="#a62648"/><path d="M362.949,73.158q2.841-8.669,5.706-17.351c2.816-8.571,5.608-17.143,8.473-25.714,1.3-3.882,3.784-5.327,7.788-4.751a6.122,6.122,0,0,1,5.351,7.114A16.871,16.871,0,0,1,389.361,36c-6.588,17.706-13.175,35.388-19.9,53.02a53.341,53.341,0,0,1-4.494,9.012c-4.384,7.065-11.167,9.4-19.126,8.963a17.767,17.767,0,0,1-4.971-1.065,5.339,5.339,0,0,1-3.539-4.653,4.42,4.42,0,0,1,3.869-5.265,14.621,14.621,0,0,1,3.355-.122,8.375,8.375,0,0,0,8.461-4.9,24.785,24.785,0,0,0,1.665-4.2,2.964,2.964,0,0,0-.269-1.8q-9.2-24.282-18.453-48.539a18.766,18.766,0,0,1-.845-2.792c-1.029-4.9,2.033-8.571,7.029-8.412,3.282.061,5.106,1.457,6.269,4.9,2.363,7.078,4.678,14.167,7,21.257q3.38,10.212,6.735,20.412c.147.453.318.894.478,1.335Z" transform="translate(75.13 5.565)" fill="#a62648"/><path d="M493.791,55.852a39.07,39.07,0,0,1-3.073,15c-4.078,9.012-11.229,13.873-20.9,15.22a32.632,32.632,0,0,1-14.094-.98,24.49,24.49,0,0,1-16.947-16.053,38.155,38.155,0,0,1,.233-26.816c3.808-9.955,11.375-15.343,21.845-16.7a30.906,30.906,0,0,1,16,1.873c9.416,3.857,14.3,11.29,16.1,20.963C493.448,50.782,493.522,53.329,493.791,55.852Zm-14.253,0A26.424,26.424,0,0,0,477.187,43.9c-2.449-4.9-6.343-7.678-11.963-7.714a12.306,12.306,0,0,0-12.11,7.69,28.677,28.677,0,0,0-.073,23.755,12.245,12.245,0,0,0,12.037,7.8c5.633,0,9.661-2.706,12.11-7.739a26.45,26.45,0,0,0,2.351-11.8Z" transform="translate(97.924 5.557)" fill="#a62648"/><path d="M293.476,75.263a6.047,6.047,0,0,0-.367.6c-6.171,13.984-27.318,12.759-34.249,2.963a23.266,23.266,0,0,1-4.237-13.6q-.147-16.347,0-32.669c0-5.131,3.38-7.922,8.3-7.175a6.294,6.294,0,0,1,5.4,5.559,23.273,23.273,0,0,1,.147,2.914V60.667a27.393,27.393,0,0,0,.257,4.371c1.225,7.739,6.845,10.114,13.126,9.453,7.09-.735,11.351-5.9,11.412-13.567V31.916a6.624,6.624,0,0,1,7.041-6.673,6.465,6.465,0,0,1,6.747,6.771q.073,23.951,0,47.9a6.122,6.122,0,0,1-6.526,6.416,6.269,6.269,0,0,1-6.71-6.4c-.073-1.543,0-3.086,0-4.629Z" transform="translate(57.089 5.566)" fill="#a62648"/><path d="M311.433,39.6c-1.506,0-2.829.073-4.139,0a4.9,4.9,0,0,1-5.082-5.265c0-3.184,1.69-5.057,4.959-5.351.833-.073,1.665,0,2.449,0h1.763V26.256a56.478,56.478,0,0,1,.159-6.282c.429-3.894,3.073-6.122,6.98-6.012a6.318,6.318,0,0,1,6.7,6.294c.159,2.816,0,5.645,0,8.682h6.318c2.841,0,4.616,1.139,5.363,3.257a5.278,5.278,0,0,1-4.959,7.347c-2.143.1-4.286,0-6.575,0,0,.637-.073,1.224-.073,1.678V70.8c.245,4.175,1.641,5.633,5.792,6.049.686.073,1.371.147,2.033.282,2.045.441,3.673,1.359,4.114,3.673a5.069,5.069,0,0,1-2.216,5.755,14.167,14.167,0,0,1-4.371,1.518,22.947,22.947,0,0,1-9.612-.416,12.245,12.245,0,0,1-9.355-11.2,43.029,43.029,0,0,1-.233-4.531V41.611Z" transform="translate(67.785 3.035)" fill="#a62648"/></g></g></svg>