<svg xmlns="http://www.w3.org/2000/svg" xmlns:xlink="http://www.w3.org/1999/xlink" width="612" height="113" viewBox="0 0 612 113"><defs><clipPath id="b"><rect width="612" height="113"/></clipPath></defs><g id="a" clip-path="url(#b)"><g transform="translate(0.001)"><path d="M84.848,14.21c1.03.195,2.054.446,3.094.569a55.566,55.566,0,0,1,48.226,56.328c-.053,1.992-.4,3.982-.619,5.971a72.033,72.033,0,0,0-5.665-5.219,31.171,31.171,0,0,0-43.737,6.2,30.009,30.009,0,0,0-6.222,18.17,34.531,34.531,0,0,0,.619,6.72,28.355,28.355,0,0,0,7.669,14.992c1.927,1.971,4.164,3.638,6.259,5.445-2.033.427-4.062.876-6.1,1.272-1.272.247-2.555.415-3.836.619H76.494a1.645,1.645,0,0,0-.5-.272c-2.129-.309-4.282-.514-6.389-.928a54.074,54.074,0,0,1-32.234-19.673A55.643,55.643,0,0,1,26.146,59.487a53.72,53.72,0,0,1,12.406-25.8A54.306,54.306,0,0,1,73.388,14.813c1.145-.152,2.277-.381,3.4-.575Z" transform="translate(-25.2 -14.21)" fill="#04bebe"/><path d="M216.656,237.961c-2.094-1.807-4.331-3.474-6.259-5.445a28.354,28.354,0,0,1-7.669-14.992,34.533,34.533,0,0,1-.619-6.72,30.01,30.01,0,0,1,6.222-18.17,31.171,31.171,0,0,1,43.737-6.2,72.037,72.037,0,0,1,5.665,5.219,62.144,62.144,0,0,1-1.3,7.258q-8.836,29.515-38.273,38.79a11.448,11.448,0,0,1-1.507.263Z" transform="translate(-147.377 -128.782)" fill="#176373"/><path d="M445.111,142.055a33.325,33.325,0,0,1-.4,4.288c-.653,2.936-3.14,4.517-6.429,4.269a5.463,5.463,0,0,1-5.352-5.191c-.059-.668-.046-1.34-.046-2.011q0-23.964.016-47.935a12.516,12.516,0,0,1,.39-3.5c.8-2.7,3.205-4.044,6.475-3.818a5.485,5.485,0,0,1,5.21,4.656,16.089,16.089,0,0,1,.207,2.614c.019,5.052,0,10.1,0,15.16V112.4a5.654,5.654,0,0,0,.588-.7c3.214-6.048,9.547-8.468,16.088-7.608,7.06.928,11.645,5.037,13.922,11.577a33.983,33.983,0,0,1-.217,23.609c-2.209,5.894-6.376,9.786-12.765,10.856-7.527,1.262-14.086-1.386-17.359-7.679A2.56,2.56,0,0,0,445.111,142.055Zm.028-14.763a17.048,17.048,0,0,0,1.856,8.2c1.893,3.4,4.734,5.2,8.7,5.009a8.481,8.481,0,0,0,7.84-5.569,19.525,19.525,0,0,0-.028-15.6,8.836,8.836,0,0,0-4.2-4.57c-4.625-2.373-10.024-.449-12.487,4.458A18.106,18.106,0,0,0,445.139,127.292Z" transform="translate(-306.758 -65.261)" fill="#176373"/><path d="M771.111,142.051a33.911,33.911,0,0,1-.393,4.288c-.653,2.936-3.134,4.52-6.423,4.276a5.464,5.464,0,0,1-5.362-5.185c-.059-.665-.046-1.34-.046-2.008q0-23.967.016-47.935a12.519,12.519,0,0,1,.39-3.505c.8-2.7,3.2-4.047,6.469-3.824a5.486,5.486,0,0,1,5.216,4.641,16.048,16.048,0,0,1,.207,2.614c.018,5.049,0,10.1,0,15.16v1.807a5.43,5.43,0,0,0,.585-.681c3.214-6.058,9.547-8.471,16.088-7.614,7.063.928,11.651,5.03,13.922,11.571a33.993,33.993,0,0,1-.213,23.606c-2.228,5.965-6.463,9.869-12.91,10.9-7.27,1.16-13.826-1.259-17.214-7.7A2.671,2.671,0,0,0,771.111,142.051Zm.028-15.224a17.666,17.666,0,0,0,1.822,8.6,8.871,8.871,0,0,0,8.663,5.074,8.51,8.51,0,0,0,7.942-5.643,19.513,19.513,0,0,0-.1-15.6,8.724,8.724,0,0,0-4.235-4.529c-4.665-2.333-10.005-.368-12.446,4.57A17.847,17.847,0,0,0,771.139,126.826Z" transform="translate(-531.901 -65.263)" fill="#176373"/><path d="M937.988,141.888c0,1.2.031,2.116,0,3.029-.142,3.527-2.537,5.742-6.15,5.717-3.536-.022-5.838-2.206-5.909-5.751-.071-3.66-.028-7.32-.028-10.98V95.4a12.126,12.126,0,0,1,.309-3.054c.771-2.955,3.072-4.39,6.5-4.189a5.487,5.487,0,0,1,5.312,4.894,17.2,17.2,0,0,1,.176,2.475c.016,5.052,0,10.1,0,15.16v1.482l.241.059c.2-.328.411-.653.619-.984A14.319,14.319,0,0,1,951.431,104c8.424-.353,14.683,3.8,17.415,11.756a34.107,34.107,0,0,1-.226,23.463c-2.215,5.968-6.42,9.9-12.87,10.943-7.385,1.207-13.937-1.29-17.325-7.762A4.882,4.882,0,0,0,937.988,141.888Zm.161-14.036a16.365,16.365,0,0,0,1.754,7.462c1.856,3.471,4.712,5.368,8.752,5.188a8.5,8.5,0,0,0,7.929-5.662,19.456,19.456,0,0,0-.111-15.6,8.771,8.771,0,0,0-4.109-4.455c-4.666-2.426-10.129-.455-12.573,4.532a18.911,18.911,0,0,0-1.649,8.53Z" transform="translate(-647.235 -65.268)" fill="#176373"/><path d="M1532.072,157.094c0-1.238.093-2.323,0-3.388-.374-3.734-2.716-5.857-6.5-6.188a10.08,10.08,0,0,0-9.4,4.232,6.5,6.5,0,0,1-4.5,2.695c-4.068.529-6.806-2.636-5.609-6.55a11.4,11.4,0,0,1,6.252-6.9,28.818,28.818,0,0,1,15.339-2.6,21.946,21.946,0,0,1,8.588,2.3c5.176,2.695,7.908,6.946,7.945,12.79.056,8.4.019,16.809,0,25.211a11.16,11.16,0,0,1-.121,1.547c-.588,4.214-3.917,5.275-6.757,4.95-3.094-.34-4.882-2.37-5.055-5.634-.034-.619,0-1.238,0-2.119-.309.377-.492.538-.619.727-2.945,4.412-7.2,6.5-12.375,6.806a15.774,15.774,0,0,1-11.756-3.713c-5.909-5.031-6.531-16.505,2.429-20.948a28.382,28.382,0,0,1,11.038-2.6C1524.607,157.539,1528.255,157.323,1532.072,157.094Zm-.031,7.456c-3.641.244-7.116.433-10.605.742a9.4,9.4,0,0,0-2.784.811,4.81,4.81,0,0,0-3.2,4.95,4.987,4.987,0,0,0,3.515,4.6,10.657,10.657,0,0,0,5.47.368,8.7,8.7,0,0,0,7.6-7.425,38.912,38.912,0,0,0,.012-4.044Z" transform="translate(-1045.889 -99.902)" fill="#04bebe"/><path d="M1164.577,164.652c-.671,7.338,4.625,12.375,11.719,11.54a13.129,13.129,0,0,0,8.557-4.727,6.007,6.007,0,0,1,3.524-2.33,4.908,4.908,0,0,1,4.789,1.466,4.579,4.579,0,0,1,.662,4.95,12.684,12.684,0,0,1-4.241,5.4,21.974,21.974,0,0,1-11.58,4.251,27.939,27.939,0,0,1-12.2-1.222,18.334,18.334,0,0,1-11.865-11.923,29.634,29.634,0,0,1,.7-21.715c3.035-7.014,8.61-10.794,16.15-11.778a23.456,23.456,0,0,1,13.263,1.878c6.305,2.961,9.875,8.044,11.07,14.825a24.411,24.411,0,0,1,.309,4.3c0,3.168-1.807,5.018-4.978,5.055-5.569.062-11.138.025-16.706.031Zm19.036-7.558c-.381-6.274-4.331-9.9-10.21-9.591a9.465,9.465,0,0,0-8.687,9.591Z" transform="translate(-803.545 -99.924)" fill="#176373"/><path d="M1810.707,164.639a10.08,10.08,0,0,0,11.326,11.6,13.242,13.242,0,0,0,8.972-4.873c1.5-1.773,3.289-2.75,5.7-2.2a4.335,4.335,0,0,1,3.431,5.569,11.7,11.7,0,0,1-4.427,6.166,20.445,20.445,0,0,1-8.972,3.873,29.411,29.411,0,0,1-13.3-.371c-6.958-1.9-11.6-6.311-13.662-13.207a29.707,29.707,0,0,1,.9-20.694c3.06-7.153,8.662-11,16.338-11.967a23.057,23.057,0,0,1,14.621,2.639c5.46,3.094,8.514,7.914,9.591,14.027.2,1.111.238,2.249.328,3.375.291,3.713-1.525,6.144-5.878,6.082-7.778-.114-15.562-.031-23.343-.031Zm18.99-7.552c-.362-6.166-4.214-9.81-9.959-9.591a9.458,9.458,0,0,0-8.972,9.591Z" transform="translate(-1249.771 -99.917)" fill="#04bebe"/><path d="M626.787,176.421c-.111.21-.235.415-.331.619-2.784,6.333-8.418,8.564-14.748,8.081a15.032,15.032,0,0,1-10.946-5.3,16.43,16.43,0,0,1-3.669-10.593c-.105-8.192-.087-16.4-.022-24.58.037-4.619,3.4-7.15,7.9-6.126,2.642.6,4.316,2.744,4.384,5.792.065,2.936.022,5.878.022,8.814,0,4.173-.022,8.353.019,12.52a14.634,14.634,0,0,0,.356,3.369c1.055,4.3,4.065,6.008,8.245,5.878,4.752-.133,7.852-3.094,8.446-7.806a26.893,26.893,0,0,0,.21-3.233c.019-6.188,0-12.375.015-18.563a12.049,12.049,0,0,1,.164-2.475,5.737,5.737,0,0,1,6.274-4.563,5.6,5.6,0,0,1,5.7,5.2,21.214,21.214,0,0,1,.142,2.475V177.8a19.345,19.345,0,0,1-.118,2.166c-.377,3.428-2.574,5.327-6.042,5.259a5.5,5.5,0,0,1-5.724-5.476c-.083-1.074,0-2.166,0-3.242Z" transform="translate(-420.111 -99.872)" fill="#176373"/><path d="M1674.694,173.363c.962-3.18,1.934-6.358,2.89-9.541,2.082-6.939,4.139-13.885,6.246-20.818,1.1-3.617,3.793-5.17,7.345-4.331a5.386,5.386,0,0,1,4.211,6.522,44.025,44.025,0,0,1-1.785,5.569q-5.179,14.111-10.438,28.2c-.09.241-.189.48-.282.718-1.81,4.61-5.142,6.11-9.977,5.618-3.623-.368-5.863-2.475-7.116-5.8q-3.973-10.686-7.979-21.381c-1.207-3.227-2.432-6.444-3.6-9.68a26.246,26.246,0,0,1-.808-2.97c-1.04-4.489,2.67-7.509,6.958-6.942,2.695.356,4.1,2.166,4.842,4.588q1.856,6.119,3.712,12.248,2.555,8.483,5.108,16.976c.1.334.239.659.359.99Z" transform="translate(-1149.547 -100.013)" fill="#04bebe"/><path d="M1307.529,125.3c-1.117,0-1.986.037-2.852,0a4.592,4.592,0,0,1-.78-9.028,31.784,31.784,0,0,1,3.632-.343c0-1.061-.019-2.079,0-3.094s.047-1.958.149-2.927c.4-3.777,3.252-5.454,6.6-5.182,3.514.288,5.445,2.456,5.531,6.014.043,1.692,0,3.4,0,5.324.746,0,1.392-.025,2.036,0a23.123,23.123,0,0,1,3.681.229c2.379.492,3.555,2.385,3.3,4.987a4.115,4.115,0,0,1-4.084,4.022c-.77.043-1.547.022-2.32.028h-2.475c-.047.5-.118.928-.118,1.377v20.11a10.008,10.008,0,0,0,.226,1.986,3.15,3.15,0,0,0,3.041,2.784c.764.1,1.547.173,2.293.309,1.8.347,3.2,1.238,3.567,3.162a4.6,4.6,0,0,1-1.717,4.82,9.262,9.262,0,0,1-5.82,1.751,26.969,26.969,0,0,1-6.565-.671c-4.189-1.058-6.76-4.424-7.137-8.879-.124-1.485-.192-2.979-.2-4.474-.021-6.853,0-13.709,0-20.564Z" transform="translate(-905.905 -76.703)" fill="#04bebe"/><path d="M1091.846,119.353V95.221a11.71,11.71,0,0,1,.331-3.05c.78-2.843,3.094-4.242,6.451-4.05a5.485,5.485,0,0,1,5.306,4.727,14.514,14.514,0,0,1,.2,2.456q.019,24.042,0,48.087a13.634,13.634,0,0,1-.1,1.856,6.171,6.171,0,0,1-9.7,4.353,5.608,5.608,0,0,1-2.456-4.43c-.068-.715-.043-1.442-.043-2.166Q1091.842,131.184,1091.846,119.353Z" transform="translate(-761.836 -65.243)" fill="#176373"/><path d="M1971.224,119.42v23.822a16.787,16.787,0,0,1-.179,2.46c-.486,3.261-2.868,5.114-6.345,4.975a5.678,5.678,0,0,1-5.748-5.51c-.037-.563-.031-1.132-.031-1.7V95.381a12.019,12.019,0,0,1,.384-3.351c.807-2.7,3.177-4.022,6.469-3.824a5.492,5.492,0,0,1,5.219,4.641,16.1,16.1,0,0,1,.216,2.611Q1971.24,107.435,1971.224,119.42Z" transform="translate(-1360.668 -65.3)" fill="#04bebe"/><path d="M1423.872,147.421c.275-.811.514-1.637.829-2.429,1.646-4.127,5.052-6.463,9.151-6.3a4.868,4.868,0,0,1,5.024,4.972c.195,3.861-1.417,5.878-5.219,6.528a19.761,19.761,0,0,1-2.457.232c-4.127.179-6.571,2.534-6.862,6.67-.062.872-.068,1.751-.071,2.627V178.13a15.209,15.209,0,0,1-.207,2.456,5.437,5.437,0,0,1-4.811,4.727c-2.735.461-5.442-.619-6.466-2.849a9.773,9.773,0,0,1-.789-3.87c-.068-8.712-.034-17.427-.034-26.139v-8.044c.031-5.027,4.285-6.54,7.425-5.767a5.5,5.5,0,0,1,4.31,5.51c.053,1.077,0,2.166,0,3.239Z" transform="translate(-982.923 -100.015)" fill="#04bebe"/></g></g></svg>