<svg xmlns="http://www.w3.org/2000/svg" xmlns:xlink="http://www.w3.org/1999/xlink" width="545" height="106" viewBox="0 0 545 106"><defs><clipPath id="b"><rect width="545" height="106"/></clipPath></defs><g id="a" clip-path="url(#b)"><g transform="translate(0)"><path d="M586.316,1c6.2,3.3,12.372,6.634,18.592,9.883q20.653,10.776,41.351,21.449a2.019,2.019,0,0,1,1.235,2.125q-.053,20.761,0,41.518a33.455,33.455,0,0,0,.581,6.43c1.257,6.223,5.2,9.6,11.576,9.942a20.324,20.324,0,0,0,5.507-.411c5.053-1.133,8.172-5,8.855-10.754a47.486,47.486,0,0,0,.309-5.383q.037-20.384,0-40.746V33.509h14.207V78.73a30.41,30.41,0,0,1-2.239,12.193c-3.4,7.854-9.763,11.736-17.876,13.231-1.019.188-2.032.411-3.048.618h-9.574c-1.819-.408-3.651-.772-5.457-1.235-9.611-2.449-15.655-9.361-16.761-19.207a58.274,58.274,0,0,1-.361-6.31q-.056-17.135,0-34.282a2.158,2.158,0,0,0-1.368-2.23Q609.6,30,587.369,18.388a2.576,2.576,0,0,0-2.693-.022q-22.357,11.693-44.783,23.29a1.894,1.894,0,0,0-1.177,2q.043,29.031.022,58.063v1.751H524.288V72.7H495.6v30.724H481.083c-.022-.287-.083-.673-.083-1.059V41.215c0-4.667,3.178-7.786,7.872-7.786h6.588V59.591h28.778V58.136c0-7.721.031-15.442-.031-23.163a2.665,2.665,0,0,1,1.662-2.712q24.254-12.527,48.467-25.131C578.153,5.148,581.912,3.048,585.7,1Z" transform="translate(-332.754 -1)" fill="#010101"/><path d="M1200.9,174.328c-1.473-.309-2.965-.544-4.417-.927a45.821,45.821,0,0,1-5.735-1.726c-7.412-3.024-11.279-8.75-12.385-16.52-.133-.927-.2-1.853-.287-2.761-.028-.309,0-.618,0-1.032h13.787c.1.534.232,1.121.33,1.711a9.9,9.9,0,0,0,7.335,8.465,24.671,24.671,0,0,0,14.88-.241,7.051,7.051,0,0,0,5.025-5c1.106-4.092-.367-7.375-4.364-8.8-3.808-1.359-7.774-2.276-11.65-3.45s-7.721-2.418-11.585-3.641a8.39,8.39,0,0,1-.989-.42c-11.983-5.6-14.454-15.235-9.614-26.922,2.282-5.516,6.977-8.536,12.595-9.982a43.449,43.449,0,0,1,21.829-.105c8.8,2.242,14.148,8.49,15.2,17.512.111.967.21,1.933.309,2.885-3.311,0-6.538.148-9.741-.052a5.4,5.4,0,0,1-4.274-3.212c-2.415-4.515-6.393-6.461-11.254-6.575a29.271,29.271,0,0,0-7.888.927c-3.336.859-5.034,3.428-5.315,6.816-.247,2.959,1.418,4.923,3.734,6.449,3.329,2.19,7.171,2.956,10.924,4.015,5.476,1.544,10.97,3.067,16.338,4.942,6.637,2.319,10.078,7.3,10.226,14.272a30.784,30.784,0,0,1-1.066,9.117c-2.162,7.471-7.838,11.248-15.072,13.015-2.1.513-4.247.84-6.375,1.251Z" transform="translate(-814.531 -70.556)" fill="#010101"/><path d="M1596.9,174.26c-1.473-.309-2.965-.544-4.42-.927a45.6,45.6,0,0,1-5.735-1.723c-7.4-3.027-11.279-8.753-12.382-16.523-.133-.927-.2-1.853-.287-2.764-.028-.309,0-.618,0-1.025h13.787c.105.537.235,1.127.331,1.717a9.908,9.908,0,0,0,7.341,8.462,24.739,24.739,0,0,0,14.886-.244,7.132,7.132,0,0,0,4.985-4.858c1.2-4.086-.309-7.508-4.346-8.957-3.811-1.359-7.777-2.276-11.656-3.45s-7.721-2.421-11.582-3.644a7.949,7.949,0,0,1-.991-.423c-11.532-5.43-14.417-14.485-9.846-26.372,2.1-5.457,6.486-8.672,11.98-10.26a42.707,42.707,0,0,1,23.163-.253c8.521,2.273,13.713,8.586,14.729,17.425.111.967.207,1.93.309,2.875-3.274,0-6.455.136-9.617-.049a5.482,5.482,0,0,1-4.414-3.258c-2.387-4.457-6.316-6.4-11.118-6.544a29.362,29.362,0,0,0-7.9.88c-3.326.831-5.087,3.339-5.414,6.739-.309,3.039,1.384,5.037,3.752,6.588,3.329,2.184,7.175,2.946,10.93,4.015,5.427,1.523,10.859,3.088,16.193,4.9a14.269,14.269,0,0,1,10.1,11.752c.021.114.179.207.272.309v8.03c-.2.6-.454,1.192-.618,1.807-1.35,5.609-4.478,9.883-9.71,12.354a46.522,46.522,0,0,1-12.233,3.419Z" transform="translate(-1088.228 -70.488)" fill="#010101"/><path d="M1,111.515c1.121-2.5,2.573-4.664,5.473-5.312a9.3,9.3,0,0,1,1.98-.238c8.076,0,16.156-.093,24.232.052a33.325,33.325,0,0,1,7.9,1.133c6.653,1.767,10.924,6.134,12.734,12.761a30.4,30.4,0,0,1-.4,18.222c-2.56,7.449-7.984,11.625-15.668,12.533a129.935,129.935,0,0,1-13.4.374c-2.823.046-5.646,0-8.586,0v25.016H1Zm14.488,26.8c5.383,0,10.683.241,15.952-.068,5.392-.309,7.993-3.088,8.6-8.469a16.77,16.77,0,0,0-.1-3.833c-.522-4.481-3.209-7.357-7.675-7.619-5.176-.309-10.377-.191-15.569-.25-.392,0-.781.059-1.208.09Z" transform="translate(-1 -73.527)" fill="#010101"/><path d="M817.064,272.73c-1.164-1.106-1.053-2.2-.259-3.552,4.549-7.761,9.015-15.572,13.521-23.355,1.414-2.44,3.5-2.412,4.942.056q2.752,4.735,5.463,9.488c2.369,4.163,1.34,8.478-2.659,11.174a36.52,36.52,0,0,1-15.442,5.868,4.9,4.9,0,0,0-.927.33Z" transform="translate(-564.429 -168.958)" fill="#eddb14"/><path d="M261.33,105.986c5.51,0,10.742-.025,15.977.049.423,0,.97.618,1.235,1.093q6.486,11.118,12.879,22.262c.179.309.355.618.618,1.084.275-.386.519-.676.7-1,3.83-6.56,7.693-13.1,11.458-19.7a6.927,6.927,0,0,1,6.544-3.8c4.015.028,8.03,0,12.354,0l-.927,1.445q-10.1,15.751-20.22,31.5a2.084,2.084,0,0,0,0,2.588q10.133,16.468,20.186,32.982c.284.466.562.927.951,1.578-5.5,0-10.785.025-16.06-.046-.432,0-.994-.6-1.263-1.056q-6.523-10.995-12.971-22.027l-.683-1.112c-.355.587-.636,1.038-.9,1.495-4.222,7.224-8.428,14.46-12.694,21.659a2.326,2.326,0,0,1-1.566,1.059c-4.942.08-9.883.046-14.825.043-.185,0-.371-.022-.744-.049.334-.578.571-1.013.828-1.433q10.161-16.625,20.35-33.238a1.824,1.824,0,0,0-.031-2.307q-10.152-15.733-20.223-31.5C262.037,107.122,261.772,106.69,261.33,105.986Z" transform="translate(-180.928 -73.557)" fill="#010101"/><path d="M209.037,106v70H194.9c-.022-.442-.065-.883-.065-1.322V114a20.982,20.982,0,0,1,.068-2.162c.355-3.4,2.452-5.587,5.905-5.8C203.506,105.867,206.233,106,209.037,106Z" transform="translate(-134.964 -73.537)" fill="#010101"/><path d="M766.319,101.4a7.545,7.545,0,0,1,2.356.822c.945.757.466,1.736-.052,2.634q-4.979,8.6-9.926,17.221c-1.254,2.184-2.471,4.389-3.749,6.554-1.356,2.289-3.431,2.295-4.772,0q-2.882-4.92-5.692-9.883A7.872,7.872,0,0,1,746.911,108,38.43,38.43,0,0,1,766.319,101.4Z" transform="translate(-514.06 -70.392)" fill="#eddb14"/><path d="M874.718,185.952c1.955,0,3.913-.037,5.868,0a7.74,7.74,0,0,1,7.567,6.819A34.73,34.73,0,0,1,883.736,214c-.957,1.73-2.421,1.748-3.416.043Q873.282,202,866.311,189.893c-1.2-2.091-.065-3.916,2.387-3.95,2.008-.028,4.015,0,6.023,0Z" transform="translate(-598.731 -128.815)" fill="#eddb14"/><path d="M717.785,187.3c-1.955,0-3.91.043-5.868,0a7.736,7.736,0,0,1-7.554-6.825,34.711,34.711,0,0,1,4.413-21.218c.957-1.733,2.424-1.754,3.416-.056q7.017,12.045,13.972,24.152c1.211,2.109.1,3.922-2.366,3.956-2,.028-4.015,0-6.019,0Z" transform="translate(-486.972 -109.472)" fill="#eddb14"/><path d="M834.279,128.879H820.544c-2.665,0-3.706-1.782-2.384-4.1,1.905-3.351,3.827-6.7,5.816-9.994a7.835,7.835,0,0,1,10.318-3.153,35.517,35.517,0,0,1,15.442,13.96,2.827,2.827,0,0,1,.331,2.341,3,3,0,0,1-2.218.868c-4.528.077-9.055.037-13.589.037Z" transform="translate(-565.389 -76.894)" fill="#eddb14"/><path d="M735.676,269.822h13.589c2.73,0,3.746,1.8,2.375,4.2-1.853,3.261-3.706,6.523-5.636,9.744a7.859,7.859,0,0,1-10.55,3.175,35.539,35.539,0,0,1-15.226-13.775c-.4-.664-.76-1.853-.442-2.335a3.13,3.13,0,0,1,2.31-.97C726.617,269.776,731.145,269.822,735.676,269.822Z" transform="translate(-497.707 -186.789)" fill="#eddb14"/><path d="M1434.64,105.931v12.045h-36.348v15.291h27.28a61.639,61.639,0,0,1-.618,7.857c-.534,2.631-3.07,4-6.566,4.015-6.177.031-12.354,0-18.531,0h-1.6v17.947h36.354v12.863h-50.527c-.022-.426-.065-.871-.065-1.316V112.864c.139-4.324,2.52-6.773,6.835-6.921,2.264-.077,4.531-.028,6.795-.028h36.984Z" transform="translate(-956.881 -73.502)" fill="#010101"/></g></g></svg>