<svg xmlns="http://www.w3.org/2000/svg" xmlns:xlink="http://www.w3.org/1999/xlink" width="535" height="198" viewBox="0 0 535 198"><defs><clipPath id="b"><rect width="535" height="198"/></clipPath></defs><g id="a" clip-path="url(#b)"><g transform="translate(0 -0.005)"><path d="M112.787,79.925A55.717,55.717,0,0,1,183.992,7.5c2.607.9,4.784-1.647,7.175-2.549,6.489-2.431,13.1-5,20.017-3.509,10.606,2.235,14.527,10.018,11.626,21.86-4.254,17.919-14.743,32.387-26.506,45.974-16.135,18.664-34.407,34.8-57.207,45.091a43.641,43.641,0,0,1-15.155,4.254c-13.723.784-20.507-8.156-17.272-22.173a73.889,73.889,0,0,1,6.117-16.527Zm25.094,28.6a56.717,56.717,0,0,1-21.86-21.742A44.366,44.366,0,0,0,112,101.549c-.275,4.764.529,9.273,5.979,10.626C124.9,113.9,131.235,111.077,137.882,108.528ZM213.615,32.99c1.078-3.2,2.117-6,2.96-8.861,2.235-7.607,1.137-13.488-2.882-15.821s-18.193-.549-21.7,2.98a51.6,51.6,0,0,1,12.155,9.175,58.169,58.169,0,0,1,9.469,12.528Z" transform="translate(95.966 -1)" fill="#1c84e1"/><path d="M121.152,111.432,98.587,76.144H81.04v35.289H55.75V3.605H68.474c14.606.353,29.251-1.039,43.8.921,16.507,2.2,28.6,13.194,31.074,27.447,3.1,17.88-3.352,31.054-19.468,39.778l-.255.216,26.271,39.524ZM81.08,54.813c8.273-.412,16.468.588,24.6-.686,7.528-1.176,11.959-5.627,12.626-12.43.745-7.626-1.96-12.861-8.058-14.939-9.528-3.2-19.409-1.157-29.172-1.961Z" transform="translate(47.823 1.35)" fill="#1c84e1"/><path d="M194.58,111.4H164.82l39.21-56.266L168.878,3.55h30.133c7.019,10.783,14.076,21.565,21.193,32.485,6.9-10.94,13.723-21.722,20.448-32.485h29.819l-35.5,51.855L274.49,111.3H244.2q-12.684-18.37-25.486-37.112C210.578,86.773,202.54,99.007,194.58,111.4Z" transform="translate(152.584 1.444)" fill="#1c84e1"/><path d="M3,3.767a.738.738,0,0,1,.274-.118c18.331.392,36.72-1.274,54.992.9C78.067,6.9,90.634,21.627,90.5,41.369c-.1,19.272-13.116,33.583-32.6,36.132-9.8,1.274-19.6.353-29.525.8v33.172H3ZM28.369,56.8H45.111a43.132,43.132,0,0,0,6.352-.569c7.842-1.235,12.135-5.45,13.312-12.782,1.1-6.783-1.666-13.1-7.293-15.684-9.352-4.431-19.37-1.96-29.113-2.745Z" transform="translate(-2.843 1.306)" fill="#1c84e1"/><path d="M275.088,48.337,298.947,3.618h27.329l-16.194,28.31-22.467,39.21a3.568,3.568,0,0,0-.412,1.686v38.485h-25.29c0-8.411,0-31.623.157-39.778-5.156-9.1-6.587-11.763-13.724-23.212-8.1-14.763-16.664-29.29-25.035-43.915l-.451-.9h28.368C259.11,18.4,267.03,33.241,275.088,48.337Z" transform="translate(208.331 1.396)" fill="#1c84e1"/><path d="M160.339,135.329H147.4V67.3h12.939l33.7,47.62V67.3h12.92v68.029H194l-33.662-47.62Z" transform="translate(135.852 62.676)" fill="#1c84e1"/><path d="M214.1,123.664h36.132v11.665H200.77V67.3h49.012V78.887H214.121V94.825h34.524v11.645H214.1Z" transform="translate(187.114 62.676)" fill="#1c84e1"/><path d="M2.92,67.2c12.332.882,24.722-1.333,36.838,1.412,11.371,2.568,17.8,11.959,16.88,23.526-.9,11.253-9.136,19.487-21.036,20.37-6.391.471-12.841,0-19.409,0v22.938H2.92Zm13.331,34.367c6.2-.314,12.39.608,18.487-.8a9.8,9.8,0,0,0,8.352-9.058c.471-4.862-.921-9.018-5.705-11.1-6.823-2.98-14.076-1.2-21.134-1.784Z" transform="translate(-2.92 62.561)" fill="#1c84e1"/><path d="M120.107,67.29h13.723q13.135,33.936,26.29,67.97h-14.1l-5.646-15.311H112.932c-1.96,5.117-3.705,10.214-5.548,15.331H93.66Zm6.666,14.763-9.548,26.212h19.1Z" transform="translate(84.235 62.666)" fill="#1c84e1"/><path d="M304.309,78.926H281.724v56.4H268.413V78.945h-22.7V67.3h58.6Z" transform="translate(230.279 62.676)" fill="#1c84e1"/><path d="M196.259,24.89A54.894,54.894,0,0,1,178.615,78.9C164.538,91.037,148.207,94.939,129.72,91.39a199.05,199.05,0,0,0,66.539-66.5Z" transform="translate(118.871 21.941)" fill="#1c84e1"/><path d="M64.522,123.655H99.066V135.32H51.21V67.31H64.522Z" transform="translate(43.462 62.686)" fill="#1c84e1"/></g></g></svg>