<svg xmlns="http://www.w3.org/2000/svg" width="30.432" height="27.276" viewBox="0 0 30.432 27.276">
  <g id="Group_254" data-name="Group 254" transform="translate(11378.886 -12690.652)">
    <path id="instagram" d="M8.515,6.386A2.129,2.129,0,0,0,6.386,4.257,2.129,2.129,0,0,0,4.257,6.386,2.129,2.129,0,0,0,6.386,8.515,2.129,2.129,0,0,0,8.515,6.386Zm1.147,0A3.265,3.265,0,0,1,6.386,9.662,3.265,3.265,0,0,1,3.11,6.386,3.265,3.265,0,0,1,6.386,3.11,3.265,3.265,0,0,1,9.662,6.386Zm.9-3.409a.765.765,0,1,1-1.305-.54.765.765,0,0,1,1.305.54ZM6.386,1.147l-.636,0q-.578,0-.877,0t-.8.025a6.557,6.557,0,0,0-.856.083,3.3,3.3,0,0,0-.594.154A2.175,2.175,0,0,0,1.405,2.619a3.337,3.337,0,0,0-.154.595,6.557,6.557,0,0,0-.083.856q-.021.5-.025.8t0,.877q0,.578,0,.636t0,.636q0,.578,0,.877t.025.8a6.557,6.557,0,0,0,.083.856,3.317,3.317,0,0,0,.154.594,2.175,2.175,0,0,0,1.214,1.214,3.337,3.337,0,0,0,.595.154,6.558,6.558,0,0,0,.856.083q.5.021.8.025t.877,0l.636,0,.636,0q.578,0,.877,0t.8-.025a6.557,6.557,0,0,0,.856-.083,3.337,3.337,0,0,0,.595-.154,2.175,2.175,0,0,0,1.214-1.214,3.337,3.337,0,0,0,.154-.595A6.558,6.558,0,0,0,11.6,8.7q.021-.5.025-.8t0-.877q0-.578,0-.636t0-.636q0-.578,0-.877t-.025-.8a6.557,6.557,0,0,0-.083-.856,3.273,3.273,0,0,0-.155-.594,2.175,2.175,0,0,0-1.214-1.214,3.337,3.337,0,0,0-.595-.154A6.557,6.557,0,0,0,8.7,1.168q-.5-.021-.8-.025t-.877,0l-.636,0Zm6.386,5.239q0,1.9-.042,2.636A3.9,3.9,0,0,1,11.7,11.7a3.9,3.9,0,0,1-2.678,1.031q-.732.042-2.636.042T3.75,12.731A3.9,3.9,0,0,1,1.073,11.7,3.9,3.9,0,0,1,.042,9.022Q0,8.29,0,6.386T.042,3.75A3.9,3.9,0,0,1,1.073,1.073,3.9,3.9,0,0,1,3.75.042Q4.482,0,6.386,0T9.022.042A3.9,3.9,0,0,1,11.7,1.073,3.9,3.9,0,0,1,12.731,3.75Q12.772,4.482,12.772,6.386Z" transform="translate(-11378.886 12698.747)" fill="#031a61"/>
    <path id="twitter" d="M17.016,1.615a7.182,7.182,0,0,1-1.721,1.774q.01.149.01.446a9.751,9.751,0,0,1-.4,2.758,9.967,9.967,0,0,1-1.227,2.64,10.377,10.377,0,0,1-1.961,2.237,8.724,8.724,0,0,1-2.741,1.551,10.047,10.047,0,0,1-3.432.579,9.531,9.531,0,0,1-5.27-1.541A7.342,7.342,0,0,0,1.1,12.1a6.718,6.718,0,0,0,4.261-1.466A3.437,3.437,0,0,1,2.15,8.256a4.365,4.365,0,0,0,.648.053,3.557,3.557,0,0,0,.9-.117A3.375,3.375,0,0,1,1.73,7.007,3.314,3.314,0,0,1,.95,4.824V4.782A3.4,3.4,0,0,0,2.5,5.217,3.427,3.427,0,0,1,1.385,4,3.349,3.349,0,0,1,.971,2.359,3.361,3.361,0,0,1,1.438.627,9.721,9.721,0,0,0,4.568,3.161,9.567,9.567,0,0,0,8.515,4.218a3.812,3.812,0,0,1-.085-.786A3.307,3.307,0,0,1,9.434,1a3.44,3.44,0,0,1,4.936.08A6.717,6.717,0,0,0,16.548.255a3.334,3.334,0,0,1-1.509,1.891,6.841,6.841,0,0,0,1.976-.531Z" transform="translate(-11365.47 12704.327)" fill="#031a61"/>
    <path id="facebook-f" d="M8.613.11V2.537H7.169A1.351,1.351,0,0,0,6.1,2.868a1.523,1.523,0,0,0-.276.993V5.6H8.52L8.162,8.319H5.828V15.3H3.015V8.319H.671V5.6H3.015v-2A3.556,3.556,0,0,1,3.971.942,3.467,3.467,0,0,1,6.517,0,15.188,15.188,0,0,1,8.613.11Z" transform="translate(-11364.251 12690.652)" fill="#031a61"/>
  </g>
</svg>
