<svg xmlns="http://www.w3.org/2000/svg" width="23.376" height="25.174" viewBox="0 0 23.376 25.174">
  <path id="hand-pointer-o" d="M8.991,1.8a1.732,1.732,0,0,0-1.271.527A1.733,1.733,0,0,0,7.193,3.6V16.184L5.071,13.346a1.8,1.8,0,0,0-1.5-.759,1.682,1.682,0,0,0-1.25.534,1.792,1.792,0,0,0-.155,2.346L7.557,22.66a1.7,1.7,0,0,0,1.433.717H19.077a.887.887,0,0,0,.555-.19.841.841,0,0,0,.316-.485l1.292-5.17a11.2,11.2,0,0,0,.337-2.725V11.759a1.411,1.411,0,0,0-.394-1,1.262,1.262,0,0,0-.955-.422,1.344,1.344,0,0,0-1.349,1.349h-.45v-.857a1.6,1.6,0,0,0-.45-1.145,1.49,1.49,0,0,0-1.124-.471,1.583,1.583,0,0,0-1.573,1.573v.9h-.45V10.425a1.873,1.873,0,0,0-.52-1.327,1.688,1.688,0,0,0-1.277-.557,1.8,1.8,0,0,0-1.8,1.8v1.349h-.45V3.68a1.873,1.873,0,0,0-.52-1.327A1.685,1.685,0,0,0,8.991,1.8Zm0-1.8a3.4,3.4,0,0,1,2.55,1.089A3.614,3.614,0,0,1,12.587,3.68V6.771q.309-.028.45-.028a3.449,3.449,0,0,1,2.43.969,3.37,3.37,0,0,1,1.391-.3A3.181,3.181,0,0,1,19.442,8.64a3.112,3.112,0,0,1,.787-.1,2.982,2.982,0,0,1,2.234.948,3.155,3.155,0,0,1,.913,2.269v3.048a12.644,12.644,0,0,1-.394,3.161l-1.292,5.17a2.691,2.691,0,0,1-2.613,2.037H8.991a3.527,3.527,0,0,1-1.608-.386,3.642,3.642,0,0,1-1.271-1.046L.717,16.549a3.607,3.607,0,0,1,.33-4.7,3.412,3.412,0,0,1,2.522-1.06,3.516,3.516,0,0,1,1.827.492V3.6A3.465,3.465,0,0,1,6.449,1.054,3.464,3.464,0,0,1,8.991,0Zm1.8,19.78V14.386h-.45V19.78Zm3.6,0V14.386h-.45V19.78Zm3.6,0V14.386h-.45V19.78Z" fill="#031a61"/>
</svg>
