<svg xmlns="http://www.w3.org/2000/svg" width="27.946" height="22.357" viewBox="0 0 27.946 22.357">
  <path id="image" d="M9.315,6.521A2.783,2.783,0,0,1,6.521,9.315,2.783,2.783,0,0,1,3.726,6.521,2.783,2.783,0,0,1,6.521,3.726,2.783,2.783,0,0,1,9.315,6.521Zm14.9,5.589v6.521H3.726V15.836l4.658-4.658,2.329,2.329,7.452-7.452Zm1.4-10.247H2.329a.472.472,0,0,0-.466.466v17.7a.472.472,0,0,0,.466.466H25.617a.472.472,0,0,0,.466-.466V2.329a.472.472,0,0,0-.466-.466Zm2.329.466v17.7a2.335,2.335,0,0,1-2.329,2.329H2.329a2.243,2.243,0,0,1-1.645-.684A2.243,2.243,0,0,1,0,20.028V2.329A2.243,2.243,0,0,1,.684.684,2.243,2.243,0,0,1,2.329,0H25.617a2.243,2.243,0,0,1,1.645.684,2.243,2.243,0,0,1,.684,1.645Z" fill="#031a61"/>
</svg>
