<svg xmlns="http://www.w3.org/2000/svg" width="28.086" height="23.765" viewBox="0 0 28.086 23.765">
  <path id="quote-right" d="M12.962,3.241V15.123a8.416,8.416,0,0,1-.683,3.35A8.559,8.559,0,0,1,7.671,23.08a8.428,8.428,0,0,1-3.351.684H3.24a1.038,1.038,0,0,1-.76-.321,1.038,1.038,0,0,1-.321-.76v-2.16a1.038,1.038,0,0,1,.321-.76,1.038,1.038,0,0,1,.76-.321H4.32a4.163,4.163,0,0,0,3.055-1.266,4.163,4.163,0,0,0,1.266-3.055v-.54a1.614,1.614,0,0,0-1.62-1.62H3.241a3.123,3.123,0,0,1-2.3-.946A3.128,3.128,0,0,1,0,9.722V3.241A3.123,3.123,0,0,1,.946.946,3.129,3.129,0,0,1,3.241,0H9.722a3.123,3.123,0,0,1,2.3.946,3.129,3.129,0,0,1,.946,2.3Zm15.123,0V15.123a8.416,8.416,0,0,1-.683,3.35,8.559,8.559,0,0,1-4.607,4.607,8.428,8.428,0,0,1-3.351.684h-1.08a1.1,1.1,0,0,1-1.08-1.08v-2.16a1.1,1.1,0,0,1,1.08-1.08h1.08a4.323,4.323,0,0,0,4.321-4.321v-.54a1.614,1.614,0,0,0-1.62-1.62H18.363a3.228,3.228,0,0,1-3.241-3.241V3.241a3.123,3.123,0,0,1,.946-2.3A3.129,3.129,0,0,1,18.363,0h6.481a3.123,3.123,0,0,1,2.3.946,3.129,3.129,0,0,1,.946,2.3Z" fill="#031a61"/>
</svg>
