<svg xmlns="http://www.w3.org/2000/svg" width="17.854" height="17.854" viewBox="0 0 17.854 17.854">
  <path id="arrows" d="M17.853,8.927a.613.613,0,0,1-.189.448l-2.551,2.551a.638.638,0,0,1-1.086-.448V10.2H10.2v3.826h1.275a.634.634,0,0,1,.448,1.086L9.374,17.664a.625.625,0,0,1-.9,0L5.927,15.114a.638.638,0,0,1,.448-1.086H7.651V10.2H3.826v1.275a.634.634,0,0,1-1.086.448L.189,9.375a.625.625,0,0,1,0-.9L2.74,5.928a.638.638,0,0,1,1.086.448V7.651H7.652V3.826H6.376a.634.634,0,0,1-.448-1.086L8.478.189a.625.625,0,0,1,.9,0L11.925,2.74a.638.638,0,0,1-.448,1.086H10.2V7.652h3.826V6.376a.634.634,0,0,1,1.086-.448l2.551,2.551a.613.613,0,0,1,.189.448Z" fill="#031a61"/>
</svg>
