<svg xmlns="http://www.w3.org/2000/svg" width="25" height="24.999" viewBox="0 0 25 24.999">
  <path id="phone" d="M25,19.744A5.861,5.861,0,0,1,24.821,21a7.046,7.046,0,0,1-.373,1.216,4.762,4.762,0,0,1-2.166,1.882,6.883,6.883,0,0,1-3.3.906,7.086,7.086,0,0,1-.941-.062,7.2,7.2,0,0,1-1.021-.222q-.559-.16-.835-.258t-.985-.364q-.71-.267-.87-.319A16.074,16.074,0,0,1,11.221,22.3a26.768,26.768,0,0,1-4.687-3.835A26.768,26.768,0,0,1,2.7,13.778a16.1,16.1,0,0,1-1.474-3.107q-.053-.16-.319-.87T.542,8.816q-.1-.275-.258-.835A7.359,7.359,0,0,1,.062,6.96,6.924,6.924,0,0,1,0,6.019a6.886,6.886,0,0,1,.906-3.3A4.762,4.762,0,0,1,2.787.551,7.072,7.072,0,0,1,4,.178,5.853,5.853,0,0,1,5.255,0a.991.991,0,0,1,.373.053Q5.948.16,6.569,1.4q.2.337.533.959t.622,1.128q.284.506.551.95.053.071.31.444a5.056,5.056,0,0,1,.382.631,1.146,1.146,0,0,1,.124.506,1.473,1.473,0,0,1-.506.887,8.673,8.673,0,0,1-1.1.976,10.714,10.714,0,0,0-1.1.941,1.353,1.353,0,0,0-.506.817,1.2,1.2,0,0,0,.089.4q.089.24.151.364t.249.426q.187.3.2.337a18.633,18.633,0,0,0,3.089,4.173,18.634,18.634,0,0,0,4.173,3.089q.035.018.337.2t.426.249a3.728,3.728,0,0,0,.364.151,1.221,1.221,0,0,0,.4.089,1.353,1.353,0,0,0,.817-.506,10.714,10.714,0,0,0,.941-1.1,8.673,8.673,0,0,1,.976-1.1,1.473,1.473,0,0,1,.887-.506,1.159,1.159,0,0,1,.506.124,4.945,4.945,0,0,1,.631.382q.373.258.444.31.444.267.95.551t1.128.622q.622.337.959.533,1.243.622,1.349.941a.991.991,0,0,1,.053.373Z" fill="#031a61"/>
</svg>
