<svg xmlns="http://www.w3.org/2000/svg" width="24.126" height="9.279" viewBox="0 0 24.126 9.279">
  <path id="align-left" d="M24.126,6.5V8.352a.942.942,0,0,1-.928.928H.928A.892.892,0,0,1,.276,9,.893.893,0,0,1,0,8.351V6.5a.892.892,0,0,1,.276-.652.892.892,0,0,1,.652-.276H23.2a.942.942,0,0,1,.928.928ZM18.558.928V2.784a.892.892,0,0,1-.276.652.892.892,0,0,1-.652.276H.928a.892.892,0,0,1-.652-.276A.892.892,0,0,1,0,2.784V.928A.892.892,0,0,1,.276.276.892.892,0,0,1,.928,0h16.7a.892.892,0,0,1,.652.276.892.892,0,0,1,.276.652Z" fill="#031a61"/>
</svg>
